<svg width="113" height="284" viewBox="0 0 113 284" fill="none" xmlns="http://www.w3.org/2000/svg">
<path d="M41 82L43 78L35 70L26 72.5C26.3333 72.8333 26.6 74.1 25 76.5C25.6667 77 27.8 77.4 31 75C31.1667 76 30 78.5 24 80.5C26 81.1667 31.5 81.6 37.5 78L35 83.5C36.1667 83.5 38.9 82.5 40.5 78.5L41 82Z" fill="#705F4F"/>
<path d="M16.5992 162.776C17.5609 155.978 19.3874 135.371 19.0002 107.328L28.3815 110.236L35.1843 138.057L28.2855 181.799C27.4313 182.263 24.3372 182.829 18.7944 181.388C16.9628 181.309 12.9305 180.434 11.4545 177.567C10.8101 177.039 9.79034 174.392 10.8665 168.033C11.3148 165.383 13.0891 160.622 16.5992 162.776Z" fill="#E3D0B4"/>
<path d="M17.5 272L24.5 268L34 269L28.5 273.5L17.5 272Z" fill="#E8E4E4" stroke="#F3F3F3" stroke-width="0.4"/>
<path d="M75.5 271.5L81 266.5H91L86 271.5H75.5Z" fill="#F3F3F3"/>
<path d="M56 188V197" stroke="black" stroke-opacity="0.08" stroke-width="3" stroke-linecap="round"/>
<path d="M21 255.5C23 239.5 24.0007 212.5 31 176.5L54.5016 187.5C55.3349 197.667 50.5 218.5 45.5016 255.5H21Z" fill="#E3D0B4"/>
<path d="M78 255.5C78 251.5 73 242.5 66.5 182.5L92 169C97.5 190 103 236.5 103 255.5H78Z" fill="#EBD7BA"/>
<path d="M79.5 252H76.5L77 265.5L81 267L79.5 252Z" fill="#373737"/>
<path d="M88.9984 267H80.9984L79.4984 253.5C78.8318 251.167 78.8984 246.5 84.4984 246.5C85.9984 246 89.3984 246.2 90.9984 251C90.9984 254.5 92.1984 256.6 88.9984 267Z" fill="#F3F3F3"/>
<path d="M35.4782 255.361L31.957 269.507L23.4988 269.507L24.017 249.433C24.8632 247.122 27.6593 243.15 32.0743 245.748C34.1964 246.453 37.848 249.362 35.4782 255.361Z" fill="#E8E4E4"/>
<path d="M104 250L90 251L88 251.5L89 267.5L84.5 271C81.5 270.5 79.5 270 76 271L81 267L77 265.5L76 267.5L70 272.5L82.5 282.5C91.3333 281.667 106 280.5 106 277L104 250Z" fill="#373737"/>
<path d="M79 254L89.5 261L80.5 266L85 271.5" stroke="black" stroke-width="0.4"/>
<path d="M75.5 270.5L89 267.5L79.5 259.5L89 254H79.5" stroke="black" stroke-width="0.4"/>
<path d="M67.4983 282C69.8317 282.667 76.8983 283.6 86.4983 282C86.3322 279.667 85.2 274.6 82 273C79.6667 272.167 73.9997 270.9 69.9983 272.5C68.165 273.833 65.0983 277.6 67.4983 282Z" fill="#F3F3F3" stroke="#F3F3F3" stroke-width="0.4"/>
<path d="M35 252L47 252.5L42.5 279.5C42.5 280.5 41.8 282 37 282L24 283L14.5 272.5L19 268L20.5 251L25 252L24 269L19.5 272C21.1667 271.5 25.1 270.9 27.5 272.5L31.5 269L33 252.5L35 252Z" fill="#2E2E2E"/>
<path d="M24.9982 283C22.6649 283.333 14.2982 283.3 9.4982 282.5C9.33154 281.667 9.0982 279.5 9.4982 277.5C9.66487 276.167 10.8982 273.3 14.4982 272.5C17.3315 272.333 23.3982 272.8 24.9982 276C25.4982 277.667 26.1982 281.4 24.9982 283Z" fill="#E8E4E4" stroke="#F3F3F3" stroke-width="0.4"/>
<path d="M27.5 273L23.5 267.5L32.5 262.5L24 254L34 255L24 261.5L32 268.5L19.5 272" stroke="black" stroke-width="0.4"/>
<path d="M27.5 197L29.5 171.5L60.5 185.5L59.5 202.5C53.8333 202.333 37.5 201 27.5 197Z" fill="#76A7C2"/>
<path d="M29.9786 154C45.3119 156.667 78.8786 159.2 90.4786 148C93.479 157.333 99.9798 179.8 101.98 195C99.3132 197.167 84.5798 202 62.9798 202L61.4798 186C40 185.5 28.9999 182.5 28.9968 177.5C28.9961 176.221 27.9913 168.5 29.9786 154Z" fill="#77ADCC"/>
<path d="M71.5 78.5L67 75.5L68.5 63L83 54C83.1667 57 85.8 63.6 95 66C92.6667 67.3333 85.9 69.1 77.5 65.5C76.8333 66.8333 77.3 70.1 84.5 72.5C83.5 73.5 79.7 74.6 72.5 71C72.1667 71.6667 72.2 73.8 75 77C73.6667 76.8333 70.8 75.8 70 73C69.5 73.1667 69.1 74.5 71.5 78.5Z" fill="#705F4F"/>
<path d="M43.5 84.5V73L67.5 69L68.5 81C70.8333 81.6667 76 83.7 78 86.5L72.5 94L38 93V86.5C39 86 41.5 84.9 43.5 84.5Z" fill="#E3D0B4"/>
<path d="M20.5141 95.3821C22.2001 91.1178 28.8129 84.0305 39.864 87.7121L28.249 113.233C26.9169 113.176 22.7892 114.498 17.3675 110.26C17.454 108.262 17.9086 100.074 20.5141 95.3821Z" fill="#E6E6E6"/>
<path d="M50.4994 91.5C55.4994 92.3333 66.8994 91.8 72.4994 83L87.001 85.5C88.6677 85.3333 91.901 86.6 91.501 93L92.001 106.5L95.001 161C87.1677 163.667 63.7994 167.6 26.9994 164L24.001 118.5C23.3344 111.5 23.7 96 28.5 90C30.8333 88 35.4994 84.5 41.4994 84.5C41.8327 86.6667 44.0994 91.1 50.4994 91.5Z" fill="#EDEDED"/>
<path d="M80.4995 111.5C83.6661 112.167 93.5 110.4 99.5 104C98.1667 99.6666 94.5 90.2 90.5 87C87.8333 85.1666 81.4999 82.9 77.4995 88.5C75.9995 90.3333 73.8995 95.7 77.4995 102.5L80.4995 111.5Z" fill="#F3F3F3"/>
<path d="M94.5 165C94.3333 159.667 92 141.3 84 110.5L96.5 105C100.833 115.833 109.5 143.1 109.5 165.5C110.5 165.333 112.5 166.6 112.5 173C112.833 175.167 112.7 180 109.5 182C109.167 182.667 106.1 183.8 96.5 183C93.1667 182.833 86.9 180.6 88.5 173C88.6667 170 90.1 164.2 94.5 165Z" fill="#EBD7BA"/>
<ellipse cx="47.5" cy="44.5" rx="36.5" ry="34.5" fill="#EBD7BA"/>
<path d="M46.2749 1.84465C61.9586 -2.05032 73.4825 6.40091 77.5 11.5C90.3 26.3 90.8333 40 89.5 45C87.5 55.8 90.6667 58.5 92.5 58.5C84.9168 58.5 82.9772 54.0446 82.9057 50.8928C82.7145 57.5398 86.4703 60.7193 88.5 61.5C80.9 62.3 77.6667 59.5 77 58L67.5 30.5L41 25.5L17 33L15.5 41C17.9 59 23.8333 64.1667 26.5 64.5C23.4197 64.5 21.434 64.3366 20.2039 64.0957C24.1865 68.8814 27.9855 68.7572 29.5 68C24.7 75.2 18.5 72.3333 16 70C12.8 69.2 9.66667 58 8.5 52.5C5.3 55.3 2.16667 53.6667 1 52.5C6.2 50.1 7.16667 46.5 7 45C3.4 31.4 8.16667 20 11 16C17.4 6.39999 28.3333 3.33332 33 2.99999C36.6959 0.725587 42.1262 1.0107 46.2749 1.84465Z" fill="#84705D"/>
<path d="M41 3.99999L42.5 2.99999C60.1 -3.40001 73.1667 5.99999 77.5 11.5C90.3 26.3 90.8333 40 89.5 45C87.5 55.8 90.6667 58.5 92.5 58.5C83.7 58.5 82.5 52.5 83 49.5C82.2 57.1 86.3333 60.6667 88.5 61.5C80.9 62.3 77.6667 59.5 77 58L67.5 30.5L41 25.5L17 33L15.5 41C17.9 59 23.8333 64.1667 26.5 64.5C17.7 64.5 17.8333 63.1667 19 62.5C23.4 68.9 27.8333 68.8333 29.5 68C24.7 75.2 18.5 72.3333 16 70C12.8 69.2 9.66667 58 8.5 52.5C5.3 55.3 2.16667 53.6667 1 52.5C6.2 50.1 7.16667 46.5 7 45C3.4 31.4 8.16667 20 11 16C17.4 6.39999 28.3333 3.33332 33 2.99999C38.2 -0.200008 46.8333 1.66666 50.5 2.99999" stroke="#84705D"/>
<path d="M30.4981 13C33.6648 10.8333 39.5 7.79997 45.5 13C52.8327 11.6666 56.9981 10.5 65.5 16C77 20.5 76 19 81.9981 38.5C85.1648 44.5 89.8981 58.2 83.4981 65C80.4981 68.3333 73.0981 73 67.4981 65C70.0885 65.6095 75.2142 65.3553 76.6856 60.1109C75.9615 61.5411 73.88 62.8615 68.9981 62C71.6648 61.5 75.7981 56.3 70.9981 39.5C71.6648 45 70.1981 55.4 58.9981 53C60.8315 51 62.9981 44.4 56.9981 34C58.3315 37 58.8981 43.6 50.4981 46C51.6648 45 52.5981 39.2 46.9981 24C47.3315 25.6666 47.7981 30.2 46.9981 35C46.8384 38.8343 44.8394 46.3442 38.2091 46.9597C37.8871 47.2851 37.5651 47.2221 37.3236 47C37.2643 48.3701 37.307 49.8751 37.4981 51.5C35.6647 51.6667 32.198 48.6 32.9981 35C32.1648 36.1666 30.7981 40.2 31.998 47C29.8314 46.3333 25.2672 37.5 30.2656 25L24.2675 40C24.6674 39 24.5 34 22.9981 32C21.9981 32.1666 20.1981 35.6 20.9981 48C18.9981 47 15.4981 43.4 17.498 37C15.9178 41 14.8056 50.1 22.9981 54.5C22.3315 55.5 19.7981 56.6 14.9981 53C13.8315 51.8333 11.2981 47.3 10.498 38.5C10.1646 33.8333 11 24 16 19.5C17.1667 17.1666 21.6981 14.2 30.4981 13Z" fill="#967F6A"/>
<path d="M37.3236 47C37.2643 48.3701 37.307 49.8751 37.4981 51.5C35.6647 51.6667 32.198 48.6 32.9981 35C32.1648 36.1666 30.7981 40.2 31.998 47C29.8314 46.3333 25.2672 37.5 30.2656 25L24.2675 40C24.6674 39 24.5 34 22.9981 32C21.9981 32.1666 20.1981 35.6 20.9981 48C18.9981 47 15.4981 43.4 17.498 37C15.9178 41 14.8056 50.1 22.9981 54.5C22.3315 55.5 19.7981 56.6 14.9981 53C13.8315 51.8333 11.2981 47.3 10.498 38.5C10.1646 33.8333 11 24 16 19.5C17.1667 17.1666 21.6981 14.2 30.4981 13C33.6648 10.8333 39.5 7.79997 45.5 13C52.8327 11.6666 56.9981 10.5 65.5 16C77 20.5 76 19 81.9981 38.5C85.1648 44.5 89.8981 58.2 83.4981 65C80.4981 68.3333 73.0981 73 67.4981 65C70.3315 65.6667 76.1981 65.3 76.9981 58.5C77.1648 60.1667 75.7981 63.2 68.9981 62C71.6648 61.5 75.7981 56.3 70.9981 39.5C71.6648 45 70.1981 55.4 58.9981 53C60.8315 51 62.9981 44.4 56.9981 34C58.3315 37 58.8981 43.6 50.4981 46C51.6648 45 52.5981 39.2 46.9981 24C47.3315 25.6666 47.7981 30.2 46.9981 35C46.8315 39 44.6632 47 37.3236 47ZM37.3236 47C37.5127 42.6365 38.7371 39.6415 39.4981 38.5C39.4981 46.9 38.0485 47.6667 37.3236 47Z" stroke="#967F6A"/>
</svg>
