<svg width="127" height="369" viewBox="0 0 127 369" fill="none" xmlns="http://www.w3.org/2000/svg">
<path d="M44.0005 82.5L46.0005 82L44.5 78L25.5008 68C24.5008 69.8333 23.7008 74.2 28.5006 77C28.3339 76.1667 28.4006 74.6 30.0005 75C29.0005 76.8333 28.0005 80.7 32.0005 81.5C32.0005 80.1667 32.9005 77.6 36.5005 78C36.8338 78.6667 36.8005 80.3 34.0005 81.5C35.8338 81.8333 39.9005 81.9 41.5005 79.5C41.8338 80.1667 41.9005 81.8 39.5005 83C40.0005 83.6667 41.6005 84.5 44.0005 82.5Z" fill="#705F4F"/>
<path d="M44 21.5H33.5" stroke="black"/>
<path d="M9.57106 212.911C10.5327 206.112 13.3911 151.512 13.0039 123.469L25.9571 119.911L25.961 189.889L24.7523 233.221C18.5476 233.221 14.2523 233.423 9.57106 233.221C7.73944 233.141 4.22837 233.277 2.75237 230.411C2.10795 229.882 -0.322444 225.27 0.753594 218.911C1.34581 215.411 2.75237 212.911 9.57106 212.911Z" fill="#E3D0B4"/>
<ellipse cx="59" cy="169" rx="41" ry="73" fill="#C4C4C4" fill-opacity="0.09"/>
<path d="M47.4395 78.6425C47.2016 80.0397 46.7105 84.1739 46.4569 82.7794C46.3869 82.3943 45.5778 79.5146 45.5778 80.6075C45.5778 84.9122 45.2064 81.9928 47.4395 80.5041" stroke="black" stroke-opacity="0.08" stroke-width="3" stroke-linecap="round"/>
<path d="M64.1964 76.7808C64.1307 80.0698 63.2656 86.606 63.2656 86.606C63.2656 86.606 64.1291 83.046 64.1964 81.228C64.3814 76.2346 63.2656 83.5623 63.2656 85.158" stroke="black" stroke-opacity="0.08" stroke-width="3" stroke-linecap="round"/>
<path d="M19.2227 354L26.2227 350L35.7227 351L30.2227 355.5L19.2227 354Z" fill="#E8E4E4" stroke="#F3F3F3" stroke-width="0.4"/>
<path d="M89.2227 357L94.7227 352H104.723L99.7227 357H89.2227Z" fill="#F3F3F3"/>
<path d="M19.9956 330C17.9997 317.5 19.4944 273 19.4956 229L59.9956 238.5C58.5 271 53.5 319.5 52 331.5L45 337L23.4956 334.5L19.9956 330Z" fill="#76A7C2"/>
<path d="M86 335C86 331 75.5 302.5 65 236L104 231.5C108.5 253.5 120.5 313 120.5 332L117 336.5L91 338L86 335Z" fill="#77ADCC"/>
<path d="M93.2227 337.5H90.2227L90.7227 351L94.7227 352.5L93.2227 337.5Z" fill="#373737"/>
<path d="M102.721 352.5H94.7211L93.2211 339C92.5544 336.667 92.6211 332 98.2211 332C99.7211 331.5 103.121 331.7 104.721 336.5C104.721 340 105.921 342.1 102.721 352.5Z" fill="#F3F3F3"/>
<path d="M37.1811 337.361L33.6599 351.507L25.4996 350.5L25.7199 331.433C26.5661 329.122 29.3622 325.15 33.7772 327.748C35.8992 328.453 39.5508 331.363 37.1811 337.361Z" fill="#E8E4E4"/>
<path d="M117.723 335.5L103.723 336.5L101.723 337L102.723 353L98.2227 356.5C95.2227 356 93.2227 355.5 89.7227 356.5L94.7227 352.5L90.7227 351L89.7227 353L83.7227 358L96.2227 368C105.056 367.167 119.723 366 119.723 362.5L117.723 335.5Z" fill="#373737"/>
<path d="M92.7227 339.5L103.223 346.5L94.2227 351.5L98.7227 357" stroke="black" stroke-width="0.4"/>
<path d="M89.2227 356L102.723 353L93.2227 345L102.723 339.5H93.2227" stroke="black" stroke-width="0.4"/>
<path d="M81.221 367.5C83.5543 368.167 90.621 369.1 100.221 367.5C100.055 365.167 98.9227 360.1 95.7227 358.5C93.3893 357.667 87.7223 356.4 83.721 358C81.8877 359.333 78.821 363.1 81.221 367.5Z" fill="#F3F3F3" stroke="#F3F3F3" stroke-width="0.4"/>
<path d="M36.7227 334L48.7227 334.5L44.2227 361.5C44.2227 362.5 43.5227 364 38.7227 364L25.7227 365L16.2227 354.5L20.7227 350L22.2227 333L26.7227 334L25.7227 351L21.2227 354C22.8893 353.5 26.8227 352.9 29.2227 354.5L33.2227 351L34.7227 334.5L36.7227 334Z" fill="#2E2E2E"/>
<path d="M26.7209 365C24.3875 365.333 16.0209 365.3 11.2209 364.5C11.0542 363.667 10.8209 361.5 11.2209 359.5C11.3875 358.167 12.6209 355.3 16.2209 354.5C19.0542 354.333 25.1209 354.8 26.7209 358C27.2209 359.667 27.9209 363.4 26.7209 365Z" fill="#E8E4E4" stroke="#F3F3F3" stroke-width="0.4"/>
<path d="M29.2227 355L25.2227 349.5L34.2227 344.5L25.7227 336L35.7227 337L25.7227 343.5L33.7227 350.5L21.2227 354" stroke="black" stroke-width="0.4"/>
<path d="M19.5 235.5L18.5 205L61.5 224L60 240.5C54.3333 240.333 29.5 239.5 19.5 235.5Z" fill="#76A7C2"/>
<path d="M18.4898 191C30.9886 192.5 85.9071 195.2 97.5071 184C100.508 193.333 103.007 221.8 105.007 237C102.34 239.167 87.6083 242 66.0083 242L63.0083 228C41.5285 227.5 59.5012 228 57.9973 228C56.4934 228 12.5 232.5 18.4898 191Z" fill="#77ADCC"/>
<path d="M66.5 81.5L65 79.5L66.5 73.5L84.5 57C85.1667 60.8333 85.6 69.4 82 73C82 71.8333 81.4 69.5 79 69.5C80.5 71.5 82.6 76 79 78C79.1667 77.3333 78.6 75.5 75 73.5C74.6667 75 75.2 78.3 80 79.5C78.8333 80.5 75.2 81.7 70 78.5C69.6667 79.5 69.7 81.7 72.5 82.5C71.3333 83.1667 68.5 83.9 66.5 81.5Z" fill="#705F4F"/>
<path d="M43.5 89.5V75H67.5L68.5 87C70.8333 87.6667 78 89.5 81.5 92.5L72 102H35L31.5 94C31.5 92.5 40.5 89.5 43.5 89.5Z" fill="#E3D0B4"/>
<path d="M14.5 103C16.1861 98.7356 21.5011 89.4999 38.0029 90.9999L24.6151 125.951C23.283 125.894 16.5369 128.69 11.1152 124.451C11.2017 122.453 11.8946 107.692 14.5 103Z" fill="#E6E6E6"/>
<path d="M47.7479 98.5C52.7479 99.3333 65.8993 96.3 71.4993 87.5L90 91C91.9947 92.5 96 91.5 91.9947 102L94.4947 130.5L99.4947 188.5C91.6614 191.167 54.2947 199.6 17.4947 196L17.516 177.5C12.9994 112.5 20.2003 102 25.0003 96C27.3337 94 29.5 91.5 37.4994 90.5C37.8327 92.6667 41.3479 98.1 47.7479 98.5Z" fill="#EDEDED"/>
<path d="M17.9985 217.5C17.4985 212 16.7985 199.6 17.9985 194L95.5 160.5C98.3333 171.333 104 196.8 104 212C95.5 216.833 66.3997 224.7 17.9985 217.5Z" fill="#EDEDED"/>
<path d="M106.5 220C106.333 214.667 106.5 197.5 85 121.5L103.5 115C107.833 125.833 124.5 197 121.5 220.5C125 221 126.5 223.5 126.5 228C126.5 235 125 238 122 239C122 239 114.434 241.072 108 240C101.566 238.928 96.4 235.6 98 228C98.1667 225 99.5 219.5 106.5 220Z" fill="#EBD7BA"/>
<ellipse cx="50.5" cy="44.5" rx="36.5" ry="34.5" fill="#EBD7BA"/>
<path d="M84.3199 127.665C88.8845 128.295 104.443 128.429 109.902 121.562C105.702 100.835 101.86 96.8798 97.6125 94.016C94.8054 92.4057 89.3328 90.7957 83.6681 95.1546C82.2746 96.2268 78.1322 101.08 81.14 113.376L84.3199 127.665Z" fill="#F3F3F3"/>
<path d="M21.0016 26V21C29.8016 7.00001 49.0016 5.5 57.5016 9.00001C61.9016 6.6 60.0016 2.33333 58.5016 0.5C68.1016 3.7 61.835 7.5 57.5016 9.00001C78.7016 9.00001 87.6683 25 89.5016 33C91.5016 40.6 95.6683 40.8333 97.5016 40C94.7016 46 91.0016 43.1667 89.5016 41C95.9016 55 92.1683 63.1667 89.5016 65.5C85.5016 71.1 79.835 72.1667 77.5016 72C84.7016 66 84.835 61.8333 84.0016 60.5C76.0016 67.3 75.335 74 76.0016 76.5C69.6016 69.3 73.335 58.5 76.0016 54L70.0016 33L30.5016 28L24.0016 49.5C21.6016 62.3 26.6683 67.8333 29.5016 69C23.5016 71.4 20.0016 66.6667 19.0016 64C19.0016 68 23.6683 71 26.0016 72C19.2016 74 15.5016 70.8333 14.5016 69C10.1016 62.2 11.6683 49.1667 13.0016 43.5L21.0016 26Z" fill="#84705D"/>
<path d="M57.5016 9.00001C49.0016 5.5 29.8016 7.00001 21.0016 21V26L13.0016 43.5C11.6683 49.1667 10.1016 62.2 14.5016 69C15.5016 70.8333 19.2016 74 26.0016 72C23.6683 71 19.0016 68 19.0016 64C20.0016 66.6667 23.5016 71.4 29.5016 69C26.6683 67.8333 21.6016 62.3 24.0016 49.5L30.5016 28L70.0016 33L76.0016 54C73.335 58.5 69.6016 69.3 76.0016 76.5C75.335 74 76.0016 67.3 84.0016 60.5C84.835 61.8333 84.7016 66 77.5016 72C79.835 72.1667 85.5016 71.1 89.5016 65.5C92.1683 63.1667 95.9016 55 89.5016 41C91.0016 43.1667 94.7016 46 97.5016 40C95.6683 40.8333 91.5016 40.6 89.5016 33C87.6683 25 78.7016 9.00001 57.5016 9.00001ZM57.5016 9.00001C61.9016 6.6 60.0016 2.33333 58.5016 0.5C68.1016 3.7 61.835 7.5 57.5016 9.00001Z" stroke="#84705D" stroke-width="0.2"/>
<path d="M38.8102 14.9922L35.8723 22.3634L36.0134 23.3534C37.1664 29.0813 37.789 42.1913 31.0551 48.8076C29.9236 49.1372 28.4235 52.3139 31.4748 62.3841C29.4713 62.5013 25.0687 61.3779 23.4866 55.9468C22.5907 56.7479 21.1659 60.2169 22.6342 67.6845C19.4768 64.4307 14.4923 55.9155 19.8124 47.8845C18.2565 48.7797 15.5963 53.0308 17.4032 62.8744C15.3579 61.0783 12.1008 55.2284 13.5088 45.1893C12.2186 45.5072 10.0869 45.5154 6.73201 44.6981C8.05201 44.51 10.9328 42.9884 11.896 38.4066C12.0148 35.6961 13.9783 28.2108 20.8825 19.9542C24.879 16.452 32.1235 12.4452 38.8102 14.9922Z" fill="#967F6A"/>
<path d="M35.8723 22.3634L38.8102 14.9922C32.1235 12.4452 24.879 16.452 20.8825 19.9542C13.9783 28.2108 12.0148 35.6961 11.896 38.4066C10.9328 42.9884 8.05201 44.51 6.73201 44.6981C13.0106 46.2276 15.0051 44.8659 15.2175 43.9939L14.2993 41.0944C11.2403 53.6516 15.094 60.8466 17.4032 62.8744C15.5963 53.0308 18.2565 48.7797 19.8124 47.8845C14.4923 55.9155 19.4768 64.4307 22.6342 67.6845C21.1659 60.2169 22.5907 56.7479 23.4866 55.9468C25.0687 61.3779 29.4713 62.5013 31.4748 62.3841C28.4235 52.3139 29.9236 49.1372 31.0551 48.8076C37.789 42.1913 37.1664 29.0813 36.0134 23.3534L35.8723 22.3634Z" stroke="#967F6A"/>
<path d="M47.1754 27.3059L46.6423 26.8414L36.8151 15.1294C40.4345 12.5054 46.8348 11.0405 52.4196 14.2753C54.2339 13.2979 57.2333 12.6676 61.8151 14.2702C66.3963 15.8726 76.9161 21.0495 80.3538 36.0489C82.8297 42.8951 85.5348 57.4437 76.5487 60.8687C77.4777 59.8024 78.8405 56.3006 76.8599 50.8236C77.4542 54.6164 76.8229 63.3163 69.5623 67.8374C69.5456 67.8483 69.529 67.8585 69.5126 67.8682C69.5292 67.858 69.5458 67.8477 69.5623 67.8374C70.8519 66.9981 72.9469 62.5716 71.3728 51.2012C71.7565 54.349 70.0297 60.8161 60.0533 61.5026C62.516 57.7875 65.4591 49.8754 63.3997 41.125C63.0097 43.4832 60.9786 45.5041 56.5 47C58.9888 44.3229 58.3746 38.5637 47.1754 27.3059Z" fill="#967F6A"/>
<path d="M31.3633 16.0057L44.4356 16.6098L49.3529 29.8033L33.6652 34.8923L31.3633 16.0057Z" fill="#967F6A" stroke="#967F6A"/>
<path d="M57 37.5V34L52 27L35.5 31.5L27.5 50C29.5 50.3333 35.6 49 44 41C43.8333 42.5 41.9 46.2 35.5 49C41.1667 50.1667 53.4 49.5 57 37.5Z" fill="#967F6A"/>
</svg>