<svg width="32" height="32" viewBox="0 0 32 32" fill="none" xmlns="http://www.w3.org/2000/svg%22%3E
<rect width="32" height="32" fill="#2B222F"/>
<path d="M25.0898 25H21.459V12C21.459 11.7461 21.4082 11.5091 21.3066 11.2891C21.2135 11.069 21.0824 10.8786 20.9131 10.7178C20.7523 10.5485 20.5618 10.4173 20.3418 10.3242C20.1217 10.2311 19.8848 10.1846 19.6309 10.1846C19.377 10.1846 19.14 10.2311 18.9199 10.3242C18.6999 10.4173 18.5052 10.5485 18.3359 10.7178C18.1751 10.8786 18.0482 11.069 17.9551 11.2891C17.862 11.5091 17.8154 11.7461 17.8154 12V25H14.1719V12C14.1719 11.7461 14.1253 11.5091 14.0322 11.2891C13.9391 11.069 13.8079 10.8786 13.6387 10.7178C13.4779 10.5485 13.2874 10.4173 13.0674 10.3242C12.8473 10.2311 12.6104 10.1846 12.3564 10.1846C12.1025 10.1846 11.8656 10.2311 11.6455 10.3242C11.4255 10.4173 11.2308 10.5485 11.0615 10.7178C10.9007 10.8786 10.7738 11.069 10.6807 11.2891C10.5876 11.5091 10.541 11.7461 10.541 12V25H6.89746V12C6.89746 11.2467 7.03711 10.54 7.31641 9.87988C7.60417 9.21126 7.99349 8.63151 8.48438 8.14062C8.98372 7.64128 9.56348 7.25195 10.2236 6.97266C10.8923 6.6849 11.6032 6.54102 12.3564 6.54102C13.0335 6.54102 13.6852 6.66374 14.3115 6.90918C14.9378 7.14616 15.5007 7.49316 16 7.9502C16.4993 7.49316 17.0579 7.14616 17.6758 6.90918C18.3021 6.66374 18.9538 6.54102 19.6309 6.54102C20.3841 6.54102 21.0908 6.6849 21.751 6.97266C22.4196 7.25195 22.9993 7.64128 23.4902 8.14062C23.9896 8.63151 24.3789 9.21126 24.6582 9.87988C24.946 10.54 25.0898 11.2467 25.0898 12V25Z" fill="white"/>
</svg>