<svg width="400" height="410" viewBox="0 0 400 410" fill="none" xmlns="http://www.w3.org/2000/svg">
<path d="M320.318 154.119C351.111 217.52 323.007 295.588 256.117 328.008C189.228 360.429 110.451 334.165 79.6584 270.765C48.8655 207.364 76.9694 129.296 143.859 96.8756C210.748 64.4549 289.525 90.7187 320.318 154.119Z" stroke="#BA3857" stroke-width="28"/>
<rect width="17.984" height="104.169" rx="8.992" transform="matrix(0.94946 0.313889 -0.314566 0.949236 205.947 202.422)" fill="#BA3857"/>
<rect width="24.7558" height="55.9625" rx="7" transform="matrix(0.999534 -0.0305135 0.0305023 0.999535 171 335.751)" fill="#BA3857"/>
<rect width="24.8231" height="55.8116" rx="7" transform="matrix(-0.692872 0.72106 0.717204 0.696864 309.77 274.033)" fill="#BA3857"/>
<rect width="17.9751" height="104.22" rx="8.98754" transform="matrix(-0.624055 0.781381 -0.782054 -0.623211 224.32 212.388)" fill="#BA3857"/>
<rect width="10.7702" height="29.001" rx="5" transform="matrix(-0.913708 0.406371 -0.407505 -0.913203 249.92 312.486)" fill="#BA3857"/>
<rect width="10.8142" height="28.8844" rx="5" transform="matrix(-0.402822 -0.915278 0.911597 -0.411085 279.348 182.666)" fill="#BA3857"/>
<rect width="10.8142" height="28.8844" rx="5" transform="matrix(-0.402822 -0.915278 0.911597 -0.411085 98.207 263.227)" fill="#BA3857"/>
<rect width="10.7702" height="29.001" rx="5" transform="matrix(-0.913708 0.406371 -0.407505 -0.913203 171.287 135.695)" fill="#BA3857"/>
<path d="M88.4629 86.834C52.4583 117.96 38.0592 150.412 30.5643 182.418" stroke="#BA3857" stroke-width="28"/>
<path d="M172.154 46.2365C219.028 37.8791 253.334 47.1276 282.948 61.455" stroke="#BA3857" stroke-width="28"/>
</svg>
