<svg width="407" height="183" viewBox="0 0 407 183" fill="none" xmlns="http://www.w3.org/2000/svg">
<rect width="20.2691" height="75.6214" transform="matrix(0.924425 0.381363 -0.234484 0.97212 17.7324 42.2539)" fill="#877292"/>
<rect width="24.9021" height="122.435" transform="matrix(0.924425 0.381363 -0.234484 0.97212 44.7461 15.6777)" fill="#877292"/>
<rect width="22.5856" height="118.834" transform="matrix(0.924425 0.381363 -0.234484 0.97212 62.0234 48.9785)" fill="#877292"/>
<rect width="28.3768" height="136.839" transform="matrix(0.924425 0.381363 -0.234484 0.97212 94.7246 8.58325)" fill="#877292"/>
<rect width="15.0571" height="57.6163" transform="matrix(0.924425 0.381363 -0.234484 0.97212 81.5117 16.9895)" fill="#877292"/>
<rect width="9.84501" height="22.3263" transform="matrix(0.924425 0.381363 -0.234484 0.97212 97.8203 115.322)" fill="#877292"/>
<rect width="26.0603" height="110.911" transform="matrix(0.924425 0.381363 -0.234484 0.97212 112.176 55.8118)" fill="#877292"/>
<rect width="9.84501" height="28.8082" transform="matrix(0.924425 0.381363 -0.234484 0.97212 117.916 32.0073)" fill="#877292"/>
<rect width="23.7438" height="135.398" transform="matrix(0.924425 0.381363 -0.234484 0.97212 136.646 10.4824)" fill="#877292"/>
<rect width="20.2691" height="14.4041" transform="matrix(0.924425 0.381363 -0.234484 0.97212 119.357 47.9976)" fill="#877292"/>
<rect width="8.68677" height="70.58" transform="matrix(0.924425 0.381363 -0.234484 0.97212 155.219 33.5398)" fill="#877292"/>
<rect width="18.5318" height="90.7457" transform="matrix(0.924425 0.381363 -0.234484 0.97212 150.828 51.7432)" fill="#877292"/>
<rect width="22.5856" height="178.611" transform="matrix(0.924425 0.381363 -0.234484 0.97212 182.146 0)" fill="#877292"/>
<rect width="34.7471" height="92.9063" transform="matrix(0.924425 0.381363 -0.234484 0.97212 198.465 27.5166)" fill="#877292"/>
<rect width="23.7438" height="56.1759" transform="matrix(0.924425 0.381363 -0.234484 0.97212 174.844 98.6003)" fill="#877292"/>
<rect width="32.4306" height="51.8547" transform="matrix(0.924425 0.381363 -0.234484 0.97212 166.625 22.8501)" fill="#877292"/>
<rect width="18.5318" height="54.7355" transform="matrix(0.924425 0.381363 -0.234484 0.97212 208.377 10.8218)" fill="#877292"/>
<rect width="18.5318" height="134.678" transform="matrix(0.924425 0.381363 -0.234484 0.97212 225.508 17.8892)" fill="#877292"/>
<rect width="17.3735" height="18.7253" transform="matrix(0.924425 0.381363 -0.234484 0.97212 221.617 4.73706)" fill="#877292"/>
<rect width="20.2691" height="102.269" transform="matrix(0.924425 0.381363 -0.234484 0.97212 233.287 29.5657)" fill="#877292"/>
<rect width="9.84501" height="61.9375" transform="matrix(0.924425 0.381363 -0.234484 0.97212 247.463 56.1992)" fill="#877292"/>
<rect width="26.0603" height="71.3002" transform="matrix(0.924425 0.381363 -0.234484 0.97212 256.416 19.0925)" fill="#877292"/>
<rect width="15.6362" height="56.8961" transform="matrix(0.924425 0.381363 -0.234484 0.97212 246.203 83.3914)" fill="#877292"/>
<rect width="16.7944" height="146.922" transform="matrix(0.924425 0.381363 -0.234484 0.97212 278.729 14.4412)" fill="#877292"/>
<rect width="26.6394" height="59.7769" transform="matrix(0.924425 0.381363 -0.234484 0.97212 289.018 42.5496)" fill="#877292"/>
<rect width="15.6362" height="51.1345" transform="matrix(0.924425 0.381363 -0.234484 0.97212 275.846 97.1594)" fill="#877292"/>
<rect width="26.6394" height="56.8961" transform="matrix(0.924425 0.381363 -0.234484 0.97212 292.264 75.4509)" fill="#877292"/>
<rect width="15.6362" height="10.8031" transform="matrix(0.924425 0.381363 -0.234484 0.97212 291.213 33.448)" fill="#877292"/>
<path d="M330.572 24.8652L350.562 32.256L314.041 171.592L294.051 164.201L330.572 24.8652Z" fill="#877292"/>
<path d="M353.197 16.9536L373.187 24.3444L349.25 115.667L329.261 108.276L353.197 16.9536Z" fill="#877292"/>
<path d="M364.617 66.6838L378.262 71.7288L354.326 163.051L340.681 158.006L364.617 66.6838Z" fill="#877292"/>
<path d="M375.086 37.2979L395.075 44.6887L374.318 123.881L354.329 116.491L375.086 37.2979Z" fill="#877292"/>
<path d="M394.613 56.5117L407.001 61.0919L391.136 121.621L378.748 117.041L394.613 56.5117Z" fill="#877292"/>
<path d="M374.762 62.1631L394.751 69.5539L373.994 148.747L354.005 141.356L374.762 62.1631Z" fill="#877292"/>
<path d="M353.197 49.7305L373.187 57.1213L349.25 148.444L329.261 141.053L353.197 49.7305Z" fill="#877292"/>
<path d="M333.215 51.991L353.204 59.3818L329.268 150.704L309.278 143.314L333.215 51.991Z" fill="#877292"/>
<path d="M317.152 30.5164L331.692 35.8921L317.157 91.3451L302.618 85.9694L317.152 30.5164Z" fill="#877292"/>
</svg>
