<svg width="407" height="183" viewBox="0 0 407 183" fill="none" xmlns="http://www.w3.org/2000/svg">
<rect width="20.2691" height="75.6214" transform="matrix(0.924425 0.381363 -0.234484 0.97212 17.7324 42.2539)" fill="#877292"/>
<rect width="24.9021" height="122.435" transform="matrix(0.924425 0.381363 -0.234484 0.97212 44.7461 15.6777)" fill="#877292"/>
<rect width="22.5856" height="118.834" transform="matrix(0.924425 0.381363 -0.234484 0.97212 62.0234 48.9785)" fill="#877292"/>
<rect width="28.3768" height="136.839" transform="matrix(0.924425 0.381363 -0.234484 0.97212 94.7246 8.58325)" fill="#877292"/>
<rect width="15.0571" height="57.6163" transform="matrix(0.924425 0.381363 -0.234484 0.97212 81.5117 16.9895)" fill="#877292"/>
<rect width="9.84501" height="22.3263" transform="matrix(0.924425 0.381363 -0.234484 0.97212 97.8203 115.322)" fill="#877292"/>
<rect width="26.0603" height="110.911" transform="matrix(0.924425 0.381363 -0.234484 0.97212 112.176 55.8118)" fill="#877292"/>
<rect width="9.84501" height="28.8082" transform="matrix(0.924425 0.381363 -0.234484 0.97212 117.916 32.0073)" fill="#877292"/>
<rect width="23.7438" height="135.398" transform="matrix(0.924425 0.381363 -0.234484 0.97212 136.646 10.4824)" fill="#877292"/>
<rect width="20.2691" height="14.4041" transform="matrix(0.924425 0.381363 -0.234484 0.97212 119.357 47.9976)" fill="#877292"/>
<rect width="8.68677" height="70.58" transform="matrix(0.924425 0.381363 -0.234484 0.97212 155.219 33.5398)" fill="#877292"/>
<rect width="18.5318" height="90.7457" transform="matrix(0.924425 0.381363 -0.234484 0.97212 150.828 51.7432)" fill="#877292"/>
<rect width="22.5856" height="178.611" transform="matrix(0.924425 0.381363 -0.234484 0.97212 182.146 0)" fill="#877292"/>
<rect width="34.7471" height="92.9063" transform="matrix(0.924425 0.381363 -0.234484 0.97212 198.465 27.5166)" fill="#877292"/>
<rect width="23.7438" height="56.1759" transform="matrix(0.924425 0.381363 -0.234484 0.97212 174.844 98.6003)" fill="#877292"/>
<rect width="32.4306" height="51.8547" transform="matrix(0.924425 0.381363 -0.234484 0.97212 166.625 22.8501)" fill="#877292"/>
<rect width="18.5318" height="54.7355" transform="matrix(0.924425 0.381363 -0.234484 0.97212 208.377 10.8218)" fill="#877292"/>
<rect width="18.5318" height="134.678" transform="matrix(0.924425 0.381363 -0.234484 0.97212 225.508 17.8892)" fill="#877292"/>
<rect width="20.2691" height="102.269" transform="matrix(0.924425 0.381363 -0.234484 0.97212 233.287 29.5657)" fill="#877292"/>
<rect width="9.84501" height="61.9375" transform="matrix(0.924425 0.381363 -0.234484 0.97212 247.463 56.1992)" fill="#877292"/>
<rect width="26.0603" height="71.3002" transform="matrix(0.924425 0.381363 -0.234484 0.97212 256.416 19.0925)" fill="#877292"/>
<rect width="15.6362" height="56.8961" transform="matrix(0.924425 0.381363 -0.234484 0.97212 246.203 83.3914)" fill="#877292"/>
<rect width="16.7944" height="146.922" transform="matrix(0.924425 0.381363 -0.234484 0.97212 278.729 14.4412)" fill="#877292"/>
<rect width="26.6394" height="59.7769" transform="matrix(0.924425 0.381363 -0.234484 0.97212 289.018 42.5496)" fill="#877292"/>
<rect width="15.6362" height="51.1345" transform="matrix(0.924425 0.381363 -0.234484 0.97212 275.846 97.1594)" fill="#877292"/>
<rect width="26.6394" height="56.8961" transform="matrix(0.924425 0.381363 -0.234484 0.97212 292.264 75.4509)" fill="#877292"/>
<rect width="15.6362" height="10.8031" transform="matrix(0.924425 0.381363 -0.234484 0.97212 291.213 33.448)" fill="#877292"/>
<path d="M330.572 24.8652L350.562 32.256L314.041 171.592L294.051 164.201L330.572 24.8652Z" fill="#877292"/>
<path d="M353.197 16.9536L373.187 24.3444L349.25 115.667L329.261 108.276L353.197 16.9536Z" fill="#877292"/>
<path d="M364.617 66.6838L378.262 71.7288L354.326 163.051L340.681 158.006L364.617 66.6838Z" fill="#877292"/>
<path d="M375.086 37.2979L395.075 44.6887L374.318 123.881L354.329 116.491L375.086 37.2979Z" fill="#877292"/>
<path d="M394.613 56.5117L407.001 61.0919L391.136 121.621L378.748 117.041L394.613 56.5117Z" fill="#877292"/>
<path d="M374.762 62.1631L394.751 69.5539L373.994 148.747L354.005 141.356L374.762 62.1631Z" fill="#877292"/>
<path d="M353.197 49.7305L373.187 57.1213L349.25 148.444L329.261 141.053L353.197 49.7305Z" fill="#877292"/>
<path d="M333.215 51.991L353.204 59.3818L329.268 150.704L309.278 143.314L333.215 51.991Z" fill="#877292"/>
<path d="M317.152 30.5164L331.692 35.8921L317.157 91.3451L302.618 85.9694L317.152 30.5164Z" fill="#877292"/>
<path d="M89.6094 82.8086V104H84.7998V82.8086H73.7891V104H69.0039V77.999H73.7891V82.5889C73.8216 81.9541 73.9681 81.36 74.2285 80.8066C74.4889 80.237 74.8307 79.7487 75.2539 79.3418C75.6934 78.9186 76.1979 78.5931 76.7676 78.3652C77.3372 78.1211 77.9476 77.999 78.5986 77.999H84.7998C85.4346 77.999 86.0368 78.1211 86.6064 78.3652C87.1761 78.5931 87.6807 78.9186 88.1201 79.3418C88.5596 79.7487 88.9095 80.237 89.1699 80.8066C89.4466 81.36 89.5931 81.9541 89.6094 82.5889C89.6419 81.9541 89.7803 81.36 90.0244 80.8066C90.2848 80.237 90.6266 79.7487 91.0498 79.3418C91.4893 78.9186 91.9938 78.5931 92.5635 78.3652C93.1331 78.1211 93.7435 77.999 94.3945 77.999H100.596C101.263 77.999 101.89 78.1292 102.476 78.3896C103.062 78.6338 103.566 78.9756 103.989 79.415C104.429 79.8382 104.771 80.3428 105.015 80.9287C105.275 81.5146 105.405 82.1413 105.405 82.8086V104H100.596V82.8086H89.6094ZM113.438 92.6475C113.438 91.9801 113.56 91.3617 113.804 90.792C114.064 90.2061 114.406 89.6934 114.829 89.2539C115.269 88.8145 115.781 88.4727 116.367 88.2285C116.953 87.9681 117.572 87.8379 118.223 87.8379H130.625V82.8086H114.927V77.999H130.625C131.292 77.999 131.919 78.1292 132.505 78.3896C133.091 78.6338 133.595 78.9756 134.019 79.415C134.458 79.8382 134.8 80.3428 135.044 80.9287C135.304 81.5146 135.435 82.1413 135.435 82.8086V104H130.625V99.6055C130.576 100.208 130.413 100.777 130.137 101.314C129.86 101.852 129.502 102.324 129.062 102.73C128.639 103.121 128.151 103.43 127.598 103.658C127.044 103.886 126.458 104 125.84 104H118.223C117.572 104 116.953 103.878 116.367 103.634C115.781 103.373 115.269 103.032 114.829 102.608C114.406 102.169 114.064 101.656 113.804 101.07C113.56 100.484 113.438 99.8577 113.438 99.1904V92.6475ZM118.223 99.1904H130.625V92.6475H118.223V99.1904ZM141.953 77.999H148.301V69.9912H153.11V77.999H161.655V82.8086H153.11V99.1904H161.655V104H153.11C152.459 104 151.841 103.878 151.255 103.634C150.669 103.373 150.156 103.032 149.717 102.608C149.277 102.169 148.927 101.656 148.667 101.07C148.423 100.484 148.301 99.8577 148.301 99.1904V82.8086H141.953V77.999ZM192.686 104H187.876V82.8086H174.473V104H169.688V67.9893H174.473V82.5889C174.505 81.9541 174.652 81.36 174.912 80.8066C175.173 80.237 175.514 79.7487 175.938 79.3418C176.377 78.9186 176.882 78.5931 177.451 78.3652C178.021 78.1211 178.631 77.999 179.282 77.999H187.876C188.543 77.999 189.17 78.1292 189.756 78.3896C190.342 78.6338 190.846 78.9756 191.27 79.415C191.709 79.8382 192.051 80.3428 192.295 80.9287C192.555 81.5146 192.686 82.1413 192.686 82.8086V104ZM205.479 82.8086V104H200.693V77.999H205.479V82.5889C205.511 81.9541 205.658 81.36 205.918 80.8066C206.178 80.237 206.52 79.7487 206.943 79.3418C207.383 78.9186 207.887 78.5931 208.457 78.3652C209.027 78.1211 209.637 77.999 210.288 77.999H215.391C216.058 77.999 216.676 78.1292 217.246 78.3896C217.832 78.6338 218.345 78.9756 218.784 79.415C219.224 79.8382 219.565 80.3428 219.81 80.9287C220.07 81.5146 220.2 82.1413 220.2 82.8086V87.2031H215.391V82.8086H205.479ZM248.667 99.1904C248.667 99.8577 248.537 100.484 248.276 101.07C248.032 101.656 247.69 102.169 247.251 102.608C246.828 103.032 246.323 103.373 245.737 103.634C245.168 103.878 244.549 104 243.882 104H230.967C230.316 104 229.697 103.878 229.111 103.634C228.525 103.373 228.013 103.032 227.573 102.608C227.15 102.169 226.808 101.656 226.548 101.07C226.304 100.484 226.182 99.8577 226.182 99.1904V82.8086C226.182 82.1413 226.304 81.5146 226.548 80.9287C226.808 80.3428 227.15 79.8382 227.573 79.415C228.013 78.9756 228.525 78.6338 229.111 78.3896C229.697 78.1292 230.316 77.999 230.967 77.999H243.882C244.549 77.999 245.168 78.1292 245.737 78.3896C246.323 78.6338 246.828 78.9756 247.251 79.415C247.69 79.8382 248.032 80.3428 248.276 80.9287C248.537 81.5146 248.667 82.1413 248.667 82.8086V99.1904ZM230.967 82.8086V99.1904H243.882V82.8086H230.967ZM279.185 99.1904C279.185 99.8577 279.054 100.484 278.794 101.07C278.55 101.656 278.208 102.169 277.769 102.608C277.345 103.032 276.841 103.373 276.255 103.634C275.685 103.878 275.067 104 274.399 104H261.484C260.833 104 260.215 103.878 259.629 103.634C259.043 103.373 258.53 103.032 258.091 102.608C257.668 102.169 257.326 101.656 257.065 101.07C256.821 100.484 256.699 99.8577 256.699 99.1904V82.8086C256.699 82.1413 256.821 81.5146 257.065 80.9287C257.326 80.3428 257.668 79.8382 258.091 79.415C258.53 78.9756 259.043 78.6338 259.629 78.3896C260.215 78.1292 260.833 77.999 261.484 77.999H274.399C275.067 77.999 275.685 78.1292 276.255 78.3896C276.841 78.6338 277.345 78.9756 277.769 79.415C278.208 79.8382 278.55 80.3428 278.794 80.9287C279.054 81.5146 279.185 82.1413 279.185 82.8086V99.1904ZM261.484 82.8086V99.1904H274.399V82.8086H261.484ZM307.822 82.8086V104H303.013V82.8086H292.002V104H287.217V77.999H292.002V82.5889C292.035 81.9541 292.181 81.36 292.441 80.8066C292.702 80.237 293.044 79.7487 293.467 79.3418C293.906 78.9186 294.411 78.5931 294.98 78.3652C295.55 78.1211 296.16 77.999 296.812 77.999H303.013C303.647 77.999 304.25 78.1211 304.819 78.3652C305.389 78.5931 305.894 78.9186 306.333 79.3418C306.772 79.7487 307.122 80.237 307.383 80.8066C307.66 81.36 307.806 81.9541 307.822 82.5889C307.855 81.9541 307.993 81.36 308.237 80.8066C308.498 80.237 308.84 79.7487 309.263 79.3418C309.702 78.9186 310.207 78.5931 310.776 78.3652C311.346 78.1211 311.956 77.999 312.607 77.999H318.809C319.476 77.999 320.103 78.1292 320.688 78.3896C321.274 78.6338 321.779 78.9756 322.202 79.415C322.642 79.8382 322.983 80.3428 323.228 80.9287C323.488 81.5146 323.618 82.1413 323.618 82.8086V104H318.809V82.8086H307.822Z" fill="white"/>
</svg>