<svg width="247" height="323" viewBox="0 0 247 323" fill="none" xmlns="http://www.w3.org/2000/svg">
<path d="M70.0111 33.5278C57.3964 91.2031 80.4766 108.674 88.5692 121.272L106.12 146.29C113.13 155.473 110.351 167.686 101.13 170.832" stroke="#38A3A5" stroke-width="15"/>
<path d="M23.5384 260.019C34.4475 201.997 62.5176 194.926 74.8873 186.488L103.103 169.863" stroke="#38A3A5" stroke-width="15"/>
<path d="M222.077 64.4464C211.168 122.468 183.098 129.539 170.728 137.977L144.801 154.155C134.761 159.872 132.551 172.2 139.812 178.697" stroke="#38A3A5" stroke-width="15"/>
<path d="M176.417 291.103C189.031 233.428 165.951 215.957 157.859 203.359L138.375 177.035" stroke="#38A3A5" stroke-width="15"/>
<path d="M57.7402 3.05176e-05L247.001 38.4808L241.938 63.3819C241.388 66.0879 238.748 67.8356 236.042 67.2854L56.5808 30.7971C53.8748 30.2469 52.1271 27.6072 52.6773 24.9011L57.7402 3.05176e-05Z" fill="#38A3A5"/>
<path d="M189.26 322.465L-0.000738319 283.984L5.06219 259.083C5.61239 256.377 8.25212 254.63 10.9582 255.18L190.419 291.668C193.125 292.218 194.873 294.858 194.323 297.564L189.26 322.465Z" fill="#38A3A5"/>
<path d="M163.089 276.528L42.03 251.914C43.455 244.902 51.837 223.331 61.113 217.003C75.74 214.196 111.478 213.37 159.58 237.023C161.246 241.926 168.346 250.671 163.089 276.528Z" fill="#38A3A5" stroke="#38A3A5" stroke-width="5"/>
<path d="M127.777 140.197C123.94 139.417 112.578 129.805 95.6504 101.719L171.951 117.233C142.397 138.149 131.613 140.977 127.777 140.197Z" fill="#38A3A5" stroke="#38A3A5" stroke-width="5"/>
</svg>
