<svg width="204" height="217" viewBox="0 0 204 217" fill="none" xmlns="http://www.w3.org/2000/svg">
<path d="M181.911 107.734C187.375 150.469 156.549 189.916 112.652 195.528C68.7555 201.141 28.9962 170.719 23.5322 127.984C18.0681 85.2482 48.8943 45.8018 92.791 40.1893C136.688 34.5767 176.447 64.9983 181.911 107.734Z" stroke="#82678F" stroke-width="20"/>
<rect x="77.7617" y="22.053" width="25.2166" height="6.851" transform="rotate(-7.28616 77.7617 22.053)" fill="#82678F"/>
<rect x="70.3496" y="13.7917" width="37.0368" height="9.13467" rx="2" transform="rotate(-7.28616 70.3496 13.7917)" fill="#82678F"/>
<path d="M138.862 13.6748L128.439 27.5377C131.768 28.5144 141.215 31.0908 145.695 34.2969L148.901 17.7461L138.862 13.6748Z" fill="#82678F" stroke="#82678F" stroke-width="3"/>
<ellipse cx="104.478" cy="119.169" rx="9.45621" ry="8.75406" transform="rotate(-7.28616 104.478 119.169)" fill="#82678F"/>
<path d="M102.34 111.768L157.764 88.5659L109.597 125.037L102.34 111.768Z" fill="#82678F" stroke="#82678F" stroke-width="3"/>
</svg>
