<svg width="231" height="369" viewBox="0 0 231 369" fill="none" xmlns="http://www.w3.org/2000/svg">
<path d="M69.9994 98.5C67.3327 94.8333 64.1994 83.6 72.9994 68L96 118.5C95.5 120.333 93.9 123.7 91.5 122.5C91.5 120.667 90.6 116.3 87 113.5C86.5 115.667 86.5 120 90.5 120C89.5 120.333 86.6 120.5 83 118.5C80.1667 117 73.5999 110.9 69.9994 98.5Z" stroke="black" stroke-width="0.2"/>
<path d="M176.213 48C178.867 56.6667 181.985 79.4 173.228 101L141.88 125L85.6544 112C79.6835 101.167 68.2392 75.2 70.2295 58L114.514 36L176.213 48Z" fill="#DEBEA1"/>
<path d="M224.398 168.322C223.875 158.329 213.895 138.639 178.153 139.814L187.602 329.806C190.033 332.161 200.69 334.514 223.875 325.083C229.009 308.579 236.302 254.12 224.398 168.322Z" fill="#363636"/>
<path d="M68 134C88.5 129.5 132.2 123.2 183 134C189.5 135.382 203.5 142.5 207 156.5C210.333 178.667 213.2 300 196 332C192.333 335.667 174.6 337.4 151 341C122 344.167 70.7 343.2 45.5 332L27.5 171.5C33 160.667 48.8 138 68 134Z" fill="#3A3A3A"/>
<path d="M180.5 61L177.5 53L164 114.5C170 112.167 181.4 106.2 179 101C179.749 101.667 180.498 103.9 177.5 107.5C183.5 101.5 192.5 86.9 180.5 76.5C183.333 77.6667 189 78.6 189 73C187 74.3333 182.5 73.8 180.5 61Z" fill="#94724A"/>
<path d="M102 134.5C102.333 133 102.8 128.5 102 122.5L142.5 129V138C132.167 141.333 109.6 145.3 102 134.5Z" fill="#AD9076"/>
<path d="M173.336 100.612C175.453 100.94 173.154 103.005 173.032 104.6C171.377 110.627 168.394 117.241 161.836 121.8C152.735 128.127 147.758 131.394 134.461 130.747C122.312 130.156 95.6646 126.088 86.2619 114.54C85.3169 113.967 80.0098 105.096 81.4323 101.995L86.2693 107.675C88.3484 108.502 91.083 106.367 86.2754 101.99L80.4272 88.4028C79.4264 87.0073 78.5845 85.8079 78.0009 84.9999L80.0376 87.4976L80.4272 88.4028C84.0279 93.4233 89.6853 100.982 92.77 101.982C97.9372 101.206 112.686 99.9045 129.596 90.7622C132.017 89.275 138.664 87.2405 145.891 91.0002C148.424 92.3631 156.218 96.9015 173.336 100.612Z" fill="#2E2E2E"/>
<path d="M54.9998 168C59.4998 177 66.1998 208.7 56.9998 263.5L60.5 305L20.5 321.5C18 318 15.2662 311.5 14.4998 309C7.4998 286.167 -4.8002 229.9 1.9998 187.5C4.33314 176.167 16.0998 152.3 44.4998 147.5C45.9998 145.5 50.1998 146.8 54.9998 168Z" fill="#373737"/>
<path d="M19.9989 298C28.6656 283 56.5989 247.2 98.9989 224L129 231.5C121.333 246.333 96.2 286.6 57 329C52 332.333 39.1998 337 27.9989 329C22.9989 326.333 14.3989 316.4 19.9989 298Z" fill="#343434"/>
<path d="M133.21 189.337C123.376 189.337 117.299 195.126 108.567 198.796C102.032 201.542 101.673 205.683 101.846 211.739C101.959 215.688 102.143 219.046 101.68 223.106C101.266 226.742 99.7233 230.237 104.418 230.408C114.698 230.782 124.494 234.141 134.703 234.141C143.822 234.141 145.504 229.061 148.891 221.364C151.748 214.872 153.233 208.111 155.197 201.326C155.676 199.672 157.894 193.498 156.69 191.95C149.95 183.284 139.102 188.119 130.969 190.83" stroke="black" stroke-opacity="0.13" stroke-width="2" stroke-linecap="round"/>
<path d="M113.045 195.311C110.29 191.988 107.545 189.649 103.753 187.677C102.505 187.029 99.4852 185.401 98.5254 184.441C94.3395 180.256 100.077 175.403 103.711 172.577C107.55 169.591 114.174 173.697 117.36 169.921C119.233 167.701 120.658 166.541 123.873 167.017C126.879 167.463 129.086 170.706 132.295 169.756C134.121 169.214 135.316 167.832 136.941 167.1C138.685 166.316 141.713 166.935 143.662 166.935C147.429 166.935 150.428 166.558 154.116 166.893C156.85 167.142 158.71 167.831 161.21 168.387C163.773 168.956 158.843 171.583 157.85 172.328C154.718 174.676 151.018 177.912 149.304 181.496C148.68 182.8 147.82 185.765 146.649 186.35" stroke="black" stroke-opacity="0.13" stroke-width="2" stroke-linecap="round"/>
<path d="M109.314 234.888C106.087 246.126 100.717 255.593 94.3796 265.422C86.8509 277.099 81.2241 286.869 78.4076 300.519C75.7959 313.175 69.6749 325.91 71.5624 339.017C72.4462 345.155 74.7857 352.012 80.1915 355.487C84.797 358.448 89.5742 358.459 95.1263 358.806C107.3 359.567 118.553 357.017 130.14 353.62C137.527 351.455 144.963 349.594 152.335 347.356C156.073 346.221 160.799 344.898 163.827 342.336C166.812 339.81 170.258 337.355 172.788 334.371C174.25 332.646 176.851 330.942 178.015 329.227C180.138 326.098 180.565 320.782 180.836 317.196C181.584 307.311 180.169 298.747 177.268 289.4" stroke="black" stroke-opacity="0.13" stroke-width="2" stroke-linecap="round"/>
<path d="M147.396 222.94C152.383 234.684 161.704 243.924 170.213 253.225C174.67 258.096 180.277 263.979 181.58 270.732C184.317 284.914 195.405 304.401 186.476 318.565C182.35 325.109 176.787 331.028 171.292 336.445C166.279 341.387 160.02 344.512 154.864 349.14C151.868 351.829 148.102 351.808 144.326 352.542C135.67 354.225 127.288 357.25 118.688 359.262C117.606 359.516 105.856 362.123 105.91 362.581C106.303 365.918 122.835 366.915 125.035 367.103C133.991 367.871 141.762 368.721 150.383 365.236C157.774 362.249 164.554 357.197 171.707 353.62C174.62 352.164 177.491 351.202 180.336 349.513C186.966 345.576 188.161 340.699 189.919 333.375C192.067 324.426 193.036 315.535 189.463 306.824C185.895 298.128 180.746 290.092 175.606 282.265C174.568 280.683 173.374 279.218 172.785 277.453" stroke="black" stroke-opacity="0.13" stroke-width="2" stroke-linecap="round"/>
<path d="M83.1777 331.218C83.5182 338.581 82.902 347.879 90.9356 351.214C95.4246 353.078 100.687 353.56 105.456 352.791C107.145 352.518 111.716 352.15 112.716 350.301C114.239 347.483 112.208 342.532 110.558 340.345C103.923 331.55 90.787 329.274 80.9375 325.991" stroke="black" stroke-opacity="0.13" stroke-width="2" stroke-linecap="round"/>
<path d="M148.891 308.069C141.614 310.046 133.304 311.135 126.405 314.25C117.051 318.475 106.255 330.705 105.58 341.341C105.294 345.845 108.641 346.87 111.968 348.476C119.314 352.022 126.418 353.49 134.246 349.762C142.409 345.875 145.499 338.74 145.572 329.89C145.604 325.949 145.618 316.911 142.875 313.711C141.187 311.742 138.179 311.803 135.864 311.803C127.244 311.803 119.738 312.808 111.554 315.536" stroke="black" stroke-opacity="0.13" stroke-width="2" stroke-linecap="round"/>
<path d="M162.332 322.257C165.263 326.288 164.02 326.931 159.511 328.397C157.02 329.207 154.331 329.383 151.878 330.222C144.309 332.812 137.814 340.849 132.628 346.526C127.285 352.376 123.953 357.203 133.126 358.848C141.516 360.351 149.718 362.081 158.225 360.217C167.844 358.108 186.387 350.005 182.909 337.192C181.71 332.774 175.596 330.469 171.583 329.393C165.286 327.703 158.931 326.179 152.624 324.497" stroke="black" stroke-opacity="0.13" stroke-width="2" stroke-linecap="round"/>
<path d="M156.359 317.777C150.608 320.021 150.264 318.977 150.551 312.218C150.838 305.48 152.314 291.938 159.014 288.073C163.582 285.438 170.489 280.033 174.281 286.247C180.178 295.912 179.727 303.175 174.281 313.462C170.129 321.304 167.179 325.308 158.599 326.738" stroke="black" stroke-opacity="0.13" stroke-width="2" stroke-linecap="round"/>
<path d="M149.636 304.335C143.791 297.265 139.478 294.973 130.511 294.669C125.216 294.49 111.395 294.524 108.731 300.519C105.997 306.67 124.27 312.06 127.98 313.296" stroke="black" stroke-opacity="0.13" stroke-width="2" stroke-linecap="round"/>
<path d="M98.113 334.205C102.253 324.457 111.876 316.201 113.214 305.497C113.938 299.706 113.508 296.311 110.061 291.475C107.854 288.378 106.391 285.285 102.552 284.547C94.6409 283.025 92.9688 293.269 92.9688 299.564C92.9687 307.375 97.8614 310.637 101.847 316.615C104.076 319.959 107.652 322.877 110.808 325.244" stroke="black" stroke-opacity="0.13" stroke-width="2" stroke-linecap="round"/>
<path d="M106 200C102.5 201 96.7997 207.2 102 224L122 239L150.5 230C153.333 228.5 158.2 224.3 155 219.5C154.5 216.833 153.5 209.8 153.5 203C154 198.833 153 190 145 188C143.167 186.833 132.8 187.6 106 200Z" fill="#DEBEA1"/>
<path d="M141.386 79.1445C142.666 74.103 167.197 68.2074 175.763 75.987C178.051 80.1151 175.86 96.3851 169.913 99.2607C166.684 101.707 155.401 101.89 151.376 100.675C148.705 99.4133 143.391 95.9589 141.167 86.755C138.361 82.612 131.629 81.4028 127.848 87.3875C127.789 89.417 126.727 94.9721 122.745 99.8514C121.982 102.96 95.7505 105.252 94.9512 101.675C91.3305 102.078 87.0255 94.8453 85.8192 89.7327C86.0481 81.6147 82.9596 78.4791 93.9414 73.7171C100.833 69.3452 119.752 70.3972 128.096 78.7622L141.386 79.1445Z" fill="#363636"/>
<path d="M87.0019 96C88.0019 95 89.1019 92.2 85.5019 89C82.6686 84.5 77.6019 73.6 80.0019 66L81.5019 59.5L120.502 43.5L176.002 56.5L177.502 68C177.169 75 173.202 87.7 160.002 82.5C166.002 79.6667 174.902 71.1 162.502 59.5C162.502 62.3333 160.502 67.6 152.502 66C155.335 64.8333 159.702 61.9 154.502 59.5C153.669 62.3333 149.102 68 137.502 68C139.169 66.5 142.002 61.7 140.002 54.5C135.835 56.5 129.502 63.7 137.502 76.5C131.164 77.7675 119.345 75.5407 120.255 57.4491C119.417 63.5953 116.347 71.7054 108.502 70C110.669 68.6667 113.002 64.5 105.002 58.5C101.502 63.9481 97.3019 74.9753 108.502 75.5C105.002 77.1667 96.0019 78.4 88.0019 70C92.0019 78.6667 97.4019 96 87.0019 96Z" fill="#A37C4F"/>
<path d="M80.9883 47.202C104.482 40.8583 154.784 32.3258 179.414 45.2149C178.862 14.5807 150.197 2.55318 135.933 0.368715C91.4554 -1.20568 79.8907 10.9816 73.9249 20.3438C67.198 37.0153 66.7423 50.379 67.3553 54.9769C69.5355 51.3233 73.6845 48.2709 80.9883 47.202Z" fill="#545454"/>
<path d="M77.2987 70.6739C74.4021 73.1839 68.1517 76.6978 66.3228 70.6739C64.9183 66.9335 64.0698 60.775 66.7456 55.6143C68.717 51.8121 72.6016 48.5516 79.5863 47.1987C101.954 39.886 150.019 29.3755 174.134 41.6228C175.824 42.4809 177.396 43.4507 178.834 44.5411C180.358 44.5411 183.04 47.7302 181.577 60.4866C181.577 62.9965 181.028 66.8647 178.834 62.2583C176.089 59.453 162.642 54.197 130.81 55.6143C127.608 55.0238 112.424 57.2089 77.2987 70.6739Z" fill="#4B4B4B"/>
<path d="M74.872 83.0559C77.4343 82.5615 82.847 85.1326 84 99.373C83.0391 102.999 79.5799 108.57 73.4308 101.845C70.5483 96.9007 66.801 86.2204 74.872 83.0559Z" fill="#DEBEA1"/>
</svg>