<svg width="225" height="367" viewBox="0 0 225 367" fill="none" xmlns="http://www.w3.org/2000/svg">
<path d="M84.4971 120C83.4971 120.333 80.5971 120.5 76.9971 118.5C76.2419 118.1 74.9658 116.493 73.5 114.35C71.0142 112.998 65.9497 108.127 64.2999 99.0483C64.104 98.6956 63.9964 98.5 63.9964 98.5C63.9964 98.5 63.8711 98.1781 63.6853 97.5793C62.3521 99.9018 59.5781 102.946 57 100C58.71 100.5 62.1301 98.7 62.1301 87.5C62.0136 82.0327 62.9977 75.0886 66.9964 68L89.9971 118.5C89.4971 120.333 87.8971 123.7 85.4971 122.5C85.4971 120.667 84.5971 116.3 80.9971 113.5C80.4971 115.667 80.4971 120 84.4971 120Z" fill="#94724A"/>
<path d="M170.213 48C172.867 56.6667 175.985 79.4 167.228 101L135.88 125L79.6544 112C73.6835 101.167 62.2392 75.2 64.2295 58L108.514 36L170.213 48Z" fill="#DEBEA1"/>
<path d="M218.398 168.322C217.875 158.329 207.895 138.639 172.153 139.814L181.602 329.806C184.033 332.161 194.69 334.514 217.875 325.083C223.009 308.579 230.302 254.12 218.398 168.322Z" fill="#363636"/>
<path d="M62 134C82.5 129.5 126.2 123.2 177 134C183.5 135.382 197.5 142.5 201 156.5C204.333 178.667 207.2 300 190 332C186.333 335.667 168.6 337.4 145 341C116 344.167 64.7 343.2 39.5 332L21.5 171.5C27 160.667 42.8 138 62 134Z" fill="#3A3A3A"/>
<path d="M164.501 253.5C159.668 250.167 148.801 240 144.001 226L116 223L72.001 279C62.001 300.833 50.001 347.3 82.001 358.5C93.8344 365.333 127.501 374.2 167.501 355C177.668 349 195.701 329.1 186.501 297.5C185.001 288.167 178.501 266.3 164.501 253.5Z" fill="#D2F2FF" fill-opacity="0.36"/>
<path d="M151.5 170C145.666 171.833 134.4 178.7 136 191.5L107 197.5C103.167 191.167 97 184 88.9981 185C88.4981 184.667 88.5981 182.3 92.9981 175.5C93.9981 173.667 97.2981 170.3 102.498 171.5C104.998 172.5 110.598 173.3 112.998 168.5C113.998 167 116.998 164.9 120.998 168.5C122.331 169.667 125.898 171.3 129.498 168.5C133.498 166.167 143.498 163.2 151.5 170Z" fill="#D2F2FF" fill-opacity="0.36"/>
<path d="M174.5 61L171.5 53L158 114.5C164 112.167 175.4 106.2 173 101C173.749 101.667 174.498 103.9 171.5 107.5C177.5 101.5 186.5 86.9 174.5 76.5C177.333 77.6667 183 78.6 183 73C181 74.3333 176.5 73.8 174.5 61Z" fill="#94724A"/>
<path d="M96 134.5C96.3333 133 96.8 128.5 96 122.5L136.5 129V138C126.167 141.333 103.6 145.3 96 134.5Z" fill="#AD9076"/>
<path d="M167.336 100.612C169.453 100.94 167.154 103.005 167.032 104.6C165.377 110.627 162.394 117.241 155.836 121.8C146.735 128.127 141.758 131.394 128.461 130.747C116.312 130.156 89.6646 126.088 80.2619 114.54C79.3169 113.967 74.0098 105.096 75.4323 101.995L80.2693 107.675C82.3484 108.502 85.083 106.367 80.2754 101.99L74.4272 88.4028C73.4264 87.0073 72.5845 85.8079 72.0009 84.9999L74.0376 87.4976L74.4272 88.4028C78.0279 93.4233 83.6853 100.982 86.77 101.982C91.9372 101.206 106.686 99.9045 123.596 90.7622C126.017 89.275 132.664 87.2405 139.891 91.0002C142.424 92.3631 150.218 96.9015 167.336 100.612Z" fill="#2E2E2E"/>
<path d="M58.6856 163.273C62.7777 172.699 67.9891 205.465 56.0984 261.126L57.6201 303.773L16.5995 318.771C14.2539 315.07 11.8177 308.287 11.1673 305.692C5.22725 281.987 -4.43292 223.808 4.44715 180.727C7.33939 169.236 20.3218 145.362 49.1134 141.791C50.7182 139.815 54.8793 141.345 58.6856 163.273Z" fill="#373737"/>
<path d="M13.9989 298C22.6656 283 50.5989 247.2 92.9989 224L123 231.5C115.333 246.333 90.2 286.6 51 329C46 332.333 33.1998 337 21.9989 329C16.9989 326.333 8.39891 316.4 13.9989 298Z" fill="#343434"/>
<path d="M68.872 83.0559C71.4343 82.5615 76.847 85.1326 78 99.373C77.0391 102.999 73.5799 108.57 67.4308 101.845C64.5483 96.9007 60.801 86.2204 68.872 83.0559Z" fill="#DEBEA1"/>
<path d="M99.9997 200C96.4997 201 90.7997 207.2 95.9997 224L116 239L144.5 230C147.333 228.5 152.2 224.3 149 219.5C148.5 216.833 147.5 209.8 147.5 203C148 198.833 147 190 139 188C137.167 186.833 126.8 187.6 99.9997 200Z" fill="#DEBEA1"/>
<path d="M64 71.5L75.5 65V79C75.5 84 76.7 95.8 81.5 103C75.6667 101 64 91.9 64 71.5Z" fill="#94724A"/>
<path d="M135.386 79.1445C136.666 74.103 161.197 68.2074 169.763 75.987C172.051 80.1151 169.86 96.3851 163.913 99.2607C160.684 101.707 149.401 101.89 145.376 100.675C142.705 99.4133 137.391 95.9589 135.167 86.755C132.361 82.612 125.629 81.4028 121.848 87.3875C121.789 89.417 120.727 94.9721 116.745 99.8514C115.982 102.96 89.7505 105.252 88.9512 101.675C85.3305 102.078 81.0255 94.8453 79.8192 89.7327C80.0481 81.6147 76.9596 78.4791 87.9414 73.7171C94.8334 69.3452 113.752 70.3972 122.096 78.7622L135.386 79.1445Z" fill="#363636"/>
<path d="M81.0019 96C82.0019 95 83.1019 92.2 79.5019 89C76.6686 84.5 71.6019 73.6 74.0019 66L75.5019 59.5L114.502 43.5L170.002 56.5L171.502 68C171.169 75 167.202 87.7 154.002 82.5C160.002 79.6667 168.902 71.1 156.502 59.5C156.502 62.3333 154.502 67.6 146.502 66C149.335 64.8333 153.702 61.9 148.502 59.5C147.669 62.3333 143.102 68 131.502 68C133.169 66.5 136.002 61.7 134.002 54.5C129.835 56.5 123.502 63.7 131.502 76.5C125.164 77.7675 113.345 75.5407 114.255 57.4491C113.417 63.5953 110.347 71.7054 102.502 70C104.669 68.6667 107.002 64.5 99.0019 58.5C95.5019 63.9481 91.3019 74.9753 102.502 75.5C99.0019 77.1667 90.0019 78.4 82.0019 70C86.0019 78.6667 91.4019 96 81.0019 96Z" fill="#A37C4F"/>
<path d="M74.9883 47.202C98.4817 40.8583 148.784 32.3258 173.414 45.2149C172.862 14.5807 144.197 2.55318 129.933 0.368715C85.4554 -1.20568 73.8907 10.9816 67.9249 20.3438C61.198 37.0153 60.7423 50.379 61.3553 54.9769C63.5355 51.3233 67.6845 48.2709 74.9883 47.202Z" fill="#545454"/>
<path d="M71.2987 70.6739C68.4021 73.1839 62.1517 76.6978 60.3228 70.6739C58.9183 66.9335 58.0698 60.775 60.7456 55.6143C62.717 51.8121 66.6016 48.5516 73.5863 47.1987C95.9543 39.886 144.019 29.3755 168.134 41.6228C169.824 42.4809 171.396 43.4507 172.834 44.5411C174.358 44.5411 177.04 47.7302 175.577 60.4866C175.577 62.9965 175.028 66.8647 172.834 62.2583C170.089 59.453 156.642 54.197 124.81 55.6143C121.608 55.0238 106.424 57.2089 71.2987 70.6739Z" fill="#4B4B4B"/>
<ellipse cx="140.715" cy="352.883" rx="19.5" ry="8.5" transform="rotate(-10.4078 140.715 352.883)" fill="#D5AB6E"/>
<ellipse cx="149.296" cy="349.782" rx="2.5" ry="1" transform="rotate(-10.4078 149.296 349.782)" fill="#7C6141"/>
<ellipse cx="144.64" cy="346.57" rx="2.5" ry="1" transform="rotate(-10.4078 144.64 346.57)" fill="#7C6141"/>
<ellipse cx="146.886" cy="353.274" rx="2.5" ry="1" transform="rotate(-10.4078 146.886 353.274)" fill="#7C6141"/>
<ellipse cx="136.249" cy="356.245" rx="2.5" ry="1" transform="rotate(-10.4078 136.249 356.245)" fill="#7C6141"/>
<ellipse cx="129.804" cy="354.378" rx="2.5" ry="1" transform="rotate(-10.4078 129.804 354.378)" fill="#7C6141"/>
<ellipse cx="137.132" cy="349.982" rx="2.5" ry="1" transform="rotate(-10.4078 137.132 349.982)" fill="#7C6141"/>
<ellipse cx="140.715" cy="352.883" rx="19.5" ry="8.5" transform="rotate(-10.4078 140.715 352.883)" fill="#D5AB6E"/>
<ellipse cx="149.296" cy="349.782" rx="2.5" ry="1" transform="rotate(-10.4078 149.296 349.782)" fill="#7C6141"/>
<ellipse cx="144.64" cy="346.57" rx="2.5" ry="1" transform="rotate(-10.4078 144.64 346.57)" fill="#7C6141"/>
<ellipse cx="146.886" cy="353.274" rx="2.5" ry="1" transform="rotate(-10.4078 146.886 353.274)" fill="#7C6141"/>
<ellipse cx="136.249" cy="356.245" rx="2.5" ry="1" transform="rotate(-10.4078 136.249 356.245)" fill="#7C6141"/>
<ellipse cx="129.804" cy="354.378" rx="2.5" ry="1" transform="rotate(-10.4078 129.804 354.378)" fill="#7C6141"/>
<ellipse cx="137.132" cy="349.982" rx="2.5" ry="1" transform="rotate(-10.4078 137.132 349.982)" fill="#7C6141"/>
<ellipse cx="105.272" cy="348.478" rx="19.5" ry="8.5" transform="rotate(23.1349 105.272 348.478)" fill="#C5A372"/>
<ellipse cx="114.14" cy="350.635" rx="2.5" ry="1" transform="rotate(23.1349 114.14 350.635)" fill="#816647"/>
<ellipse cx="112.031" cy="345.385" rx="2.5" ry="1" transform="rotate(23.1349 112.031 345.385)" fill="#816647"/>
<ellipse cx="110.203" cy="352.215" rx="2.5" ry="1" transform="rotate(23.1349 110.203 352.215)" fill="#816647"/>
<ellipse cx="99.6951" cy="348.812" rx="2.5" ry="1" transform="rotate(23.1349 99.6951 348.812)" fill="#816647"/>
<ellipse cx="95.3553" cy="343.696" rx="2.5" ry="1" transform="rotate(23.1349 95.3553 343.696)" fill="#816647"/>
<ellipse cx="103.89" cy="344.081" rx="2.5" ry="1" transform="rotate(23.1349 103.89 344.081)" fill="#816647"/>
<ellipse cx="153.598" cy="338.471" rx="19.5" ry="8.5" transform="rotate(9.07912 153.598 338.471)" fill="#C5A372"/>
<ellipse cx="162.721" cy="338.409" rx="2.5" ry="1" transform="rotate(9.07912 162.721 338.409)" fill="#816647"/>
<ellipse cx="159.401" cy="333.828" rx="2.5" ry="1" transform="rotate(9.07912 159.401 333.828)" fill="#816647"/>
<ellipse cx="159.287" cy="340.898" rx="2.5" ry="1" transform="rotate(9.07912 159.287 340.898)" fill="#816647"/>
<ellipse cx="148.268" cy="340.149" rx="2.5" ry="1" transform="rotate(9.07912 148.268 340.149)" fill="#816647"/>
<ellipse cx="142.815" cy="336.24" rx="2.5" ry="1" transform="rotate(9.07912 142.815 336.24)" fill="#816647"/>
<ellipse cx="151.19" cy="334.54" rx="2.5" ry="1" transform="rotate(9.07912 151.19 334.54)" fill="#816647"/>
<ellipse rx="18.6007" ry="8.10094" transform="matrix(0.990887 -0.134692 0.135021 0.990843 121.263 339.229)" fill="#D5AB6E"/>
<ellipse rx="2.38471" ry="0.953051" transform="matrix(0.990887 -0.134692 0.135021 0.990843 129.582 336.656)" fill="#7C6141"/>
<ellipse rx="2.38471" ry="0.953051" transform="matrix(0.990887 -0.134692 0.135021 0.990843 125.285 333.392)" fill="#7C6141"/>
<ellipse rx="2.38471" ry="0.953051" transform="matrix(0.990887 -0.134692 0.135021 0.990843 127.128 339.874)" fill="#7C6141"/>
<ellipse rx="2.38471" ry="0.953051" transform="matrix(0.990887 -0.134692 0.135021 0.990843 116.863 342.232)" fill="#7C6141"/>
<ellipse rx="2.38471" ry="0.953051" transform="matrix(0.990887 -0.134692 0.135021 0.990843 110.804 340.17)" fill="#7C6141"/>
<ellipse rx="2.38471" ry="0.953051" transform="matrix(0.990887 -0.134692 0.135021 0.990843 117.98 336.309)" fill="#7C6141"/>
<ellipse cx="89.813" cy="336.123" rx="19.5" ry="8.5" transform="rotate(2.21619 89.813 336.123)" fill="#DCB273"/>
<ellipse cx="98.8618" cy="334.972" rx="2.5" ry="1" transform="rotate(2.21619 98.8618 334.972)" fill="#927553"/>
<ellipse cx="95.022" cy="330.82" rx="2.5" ry="1" transform="rotate(2.21619 95.022 330.82)" fill="#927553"/>
<ellipse cx="95.7485" cy="337.853" rx="2.5" ry="1" transform="rotate(2.21619 95.7485 337.853)" fill="#927553"/>
<ellipse cx="84.7212" cy="338.428" rx="2.5" ry="1" transform="rotate(2.21619 84.7212 338.428)" fill="#927553"/>
<ellipse cx="78.8384" cy="335.197" rx="2.5" ry="1" transform="rotate(2.21619 78.8384 335.197)" fill="#927553"/>
<ellipse cx="86.9516" cy="332.509" rx="2.5" ry="1" transform="rotate(2.21619 86.9516 332.509)" fill="#927553"/>
<ellipse rx="17.5043" ry="8.86253" transform="matrix(0.985708 -0.168466 0.111869 0.993723 163.003 325.23)" fill="#DCB273"/>
<ellipse rx="2.24414" ry="1.04265" transform="matrix(0.985708 -0.168466 0.111869 0.993723 170.79 322.316)" fill="#927553"/>
<ellipse rx="2.24414" ry="1.04265" transform="matrix(0.985708 -0.168466 0.111869 0.993723 166.786 318.776)" fill="#927553"/>
<ellipse rx="2.24414" ry="1.04265" transform="matrix(0.985708 -0.168466 0.111869 0.993723 168.485 325.877)" fill="#927553"/>
<ellipse rx="2.24414" ry="1.04265" transform="matrix(0.985708 -0.168466 0.111869 0.993723 158.872 328.577)" fill="#927553"/>
<ellipse rx="2.24414" ry="1.04265" transform="matrix(0.985708 -0.168466 0.111869 0.993723 153.212 326.376)" fill="#927553"/>
<ellipse rx="2.24414" ry="1.04265" transform="matrix(0.985708 -0.168466 0.111869 0.993723 159.942 322.057)" fill="#927553"/>
<ellipse cx="86.5419" cy="319.799" rx="19.5" ry="8.5" transform="rotate(55.2157 86.5419 319.799)" fill="#C5A372"/>
<ellipse cx="92.9096" cy="326.333" rx="2.5" ry="1" transform="rotate(55.2157 92.9096 326.333)" fill="#816647"/>
<ellipse cx="93.9096" cy="320.766" rx="2.5" ry="1" transform="rotate(55.2157 93.9096 320.766)" fill="#816647"/>
<ellipse cx="88.7338" cy="325.583" rx="2.5" ry="1" transform="rotate(55.2157 88.7338 325.583)" fill="#816647"/>
<ellipse cx="81.6362" cy="317.119" rx="2.5" ry="1" transform="rotate(55.2157 81.6362 317.119)" fill="#816647"/>
<ellipse cx="80.6752" cy="310.479" rx="2.5" ry="1" transform="rotate(55.2157 80.6752 310.479)" fill="#816647"/>
<ellipse cx="87.7065" cy="315.339" rx="2.5" ry="1" transform="rotate(55.2157 87.7065 315.339)" fill="#816647"/>
<ellipse cx="109.166" cy="326.064" rx="19.5" ry="8.5" transform="rotate(1.66619 109.166 326.064)" fill="#D5AB6E"/>
<ellipse cx="119.528" cy="329.072" rx="2.5" ry="1" transform="rotate(1.66619 119.528 329.072)" fill="#7C6141"/>
<ellipse cx="115.528" cy="323.072" rx="2.5" ry="1" transform="rotate(1.66619 115.528 323.072)" fill="#7C6141"/>
<ellipse cx="110.528" cy="327.072" rx="2.5" ry="1" transform="rotate(1.66619 110.528 327.072)" fill="#7C6141"/>
<ellipse cx="104.095" cy="328.417" rx="2.5" ry="1" transform="rotate(1.66619 104.095 328.417)" fill="#7C6141"/>
<ellipse cx="98.1847" cy="325.244" rx="2.5" ry="1" transform="rotate(1.66619 98.1847 325.244)" fill="#7C6141"/>
<ellipse cx="104.528" cy="320.072" rx="2.5" ry="1" transform="rotate(1.66619 104.528 320.072)" fill="#7C6141"/>
<ellipse rx="19.5" ry="8.5" transform="matrix(-0.987471 0.157798 0.157798 0.987471 134.597 322.471)" fill="#C5A372"/>
<ellipse rx="2.5" ry="1" transform="matrix(-0.987471 0.157798 0.157798 0.987471 125.474 322.409)" fill="#816647"/>
<ellipse rx="2.5" ry="1" transform="matrix(-0.987471 0.157798 0.157798 0.987471 128.795 317.828)" fill="#816647"/>
<ellipse rx="2.5" ry="1" transform="matrix(-0.987471 0.157798 0.157798 0.987471 128.908 324.898)" fill="#816647"/>
<ellipse rx="2.5" ry="1" transform="matrix(-0.987471 0.157798 0.157798 0.987471 139.927 324.149)" fill="#816647"/>
<ellipse rx="2.5" ry="1" transform="matrix(-0.987471 0.157798 0.157798 0.987471 145.381 320.24)" fill="#816647"/>
<ellipse rx="2.5" ry="1" transform="matrix(-0.987471 0.157798 0.157798 0.987471 137.006 318.54)" fill="#816647"/>
</svg>