<svg width="445" height="445" viewBox="0 0 445 445" fill="none" xmlns="http://www.w3.org/2000/svg">
<path d="M201.009 62.4912L209.425 74.2905L217.884 62.4912H223.333L212.171 78.1138L223.575 94H218.126L209.425 81.8931L200.79 94H195.34L206.744 78.1138L195.582 62.4912H201.009ZM233.485 62.4912V94H228.98V62.4912H233.485ZM246.097 62.4912V94H241.593V62.4912H246.097Z" fill="black"/>
<circle cx="222.5" cy="222.5" r="222.5" fill="#F0A4BB"/>
<ellipse cx="222.5" cy="222" rx="198.5" ry="196" fill="white"/>
<ellipse cx="222.5" cy="222" rx="198.5" ry="196" fill="url(#paint0_radial_0_1)" fill-opacity="0.36"/>
<path d="M295.093 371L285.102 345.093H289.077L297.134 366.411L305.21 345.093H309.167L299.176 371H295.093Z" fill="#252525"/>
<path d="M213.093 389L203.102 363.093H207.077L215.134 384.411L223.21 363.093H227.167L217.176 389H213.093ZM235.296 363.093V389H231.593V363.093H235.296Z" fill="#252525"/>
<path d="M132.093 367L122.102 341.093H126.077L134.134 362.411L142.21 341.093H146.167L136.176 367H132.093ZM154.296 341.093V367H150.593V341.093H154.296ZM164.667 341.093V367H160.963V341.093H164.667Z" fill="#252525"/>
<path d="M77.0928 312L67.1021 286.093H71.0767L79.1343 307.411L87.21 286.093H91.1665L81.1758 312H77.0928ZM99.2964 286.093V312H95.5928V286.093H99.2964ZM109.667 286.093V312H105.963V286.093H109.667ZM120.037 286.093V312H116.333V286.093H120.037Z" fill="#252525"/>
<path d="M59.0278 213.093V239H55.3242V213.093H59.0278ZM68.1333 213.093L75.0527 222.794L82.0083 213.093H86.4888L77.311 225.938L86.6875 239H82.207L75.0527 229.045L67.9526 239H63.4722L72.8486 225.938L63.6709 213.093H68.1333Z" fill="#252525"/>
<path d="M204.763 62.0928L211.683 71.7944L218.638 62.0928H223.119L213.941 74.938L223.317 88H218.837L211.683 78.0454L204.583 88H200.102L209.479 74.938L200.301 62.0928H204.763ZM231.465 62.0928V88H227.762V62.0928H231.465ZM241.835 62.0928V88H238.132V62.0928H241.835Z" fill="#252525"/>
<path d="M134.763 81.0928L141.683 90.7944L148.638 81.0928H153.119L143.941 93.938L153.317 107H148.837L141.683 97.0454L134.583 107H130.102L139.479 93.938L130.301 81.0928H134.763ZM161.465 81.0928V107H157.762V81.0928H161.465Z" fill="#252525"/>
<path d="M78.7632 133.093L85.6826 142.794L92.6382 133.093H97.1187L87.9409 145.938L97.3174 159H92.8369L85.6826 149.045L78.5825 159H74.1021L83.4785 145.938L74.3008 133.093H78.7632Z" fill="#252525"/>
<path d="M363.028 212.093V238H359.324V212.093H363.028ZM373.398 212.093V238H369.694V212.093H373.398ZM383.768 212.093V238H380.064V212.093H383.768Z" fill="#252525"/>
<path d="M339.028 288.093V314H335.324V288.093H339.028ZM353.463 314L343.472 288.093H347.447L355.504 309.411L363.58 288.093H367.537L357.546 314H353.463Z" fill="#252525"/>
<path d="M297.028 77.0928V103H293.324V77.0928H297.028Z" fill="#252525"/>
<path d="M352.028 134.093V160H348.324V134.093H352.028ZM362.398 134.093V160H358.694V134.093H362.398Z" fill="#252525"/>
<line x1="222" y1="33" x2="222" y2="51" stroke="#252525" stroke-width="4"/>
<line x1="319.088" y1="58.1625" x2="308.626" y2="72.8097" stroke="#252525" stroke-width="4"/>
<line x1="137.088" y1="371.162" x2="126.626" y2="385.81" stroke="#252525" stroke-width="4"/>
<line x1="385.981" y1="127.743" x2="369.981" y2="136.743" stroke="#252525" stroke-width="4"/>
<line x1="412" y1="224" x2="394" y2="224" stroke="#252525" stroke-width="4"/>
<line x1="386.891" y1="319.664" x2="371.891" y2="309.664" stroke="#252525" stroke-width="4"/>
<line x1="125.715" y1="59.971" x2="134.715" y2="74.971" stroke="#252525" stroke-width="4"/>
<line y1="-2" x2="18.3576" y2="-2" transform="matrix(0.871576 0.490261 0.490261 -0.871576 54 132)" stroke="#252525" stroke-width="4"/>
<line y1="-2" x2="18" y2="-2" transform="matrix(1 3.25495e-09 3.25495e-09 -1 30 225)" stroke="#252525" stroke-width="4"/>
<line y1="-2" x2="18.0278" y2="-2" transform="matrix(0.83205 -0.5547 -0.5547 -0.83205 55 317)" stroke="#252525" stroke-width="4"/>
<line x1="318.304" y1="387.06" x2="308.764" y2="371.796" stroke="#252525" stroke-width="4"/>
<line x1="223" y1="412" x2="223" y2="394" stroke="#252525" stroke-width="4"/>
<line x1="202.518" y1="399.048" x2="201.748" y2="411.048" stroke="#252525" stroke-width="1.5"/>
<line x1="102.53" y1="354.53" x2="94.0451" y2="363.016" stroke="#252525" stroke-width="1.5"/>
<line x1="118.061" y1="366.48" x2="110.577" y2="375.48" stroke="#252525" stroke-width="1.5"/>
<line x1="149.142" y1="384.361" x2="143.372" y2="394.882" stroke="#252525" stroke-width="1.5"/>
<line x1="166.458" y1="391.298" x2="161.688" y2="402.298" stroke="#252525" stroke-width="1.5"/>
<line x1="184.738" y1="397.134" x2="182.738" y2="408.134" stroke="#252525" stroke-width="1.5"/>
<line x1="59.3104" y1="295.683" x2="48.3104" y2="300.683" stroke="#252525" stroke-width="1.5"/>
<line x1="78.4301" y1="327.614" x2="68.4301" y2="334.614" stroke="#252525" stroke-width="1.5"/>
<line x1="89.4605" y1="341.592" x2="79.9882" y2="348.959" stroke="#252525" stroke-width="1.5"/>
<line x1="52.2563" y1="277.705" x2="41.2563" y2="281.705" stroke="#252525" stroke-width="1.5"/>
<line x1="47.1819" y1="258.728" x2="35.1819" y2="261.728" stroke="#252525" stroke-width="1.5"/>
<line x1="44.0679" y1="241.747" x2="32.1172" y2="242.833" stroke="#252525" stroke-width="1.5"/>
<line y1="-0.75" x2="12.0246" y2="-0.75" transform="matrix(-0.0639962 -0.99795 -0.99795 0.0639962 201.77 47)" stroke="#252525" stroke-width="1.5"/>
<line y1="-0.75" x2="12" y2="-0.75" transform="matrix(-0.707107 -0.707107 -0.707107 0.707107 99.4844 96.4854)" stroke="#252525" stroke-width="1.5"/>
<line y1="-0.75" x2="11.7054" y2="-0.75" transform="matrix(-0.639396 -0.768877 -0.768877 0.639396 114.484 83)" stroke="#252525" stroke-width="1.5"/>
<line y1="-0.75" x2="12" y2="-0.75" transform="matrix(-0.480867 -0.876794 -0.876794 0.480867 146.77 63.5215)" stroke="#252525" stroke-width="1.5"/>
<line y1="-0.75" x2="11.9895" y2="-0.75" transform="matrix(-0.397809 -0.917468 -0.917468 0.397809 164.77 55)" stroke="#252525" stroke-width="1.5"/>
<line y1="-0.75" x2="11.1803" y2="-0.75" transform="matrix(-0.178885 -0.98387 -0.98387 0.178885 182 49)" stroke="#252525" stroke-width="1.5"/>
<line y1="-0.75" x2="12.083" y2="-0.75" transform="matrix(-0.910366 -0.413803 -0.413803 0.910366 57 157)" stroke="#252525" stroke-width="1.5"/>
<line y1="-0.75" x2="12.2066" y2="-0.75" transform="matrix(-0.819232 -0.573462 -0.573462 0.819232 75 123)" stroke="#252525" stroke-width="1.5"/>
<line y1="-0.75" x2="12" y2="-0.75" transform="matrix(-0.789352 -0.613941 -0.613941 0.789352 86.4727 108.367)" stroke="#252525" stroke-width="1.5"/>
<line y1="-0.75" x2="11.7047" y2="-0.75" transform="matrix(-0.939793 -0.341743 -0.341743 0.939793 51 176)" stroke="#252525" stroke-width="1.5"/>
<line y1="-0.75" x2="12.3693" y2="-0.75" transform="matrix(-0.970142 -0.242536 -0.242536 0.970142 46 194)" stroke="#252525" stroke-width="1.5"/>
<line y1="-0.75" x2="12" y2="-0.75" transform="matrix(-0.995893 -0.0905357 -0.0905357 0.995893 43.9492 211)" stroke="#252525" stroke-width="1.5"/>
<line y1="-0.75" x2="12.0246" y2="-0.75" transform="matrix(0.0639962 0.99795 0.99795 -0.0639962 242 399)" stroke="#252525" stroke-width="1.5"/>
<line y1="-0.75" x2="12" y2="-0.75" transform="matrix(0.707107 0.707107 0.707107 -0.707107 341.77 354)" stroke="#252525" stroke-width="1.5"/>
<line y1="-0.75" x2="11.7054" y2="-0.75" transform="matrix(0.639396 0.768877 0.768877 -0.639396 326.285 366)" stroke="#252525" stroke-width="1.5"/>
<line y1="-0.75" x2="12" y2="-0.75" transform="matrix(0.480867 0.876794 0.876794 -0.480867 295.285 384)" stroke="#252525" stroke-width="1.5"/>
<line y1="-0.75" x2="11.9895" y2="-0.75" transform="matrix(0.397809 0.917468 0.917468 -0.397809 278 391)" stroke="#252525" stroke-width="1.5"/>
<line y1="-0.75" x2="11.1803" y2="-0.75" transform="matrix(0.178885 0.98387 0.98387 -0.178885 259.77 397)" stroke="#252525" stroke-width="1.5"/>
<line y1="-0.75" x2="12.083" y2="-0.75" transform="matrix(0.910366 0.413803 0.413803 -0.910366 384.77 295)" stroke="#252525" stroke-width="1.5"/>
<line y1="-0.75" x2="12.2066" y2="-0.75" transform="matrix(0.819232 0.573462 0.573462 -0.819232 365.77 327)" stroke="#252525" stroke-width="1.5"/>
<line y1="-0.75" x2="12" y2="-0.75" transform="matrix(0.789352 0.613941 0.613941 -0.789352 354.77 341)" stroke="#252525" stroke-width="1.5"/>
<line y1="-0.75" x2="11.7047" y2="-0.75" transform="matrix(0.939793 0.341743 0.341743 -0.939793 391.77 277)" stroke="#252525" stroke-width="1.5"/>
<line y1="-0.75" x2="12.3693" y2="-0.75" transform="matrix(0.970142 0.242536 0.242536 -0.970142 396.77 258)" stroke="#252525" stroke-width="1.5"/>
<line y1="-0.75" x2="12" y2="-0.75" transform="matrix(0.995893 0.0905357 0.0905357 -0.995893 399.77 241)" stroke="#252525" stroke-width="1.5"/>
<line x1="241.252" y1="46.952" x2="242.021" y2="34.952" stroke="#252525" stroke-width="1.5"/>
<line x1="341.239" y1="91.4697" x2="349.724" y2="82.9844" stroke="#252525" stroke-width="1.5"/>
<line x1="325.708" y1="79.5205" x2="333.193" y2="70.5205" stroke="#252525" stroke-width="1.5"/>
<line x1="294.628" y1="61.6394" x2="300.398" y2="51.1178" stroke="#252525" stroke-width="1.5"/>
<line x1="277.312" y1="54.7016" x2="282.081" y2="43.7016" stroke="#252525" stroke-width="1.5"/>
<line x1="259.032" y1="48.8658" x2="261.032" y2="37.8658" stroke="#252525" stroke-width="1.5"/>
<line x1="384.459" y1="150.317" x2="395.459" y2="145.317" stroke="#252525" stroke-width="1.5"/>
<line x1="365.339" y1="118.386" x2="375.339" y2="111.386" stroke="#252525" stroke-width="1.5"/>
<line x1="354.309" y1="104.408" x2="363.781" y2="97.0407" stroke="#252525" stroke-width="1.5"/>
<line x1="391.513" y1="168.295" x2="402.513" y2="164.295" stroke="#252525" stroke-width="1.5"/>
<line x1="396.588" y1="187.272" x2="408.588" y2="184.272" stroke="#252525" stroke-width="1.5"/>
<line x1="399.702" y1="204.253" x2="411.652" y2="203.167" stroke="#252525" stroke-width="1.5"/>
<circle cx="222" cy="225" r="9" fill="black"/>
<path d="M218.43 216.271C218.43 216.271 222.35 213.843 309.572 170.199C237.846 224.849 228.22 231.451 228.22 231.451C225.849 232.601 220.157 233.843 216.36 229.611C214.437 226.783 212.16 220.155 218.43 216.271Z" fill="#252525"/>
<path d="M223.026 217.248C223.026 217.248 237.712 219.018 377.051 253.891C249.221 238.988 219.985 235.054 219.985 235.054C217.46 234.3 212.425 231.37 212.486 225.684C212.98 222.3 215.779 215.875 223.026 217.248Z" fill="#252525"/>
<defs>
<radialGradient id="paint0_radial_0_1" cx="0" cy="0" r="1" gradientUnits="userSpaceOnUse" gradientTransform="translate(222.5 222) rotate(89.8538) scale(196.001 198.501)">
<stop offset="0.0001" stop-color="#FFFAF4"/>
<stop offset="0.755208" stop-color="#FFFFF7"/>
<stop offset="0.84375" stop-color="#FFFFF9" stop-opacity="0.957892"/>
<stop offset="1" stop-color="#E0E0E0" stop-opacity="0.957892"/>
</radialGradient>
</defs>
</svg>