<svg width="259" height="396" viewBox="0 0 259 396" fill="none" xmlns="http://www.w3.org/2000/svg">
<path d="M86.2088 3.07196C90.2088 4.90529 97.3088 10.472 93.7088 18.072L75.707 43.072C73.707 46.9054 67.207 54.272 57.207 53.072C52.8737 52.572 42.8074 49.872 37.2088 43.072C34.5416 41.7387 30.4071 36.972 35.2071 28.572C36.3738 26.9054 38.4074 22.472 37.2088 18.072C36.7088 15.072 38.1088 8.27201 47.7088 5.07196C53.3755 1.73863 69.0088 -3.32804 86.2088 3.07196Z" fill="#DFDFDF"/>
<path d="M82.5 107C81.6667 107.667 80.1003 109.6 80.5016 112C79.5263 110.927 78.3911 109.226 78.5792 108C77.3861 108.667 74.4 110 72 110C71.5 110.167 70.2 110.2 69 109C69.6667 109.167 71.4 109.2 73 108C73.5 107 75.4 105 79 105L81.5016 106.5L82.5 107Z" fill="#E0E0E0"/>
<path d="M68.8 134.054C70 134.054 72.52 134.549 73 136.527L67.6 139L64 136.527C64.4 135.538 65.92 133.658 68.8 134.054Z" fill="#EBAAD2"/>
<path d="M56.6318 138.477C59.1538 136.844 65.2857 134.492 69.6373 138.15L69.5839 142.15L65.0509 144.59L62.0512 144.55C61.3757 145.207 59.3208 146.813 56.505 147.976C53.9963 148.609 48.7897 149.073 48.0324 145.863C48.6924 146.371 50.6202 146.797 53.052 144.43C53.2276 143.765 54.1893 141.644 56.6318 138.477Z" fill="#EFAFD6"/>
<path d="M68.2086 135.614C70.0419 134.114 74.3086 132.314 76.7086 137.114V143.114C75.0414 143.947 71.0073 145.114 68.2086 143.114C66.5419 141.614 64.2086 138.014 68.2086 135.614Z" fill="#F7B9DE"/>
<path d="M77.8217 142.716L83.168 92.0757L119.222 119.394C118.264 124.692 116.3 138 116.113 148.848L77.8217 142.716Z" fill="#C8A882"/>
<path d="M155.043 158.419C154.865 154.92 148.494 143.44 129.001 145.504L150.283 231.435L150.337 247.935C153.85 251.923 162.885 262.394 194.949 281.789L212.416 271.731C209.736 267.907 198.964 254.275 194.837 247.789C190.71 241.302 187.806 238.312 178.275 228.843C174.227 214.356 163.914 179.99 155.043 158.419Z" fill="#DFDFDF"/>
<path d="M67.5 147.5C71.5 144.5 96.5 132.5 135.5 144.5C149.5 147.5 155.5 181 155.5 198C155.5 218.5 157 224 151.5 249.5L145.5 262.5L45 270.5L39.5 244.5C39.5 235.333 38.6 213.2 35 198V154C41 151.167 55.9 145.9 67.5 147.5Z" fill="#ECECEC"/>
<path d="M23.001 278L56.001 286.5L44 391.5C38.8333 391.667 26.8002 390.5 20.001 384.5C17.6677 363.833 15.001 313.6 23.001 278Z" fill="#383838"/>
<path d="M98.0043 172C98.3377 172.833 104.504 173.8 126.504 171C126.67 164.833 125.8 150.1 121 140.5C123.333 140.333 128.4 140.6 130 143C134 147 137.457 156.5 142.5 171C145.63 180 146.5 186.5 146.5 200.5C146.5 214.5 143.6 241.5 148 243.5C150.667 244.333 153.8 245.1 155 249.5C155.833 252 160.5 263.4 160.5 285L167 343C167 351.167 167 369.5 160.5 384.5C132.833 390.667 66.9003 402 42.5016 392C41.0016 382.5 39.4016 353.6 45.0016 314L48.0016 257C52.3349 257.5 57.9 257.7 65.5 254.5C70.1667 253.5 77.5 248.5 79.5 236.5C80.1667 229.333 87.6016 207 82.0016 175C80.5016 169.5 73.4017 156.4 57.0024 148C56.6691 147.667 56.1024 146.7 56.5024 145.5C58.5024 143.333 65.1028 139 75.5043 139V143C75.0043 143 74.5043 143.5 76.5043 145.5C77.0043 145.5 87.5043 151.5 94.5043 166C95.0043 167.036 96.0043 171.5 98.0043 172Z" fill="#FFBFE6"/>
<path d="M80.5008 116V120C83.7851 121.971 95.8384 125.883 118 125.997L119.001 122.5C120.667 122.667 123.7 124.6 122.5 131C121 133.667 118.5 139.6 120.5 142C121.667 145.167 122.8 151.3 118 150.5C108.333 150.833 86.3 150.6 75.5 147C73.8333 146.667 70.9002 145.2 72.5008 142C72.8342 140.333 73.5008 136.2 73.5008 133C71.8342 129.333 69.3008 121.2 72.5008 118C73.3342 117 76.1008 115.2 80.5008 116Z" fill="#F4F4F4"/>
<path d="M38.2983 238.881C44.0114 249.234 55.392 273.414 63.1622 302.267L47.4806 314.029C38.4344 306.057 18.5155 285.285 11.2093 265.971C5.8497 256.721 -3.51944 234.943 1.88115 221.824C4.0562 210.355 12.4927 181.781 28.8384 159.227C34.5857 153.981 48.316 147.723 57.2589 164.661C60.3667 168.542 65.0278 179.881 58.809 194.188C56.7076 200.824 49.6635 219.052 38.2983 238.881Z" fill="#F4F4F4"/>
<path d="M155.016 116.821C161.543 106.183 174.136 76.9183 172.294 44.9689L148.919 14.9923L96.8292 36.3625L72.449 95.0213C76.0044 99.866 87.5859 111.024 105.469 116.897C115.971 122.713 127.76 127.793 137.53 128.621C140.545 128.877 148.364 129.133 155.016 116.821Z" fill="#D3B28B"/>
<path d="M180 47C178 51.5002 176.502 51.5002 172.502 51.5002C166.668 46.0002 149.8 35.8 129 39C125.5 39 116 40.9 106 48.5002C103.667 49.5002 99.4 53.8002 101 63C101.167 65.8333 99.9 72.1 93.5 74.5C91.3333 75.1667 86.1 75.2 82.5 70L74.5 71.5L74 92L74.5 95.5L82 104.5L81.5 107.5H77.5C72.1667 107.667 59.1003 106.3 49.5017 99.5C45.0017 96.1667 38.3017 84 47.5017 62C49.335 59.3333 53.4017 50.5 55.0017 36.5C55.5017 31.5 59.0017 19.9 69.0017 13.5C70.1683 12.5 74.2944 10.4 81.4652 10C82.2394 8.74594 83.9346 7.1135 87.0017 6.50023C92.835 4.50019 108.602 1.30011 125.002 4.50011C131.002 6.16678 144 6.50023 157.5 10C162 11.5 168.6 15 175 23C177 26 181.2 26.6 180 47Z" fill="#EBEBEB"/>
<path d="M203.499 253C204.165 252.5 205.999 252.7 207.999 257.5C215.5 267.5 212 267.625 229.5 279C236.167 283.333 246.7 294.2 235.5 303L180.5 276.5L176.999 274C176.499 273.5 175.799 272.3 176.999 271.5C181.665 266.833 193.499 256.6 203.499 253Z" fill="#CB5353"/>
<path d="M63.9995 289C65.4995 287.833 68.5 286 70.5 295C71.8333 301 74.5 305.5 79 310C80 311.5 84.5 314.5 94.5 314.5H103C107.333 316.167 116.4 322.1 118 332.5C117.167 334.333 112.7 338.8 101.5 342C94.8333 343.833 78.9 345.4 68.5 337C62.3333 332.667 48.0999 322.4 40.4995 316C39.1662 315.5 36.8995 313.6 38.4995 310C38.6662 308.167 43.9995 301.4 63.9995 289Z" fill="#CB5353"/>
<path d="M109 309C101.096 310.749 94.086 314 86 314" stroke="black" stroke-opacity="0.1" stroke-width="2" stroke-linecap="round"/>
<path d="M131 341L65 303L191 276L259 315.5L131 341Z" fill="#767676"/>
<path d="M191 276L65 303V299.5L191 273L259 312V315.5L191 276Z" fill="#6A6A6A"/>
<ellipse cx="201.78" cy="296.056" rx="12.5" ry="6.5" transform="rotate(-2.57885 201.78 296.056)" fill="#E2AE6F"/>
<path d="M131 341L259 315.5V312L131 337.5L65 299.5V303L131 341Z" fill="#545454"/>
<path d="M87.6002 309.078C84.3319 308.014 75.1956 307.037 64.7963 311.638C57.802 314.734 63.9349 325.467 70.5484 320.801C77.1618 316.135 73.6495 318.818 71.0666 320.743C73.7854 320.029 81.048 318.028 88.348 315.737C89.5941 314.371 91.189 311.127 87.6002 309.078Z" fill="#D55959"/>
<path d="M111 73.5L97 71L93 74.5L109.5 79L111 73.5Z" fill="#424242"/>
<path d="M207.665 270.004C208.809 269.717 211.434 270.001 212.781 273.432C213.661 276.941 214.842 285.046 212.527 289.395C211.95 290.325 210.111 291.885 207.379 290.686C205.818 289.311 202.799 284.061 203.211 274.065C202.979 273.142 203.546 271.037 207.665 270.004Z" fill="#D45959"/>
<path d="M67.9815 65.4813C71.4815 63.3146 79.7815 61.8813 84.9815 73.4813L79.9805 89.9812C79.4805 90.6479 77.5805 91.9812 73.9805 91.9812C71.9808 92.4812 66.7815 91.9812 61.9815 85.9812C60.4815 82.3145 59.5815 73.0812 67.9815 65.4813Z" fill="#D3B28B"/>
<path d="M84.2112 88.2152C85.3326 84.2658 87.6877 74.2937 88.1363 66H98C99.6822 69.2911 95 76 92.0594 85.7468C90.7762 90 86.116 95.1266 87.0148 105C84.7719 101.215 81.071 92.5595 84.2112 88.2152Z" fill="#EBEBEB"/>
<path d="M108.5 33C110.167 34.5 112.9 39.1 110.5 45.5C111.333 44.5 112.9 41.6 112.5 38C113.167 35.1667 110.3 28.4 93.5 24C96.5 24.8333 103.7 27.8 108.5 33Z" fill="#E0E0E0"/>
<path d="M129 18C135.167 20.1667 146 27.3 140 38.5C141.167 37.5 143.5 34.8 143.5 32C145.5 26.1667 141.1 14.5 107.5 14.5C110.667 14.5 119.4 15.2 129 18Z" fill="#E0E0E0"/>
<path d="M163 20.5C167.833 23.6667 175.3 33.4 166.5 47C167.333 46.6667 169.9 44.7 173.5 39.5C175 35.8333 175 26.9 163 20.5Z" fill="#E0E0E0"/>
<path d="M69.0109 44.6074C72.975 52.3739 85.3619 60.1686 89.5986 61.7303C80.4977 60.8954 70.3825 49.2723 69.0109 44.6074Z" fill="#E0E0E0"/>
<path d="M152 80.5C149.5 79 145.4 79.2 143 80V83.5C144.5 83.1666 148.4 82.4 152 84V80.5Z" fill="#424242"/>
<ellipse cx="119.243" cy="98.7065" rx="14.5" ry="7" transform="rotate(6.9642 119.243 98.7065)" fill="#D09B8B" fill-opacity="0.36"/>
<path d="M172.425 69.9725C173.878 71.8466 176.018 74.0365 173.82 87.8863C172.457 92.3054 169.954 98.7322 161.373 99.022C158.805 98.9139 153.973 99.5983 151.203 93.3444C150.226 89.5695 149.933 79.6723 156.576 70.2825C158.995 67.489 167.778 63.9834 172.425 69.9725Z" fill="#EBFAFF"/>
<path d="M136.739 66.5393C140.941 68.5825 146.441 76.0482 143.665 86.7609C142.841 91.018 138.52 99.5323 127.834 99.5323C123.876 99.7097 114.871 98.4681 110.517 92.0823C106.164 85.6966 107.442 74.0482 114.475 68.1358C115.794 65.8298 125.444 61.0484 136.739 66.5393Z" fill="#EBFAFF"/>
<rect x="129.23" y="69.3562" width="1.72324" height="18.388" rx="0.861619" transform="rotate(55.906 129.23 69.3562)" fill="#E1F3FA"/>
<rect x="129.23" y="69.3562" width="1.72324" height="18.388" rx="0.861619" transform="rotate(55.906 129.23 69.3562)" fill="#E1F3FA"/>
<rect x="129.23" y="69.3562" width="1.72324" height="18.388" rx="0.861619" transform="rotate(55.906 129.23 69.3562)" fill="#E1F3FA"/>
<rect x="138.172" y="82" width="1.47493" height="12.2828" rx="0.737463" transform="rotate(55.906 138.172 82)" fill="#E1F3FA"/>
<rect x="138.172" y="82" width="1.47493" height="12.2828" rx="0.737463" transform="rotate(55.906 138.172 82)" fill="#E1F3FA"/>
<rect x="138.172" y="82" width="1.47493" height="12.2828" rx="0.737463" transform="rotate(55.906 138.172 82)" fill="#E1F3FA"/>
<rect x="129.828" y="79.9121" width="1.55118" height="17.9043" rx="0.775591" transform="rotate(55.906 129.828 79.9121)" fill="#E1F3FA"/>
<rect x="129.828" y="79.9121" width="1.55118" height="17.9043" rx="0.775591" transform="rotate(55.906 129.828 79.9121)" fill="#E1F3FA"/>
<rect x="129.828" y="79.9121" width="1.55118" height="17.9043" rx="0.775591" transform="rotate(55.906 129.828 79.9121)" fill="#E1F3FA"/>
<rect x="170.02" y="86" width="1.06788" height="12.101" rx="0.533942" transform="rotate(55.906 170.02 86)" fill="#E1F3FA"/>
<rect x="170.02" y="86" width="1.06788" height="12.101" rx="0.533942" transform="rotate(55.906 170.02 86)" fill="#E1F3FA"/>
<rect x="170.02" y="86" width="1.06788" height="12.101" rx="0.533942" transform="rotate(55.906 170.02 86)" fill="#E1F3FA"/>
<rect x="169.02" y="72" width="1.06788" height="12.101" rx="0.533942" transform="rotate(55.906 169.02 72)" fill="#E1F3FA"/>
<rect x="169.02" y="72" width="1.06788" height="12.101" rx="0.533942" transform="rotate(55.906 169.02 72)" fill="#E1F3FA"/>
<rect x="169.02" y="72" width="1.06788" height="12.101" rx="0.533942" transform="rotate(55.906 169.02 72)" fill="#E1F3FA"/>
<rect x="166.613" y="80.2449" width="1.06788" height="15.2322" rx="0.533942" transform="rotate(55.906 166.613 80.2449)" fill="#E1F3FA"/>
<rect x="166.613" y="80.2449" width="1.06788" height="15.2322" rx="0.533942" transform="rotate(55.906 166.613 80.2449)" fill="#E1F3FA"/>
<rect x="166.613" y="80.2449" width="1.06788" height="15.2322" rx="0.533942" transform="rotate(55.906 166.613 80.2449)" fill="#E1F3FA"/>
<path d="M153.859 102.087C154.186 101.506 154.153 97.0284 151.41 83.7706C150.268 83.1891 147.394 82.375 145.042 83.7706L143.083 95.5456C142.92 97.2901 142.887 101.302 144.062 103.396L145.042 104.268C145.859 104.704 148.079 105.402 150.43 104.704C151.247 104.704 153.075 104.181 153.859 102.087Z" fill="#CEAB83"/>
<path d="M149.5 114.5C147.5 115.167 140 115.4 126 111C126.5 112.167 130.9 115 144.5 117C145.5 117.333 147.9 117.3 149.5 114.5Z" fill="#AB8D6C"/>
<ellipse cx="137.5" cy="325" rx="13.5" ry="7" transform="rotate(-2.67897 137.5 325)" fill="#E2AE6F"/>
<ellipse cx="118.051" cy="313.637" rx="12.5" ry="6.5" transform="rotate(-5.34711 118.051 313.637)" fill="#E2AE6F"/>
<ellipse cx="101.29" cy="303.019" rx="12.7769" ry="6.09029" transform="rotate(-3.93718 101.29 303.019)" fill="#E2AE6F"/>
<ellipse cx="183.495" cy="285.453" rx="12.0663" ry="6.6404" transform="rotate(-4.77802 183.495 285.453)" fill="#E2AE6F"/>
<ellipse cx="158.165" cy="290.953" rx="12.7769" ry="6.09029" transform="rotate(-3.93718 158.165 290.953)" fill="#E2AE6F"/>
<ellipse cx="132.425" cy="295.953" rx="12.0319" ry="6.14158" transform="rotate(-3.93718 132.425 295.953)" fill="#E2AE6F"/>
<ellipse cx="176.051" cy="301.637" rx="12.5" ry="6.5" transform="rotate(-5.34711 176.051 301.637)" fill="#E2AE6F"/>
<ellipse cx="148.775" cy="308.046" rx="12.5" ry="6.5" transform="rotate(-2.53214 148.775 308.046)" fill="#E2AE6F"/>
<ellipse cx="221.5" cy="308" rx="13.5" ry="7" transform="rotate(-3.03805 221.5 308)" fill="#E2AE6F"/>
<ellipse cx="194.498" cy="314" rx="13.5" ry="7" transform="rotate(-3.5201 194.498 314)" fill="#E2AE6F"/>
<ellipse cx="166.498" cy="320" rx="13.5" ry="7" transform="rotate(-3.01713 166.498 320)" fill="#E2AE6F"/>
</svg>