<svg width="111" height="283" viewBox="0 0 111 283" fill="none" xmlns="http://www.w3.org/2000/svg">
<path d="M39 81.7551L41 77.7551L33 69.7551L24 72.2551C24.3333 72.5884 24.6 73.8551 23 76.2551C23.6667 76.7551 25.8 77.1551 29 74.7551C29.1667 75.7551 28 78.2551 22 80.2551C24 80.9217 29.5 81.3551 35.5 77.7551L33 83.2551C34.1667 83.2551 36.9 82.2551 38.5 78.2551L39 81.7551Z" fill="#705F4F"/>
<path d="M14.5992 162.531C15.5609 155.733 17.3874 135.126 17.0002 107.083L26.3815 109.991L33.1843 137.812L26.2855 181.554C25.4313 182.018 22.3372 182.584 16.7944 181.143C14.9628 181.064 10.9305 180.189 9.45454 177.322C8.81013 176.794 7.79034 174.147 8.86646 167.788C9.31484 165.138 11.0891 160.377 14.5992 162.531Z" fill="#E3D0B4"/>
<path d="M15.5 271.755L22.5 267.755L32 268.755L26.5 273.255L15.5 271.755Z" fill="#E8E4E4" stroke="#F3F3F3" stroke-width="0.4"/>
<path d="M73.5 271.255L79 266.255H89L84 271.255H73.5Z" fill="#F3F3F3"/>
<path d="M54 187.755V196.755" stroke="black" stroke-opacity="0.08" stroke-width="3" stroke-linecap="round"/>
<path d="M19 255.255C21 239.255 22.0007 212.255 29 176.255L52.5016 187.255C53.3349 197.422 48.5 218.255 43.5016 255.255H19Z" fill="#E3D0B4"/>
<path d="M76 255.255C76 251.255 71 242.255 64.5 182.255L90 168.755C95.5 189.755 101 236.255 101 255.255H76Z" fill="#EBD7BA"/>
<path d="M77.5 251.755H74.5L75 265.255L79 266.755L77.5 251.755Z" fill="#373737"/>
<path d="M86.9984 266.755H78.9984L77.4984 253.255C76.8318 250.922 76.8984 246.255 82.4984 246.255C83.9984 245.755 87.3984 245.955 88.9984 250.755C88.9984 254.255 90.1984 256.355 86.9984 266.755Z" fill="#F3F3F3"/>
<path d="M33.4782 255.116L29.957 269.262L21.4988 269.262L22.017 249.188C22.8632 246.877 25.6593 242.905 30.0743 245.503C32.1964 246.208 35.848 249.118 33.4782 255.116Z" fill="#E8E4E4"/>
<path d="M102 249.755L88 250.755L86 251.255L87 267.255L82.5 270.755C79.5 270.255 77.5 269.755 74 270.755L79 266.755L75 265.255L74 267.255L68 272.255L80.5 282.255C89.3333 281.422 104 280.255 104 276.755L102 249.755Z" fill="#373737"/>
<path d="M77 253.755L87.5 260.755L78.5 265.755L83 271.255" stroke="black" stroke-width="0.4"/>
<path d="M73.5 270.255L87 267.255L77.5 259.255L87 253.755H77.5" stroke="black" stroke-width="0.4"/>
<path d="M65.4983 281.755C67.8317 282.422 74.8983 283.355 84.4983 281.755C84.3322 279.422 83.2 274.355 80 272.755C77.6667 271.922 71.9997 270.655 67.9983 272.255C66.165 273.588 63.0983 277.355 65.4983 281.755Z" fill="#F3F3F3" stroke="#F3F3F3" stroke-width="0.4"/>
<path d="M33 251.755L45 252.255L40.5 279.255C40.5 280.255 39.8 281.755 35 281.755L22 282.755L12.5 272.255L17 267.755L18.5 250.755L23 251.755L22 268.755L17.5 271.755C19.1667 271.255 23.1 270.655 25.5 272.255L29.5 268.755L31 252.255L33 251.755Z" fill="#2E2E2E"/>
<path d="M25.5 272.755L21.5 267.255L30.5 262.255L22 253.755L32 254.755L22 261.255L30 268.255L17.5 271.755" stroke="black" stroke-width="0.4"/>
<path d="M25.5 196.755L27.5 171.255L58.5 185.255L57.5 202.255C51.8333 202.088 35.5 200.755 25.5 196.755Z" fill="#76A7C2"/>
<path d="M27.9786 153.755C43.3119 156.422 76.8786 158.955 88.4786 147.755C91.479 157.088 97.9798 179.555 99.9798 194.755C97.3132 196.922 82.5798 201.755 60.9798 201.755L59.4798 185.755C38 185.255 26.9999 182.255 26.9968 177.255C26.9961 175.976 25.9913 168.255 27.9786 153.755Z" fill="#77ADCC"/>
<path d="M69.5 78.2551L65 75.2551L66.5 62.7551L81 53.7551C81.1667 56.7551 83.8 63.3551 93 65.7551C90.6667 67.0884 83.9 68.8551 75.5 65.2551C74.8333 66.5884 75.3 69.8551 82.5 72.2551C81.5 73.2551 77.7 74.3551 70.5 70.7551C70.1667 71.4217 70.2 73.5551 73 76.7551C71.6667 76.5884 68.8 75.5551 68 72.7551C67.5 72.9217 67.1 74.2551 69.5 78.2551Z" fill="#705F4F"/>
<path d="M41.5 84.2551V72.7551L65.5 68.7551L66.5 80.7551C68.8333 81.4217 74 83.4551 76 86.2551L70.5 93.7551L36 92.7551V86.2551C37 85.7551 39.5 84.6551 41.5 84.2551Z" fill="#E3D0B4"/>
<path d="M18.5141 95.1372C20.2001 90.8728 26.8129 83.7856 37.864 87.4671L26.249 112.989C24.9169 112.931 20.7892 114.254 15.3675 110.015C15.454 108.017 15.9086 99.8289 18.5141 95.1372Z" fill="#E6E6E6"/>
<path d="M48.4994 91.2551C53.4994 92.0884 64.8994 91.5551 70.4994 82.7551L85.001 85.2551C86.6677 85.0884 89.901 86.3551 89.501 92.7551L90.001 106.255L93.001 160.755C85.1677 163.422 61.7994 167.355 24.9994 163.755L22.001 118.255C21.3344 111.255 21.7 95.7551 26.5 89.7551C28.8333 87.7551 33.4994 84.2551 39.4994 84.2551C39.8327 86.4217 42.0994 90.8551 48.4994 91.2551Z" fill="#EDEDED"/>
<path d="M78.4995 111.255C81.6661 111.922 91.5 110.155 97.5 103.755C96.1667 99.4217 92.5 89.955 88.5 86.755C85.8333 84.9217 79.4999 82.655 75.4995 88.255C73.9995 90.0884 71.8995 95.455 75.4995 102.255L78.4995 111.255Z" fill="#F3F3F3"/>
<path d="M92.5 164.755C92.3333 159.422 90 141.055 82 110.255L94.5 104.755C98.8333 115.588 107.5 142.855 107.5 165.255C108.5 165.088 110.5 166.355 110.5 172.755C110.833 174.922 110.7 179.755 107.5 181.755C107.167 182.422 104.1 183.555 94.5 182.755C91.1667 182.588 84.9 180.355 86.5 172.755C86.6667 169.755 88.1 163.955 92.5 164.755Z" fill="#EBD7BA"/>
<ellipse cx="45.5" cy="44.2551" rx="36.5" ry="34.5" fill="#EBD7BA"/>
<path d="M46.2749 1.99492C61.9586 -1.90005 73.4825 6.55118 77.5 11.6503C90.3 26.4503 90.8333 40.1503 89.5 45.1503C87.5 55.9503 90.6667 58.6503 92.5 58.6503C84.9168 58.6503 82.9772 54.1949 82.9057 51.043C82.7145 57.6901 86.4703 60.8696 88.5 61.6503C80.9 62.4503 77.6667 59.6503 77 58.1503L67.5 30.6503L41 25.6503L17 33.1503L15.5 41.1503C17.9 59.1503 23.8333 64.3169 26.5 64.6503C23.4197 64.6503 21.434 64.4869 20.2039 64.2459C24.1865 69.0317 27.9855 68.9075 29.5 68.1503C24.7 75.3503 18.5 72.4836 16 70.1503C12.8 69.3503 9.66667 58.1503 8.5 52.6503C5.3 55.4503 2.16667 53.8169 1 52.6503C6.2 50.2503 7.16667 46.6503 7 45.1503C3.4 31.5503 8.16667 20.1503 11 16.1503C17.4 6.55026 28.3333 3.48359 33 3.15026C36.6959 0.875855 42.1262 1.16097 46.2749 1.99492Z" fill="#84705D"/>
<path d="M41 4.15026L42.5 3.15026C60.1 -3.24974 73.1667 6.15026 77.5 11.6503C90.3 26.4503 90.8333 40.1503 89.5 45.1503C87.5 55.9503 90.6667 58.6503 92.5 58.6503C83.7 58.6503 82.5 52.6503 83 49.6503C82.2 57.2503 86.3333 60.8169 88.5 61.6503C80.9 62.4503 77.6667 59.6503 77 58.1503L67.5 30.6503L41 25.6503L17 33.1503L15.5 41.1503C17.9 59.1503 23.8333 64.3169 26.5 64.6503C17.7 64.6503 17.8333 63.3169 19 62.6503C23.4 69.0503 27.8333 68.9836 29.5 68.1503C24.7 75.3503 18.5 72.4836 16 70.1503C12.8 69.3503 9.66667 58.1503 8.5 52.6503C5.3 55.4503 2.16667 53.8169 1 52.6503C6.2 50.2503 7.16667 46.6503 7 45.1503C3.4 31.5503 8.16667 20.1503 11 16.1503C17.4 6.55026 28.3333 3.48359 33 3.15026C38.2 -0.0497398 46.8333 1.81693 50.5 3.15026" stroke="#84705D"/>
<path d="M28.4981 12.7551C31.6648 10.5884 37.5 7.5551 43.5 12.7551C50.8327 11.4218 54.9981 10.2551 63.5 15.7551C75 20.2551 74 18.7551 79.9981 38.2551C83.1648 44.2551 87.8981 57.9551 81.4981 64.7551C78.4981 68.0884 71.0981 72.7551 65.4981 64.7551C68.0885 65.3646 73.2142 65.1104 74.6856 59.866C73.9615 61.2962 71.88 62.6166 66.9981 61.7551C69.6648 61.2551 73.7981 56.0551 68.9981 39.2551C69.6648 44.7551 68.1981 55.1551 56.9981 52.7551C58.8315 50.7551 60.9981 44.1551 54.9981 33.7551C56.3315 36.7551 56.8981 43.3551 48.4981 45.7551C49.6648 44.7551 50.5981 38.9551 44.9981 23.7551C45.3315 25.4218 45.7981 29.9551 44.9981 34.7551C44.8384 38.5895 42.8394 46.0994 36.2091 46.7148C35.8871 47.0402 35.5651 46.9772 35.3236 46.7551C35.2643 48.1252 35.307 49.6302 35.4981 51.2551C33.6647 51.4218 30.198 48.3551 30.9981 34.7551C30.1648 35.9218 28.7981 39.9551 29.998 46.7551C27.8314 46.0884 23.2672 37.2551 28.2656 24.7551L22.2675 39.7551C22.6674 38.7551 22.5 33.7551 20.9981 31.7551C19.9981 31.9218 18.1981 35.3551 18.9981 47.7551C16.9981 46.7551 13.4981 43.1551 15.498 36.7551C13.9178 40.7551 12.8056 49.8551 20.9981 54.2551C20.3315 55.2551 17.7981 56.3551 12.9981 52.7551C11.8315 51.5884 9.2981 47.0551 8.49797 38.2551C8.16464 33.5884 9.00004 23.7551 14 19.2551C15.1667 16.9218 19.6981 13.9551 28.4981 12.7551Z" fill="#967F6A"/>
<path d="M35.3236 46.7551C35.2643 48.1252 35.307 49.6302 35.4981 51.2551C33.6647 51.4218 30.198 48.3551 30.9981 34.7551C30.1648 35.9218 28.7981 39.9551 29.998 46.7551C27.8314 46.0884 23.2672 37.2551 28.2656 24.7551L22.2675 39.7551C22.6674 38.7551 22.5 33.7551 20.9981 31.7551C19.9981 31.9218 18.1981 35.3551 18.9981 47.7551C16.9981 46.7551 13.4981 43.1551 15.498 36.7551C13.9178 40.7551 12.8056 49.8551 20.9981 54.2551C20.3315 55.2551 17.7981 56.3551 12.9981 52.7551C11.8315 51.5884 9.2981 47.0551 8.49797 38.2551C8.16464 33.5884 9.00004 23.7551 14 19.2551C15.1667 16.9218 19.6981 13.9551 28.4981 12.7551C31.6648 10.5884 37.5 7.5551 43.5 12.7551C50.8327 11.4218 54.9981 10.2551 63.5 15.7551C75 20.2551 74 18.7551 79.9981 38.2551C83.1648 44.2551 87.8981 57.9551 81.4981 64.7551C78.4981 68.0884 71.0981 72.7551 65.4981 64.7551C68.3315 65.4218 74.1981 65.0551 74.9981 58.2551C75.1648 59.9218 73.7981 62.9551 66.9981 61.7551C69.6648 61.2551 73.7981 56.0551 68.9981 39.2551C69.6648 44.7551 68.1981 55.1551 56.9981 52.7551C58.8315 50.7551 60.9981 44.1551 54.9981 33.7551C56.3315 36.7551 56.8981 43.3551 48.4981 45.7551C49.6648 44.7551 50.5981 38.9551 44.9981 23.7551C45.3315 25.4218 45.7981 29.9551 44.9981 34.7551C44.8315 38.7551 42.6632 46.7551 35.3236 46.7551ZM35.3236 46.7551C35.5127 42.3916 36.7371 39.3967 37.4981 38.2551C37.4981 46.6551 36.0485 47.4218 35.3236 46.7551Z" stroke="#967F6A"/>
<path d="M23.7209 282.529C21.3875 282.863 13.0209 282.829 8.22086 282.029C8.05419 281.196 7.82086 279.029 8.22086 277.029C8.38753 275.696 9.62086 272.829 13.2209 272.029C16.0542 271.863 22.1209 272.329 23.7209 275.529C24.2209 277.196 24.9209 280.929 23.7209 282.529Z" fill="#E8E4E4" stroke="#E8E4E4" stroke-width="0.4"/>
</svg>