<svg width="136" height="394" viewBox="0 0 136 394" fill="none" xmlns="http://www.w3.org/2000/svg">
<path d="M82 74.7551C80.5 74.5884 76.7 73.7551 73.5 71.7551L86 53.2551L102 48.7551C102 52.5884 100.4 60.4551 94 61.2551C93.5 61.2551 92.5 61.4551 92.5 62.2551C92.1667 62.9217 92.8 64.5551 98 65.7551C96 66.5884 91.2 67.8551 88 66.2551C88 66.9217 88.4 68.6551 90 70.2551C89.3333 70.4217 87.4 70.6551 85 70.2551C84.6667 70.2551 83.3 70.3551 80.5 70.7551C81 70.9217 82.5 71.7551 84.5 73.7551C83.8333 73.9217 82.1 73.9551 80.5 72.7551C80.3333 73.0884 80.4 73.9551 82 74.7551Z" fill="#705F4F"/>
<path d="M40.5 75.2551C41.1667 75.5884 44 75.8551 50 74.2551L50.5 72.2551L32.5 62.7551C31.1667 65.0884 27.7 69.6551 24.5 69.2551C25.3333 69.9217 29.4 71.1551 39 70.7551C38.3333 71.2551 36.1 72.3551 32.5 72.7551C32.8333 73.0884 35 73.8551 41 74.2551L40.5 75.2551Z" fill="#705F4F"/>
<path d="M109.871 85.9197C103.761 85.077 98.3179 83.3545 94.1509 88.7121C92.0235 91.4473 93.3594 96.1148 94.1509 99.0544C96.1389 106.439 98.4217 108.629 105.838 110.483C115.49 112.896 119.697 105.486 119.179 96.1586C119.112 94.9533 114.71 93.924 113.594 93.3662" stroke="black" stroke-opacity="0.08" stroke-width="3" stroke-linecap="round"/>
<path d="M27 382.755L34 378.755L43.5 379.755L38 384.255L27 382.755Z" fill="#F3F3F3" stroke="#F3F3F3" stroke-width="0.4"/>
<path d="M100.66 379.942L106.16 374.942H116.16L111.16 379.942H100.66Z" fill="#F3F3F3"/>
<path d="M21.113 216.769C20.4993 211.468 17.8284 194.51 28.0036 116.185L8.75287 112.456C6.04742 123.806 6 187.255 9.5 218.755C6.11049 219.761 1.83821 223.151 2.49512 227.603C3.51699 234.528 5.43886 237.277 8.55271 237.828C8.55271 237.828 16.3404 238.774 22.5487 236.774C28.757 234.774 33.3821 230.727 30.6898 223.442C30.087 220.499 27.965 215.252 21.113 216.769Z" fill="#EBD7BA"/>
<path d="M30.8631 160.683C26.314 161.418 6.35646 166.132 0.742355 159.391C2.0062 128.77 1.19352 101.272 13.7264 88.1912C15.9652 85.8546 37.226 79.9017 42.9885 84.1305C44.4059 85.1707 36.6365 93.0088 33.9092 105.37L30.8631 160.683Z" fill="#E5E5E5"/>
<path d="M49 79.2551V61.7551H74V77.7551C76.3333 78.4217 87 79.2551 90.5 82.2551L77.5 92.7551H40.5L35 85.7551C35 84.2551 46 79.2551 49 79.2551Z" fill="#E3D0B4"/>
<path d="M21.0022 93.255C24.3356 90.755 32.3022 85.255 37.5022 83.255L39.0009 82.255C39.8342 84.0884 41.9009 87.755 43.5009 87.755C58.5009 90.0884 87.8009 91.755 85.0009 79.755C86.8342 79.5884 91.9009 79.855 97.5009 82.255C99.6675 82.5884 105.201 83.555 110.001 84.755C111.334 84.755 114.001 86.055 114.001 91.255C108.001 156.255 110.001 153.755 106.001 179.255C107.001 187.255 102.4 186.355 100 200.755C81.3333 206.255 64 200.755 27.5009 218.255C26.6671 213.088 25.4998 208.255 27.5009 190.255L21.5001 170.255C18.0001 150.922 12.6022 109.655 21.0022 93.255Z" fill="#EDEDED"/>
<path d="M30.5039 363.755C30.5039 342.255 27.003 309.255 26.9982 297.255C26.9935 285.412 23.1036 256.526 22.9997 198.581C22.9213 197.765 22.9233 196.985 22.9976 196.255C22.9976 197.036 22.9983 197.811 22.9997 198.581C23.7447 206.338 31.7543 217.255 53.9968 217.255C58.9968 217.255 60.9971 224.255 65.9968 224.255L62.5057 257.755C60.0057 272.755 60.1723 279.255 60.0057 289.255C59.839 299.255 61.1053 328.555 55.5053 363.755H30.5039Z" fill="#76A7C2"/>
<path d="M22.7007 177.755C41.034 182.922 83.8007 190.155 108.201 177.755C114.203 203.255 113.703 248.255 115.203 280.255C113.703 290.755 129.702 304.255 129.702 360.255H105.202L81.2021 293.755L81.1423 293.588C78.6463 286.601 75.1623 276.849 70.2021 226.255H63.2021H55.7024C31.1209 226.255 21.2626 200.422 22.0427 192.755C22.2367 187.994 22.4553 182.998 22.7007 177.755Z" fill="#77ADCC"/>
<path d="M106.586 359.442H103.586L104.086 372.942L108.086 374.442L106.586 359.442Z" fill="#373737"/>
<path d="M116.084 374.442H108.084L106.584 360.942C105.918 358.609 105.984 353.942 111.584 353.942C113.084 353.442 116.484 353.642 118.084 358.442C118.084 361.942 119.284 364.042 116.084 374.442Z" fill="#F3F3F3"/>
<path d="M44.9693 366.116L41.4481 380.262L32.7757 380.262L33.5081 360.188C34.3543 357.877 37.1504 353.905 41.5654 356.503C43.6874 357.208 47.339 360.118 44.9693 366.116Z" fill="#F3F3F3"/>
<path d="M131.086 357.442L117.086 358.442L115.086 358.942L116.086 374.942L111.586 378.442C108.586 377.942 106.586 377.442 103.086 378.442L108.086 374.442L104.086 372.942L103.086 374.942L97.0859 379.942L109.586 389.942C118.419 389.109 133.086 387.942 133.086 384.442L131.086 357.442Z" fill="#373737"/>
<path d="M104.383 362.442L114.883 369.442L105.883 374.442L110.383 379.942" stroke="black" stroke-width="0.4"/>
<path d="M102.586 377.942L116.086 374.942L106.586 366.942L116.086 361.442H106.586" stroke="black" stroke-width="0.4"/>
<path d="M94.8811 389.442C97.2145 390.109 104.281 391.042 113.881 389.442C113.715 387.109 112.583 382.042 109.383 380.442C107.049 379.609 101.382 378.342 97.3811 379.942C95.5478 381.275 92.4811 385.042 94.8811 389.442Z" fill="#F3F3F3" stroke="#F3F3F3" stroke-width="0.4"/>
<path d="M44.5 362.755L56.5 363.255L52 390.255C52 391.255 51.3 392.755 46.5 392.755L33.5 393.755L24 383.255L28.5 378.755L30 361.755L34.5 362.755L33.5 379.755L29 382.755C30.6667 382.255 34.6 381.655 37 383.255L41 379.755L42.5 363.255L44.5 362.755Z" fill="#2E2E2E"/>
<path d="M37.2227 383.755L33.2227 378.255L42.2227 373.255L33.7227 364.755L43.7227 365.755L33.7227 372.255L41.7227 379.255L29.2227 382.755" stroke="black" stroke-width="0.4"/>
<path d="M21.0149 169.755V167.755L108.071 161.255C107.707 164.422 108.071 165.755 108.922 178.255C110.177 180.85 114.004 194.471 114.004 203.255C105 212.255 56.5 215.255 21.0134 212.255C19.5041 205.755 20.0001 176.255 21.0149 169.755Z" fill="#EDEDED"/>
<path d="M112.235 218.769C112.848 213.468 115.519 196.51 105.344 118.185L124.595 114.456C127.3 125.806 133.399 198.643 127.001 221.453C130.39 222.459 131.509 225.151 130.853 229.603C129.831 236.528 127.909 239.277 124.795 239.828C124.795 239.828 117.007 240.774 110.799 238.774C104.591 236.774 99.9655 232.727 102.658 225.442C103.261 222.499 105.383 217.252 112.235 218.769Z" fill="#EBD7BA"/>
<ellipse cx="59.5" cy="40.2551" rx="36.5" ry="34.5" fill="#EBD7BA"/>
<path d="M105.005 160.255C109.589 160.73 129.782 164.304 135.004 157.255C132.004 126.755 131.254 99.2551 117.999 86.9072C115.631 84.7014 106.244 82.3581 100.731 86.9072C99.3744 88.0262 95.3995 93.0175 98.8241 105.204L105.005 160.255Z" fill="#F3F3F3"/>
<path d="M19.495 65.2551C17.5 63.2551 15.9995 62.2551 16.9963 49.7551L20 44.2551L31 57.2551V59.7551C31 60.5884 31.6 62.8551 34 65.2551C34.6667 65.9217 36.3 67.7551 37.5 69.7551C35.3333 70.2551 30.3917 70.5551 27.9587 67.7551C27.9851 67.9093 28 68.0759 28 68.2551C27.5 68.4217 25.099 68.0551 19.495 65.2551Z" fill="#84705D"/>
<path d="M36.5341 9.75507L38.0341 13.2551L48.5352 25.2551C52.3685 29.9217 57.7352 40.4551 48.5352 45.2551C49.3685 42.9217 50.3352 37.8551 47.5352 36.2551C48.2018 41.9217 47.2349 52.9551 38.0341 51.7551C39.5345 51.7551 42.5352 49.4551 42.5352 40.2551C38.8685 42.5884 32.8349 48.8551 38.0341 55.2551C36.2373 55.5884 32.4219 55.3551 31.5352 51.7551C30.7018 53.5884 31.1352 57.6551 39.5352 59.2551C38.5348 59.9217 35.0343 60.8551 29.0352 59.2551C26.2018 58.0884 20.5352 53.8551 20.5352 46.2551C19.7018 46.5884 18.5352 48.1551 20.5352 51.7551C18.2018 52.0884 12.9352 51.0551 10.5352 44.2551C10.0348 43.2551 9.03411 40.2551 9.03411 36.2551C8.53411 31.4217 13.3341 19.3551 36.5341 9.75507Z" fill="#967F6A"/>
<path d="M79.5 56.7551L83 53.2551L95.5 52.2551L93 58.2551C91.6667 61.9217 87.8 69.2551 83 69.2551L86.5 63.2551C84 67.4217 77.2 74.7551 70 70.7551C72.8333 69.5884 78.7 65.1551 79.5 56.7551Z" fill="#84705D"/>
<path d="M56.3865 30.9391C56.2741 33.3233 55.7456 36.0734 54.5006 39.0303L50.5 30.0303L18 20.7551C19 19.7551 20.5 17.7551 22.5 15.2551L24 13.0303C25.8333 10.6969 31.1 6.43028 37.5 8.03028C38.8333 8.19694 42.1 8.43028 44.5 8.03028C45.5 7.36361 47 6.75507 48 3.75506C48.3225 2.78759 50.2996 0.655069 51.5 0.255066C52.4994 0.255069 49 -1.24494 72 3.03026C74.5 3.49496 72 3.03026 83.5 5.25507C84 5.3518 98 7.6551 100 15.2551C100.667 17.4218 104.601 30.0303 105.001 30.0303C106 31.2551 108.001 34.7551 108.501 37.2551C108.667 38.7551 108.901 39.4871 108.501 43.4871C108.45 43.9951 108.301 47.5303 105.501 49.5303C103.001 51.3636 97.1095 54.6303 93.5455 53.0303C90.9846 55.3069 84.8502 58.5303 74.5006 58.5303C76.5006 56.3636 80.4006 50.2303 80.0006 43.0303C79.8339 44.5303 78.6006 47.3303 75.0006 46.5303C75.6672 45.5303 76.9006 42.8303 76.5006 40.0303C77.3339 37.197 74.2006 29.8303 55.0006 23.0303C55.3196 23.6228 55.6661 24.5195 55.9357 25.665C57.5916 28.9736 61.3776 32.84 68.5006 32.5303C67.8339 33.697 65.5006 35.9303 61.5006 35.5303C60.1153 35.4237 57.8443 34.268 56.3865 30.9391Z" fill="#967F6A"/>
<path d="M87 25.2551L86 24.2551C89.8333 24.5884 97.8 28.2551 99 40.2551C99.5 42.4217 99.6 48.0851 96 53.4051H95C94.6667 53.4051 93.9 53.2051 93.5 53.0051C94 52.3384 95.2 50.0551 96 47.2551C96.8333 42.2551 96.2 30.8551 87 25.2551Z" fill="#84705D"/>
<path d="M33.7209 393.529C31.3875 393.863 23.0209 393.829 18.2209 393.029C18.0542 392.196 17.8209 390.029 18.2209 388.029C18.3875 386.696 19.6209 383.829 23.2209 383.029C26.0542 382.863 32.1209 383.329 33.7209 386.529C34.2209 388.196 34.9209 391.929 33.7209 393.529Z" fill="#E8E4E4" stroke="#E8E4E4" stroke-width="0.4"/>
</svg>