<svg width="125" height="377" viewBox="0 0 125 377" fill="none" xmlns="http://www.w3.org/2000/svg">
<path d="M69.1862 76.2761C67.6823 76.1492 63.8615 75.4169 60.6096 73.5024L72.6149 54.6776L88.49 49.7551C88.5916 53.5871 87.2007 61.4934 80.8241 62.4627C80.3243 62.476 79.33 62.7024 79.3512 63.5021C79.0356 64.1774 79.712 65.7934 84.942 66.8551C82.9648 67.7412 78.2001 69.1346 74.9588 67.62C74.9764 68.2864 75.4222 70.0086 77.0641 71.5656C76.4021 71.7499 74.4756 72.0344 72.0658 71.6981C71.7326 71.707 70.3691 71.8431 67.5807 72.3172C68.0849 72.4706 69.6065 73.2639 71.6588 75.2101C70.9968 75.3944 69.2649 75.4737 67.6337 74.3165C67.4759 74.6542 67.5655 75.5188 69.1862 76.2761Z" fill="#A0A0A0"/>
<path d="M31 78.2551C31.6667 78.5884 34.5 78.8551 40.5 77.2551L41 75.2551L23 65.7551C21.6667 68.0884 18.2 72.6551 15 72.2551C15.8333 72.9217 19.9 74.1551 29.5 73.7551C28.8333 74.2551 26.6 75.3551 23 75.7551C23.3333 76.0884 25.5 76.8551 31.5 77.2551L31 78.2551Z" fill="#A0A0A0"/>
<path d="M27.113 228.769C26.4993 223.468 23.8284 206.51 34.0036 128.185L14.7529 124.456C12.0474 135.806 12 199.255 15.5 230.755C12.1105 231.761 7.83821 235.151 8.49512 239.603C9.51699 246.528 11.4389 249.277 14.5527 249.828C14.5527 249.828 22.3404 250.774 28.5487 248.774C34.757 246.774 39.3821 242.727 36.6898 235.442C36.087 232.499 33.965 227.252 27.113 228.769Z" fill="#EBD7BA"/>
<path d="M30.5 341.755C29.041 329.255 30.3989 283.755 30.3997 239.755L60.0061 249.255C58.9128 281.755 56.5965 331.255 55.5 343.255L49.044 347.755L31 344.755L30.5 341.755Z" fill="#76A7C2"/>
<path d="M31.0508 198.883L32.0593 206.951" stroke="black" stroke-opacity="0.08" stroke-width="3" stroke-linecap="round"/>
<path d="M31.4244 95.7797C25.7994 96.6525 24.8084 97.5849 21.7173 102.093C20.6954 103.583 19.274 104.997 19.2056 106.912C19.1288 109.062 18.235 114.844 20.4275 115.941" stroke="black" stroke-opacity="0.08" stroke-width="3" stroke-linecap="round"/>
<path d="M30.7209 246.685L30 215.755L61 235.023L59.9186 251.755C55.8333 251.586 37.9302 250.741 30.7209 246.685Z" fill="#76A7C2"/>
<path d="M93.5769 345.755C93.5769 341.755 84.7885 314.255 75.5 247.755L107 243.755C110.981 265.755 120.938 327.255 120.938 346.255L121 347.255L98 348.755L93.5769 345.755Z" fill="#77ADCC"/>
<path d="M28.5601 200.755C41.0588 202.255 92.4 205.455 104 194.255C107 203.588 105.5 227.755 107 243.755C104.333 245.922 97.6786 251.755 76.0786 251.755L73.0786 237.755C51.5988 237.255 69.5715 237.755 68.0676 237.755C66.5637 237.755 22.5703 242.255 28.5601 200.755Z" fill="#77ADCC"/>
<path d="M28.7048 221.295C24.8148 224.391 16.1343 231.299 10.5626 224.968C0.785878 165.685 9.1346 116.866 15.5243 98.0367C18.4734 89.3465 34.2286 83.7042 40.0036 87.727C50.2553 99.5411 36.4314 112.927 33.7443 124.628L30.4461 151.84L28.7324 187.985L28.8349 221.192L28.7048 221.295Z" fill="#E5E5E5"/>
<ellipse cx="12.7823" cy="53.575" rx="5.5" ry="8" transform="rotate(-9.80751 12.7823 53.575)" fill="#E3D0B4"/>
<path d="M41.7425 85.6919L39.6229 68.3207L62.1639 65.5704L64.1018 81.4526C66.2864 81.8576 76.0048 81.5113 79.5239 84.1042L69.0744 95.9571L35.7137 100.028L29.9069 93.6843C29.7252 92.1953 39.0376 86.022 41.7425 85.6919Z" fill="#E3D0B4"/>
<path d="M47.4292 93.7918C52.4792 94.2292 65.3513 90.1707 70.2416 80.9574L88.9603 82.9912C91.0669 84.3296 99.7154 81.7175 96.5485 92.5L96.5485 122.015L106.096 179.442C98.4965 182.717 61.909 194.063 24.9399 193.37L23.5058 174.925C13.8897 110.482 20.2423 99.448 24.5555 93.089C26.7242 90.9117 28.6872 88.249 36.5831 86.6228C37.0858 88.7565 41.0175 93.8965 47.4292 93.7918Z" fill="#EDEDED"/>
<ellipse cx="45.5" cy="41.2551" rx="36.5" ry="34.5" fill="#EBD7BA"/>
<path d="M27 217.755L25 193.255L106 179.255C106.833 182.422 107.8 193.355 107 211.755C106.167 215.255 98.9 222.555 76.5 223.755C67.1667 225.755 44.2 227.355 27 217.755Z" fill="#EDEDED"/>
<path d="M28.9371 364.051L35.6037 359.517L45.1527 359.773L40.0206 364.688L28.9371 364.051Z" fill="#F3F3F3" stroke="#F3F3F3" stroke-width="0.4"/>
<path d="M90.6602 365.942L96.1602 360.942H106.16L101.16 365.942H90.6602Z" fill="#F3F3F3"/>
<path d="M96.5859 345.442H93.5859L94.0859 358.942L98.0859 360.442L96.5859 345.442Z" fill="#373737"/>
<path d="M106.084 360.442H98.0844L96.5844 346.942C95.9177 344.609 95.9844 339.942 101.584 339.942C103.084 339.442 106.484 339.642 108.084 344.442C108.084 347.942 109.284 350.042 106.084 360.442Z" fill="#F3F3F3"/>
<path d="M45.5547 346.061L43.1481 360.438L34.5022 361.115L33.666 341.045C34.3292 338.676 36.8069 334.498 41.4111 336.743C43.5817 337.28 47.4492 339.896 45.5547 346.061Z" fill="#F3F3F3"/>
<path d="M121.086 343.442L107.086 344.442L105.086 344.942L106.086 360.942L101.586 364.442C98.5859 363.942 96.5859 363.442 93.0859 364.442L98.0859 360.442L94.0859 358.942L93.0859 360.942L87.0859 365.942L99.5859 375.942C108.419 375.109 123.086 373.942 123.086 370.442L121.086 343.442Z" fill="#373737"/>
<path d="M94.3828 348.442L104.883 355.442L95.8828 360.442L100.383 365.942" stroke="black" stroke-width="0.4"/>
<path d="M92.5859 363.942L106.086 360.942L96.5859 352.942L106.086 347.442H96.5859" stroke="black" stroke-width="0.4"/>
<path d="M84.8811 375.442C87.2145 376.109 94.2811 377.042 103.881 375.442C103.715 373.109 102.583 368.042 99.3828 366.442C97.0495 365.609 91.3825 364.342 87.3811 365.942C85.5478 367.275 82.4811 371.042 84.8811 375.442Z" fill="#F3F3F3" stroke="#F3F3F3" stroke-width="0.4"/>
<path d="M44.8241 342.747L56.8265 342.309L54.4472 369.578C54.5252 370.575 53.9444 372.125 49.159 372.499L36.2767 374.511L25.9863 364.784L30.1214 359.947L30.2903 342.881L34.8546 343.527L35.1842 360.553L30.932 363.895C32.5546 363.267 36.4291 362.362 38.9467 363.77L42.6614 359.968L42.8692 343.401L44.8241 342.747Z" fill="#2E2E2E"/>
<path d="M37.4946 374.415C35.1943 374.93 26.8506 375.549 22.0028 375.126C21.7716 374.309 21.3699 372.167 21.6126 370.142C21.6747 368.799 22.6806 365.845 26.2072 364.767C29.0189 364.379 35.1035 364.371 36.9483 367.437C37.5768 369.059 38.566 372.727 37.4946 374.415Z" fill="#F3F3F3" stroke="#F3F3F3" stroke-width="0.4"/>
<path d="M39.2082 364.251L34.7912 359.08L43.3736 353.392L34.2363 345.582L44.2838 345.798L34.8215 353.059L43.3434 359.413L31.1546 363.878" stroke="black" stroke-width="0.4"/>
<path d="M105.235 230.769C105.848 225.468 108.519 208.51 98.3441 130.185L117.595 126.456C120.3 137.806 126.399 210.643 120.001 233.453C123.39 234.459 124.509 237.151 123.853 241.603C122.831 248.528 120.909 251.277 117.795 251.828C117.795 251.828 110.007 252.774 103.799 250.774C97.5906 248.774 92.9655 244.727 95.6578 237.442C96.2607 234.499 98.3826 229.252 105.235 230.769Z" fill="#EBD7BA"/>
<path d="M25.0029 27.2551L23 38.2551C22 52.7551 19 53.7551 20 56.2551L22.5 62.7551C24.1 67.1551 20.6696 72.0884 18.5029 73.2551C20.0681 69.1857 17.8566 65.8716 15.7027 63.9838C17.5355 65.8975 15.5186 67.5661 14.0029 68.2551C14.0029 62.2551 12.3363 61.4217 11.5029 61.7551C10.7029 62.5551 11.8363 63.7551 12.5029 64.2551C4.90156 65.0551 1.66789 57.2551 1.00122 53.2551C0.601221 40.4551 4.50122 32.5884 6.50122 30.2551L25.0029 27.2551Z" fill="#B6B6B6"/>
<path d="M104.636 225.857C108.718 228.911 117.825 235.725 122.989 228.755C129 165.755 117.571 114.755 109.997 95.2551C106.501 86.2551 94.5006 81.706 88.9875 86.2551C79.4964 99.2551 90.0586 112.069 93.4831 124.255L98.5 152.755L102.5 190.755L104.5 225.755L104.636 225.857Z" fill="#F3F3F3"/>
<ellipse cx="78.5" cy="50.7551" rx="5.5" ry="8" fill="#EBD7BA"/>
<path d="M68.3363 51.2074L70.8218 46.927L82.6474 42.7551L81.7695 49.1956C81.421 53.0815 79.5641 61.1612 74.9246 62.392L76.769 55.6951C75.421 60.3635 70.7288 69.1954 62.7439 67.1754C65.1833 65.3212 69.717 59.5317 68.3363 51.2074Z" fill="#B6B6B6"/>
<path d="M68.5 52.7551C68.5 50.2551 67.9 43.8551 65.5 38.2551L72 12.7551C74.5 13.0884 79.9 14.7551 81.5 18.7551C83.5 21.2551 87.7 28.6551 88.5 38.2551C88.8333 42.0884 87.8 50.3551 81 52.7551H68.5Z" fill="#B6B6B6"/>
<path d="M66.3046 3.72478C68.7505 3.71706 73.5019 5.82697 72.9399 14.3283C75.6518 18.2348 79.9854 26.687 75.6242 29.2449C74.5539 32.2236 71.0501 38.1926 65.5973 38.2387C66.1748 37.4298 66.7238 35.467 64.2997 34.087C65.1648 36.8548 65.0033 42.4687 57.4367 42.7817C58.7098 42.0188 60.111 38.7909 55.5305 31.9825C54.6052 32.7684 53.2161 35.2856 55.0622 39.067C53.3454 38.6147 49.679 36.4748 48.7479 31.5341C48.5472 34.5703 46.8026 40.3506 41.4301 39.1823C42.3777 38.059 43.6669 35.4675 41.2429 34.0874C40.7166 36.7633 38.9003 42.5727 35.8447 44.4037L35.4568 42.3451C35.2048 43.5144 34.25 46.3313 32.4467 48.2451C26.9696 46.5329 16.7826 41.0216 19.8516 32.6733C18.8371 34.8086 17.4448 40.5445 19.9919 46.4052C17.6351 45.0635 12.709 40.8413 11.8583 34.6861C11.8137 35.3608 11.6001 37.0069 11.1024 38.1938C10.5918 37.9907 9.47946 37.375 9.11483 36.5377C7.68343 34.4101 5.18693 29.3659 6.65212 26.21C6.70123 22.8249 9.07104 14.9852 18.1574 10.7067C19.0604 10.2582 21.0885 9.17246 21.9768 8.418C23.1207 6.96888 25.8391 3.89582 27.5622 3.19654C33.6313 1.22595 49.8766 -1.42722 66.3046 3.72478Z" fill="#C0C0C0"/>
<path d="M48.2353 61C56.7428 64 61.2422 61 64.7422 57C59.2422 59 57.2428 60.5 48.2353 61Z" fill="#E3D0B4"/>
<path d="M40.6901 62.1709C35.4417 67.7161 31.0285 66.3738 27.0006 63.7764C31.8001 63.8634 33.8208 64.6154 40.6901 62.1709Z" fill="#E3D0B4"/>
</svg>