<svg width="385" height="175" viewBox="0 0 385 175" fill="none" xmlns="http://www.w3.org/2000/svg">
<path d="M241.5 31C241.5 32.0272 240.885 33.113 239.518 34.2421C238.156 35.3667 236.118 36.4741 233.445 37.5421C228.104 39.6763 220.346 41.6085 210.724 43.2349C191.486 46.4863 164.89 48.5 135.5 48.5C106.11 48.5 79.5141 46.4863 60.2765 43.2349C50.6536 41.6085 42.8956 39.6763 37.5548 37.5421C34.882 36.4741 32.8437 35.3667 31.4821 34.2421C30.1151 33.113 29.5 32.0272 29.5 31C29.5 29.9728 30.1151 28.887 31.4821 27.7579C32.8437 26.6333 34.882 25.5259 37.5548 24.4579C42.8956 22.3237 50.6536 20.3915 60.2765 18.7651C79.5141 15.5137 106.11 13.5 135.5 13.5C164.89 13.5 191.486 15.5137 210.724 18.7651C220.346 20.3915 228.104 22.3237 233.445 24.4579C236.118 25.5259 238.156 26.6333 239.518 27.7579C240.885 28.887 241.5 29.9728 241.5 31Z" stroke="black" stroke-opacity="0.23"/>
<path d="M7.9438 55.2509C6.53883 62.6269 5.33984 69.8646 5.33984 77.3845C5.33984 85.1687 9.44368 89.3002 14.4537 94.3102" stroke="black" stroke-opacity="0.23" stroke-width="3" stroke-linecap="round"/>
<path d="M258.573 60.4587C261.216 66.5922 261.827 72.5264 261.827 79.2289C261.827 85.7792 258.559 88.3187 254.016 92.3572" stroke="black" stroke-opacity="0.23" stroke-width="3" stroke-linecap="round"/>
<path d="M48.3047 107.981C53.2706 109.328 58.1862 108.89 63.0604 110.079C65.8339 110.755 69.0593 112.648 71.7403 113.84C76.3766 115.9 82.036 116.456 86.93 117.601C92.2066 118.836 98.3497 119.048 103.783 119.048C110.459 119.048 117.023 118.611 123.675 118.397C128.479 118.242 133.136 117.095 138.033 117.095C144.579 117.095 151.125 117.095 157.671 117.095C162.383 117.095 168.137 118.032 172.643 116.371C176.295 115.026 180.191 113.38 184.144 113.189C188.717 112.968 194.213 111.178 198.032 108.632" stroke="black" stroke-opacity="0.23" stroke-width="3" stroke-linecap="round"/>
<path d="M110.148 77.3845C121.548 76.2987 133.137 76.5501 144.506 75.2868C149.68 74.712 154.414 74.1295 159.624 74.1295" stroke="black" stroke-opacity="0.23" stroke-width="3" stroke-linecap="round"/>
<path d="M16.3193 86.0263L36.3957 83L254.226 86.0263L257.237 90.0614C258.241 90.734 260.75 94.7018 262.758 105.193C264.264 115.113 259.445 135.961 228.126 139.996C218.59 142.686 190.985 148.47 156.855 150.084C120.215 152.101 40.8131 152.101 16.3193 135.961C11.4674 134.784 1.76385 129.505 1.76385 117.803C0.258116 111.246 -0.0430307 96.4167 10.7982 89.557L16.3193 86.0263Z" fill="#75BAE1"/>
<path d="M15.2609 52L35.2609 49L252.262 52L255.262 56C256.262 56.6667 260.671 56 263.5 72.5C266.5 90 254 100.5 226.5 106.5C216 108.5 189.262 113.9 155.262 115.5C118.762 117.5 39.6616 117.5 15.2609 101.5C10.4276 100.333 0.76094 95.1 0.76094 83.5C-0.73906 77 -1.03906 62.3 9.76094 55.5L15.2609 52Z" fill="#80C2E7"/>
<path d="M13.9369 22.3789C15.6681 20.8856 23.8918 17.0032 32.8513 13.4193C39.8197 10.6318 59.2318 4.45972 89.0966 2.46871C112.491 0.477636 111.495 -0.719326 142.356 0.477656L142.607 0.487422C156.491 1.02583 168.331 1.48498 183.668 3.46404C228.466 7.94381 251.125 21.8812 251.125 21.8812L255.344 25.3651C257.335 27.3561 260.321 29.9447 262.312 40.298C266.294 53.2395 252.855 70.6609 225.242 75.1407C215.785 77.7954 188.409 83.5029 154.562 85.0957C118.226 87.0867 39.4828 87.0867 15.1922 71.1587C10.3806 69.9972 0.757511 64.7874 0.757511 53.2396C-0.735729 46.7688 -1.03438 32.1349 9.71695 25.3654L13.9369 22.3789Z" fill="#8BCCF1"/>
<path d="M48 39.5895L50.5 41.3511C58.5 32.7616 179.5 27.5 221.5 41.3512C215.333 45.3512 204.544 55.5895 133 55.5895C91.0924 55.5895 67.5092 52.6866 50.5 41.3511C49.6508 40.7852 48.8179 40.1982 48 39.5895Z" fill="#67A2E7"/>
<path d="M238.5 75.5C240.167 77.6667 241.9 82.6 235.5 85C236.833 85 239.8 85.5 241 87.5C242.333 86.3333 245.6 84 248 84C246.833 83.3333 245.2 81.2 248 78C247.167 78.1667 245.5 77.7 245.5 74.5C244.667 76 242.1 78.3 238.5 75.5Z" fill="#6CA7C8"/>
<path d="M263 95.5001C259.334 88.6667 249.6 75.9001 240 79.5001C240 83.0001 236.834 84.5001 235.5 85.0001C239.5 85.5001 240.167 86.6667 241 87.5001C252.2 93.9001 253.334 118.667 252.5 130.5C252.5 139 248.834 143 245.5 143.5C210.5 148.75 225.002 155.5 233 155.5C252.5 158 233.5 162.5 240 164.5C246.5 166.5 257.002 163 256.501 167.5C254.502 170.5 255.001 175 269 175C318.601 175 328.334 174.5 327.001 170.5C325.667 166.5 329.001 164.5 336.001 164.5H368.001C405.201 155.3 372.501 152.333 351.501 152C344.301 152 346.167 149.667 348.001 148.5C364.001 144.5 340.667 143.5 327.001 143.5H308.001C299.601 142.3 301.167 140 303.001 139C309.401 136.6 303.334 136 299.501 136H274.5C272.667 136.667 269 135.9 269 127.5C269.334 121.333 268.6 106.3 263 95.5001Z" fill="#67A2E7"/>
</svg>