<svg width="385" height="164" viewBox="0 0 385 164" fill="none" xmlns="http://www.w3.org/2000/svg">
<path d="M300 102.25L302 102.5L310 116L311.5 118C299 117.5 296.5 117.5 292 114L279.5 93C281 89 282 84.5 293 83.5C299 82.9545 329.5 82.5 348 78.5C346 76 345.5 73.5 346 71C346.5 68.5 347.5 66.5 357.5 66.5L359.5 66.4999C364.5 66.6999 373 66.7667 377 66.5C384.5 65.9999 387.5 74 381 76.5C378 76.8333 370.7 77.4 365.5 77C363.333 76.8333 360.1 76.2999 362.5 77.4999C365 79.9999 369.1 87.5999 345.5 89.9999C336.833 91.3333 314.5 94.1999 294.499 94.9999C290.999 95.4999 293.5 102.25 300 102.25Z" fill="#53D550"/>
<path d="M264.5 43C261.833 37.5 251 23.6 235 12L214 13L209 21.5L251.5 55.5L263 92.5C271.4 113.3 281.833 126.167 286 130C300.8 142.4 320.973 140 335.5 140C360.5 140 377.581 137 378 124C378.71 102 348.167 103.167 342 103.5C339.6 103.5 323.499 103.54 322.5 103.5C310 103 305.5 102.75 299.5 102.25C299.5 108.25 308.333 115.833 311.5 118C319 118 359 117 356 121C358.5 125 331.1 125 317.5 125C314 125 306.1 124.1 294.5 114.5C294.227 114.201 293.929 113.867 293.608 113.5C289.813 109.154 282.951 100.246 280 92.5C278.5 89.6667 274.9 80.9 272.5 68.5C272.333 65.3333 270.5 55.8 264.5 43Z" fill="#52DC4E"/>
<path d="M241.5 44C241.5 45.0272 240.885 46.113 239.518 47.2421C238.156 48.3667 236.118 49.4741 233.445 50.5421C228.104 52.6763 220.346 54.6085 210.724 56.2349C191.486 59.4863 164.89 61.5 135.5 61.5C106.11 61.5 79.5141 59.4863 60.2765 56.2349C50.6536 54.6085 42.8956 52.6763 37.5548 50.5421C34.882 49.4741 32.8437 48.3667 31.4821 47.2421C30.1151 46.113 29.5 45.0272 29.5 44C29.5 42.9728 30.1151 41.887 31.4821 40.7579C32.8437 39.6333 34.882 38.5259 37.5548 37.4579C42.8956 35.3237 50.6536 33.3915 60.2765 31.7651C79.5141 28.5137 106.11 26.5 135.5 26.5C164.89 26.5 191.486 28.5137 210.724 31.7651C220.346 33.3915 228.104 35.3237 233.445 37.4579C236.118 38.5259 238.156 39.6333 239.518 40.7579C240.885 41.887 241.5 42.9728 241.5 44Z" stroke="black" stroke-opacity="0.23"/>
<path d="M7.9438 68.2509C6.53883 75.6269 5.33984 82.8646 5.33984 90.3845C5.33984 98.1687 9.44368 102.3 14.4537 107.31" stroke="black" stroke-opacity="0.23" stroke-width="3" stroke-linecap="round"/>
<path d="M258.573 73.4587C261.216 79.5922 261.827 85.5264 261.827 92.2289C261.827 98.7792 258.559 101.319 254.016 105.357" stroke="black" stroke-opacity="0.23" stroke-width="3" stroke-linecap="round"/>
<path d="M48.3047 120.981C53.2706 122.328 58.1862 121.89 63.0604 123.079C65.8339 123.755 69.0593 125.648 71.7403 126.84C76.3766 128.9 82.036 129.456 86.93 130.601C92.2066 131.836 98.3497 132.048 103.783 132.048C110.459 132.048 117.023 131.611 123.675 131.397C128.479 131.242 133.136 130.095 138.033 130.095C144.579 130.095 151.125 130.095 157.671 130.095C162.383 130.095 168.137 131.032 172.643 129.371C176.295 128.026 180.191 126.38 184.144 126.189C188.717 125.968 194.213 124.178 198.032 121.632" stroke="black" stroke-opacity="0.23" stroke-width="3" stroke-linecap="round"/>
<path d="M110.148 90.3845C121.548 89.2987 133.137 89.5501 144.506 88.2868C149.68 87.712 154.414 87.1295 159.624 87.1295" stroke="black" stroke-opacity="0.23" stroke-width="3" stroke-linecap="round"/>
<path d="M16.3193 99.0263L36.3957 96L254.226 99.0263L257.237 103.061C258.241 103.734 260.75 107.702 262.758 118.193C264.264 128.113 259.445 148.961 228.126 152.996C218.59 155.686 190.985 161.47 156.855 163.084C120.215 165.101 40.8131 165.101 16.3193 148.961C11.4674 147.784 1.76385 142.505 1.76385 130.803C0.258116 124.246 -0.0430307 109.417 10.7982 102.557L16.3193 99.0263Z" fill="#75BAE1"/>
<path d="M15.2609 65L35.2609 62L252.262 65L255.262 69C256.262 69.6667 260.671 69 263.5 85.5C266.5 103 254 113.5 226.5 119.5C216 121.5 189.262 126.9 155.262 128.5C118.762 130.5 39.6616 130.5 15.2609 114.5C10.4276 113.333 0.76094 108.1 0.76094 96.5C-0.73906 90 -1.03906 75.3 9.76094 68.5L15.2609 65Z" fill="#80C2E7"/>
<path d="M13.9369 35.3789C15.6681 33.8856 23.8918 30.0032 32.8513 26.4193C39.8197 23.6318 59.2318 17.4597 89.0966 15.4687C112.491 13.4776 111.495 12.2807 142.356 13.4777L142.607 13.4874C156.491 14.0258 168.331 14.485 183.668 16.464C228.466 20.9438 251.125 34.8812 251.125 34.8812L255.344 38.3651C257.335 40.3561 260.321 42.9447 262.312 53.298C266.294 66.2395 252.855 83.6609 225.242 88.1407C215.785 90.7954 188.409 96.5029 154.562 98.0957C118.226 100.087 39.4828 100.087 15.1922 84.1587C10.3806 82.9972 0.757511 77.7874 0.757511 66.2396C-0.735729 59.7688 -1.03438 45.1349 9.71695 38.3654L13.9369 35.3789Z" fill="#8BCCF1"/>
<path d="M48 52.5895L50.5 54.3511C58.5 45.7616 179.5 40.5 221.5 54.3512C215.333 58.3512 204.544 68.5895 133 68.5895C91.0924 68.5895 67.5092 65.6866 50.5 54.3511C49.6508 53.7852 48.8179 53.1982 48 52.5895Z" fill="#67A2E7"/>
<path d="M205.765 1.21228C214.026 2.98487 231.638 7.78699 236 12.8147L214.191 22C210.061 20.7108 197.24 18.7126 179 21.0331V0.728845C185.278 0.0842651 199.421 -0.721459 205.765 1.21228Z" fill="#52DC4E"/>
<ellipse rx="8.11893" ry="10.0472" transform="matrix(0.996812 0.0797807 -0.0902585 0.995918 179.999 10.6539)" fill="#49B846"/>
<path d="M350.499 78C350.333 78.1667 349.599 78.5 347.999 78.5C347.422 78.0665 346.343 76.5058 346.066 74.795C345.968 74.48 345.958 74.2055 345.999 74C346 74.2662 346.023 74.5323 346.066 74.795C346.364 75.7569 347.486 77.096 350.499 78Z" fill="#4FC94C"/>
<path d="M358 74.5C358.667 74.6667 360 75.5 362 77.25C362.667 76.9167 363.412 76.714 366.5 77.1C368.299 77.3248 372.2 77.5 379 76.7C380.764 76.7 383 76 384 74C380.667 74.6667 372.4 75.8 366 75C364.5 75 362 75 358 74.5Z" fill="#4FC94C"/>
<path d="M175.502 10.5C177.502 9.83331 182.802 8.79997 188.002 9.99997C188.168 9.99997 188.3 10.8 187.5 14C187 16 184.9 20.1 180.5 20.5C178.5 22.8333 175 29 177 35C177 36 178 40 176.5 49L157.501 47.5C157.334 45.1667 157.601 39.3 160.001 34.5C160.334 33.6667 161.001 31.4 161.001 29C161.001 27.3333 162.001 22.8 166.002 18C166.418 17.5 168 15 175.502 10.5Z" fill="#5FA4E4"/>
<path d="M159 43C159.167 41.8334 160 38.7 162 35.5C163 35.1667 165.6 35.1 168 37.5C168.333 37.6667 170 38 174 38C174.333 38.5 174.8 40.2 174 43C172.833 43.1667 170 43.4 168 43C166.667 42.3334 163 41.4 159 43Z" fill="#67ABEB"/>
<path d="M164.397 25.1368C164.428 23.4374 165.323 19.5045 168.657 17.3678C169.598 17.7445 171.374 18.9863 171.756 19.5816C172.519 20.7723 174.473 21.1999 177.403 21.8413C176.106 23.0928 174.68 24.9304 174.167 27.2749C173.48 27.2952 171.639 27.1312 169.771 26.3129C169.028 25.8091 166.914 24.8686 164.397 25.1368Z" fill="#67ABEB"/>
</svg>