<svg width="269" height="133" viewBox="0 0 269 133" fill="none" xmlns="http://www.w3.org/2000/svg">
<path d="M247.945 67.7166L206.445 66.2166L199.945 93.2166L247.945 99.7166V67.7166Z" fill="black"/>
<path d="M43.0008 76.5791L42.5008 74.5791L33.5 68.0791L22.5 70.0791C22.6667 71.4124 22.3 74.2791 19.5 75.0791C20.3333 75.5791 23.0431 76.1791 27.2156 74.5791C26.3107 75.2458 25.4008 77.0791 29.0008 79.0791C29.0008 78.2458 30.5008 76.4791 36.5008 76.0791C36.5008 76.5791 35.7008 77.5791 32.5008 77.5791C33.5008 78.2458 37.0008 78.9791 43.0008 76.5791Z" fill="#9D8664"/>
<path d="M56 75.5791L58.5 74.5791L73 68.5791L74 69.5791L73 71.5791C73 71.9124 73.3 72.6791 74.5 73.0791C74 73.5791 72.2 74.2791 69 73.0791C70.3333 73.7458 72.2 75.5791 69 77.5791C69.1667 77.2458 68.8 76.2791 66 75.0791C66.5 75.4124 67.2 76.3791 66 77.5791C65.3333 77.2458 63.7 76.5791 62.5 76.5791C62.5 76.9124 63 77.5791 65 77.5791C64.1667 77.9124 61.3 78.3791 56.5 77.5791L56 75.5791Z" fill="#9D8664"/>
<path d="M45.9819 85.5937C52.1239 84.8497 68.0002 85.621 82.3698 94.6585L49.5 96.0792L18.8602 95.6767C21.0728 92.5866 29.5948 86.2438 45.9819 85.5937Z" fill="#CDBB96"/>
<path d="M93.5003 131.579C94.5003 115.079 91.5003 100.079 84.0003 95.0791C79.3361 91.0793 70.2996 86.8794 59.5003 86.0791L57.0003 87.5791L51.5003 92.5791L49.5003 95.5791C48.7003 119.179 49.167 129.412 49.5003 131.579H93.5003Z" fill="#2E9138"/>
<path d="M15.4965 97.0791C8.9981 104.079 7.50309 115.579 7.5 131.579H49.5C49.1667 129.412 48.7 119.179 49.5 95.5791L44.5 90.0791L40 86.0791H39.4984C32.4984 86.5791 19.9965 91.5791 15.4965 97.0791Z" fill="#298833"/>
<path d="M67.5019 87.5791C67.6686 86.2458 67.7019 83.1791 66.5019 81.5791C65.6679 82.0791 62.5 83.0791 61.5019 85.0791L67.5019 87.5791Z" fill="#3F8E47"/>
<path d="M34.5019 86.5791C34.1686 86.2458 33.802 84.8794 35.0016 82.0799C36.0031 82.5817 39.0001 85.0793 39.2 85.4791L34.5019 86.5791Z" fill="#3F8E47"/>
<path d="M220.482 86.5146C226.624 85.7706 242.5 86.5419 256.87 95.5794L193.36 96.5976C195.573 93.5075 204.095 87.1647 220.482 86.5146Z" fill="#E0B677"/>
<rect x="216" y="71" width="15" height="17" fill="#E0B677"/>
<circle cx="223.945" cy="44.2166" r="33" fill="#F1C27D"/>
<rect x="42.5" y="70.0791" width="15" height="17" fill="#CDBB96"/>
<circle cx="50.5" cy="44.0791" r="33" fill="#E1CDA5"/>
<path d="M57.5 78.5791C61.1 78.1791 65 80.4124 66.5 81.5791C61.5 84.5791 54 90.0791 49.5 95.5791C46.5 92.5791 39.8025 85.2771 35 82.0791C35.5 80.9124 37.7 78.5791 42.5 78.5791V85.2771C44.0336 87.4449 47.361 91.6576 49.5 95.5791C51.5016 89.9079 55.5697 85.6974 57.5 83.5856V78.5791Z" fill="#33A03E"/>
<path d="M11.0753 32.3855C10.2444 36.1 8.98828 40.6748 8.98828 44.4437C8.98828 46.2917 10.2027 50.7322 11.9101 51.5859" stroke="black" stroke-opacity="0.19" stroke-linecap="round"/>
<path d="M34.9994 4.0791C38.8328 3.24576 48.0994 2.9791 54.4994 8.5791C56.4999 4.57909 54 1.91242 52.5 1.07908C60.9 0.279083 57.333 5.74576 54.4994 8.5791C54.9996 8.24576 56.9 7.47908 60.5 7.07908L60.5098 7.07799C62.0087 6.91142 64.0131 6.68868 70 11.0791C73.5 13.5791 81.6 21.4791 86 33.0791C86.3835 33.8035 86.852 34.8308 87.3236 36.0791C90.2647 42.8791 92.6667 43.5791 93.5 43.0791C91.5 44.2791 89.6911 43.2458 89.0367 42.0791C89.561 44.7429 89.8218 47.6826 89.5 50.5791C89.5 53.2458 88.1 60.0791 82.5 66.0791C80.6667 68.4124 75.8 73.0791 71 73.0791C71.8333 72.9124 73.4 71.9791 73 69.5791C72.3333 70.9124 69.9 73.5791 65.5 73.5791C68.8333 69.7458 74.9 59.6791 72.5 50.0791L61.5 31.5791L49 39.5791L28.5 58.0791C28 59.7458 27.7 63.2791 30.5 64.0791C29.6667 64.4374 27.8 64.739 27 63.0791C27.6667 65.2458 30.5 69.6791 36.5 70.0791C35.3333 70.9124 32.5 72.1791 30.5 70.5791C31 71.0791 32.9 72.1791 36.5 72.5791C35.6667 73.5791 32.9 75.1791 28.5 73.5791C25.8333 72.9124 19.2 70.6791 14 67.0791C12.3333 66.5791 8.09988 63.8791 4.49943 57.0791C2.1966 55.208 0.0677752 48.1417 7 33.8837C4.83333 35.1155 0.4 36.3791 0 31.5791C0.602636 33.9896 3.87457 35.4842 12.1795 24.558C12.9095 23.4145 13.8502 22.0854 15 20.6408C19.0684 15.5294 25.7559 8.97274 34.9994 4.0791Z" fill="#A48F70"/>
<path d="M39.5017 17.0791C41.335 16.4124 46.5017 15.8791 52.5017 19.0791C54.0023 19.7458 57.5035 21.9791 59.5035 25.5791C59.6857 25.8707 59.8887 26.2978 60.0778 26.8499C61.6156 21.4333 65.3333 23.0791 67 24.5791C64.2 23.412 61.2186 25.6067 60.0778 26.8499C63.0531 26.2596 69.9035 25.7791 73.5035 28.5791C75.3368 29.7458 79.3035 33.2791 80.5035 38.0791C80.8368 39.5791 81.1035 42.9791 79.5035 44.5791C79.5035 44.2458 79.0035 43.0791 77.0035 41.0791C77.8368 42.0791 79.4035 44.5791 79.0035 46.5791C78.8368 47.5791 78.0035 50.1791 76.0035 52.5791C75.3368 52.5791 73.1035 52.0791 69.5035 50.0791C67.6701 48.9124 63.3035 44.2129 60.5035 34.748C60.3838 35.4898 60.2198 36.2677 60.0035 37.0791C58.8368 39.4124 55.2035 44.5791 50.0035 46.5791C50.5035 45.4124 51.4035 42.7791 51.0035 41.5791C50.5035 43.2458 48.6035 47.1791 45.0035 49.5791C40.1701 53.2458 29.1035 60.2791 23.5035 59.0791C23.6701 58.4124 23.9035 56.7791 23.5035 55.5791C23.6701 56.4124 23.5035 58.3791 21.5035 59.5791C21.1701 59.5791 20.4035 59.3791 20.0035 58.5791C19.1695 57.7458 17.5017 53.6791 17.5017 44.0791C17.4475 43.5919 17.4136 42.9807 17.4136 42.2696C16.7512 44.0394 15.6417 48.8791 16.5035 54.0791C15.3368 51.5791 14.1274 44.0791 18.6231 34.0791C19.3279 31.6394 20.403 29.0498 22.0017 26.5791C23.5434 24.8001 27.2962 21.5528 32.5035 19.2511C31.5035 19.1937 29.5035 18.6791 29.5035 17.0791C29.5035 17.5791 30.9035 18.4208 36.5035 17.7877C37.4695 17.5065 38.47 17.2667 39.5017 17.0791Z" fill="#AE9876"/>
<circle cx="52" cy="101.579" r="1.5" fill="#278030"/>
<circle cx="52" cy="112.579" r="1.5" fill="#278030"/>
<circle cx="52" cy="125.579" r="1.5" fill="#278030"/>
<path d="M267.887 132.217C268.887 115.717 265.887 100.717 258.387 95.7166C253.723 91.7168 244.686 87.5169 233.887 86.7166C233.887 86.7166 233.274 89.9969 231.945 91.7166C230.676 93.3592 229.309 94.3029 227.445 95.2166C226.149 95.8519 223.887 96.2166 223.887 96.2166C223.087 119.817 223.554 130.05 223.887 132.217H267.887Z" fill="#357CA5"/>
<path d="M189.942 97.7166C183.443 104.717 181.948 116.217 181.945 132.217H223.945C223.612 130.05 223.145 119.817 223.945 96.2166C223.945 96.2166 222.058 96.1331 220.945 95.7166C219.627 95.2227 219.015 95.1325 217.945 94.2166C216.578 93.0455 215.625 91.8837 214.945 90.2166C214.445 88.9893 214.445 86.7166 214.445 86.7166H213.944C206.944 87.2166 194.442 92.2166 189.942 97.7166Z" fill="#357CA5"/>
<path d="M219.945 0.216537C222.445 0.216537 232.945 1.71652 236.447 6.21651C237.947 5.71651 242.445 5.53909 243.945 6.21651C249.112 8.54985 259.445 17.8165 259.445 36.2165V96.7165C256.945 94.5499 251.945 90.7165 242.945 88.2165C242.612 82.7165 242.345 65.8165 243.945 42.2165C243.945 38.7165 243.245 31.2165 240.445 29.2165C240.112 28.8832 238.645 28.3165 235.445 28.7165C234.945 28.7165 233.845 28.5165 233.445 27.7165C232.945 26.7165 231.045 24.8165 227.445 25.2165C222.112 26.2165 211.645 32.5165 212.445 49.7165C211.445 59.0499 210.045 86.1165 212.445 119.717C204.279 119.217 186.046 116.117 178.447 107.717C177.947 93.8832 177.447 62.2165 179.447 46.2165C179.447 37.0499 182.147 16.7165 192.947 8.71651C196.114 5.38318 206.945 -1.28345 219.945 0.216537Z" fill="#171717"/>
</svg>