<svg width="389" height="228" viewBox="0 0 389 228" fill="none" xmlns="http://www.w3.org/2000/svg">
<path d="M73.3944 75.2727C73.7358 75.1454 74.0944 75.4143 74.0677 75.7777L73.019 90.0841C72.9901 90.4785 72.5366 90.6848 72.2203 90.4476L59.828 81.1524C59.5118 80.9152 59.5829 80.422 59.9534 80.2839L73.3944 75.2727Z" fill="#FFB13C"/>
<circle cx="44.8242" cy="115.5" r="32" fill="#FFE145"/>
<path d="M46.9034 66.656C47.1001 66.3493 47.5483 66.3493 47.7451 66.656L55.4905 78.73C55.704 79.0628 55.4651 79.5 55.0697 79.5H39.5788C39.1834 79.5 38.9444 79.0628 39.1579 78.73L46.9034 66.656Z" fill="#FFB13C"/>
<path d="M19.9768 73.7188C19.9964 73.3549 20.386 73.1335 20.7086 73.3029L33.4079 79.9739C33.7579 80.1578 33.7661 80.656 33.4224 80.8513L19.9539 88.5045C19.6102 88.6998 19.1864 88.4377 19.2076 88.0429L19.9768 73.7188Z" fill="#FFB13C"/>
<path d="M79.8074 149.612C79.875 149.97 79.5491 150.278 79.1955 150.19L65.2745 146.729C64.8908 146.634 64.7644 146.152 65.0518 145.88L76.315 135.245C76.6024 134.973 77.0763 135.127 77.1496 135.516L79.8074 149.612Z" fill="#FFB13C"/>
<path d="M92.7945 124.968C93.0633 125.214 92.9873 125.655 92.6516 125.797L79.4385 131.381C79.0743 131.535 78.684 131.226 78.7511 130.836L81.3796 115.57C81.4467 115.18 81.9181 115.019 82.2098 115.286L92.7945 124.968Z" fill="#FFB13C"/>
<path d="M90.3992 97.2334C90.7544 97.3144 90.9065 97.736 90.6848 98.0251L81.9557 109.408C81.7151 109.722 81.2227 109.646 81.0886 109.274L75.8318 94.7019C75.6976 94.33 76.0278 93.9569 76.4132 94.0448L90.3992 97.2334Z" fill="#FFB13C"/>
<path d="M30.1272 162.645C29.8426 162.872 29.418 162.729 29.3298 162.375L25.8571 148.457C25.7614 148.073 26.1278 147.736 26.5023 147.862L41.178 152.821C41.5526 152.948 41.639 153.439 41.3303 153.686L30.1272 162.645Z" fill="#FFB13C"/>
<path d="M57.9882 162.555C57.8971 162.908 57.4713 163.048 57.1886 162.818L46.0592 153.768C45.7525 153.518 45.8429 153.028 46.2185 152.905L60.9343 148.066C61.3099 147.943 61.6734 148.283 61.5746 148.666L57.9882 162.555Z" fill="#FFB13C"/>
<path d="M0.818533 94.0283C0.642546 93.7092 0.855997 93.3151 1.21938 93.2881L15.5249 92.2276C15.9192 92.1983 16.1898 92.6167 16.0016 92.9643L8.62414 106.586C8.43585 106.933 7.93762 106.935 7.74667 106.589L0.818533 94.0283Z" fill="#FFB13C"/>
<path d="M7.11794 147.095C6.75515 147.129 6.47897 146.776 6.59929 146.432L11.3359 132.891C11.4665 132.518 11.958 132.437 12.2017 132.748L21.7471 144.949C21.9908 145.26 21.7937 145.718 21.4001 145.755L7.11794 147.095Z" fill="#FFB13C"/>
<path d="M43.5282 1.0468C43.9284 0.520526 44.72 0.520527 45.1202 1.04681L66.4862 29.1447C66.9869 29.8031 66.5173 30.75 65.6902 30.75H22.9582C22.1311 30.75 21.6616 29.8031 22.1622 29.1447L43.5282 1.0468Z" fill="#F15963"/>
<rect x="38.3242" y="14" width="12" height="37" rx="1" fill="#F15963"/>
<path d="M369.394 76.2727C369.736 76.1454 370.094 76.4143 370.068 76.7777L369.019 91.0841C368.99 91.4785 368.537 91.6848 368.22 91.4476L355.828 82.1524C355.512 81.9152 355.583 81.422 355.953 81.2839L369.394 76.2727Z" fill="#FFB13C"/>
<circle cx="340.824" cy="116.5" r="32" fill="#FFE145"/>
<path d="M342.903 67.656C343.1 67.3493 343.548 67.3493 343.745 67.656L351.491 79.73C351.704 80.0628 351.465 80.5 351.07 80.5H335.579C335.183 80.5 334.944 80.0628 335.158 79.73L342.903 67.656Z" fill="#FFB13C"/>
<path d="M315.977 74.7188C315.996 74.3549 316.386 74.1335 316.709 74.3029L329.408 80.9739C329.758 81.1578 329.766 81.656 329.422 81.8513L315.954 89.5045C315.61 89.6998 315.186 89.4377 315.208 89.0429L315.977 74.7188Z" fill="#FFB13C"/>
<path d="M375.807 150.612C375.875 150.97 375.549 151.278 375.195 151.19L361.274 147.729C360.891 147.634 360.764 147.152 361.052 146.88L372.315 136.245C372.602 135.973 373.076 136.127 373.15 136.516L375.807 150.612Z" fill="#FFB13C"/>
<path d="M388.794 125.968C389.063 126.214 388.987 126.655 388.652 126.797L375.438 132.381C375.074 132.535 374.684 132.226 374.751 131.836L377.38 116.57C377.447 116.18 377.918 116.019 378.21 116.286L388.794 125.968Z" fill="#FFB13C"/>
<path d="M386.399 98.2334C386.754 98.3144 386.907 98.736 386.685 99.0251L377.956 110.408C377.715 110.722 377.223 110.646 377.089 110.274L371.832 95.7019C371.698 95.33 372.028 94.9569 372.413 95.0448L386.399 98.2334Z" fill="#FFB13C"/>
<path d="M326.127 163.645C325.843 163.872 325.418 163.729 325.33 163.375L321.857 149.457C321.761 149.073 322.128 148.736 322.502 148.862L337.178 153.821C337.553 153.948 337.639 154.439 337.33 154.686L326.127 163.645Z" fill="#FFB13C"/>
<path d="M353.988 163.555C353.897 163.908 353.471 164.048 353.189 163.818L342.059 154.768C341.752 154.518 341.843 154.028 342.219 153.905L356.934 149.066C357.31 148.943 357.673 149.283 357.575 149.666L353.988 163.555Z" fill="#FFB13C"/>
<path d="M296.819 95.0283C296.643 94.7092 296.856 94.3151 297.219 94.2881L311.525 93.2276C311.919 93.1983 312.19 93.6167 312.002 93.9643L304.624 107.586C304.436 107.933 303.938 107.935 303.747 107.589L296.819 95.0283Z" fill="#FFB13C"/>
<path d="M292.178 122.497C291.846 122.347 291.78 121.904 292.054 121.664L302.862 112.232C303.16 111.972 303.627 112.144 303.685 112.535L305.957 127.858C306.015 128.25 305.618 128.55 305.257 128.388L292.178 122.497Z" fill="#FFB13C"/>
<path d="M303.118 148.095C302.755 148.129 302.479 147.776 302.599 147.432L307.336 133.891C307.466 133.518 307.958 133.437 308.202 133.748L317.747 145.949C317.991 146.26 317.794 146.718 317.4 146.755L303.118 148.095Z" fill="#FFB13C"/>
<path d="M342.796 226.935C342.396 227.462 341.604 227.462 341.204 226.935L319.838 198.837C319.337 198.179 319.807 197.232 320.634 197.232H363.366C364.193 197.232 364.663 198.179 364.162 198.837L342.796 226.935Z" fill="#9E67CA"/>
<rect x="347.223" y="212" width="12" height="37" rx="1" transform="rotate(-180 347.223 212)" fill="#9E67CA"/>
</svg>