<svg width="127" height="369" viewBox="0 0 127 369" fill="none" xmlns="http://www.w3.org/2000/svg">
<path d="M44.0005 82.2551L46.0005 81.7551L44.5 77.7551L25.5008 67.7551C24.5008 69.5884 23.7008 73.9551 28.5006 76.7551C28.3339 75.9217 28.4006 74.3551 30.0005 74.7551C29.0005 76.5884 28.0005 80.4551 32.0005 81.2551C32.0005 79.9217 32.9005 77.3551 36.5005 77.7551C36.8338 78.4217 36.8005 80.0551 34.0005 81.2551C35.8338 81.5884 39.9005 81.6551 41.5005 79.2551C41.8338 79.9217 41.9005 81.5551 39.5005 82.7551C40.0005 83.4217 41.6005 84.2551 44.0005 82.2551Z" fill="#705F4F"/>
<path d="M44 21.2551H33.5" stroke="black"/>
<path d="M9.57106 212.666C10.5327 205.867 13.3911 151.267 13.0039 123.224L25.9571 119.666L25.961 189.644L24.7523 232.976C18.5476 232.976 14.2523 233.179 9.57106 232.976C7.73944 232.897 4.22837 233.032 2.75237 230.166C2.10795 229.637 -0.322444 225.025 0.753594 218.666C1.34581 215.166 2.75237 212.666 9.57106 212.666Z" fill="#E3D0B4"/>
<ellipse cx="59" cy="168.755" rx="41" ry="73" fill="#C4C4C4" fill-opacity="0.09"/>
<path d="M47.4395 78.3975C47.2016 79.7947 46.7105 83.9289 46.4569 82.5344C46.3869 82.1493 45.5778 79.2696 45.5778 80.3625C45.5778 84.6672 45.2064 81.7478 47.4395 80.2591" stroke="black" stroke-opacity="0.08" stroke-width="3" stroke-linecap="round"/>
<path d="M64.1964 76.5359C64.1307 79.825 63.2656 86.3611 63.2656 86.3611C63.2656 86.3611 64.1291 82.8012 64.1964 80.9831C64.3814 75.9898 63.2656 83.3175 63.2656 84.9132" stroke="black" stroke-opacity="0.08" stroke-width="3" stroke-linecap="round"/>
<path d="M19.2227 353.755L26.2227 349.755L35.7227 350.755L30.2227 355.255L19.2227 353.755Z" fill="#E8E4E4" stroke="#F3F3F3" stroke-width="0.4"/>
<path d="M89.2227 356.755L94.7227 351.755H104.723L99.7227 356.755H89.2227Z" fill="#F3F3F3"/>
<path d="M19.9956 329.755C17.9997 317.255 19.4944 272.755 19.4956 228.755L59.9956 238.255C58.5 270.755 53.5 319.255 52 331.255L45 336.755L23.4956 334.255L19.9956 329.755Z" fill="#76A7C2"/>
<path d="M86.0703 334.755C86.0703 330.755 75.5703 302.255 65.0703 235.755L104.07 231.255C108.57 253.255 120.57 312.755 120.57 331.755L117.07 336.255L91.0703 337.755L86.0703 334.755Z" fill="#77ADCC"/>
<path d="M93.2227 337.255H90.2227L90.7227 350.755L94.7227 352.255L93.2227 337.255Z" fill="#373737"/>
<path d="M102.721 352.255H94.7211L93.2211 338.755C92.5544 336.422 92.6211 331.755 98.2211 331.755C99.7211 331.255 103.121 331.455 104.721 336.255C104.721 339.755 105.921 341.855 102.721 352.255Z" fill="#F3F3F3"/>
<path d="M37.1811 337.116L33.6599 351.262L25.4996 350.255L25.7199 331.188C26.5661 328.877 29.3622 324.905 33.7772 327.503C35.8992 328.208 39.5508 331.118 37.1811 337.116Z" fill="#E8E4E4"/>
<path d="M117.723 335.255L103.723 336.255L101.723 336.755L102.723 352.755L98.2227 356.255C95.2227 355.755 93.2227 355.255 89.7227 356.255L94.7227 352.255L90.7227 350.755L89.7227 352.755L83.7227 357.755L96.2227 367.755C105.056 366.922 119.723 365.755 119.723 362.255L117.723 335.255Z" fill="#373737"/>
<path d="M92.7227 339.255L103.223 346.255L94.2227 351.255L98.7227 356.755" stroke="black" stroke-width="0.4"/>
<path d="M89.2227 355.755L102.723 352.755L93.2227 344.755L102.723 339.255H93.2227" stroke="black" stroke-width="0.4"/>
<path d="M36.7227 333.755L48.7227 334.255L44.2227 361.255C44.2227 362.255 43.5227 363.755 38.7227 363.755L25.7227 364.755L16.2227 354.255L20.7227 349.755L22.2227 332.755L26.7227 333.755L25.7227 350.755L21.2227 353.755C22.8893 353.255 26.8227 352.655 29.2227 354.255L33.2227 350.755L34.7227 334.255L36.7227 333.755Z" fill="#2E2E2E"/>
<path d="M29.2227 354.755L25.2227 349.255L34.2227 344.255L25.7227 335.755L35.7227 336.755L25.7227 343.255L33.7227 350.255L21.2227 353.755" stroke="black" stroke-width="0.4"/>
<path d="M19.5 235.255L18.5 204.755L61.5 223.755L60 240.255C54.3333 240.088 29.5 239.255 19.5 235.255Z" fill="#76A7C2"/>
<path d="M18.5601 190.755C31.0589 192.255 85.9775 194.955 97.5775 183.755C100.578 193.088 103.077 221.555 105.077 236.755C102.411 238.922 87.6786 241.755 66.0786 241.755L63.0786 227.755C41.5988 227.255 59.5715 227.755 58.0676 227.755C56.5638 227.755 12.5703 232.255 18.5601 190.755Z" fill="#77ADCC"/>
<path d="M66.5 81.2551L65 79.2551L66.5 73.2551L84.5 56.7551C85.1667 60.5884 85.6 69.1551 82 72.7551C82 71.5884 81.4 69.2551 79 69.2551C80.5 71.2551 82.6 75.7551 79 77.7551C79.1667 77.0884 78.6 75.2551 75 73.2551C74.6667 74.7551 75.2 78.0551 80 79.2551C78.8333 80.2551 75.2 81.4551 70 78.2551C69.6667 79.2551 69.7 81.4551 72.5 82.2551C71.3333 82.9217 68.5 83.6551 66.5 81.2551Z" fill="#705F4F"/>
<path d="M43.5 89.2551V74.7551H67.5L68.5 86.7551C70.8333 87.4217 78 89.2551 81.5 92.2551L72 101.755H35L31.5 93.7551C31.5 92.2551 40.5 89.2551 43.5 89.2551Z" fill="#E3D0B4"/>
<path d="M14.5 102.755C16.1861 98.4907 21.5011 89.2551 38.0029 90.7551L24.6151 125.706C23.283 125.649 16.5369 128.445 11.1152 124.206C11.2017 122.208 11.8946 107.447 14.5 102.755Z" fill="#E6E6E6"/>
<path d="M47.7479 98.2551C52.7479 99.0884 65.8993 96.0551 71.4993 87.2551L90 90.7551C91.9947 92.2551 96 91.2551 91.9947 101.755L94.4947 130.255L99.4947 188.255C91.6614 190.922 54.2947 199.355 17.4947 195.755L17.516 177.255C12.9994 112.255 20.2003 101.755 25.0003 95.7551C27.3337 93.7551 29.5 91.2551 37.4994 90.2551C37.8327 92.4217 41.3479 97.8551 47.7479 98.2551Z" fill="#EDEDED"/>
<path d="M17.9985 217.255C17.4985 211.755 16.7985 199.355 17.9985 193.755L95.5 160.255C98.3333 171.088 104 196.555 104 211.755C95.5 216.588 66.3997 224.455 17.9985 217.255Z" fill="#EDEDED"/>
<path d="M106.5 219.755C106.333 214.422 106.5 197.255 85 121.255L103.5 114.755C107.833 125.588 124.5 196.755 121.5 220.255C125 220.755 126.5 223.255 126.5 227.755C126.5 234.755 125 237.755 122 238.755C122 238.755 114.434 240.827 108 239.755C101.566 238.683 96.4 235.355 98 227.755C98.1667 224.755 99.5 219.255 106.5 219.755Z" fill="#EBD7BA"/>
<ellipse cx="50.5" cy="44.2551" rx="36.5" ry="34.5" fill="#EBD7BA"/>
<path d="M84.3199 127.42C88.8845 128.05 104.443 128.184 109.902 121.317C105.702 100.59 101.86 96.6348 97.6125 93.771C94.8054 92.1607 89.3328 90.5507 83.6681 94.9096C82.2746 95.9818 78.1322 100.835 81.14 113.131L84.3199 127.42Z" fill="#F3F3F3"/>
<path d="M21.0016 25.7551V20.7551C29.8016 6.75507 49.0016 5.25507 57.5016 8.75507C61.9016 6.35507 60.0016 2.0884 58.5016 0.255066C68.1016 3.45507 61.835 7.25507 57.5016 8.75507C78.7016 8.75507 87.6683 24.7551 89.5016 32.7551C91.5016 40.3551 95.6683 40.5884 97.5016 39.7551C94.7016 45.7551 91.0016 42.9217 89.5016 40.7551C95.9016 54.7551 92.1683 62.9217 89.5016 65.2551C85.5016 70.8551 79.835 71.9217 77.5016 71.7551C84.7016 65.7551 84.835 61.5884 84.0016 60.2551C76.0016 67.0551 75.335 73.7551 76.0016 76.2551C69.6016 69.0551 73.335 58.2551 76.0016 53.7551L70.0016 32.7551L30.5016 27.7551L24.0016 49.2551C21.6016 62.0551 26.6683 67.5884 29.5016 68.7551C23.5016 71.1551 20.0016 66.4217 19.0016 63.7551C19.0016 67.7551 23.6683 70.7551 26.0016 71.7551C19.2016 73.7551 15.5016 70.5884 14.5016 68.7551C10.1016 61.9551 11.6683 48.9217 13.0016 43.2551L21.0016 25.7551Z" fill="#84705D"/>
<path d="M57.5016 8.75507C49.0016 5.25507 29.8016 6.75507 21.0016 20.7551V25.7551L13.0016 43.2551C11.6683 48.9217 10.1016 61.9551 14.5016 68.7551C15.5016 70.5884 19.2016 73.7551 26.0016 71.7551C23.6683 70.7551 19.0016 67.7551 19.0016 63.7551C20.0016 66.4217 23.5016 71.1551 29.5016 68.7551C26.6683 67.5884 21.6016 62.0551 24.0016 49.2551L30.5016 27.7551L70.0016 32.7551L76.0016 53.7551C73.335 58.2551 69.6016 69.0551 76.0016 76.2551C75.335 73.7551 76.0016 67.0551 84.0016 60.2551C84.835 61.5884 84.7016 65.7551 77.5016 71.7551C79.835 71.9217 85.5016 70.8551 89.5016 65.2551C92.1683 62.9217 95.9016 54.7551 89.5016 40.7551C91.0016 42.9217 94.7016 45.7551 97.5016 39.7551C95.6683 40.5884 91.5016 40.3551 89.5016 32.7551C87.6683 24.7551 78.7016 8.75507 57.5016 8.75507ZM57.5016 8.75507C61.9016 6.35507 60.0016 2.0884 58.5016 0.255066C68.1016 3.45507 61.835 7.25507 57.5016 8.75507Z" stroke="#84705D" stroke-width="0.2"/>
<path d="M38.8102 14.7472L35.8723 22.1184L36.0134 23.1084C37.1664 28.8363 37.789 41.9463 31.0551 48.5626C29.9236 48.8922 28.4235 52.0689 31.4748 62.1392C29.4713 62.2563 25.0687 61.1329 23.4866 55.7018C22.5907 56.5029 21.1659 59.9719 22.6342 67.4395C19.4768 64.1857 14.4923 55.6705 19.8124 47.6395C18.2565 48.5347 15.5963 52.7858 17.4032 62.6294C15.3579 60.8333 12.1008 54.9834 13.5088 44.9443C12.2186 45.2622 10.0869 45.2704 6.73201 44.4531C8.05201 44.265 10.9328 42.7434 11.896 38.1616C12.0148 35.4511 13.9783 27.9659 20.8825 19.7092C24.879 16.207 32.1235 12.2002 38.8102 14.7472Z" fill="#967F6A" stroke="#967F6A"/>
<path d="M47.1754 27.0609L46.6423 26.5964L36.8151 14.8844C40.4345 12.2604 46.8348 10.7955 52.4196 14.0304C54.2339 13.0529 57.2333 12.4226 61.8151 14.0252C66.3963 15.6276 76.9161 20.8045 80.3538 35.8039C82.8297 42.6501 85.5348 57.1988 76.5487 60.6237C77.4777 59.5574 78.8405 56.0556 76.8599 50.5786C77.4542 54.3714 76.8229 63.0713 69.5623 67.5924C69.5456 67.6033 69.529 67.6135 69.5126 67.6232C69.5292 67.613 69.5458 67.6027 69.5623 67.5924C70.8519 66.7531 72.9469 62.3266 71.3728 50.9562C71.7565 54.104 70.0297 60.5711 60.0533 61.2576C62.516 57.5425 65.4591 49.6304 63.3997 40.88C63.0097 43.2383 60.9786 45.2591 56.5 46.755C58.9888 44.0779 58.3746 38.3187 47.1754 27.0609Z" fill="#967F6A"/>
<path d="M31.3633 15.7608L44.4356 16.3648L49.3529 29.5584L33.6652 34.6473L31.3633 15.7608Z" fill="#967F6A" stroke="#967F6A"/>
<path d="M57 37.2551V33.7551L52 26.7551L35.5 31.2551L27.5 49.7551C29.5 50.0884 35.6 48.7551 44 40.7551C43.8333 42.2551 41.9 45.9551 35.5 48.7551C41.1667 49.9217 53.4 49.2551 57 37.2551Z" fill="#967F6A"/>
<path d="M26.7209 364.529C24.3875 364.863 16.0209 364.829 11.2209 364.029C11.0542 363.196 10.8209 361.029 11.2209 359.029C11.3875 357.696 12.6209 354.829 16.2209 354.029C19.0542 353.863 25.1209 354.329 26.7209 357.529C27.2209 359.196 27.9209 362.929 26.7209 364.529Z" fill="#E8E4E4" stroke="#E8E4E4" stroke-width="0.4"/>
<path d="M79.8811 367.268C82.2145 367.935 89.2811 368.868 98.8811 367.268C98.715 364.935 97.5828 359.868 94.3828 358.268C92.0495 357.435 86.3825 356.168 82.3811 357.768C80.5478 359.101 77.4811 362.868 79.8811 367.268Z" fill="#F3F3F3" stroke="#F3F3F3" stroke-width="0.4"/>
</svg>