<svg width="531" height="326" viewBox="0 0 531 326" fill="none" xmlns="http://www.w3.org/2000/svg">
<path d="M107.498 325.574L84.9981 325.505C169.2 260.097 399.153 112.97 523.35 49.3515L530.849 49.3745C430.502 107.9 205.346 245.074 107.498 325.574Z" fill="#8E8E8E"/>
<path d="M-0.00125973 304.937L17.847 307.269C32.8746 296.459 71.4287 269.999 105.424 250.641L86.5842 248.179C68.3161 258.061 25.4237 283.249 -0.00125973 304.937Z" fill="#8E8E8E"/>
<path d="M309.504 37.0055C311.76 36.0538 318.681 35.9315 339.448 37.0055C360.737 38.1065 366.107 37.5453 368.245 52.006L490.999 11.0057V8.00574C490.999 6.00574 490.299 2.50572 481.499 2.50572L448.999 0.505723C447.166 -0.160944 441.099 -0.694278 431.499 2.50572L322.999 32.5057C319.833 33.3391 312.66 35.0057 309.504 37.0055Z" fill="#E9E9E9"/>
<path d="M366.5 135.005H366L308.449 41.5057V38.5054C308.449 37.8903 308.61 37.3827 309.505 37.0055C311.761 36.0538 318.682 35.9314 339.449 37.0055C360.738 38.1065 366.108 37.545 368.245 52.0057C368.317 52.4886 368.385 52.9883 368.449 53.5054C369.449 75.0057 370.749 119.505 369.949 127.505C369.556 129.864 369.832 133.341 368.245 134.506C367.814 134.823 367.248 135.005 366.5 135.005Z" fill="#C4C4C4"/>
<path d="M133.422 246.509C125.095 246.617 104.234 245.468 87.4045 240.002C83.694 239.138 77.1718 237.5 72.2841 235.963C70.4434 246.221 73.2702 251.822 74.9137 253.34C84.9063 258.805 132.327 265.81 154.788 268.63C173.458 270.972 183.385 261.798 186.014 256.919L187.986 243.975L186.014 245.207C184.214 245.987 181.125 247.115 177.797 247.923C174.645 248.688 171.28 249.166 168.593 248.786C167.498 249.111 158.93 249.111 133.422 246.509Z" fill="#7D7D7D"/>
<path d="M65.0524 231.87C63.2994 216.688 58.1513 162.253 63.0799 154.445C65.4901 153.035 74.7166 153.079 92.3349 151.517C98.2515 150.65 111.86 149.435 118.96 151.517C128.492 154.554 154.196 160.691 175.495 172.663C179.111 203.242 180.098 225.038 177.797 247.923C174.645 248.688 171.279 249.166 168.593 248.786C167.497 249.111 158.929 249.111 133.422 246.509C125.095 246.617 104.233 245.468 87.404 240.002C83.6935 239.138 77.1713 237.5 72.2837 235.963C69.8106 235.185 67.7561 234.433 66.6959 233.821C66 233.506 65.1836 233.006 65.0524 231.87Z" fill="#D8D8D8"/>
<path d="M63.0781 154.445C64.7238 152.168 66.3673 148.915 89.3755 138.83C116.675 134.171 130.5 136.889 134 138.83C162 145.371 186.667 157.158 194 162.158L178.123 171.361L175.494 172.663C154.194 160.691 128.49 154.553 118.958 151.517C111.858 149.435 98.2497 150.65 92.3331 151.517C74.7148 153.079 65.4883 153.035 63.0781 154.445Z" fill="#E8E8E8"/>
<path d="M89.375 138.83C89.375 135.035 90.9528 123.02 97.2638 105.323C104.889 91.5294 130.243 88.298 141.966 88.4064C180.884 90.2282 194.997 98.9249 197.188 103.045C198.79 104.455 200.089 106.37 201.132 108.636C206.251 119.754 205.218 139.331 203.762 149.24L201.132 158.023L193.999 162.158C186.666 157.158 161.999 145.37 133.999 138.83C130.499 136.888 116.675 134.17 89.375 138.83Z" fill="#E1E1E1"/>
<path d="M134.409 82.2257C178.564 71.5989 292.315 42.6027 296.785 41.5617C300.291 40.3689 309.669 38.2435 319.136 39.2845L354.308 41.5617C362.854 42.8629 364.497 47.4173 364.826 53.2729L201.134 108.636C200.091 106.37 198.792 104.456 197.19 103.046C194.998 98.9251 180.886 90.2284 141.968 88.4067C130.244 88.2982 104.891 91.5296 97.2656 105.323C99.8952 99.4673 111.005 86.65 134.409 82.2257Z" fill="#E9E9E9"/>
<path d="M368.45 53.5059C369.45 75.0061 370.4 119.506 369.9 127.506C369.5 130.006 369.837 133.341 368.25 134.506L484.001 69.5061C486.667 68.5061 491.801 65.0061 491.001 59.0059V9.50586L368.246 52.0061C368.317 52.4891 368.385 52.9888 368.45 53.5059Z" fill="#CFCFCF"/>
<ellipse rx="4.75816" ry="7.32777" transform="matrix(0.999481 0.0322132 -0.0349929 0.999388 457.011 83.4824)" fill="#B0B0B0"/>
<ellipse rx="4.51129" ry="6.71654" transform="matrix(0.999481 0.0322132 -0.0349929 0.999388 466.743 77.8636)" fill="#B0B0B0"/>
<path d="M354.309 145.011L248.468 206.17L187.987 243.975L186.015 245.207C184.214 245.987 181.125 247.116 177.798 247.923C180.098 225.038 179.112 203.242 175.496 172.663L178.126 171.361L201.135 158.024L203.765 149.24C205.221 139.331 206.254 119.754 201.135 108.636L364.827 53.2729C364.827 53.2729 367.786 126.36 366.799 128.745C366.799 136.878 365.879 136.163 354.309 145.011Z" fill="#CFCFCF"/>
<path d="M237.715 137.38L237.871 125.74L250.963 121.272L252.599 120.713L264.055 116.803L264.368 127.772L265.595 127.329L265.282 116.384L275.065 113.044L276.159 112.671L285.738 109.401L286.677 119.728L276.849 123.272L275.704 123.684L265.595 127.329L264.368 127.772L252.447 132.069L250.81 132.659L237.715 137.38Z" fill="#B0B0B0"/>
<path d="M237.455 156.781L237.684 139.708L250.78 134.937L252.417 134.34L264.43 129.963L264.886 145.945L252.194 150.958L250.556 151.605L237.455 156.781Z" fill="#B0B0B0"/>
<path d="M319.286 97.9501L328.287 94.8778L328.464 104.663L319.771 107.797L318.699 108.184L308.876 111.725L308.24 101.721L318.059 98.369L319.286 97.9501Z" fill="#B0B0B0"/>
<path d="M328.755 120.714L320.567 123.949L319.748 124.273L309.922 128.154L309.003 113.722L318.826 110.143L319.868 109.764L328.499 106.619L328.755 120.714Z" fill="#B0B0B0"/>
<path d="M276.759 141.254L266.114 145.459L265.658 129.516L275.832 125.809L276.952 125.401L286.864 121.789L288.223 136.726L277.987 140.769L276.759 141.254Z" fill="#B0B0B0"/>
<path d="M286.965 108.982L296.878 105.599L298.012 105.212L306.79 102.215L307.511 112.217L298.955 115.302L297.785 115.724L288.06 119.23L286.965 108.982Z" fill="#B0B0B0"/>
<path d="M299.277 132.359L289.86 136.079L288.279 121.274L297.967 117.744L299.144 117.315L307.654 114.214L308.693 128.639L300.505 131.874L299.277 132.359Z" fill="#B0B0B0"/>
<path d="M397.749 74.024L397.503 66.689L407.855 62.6806L409.149 62.1795L418.208 58.6721L419.001 65.6818L419.819 65.404L419.178 58.2964L426.914 55.3009L427.779 54.966L435.353 52.0332L435.894 59.5672L429.079 61.8883L428.176 62.2533L419.819 65.404L419.001 65.6818L409.816 69.6677L408.524 70.1896L397.749 74.024Z" fill="#B0B0B0"/>
<path d="M398.327 87.4515L397.753 75.7023L408.658 71.6914L409.95 71.1654L419.198 67.3605L420.224 77.9919L410.926 82.1231L409.637 82.6824L398.327 87.4515Z" fill="#B0B0B0"/>
<path d="M461.881 41.7616L468.998 39.0058L469.013 45.6269L462.962 48.2045L462.115 48.5464L453.536 51.6972L453.146 45.1437L460.91 42.1374L461.881 41.7616Z" fill="#B0B0B0"/>
<path d="M436.324 51.6574L444.162 48.6225L445.059 48.2753L452 45.5876L452.239 52.3325L446.53 54.8407L445.607 55.2136L436.983 58.7156L436.324 51.6574Z" fill="#B0B0B0"/>
<path d="M421.209 77.4348L420.198 66.7415L428.427 63.6414L429.311 63.2815L436.17 60.6867L437.009 70.1988L421.209 77.4348Z" fill="#B0B0B0"/>
<path d="M438.099 69.6419L437.259 60.1298L445.895 56.5288L446.824 56.1506L452.243 54.0107L452.81 63.5223L438.099 69.6419Z" fill="#B0B0B0"/>
<path d="M454.444 62.4072L453.878 53.4166L462.356 49.8259L463.178 49.4913L469.017 47.3364L469.037 56.202L454.444 62.4072Z" fill="#B0B0B0"/>
<ellipse rx="7.82275" ry="12.0841" transform="matrix(0.994814 0.101711 -0.104477 0.994527 317.305 168.41)" fill="#B0B0B0"/>
<ellipse rx="7.67829" ry="10.5741" transform="matrix(0.994814 0.101711 -0.104477 0.994527 334.76 158.622)" fill="#B0B0B0"/>
<ellipse rx="5.50641" ry="9.78735" transform="matrix(0.994814 0.101711 -0.104477 0.994527 401.498 114.18)" fill="#B0B0B0"/>
<ellipse rx="5.60333" ry="8.85215" transform="matrix(0.994814 0.101711 -0.104477 0.994527 414.501 107.379)" fill="#B0B0B0"/>
<path d="M339.394 96.8071C339.4 96.1673 338.604 95.6916 342.156 93.8437L348.34 91.5059L349 131.769L343.714 134.168C342.584 135.012 340.332 135.804 340.362 132.221L339.394 96.8071Z" fill="#B0B0B0"/>
<path d="M358.524 125.118C358.868 125.903 358.881 127.68 356.179 128.511L349.5 131.542L349 91.2563L356.514 88.4156C357.079 88.0647 358.204 87.7895 358.19 89.4957L358.524 125.118Z" fill="#B0B0B0"/>
<path d="M375.355 83.6548C375.36 83.0774 374.683 82.6484 377.703 80.9792L382.961 78.8667L383.504 115.203L379.01 117.37C378.049 118.132 376.135 118.848 376.162 115.614L375.355 83.6548Z" fill="#B0B0B0"/>
<path d="M391.602 109.196C391.895 109.904 391.905 111.508 389.608 112.26L383.929 114.998L383.522 78.6412L389.91 76.0743C390.39 75.7574 391.347 75.5086 391.334 77.0484L391.602 109.196Z" fill="#B0B0B0"/>
<path d="M82.7546 168.158C82.5365 167.531 82.4283 166.814 79.482 166.545C78.1746 166.276 76.7338 166.222 70.9774 166.007L70.9741 166.007C70.4321 165.987 69.0119 166.276 68.0303 166.814C67.3758 167.351 67.0477 168.266 67.0477 171.923C66.8295 172.192 67.3758 173.805 68.3571 174.074C71.3021 174.881 82.0998 175.688 82.7546 174.074C83.0821 173.268 83.0815 171.385 82.7546 168.158Z" fill="#8F8F8F"/>
<path d="M138.292 134.109L144.374 104.153C150.56 104.328 164.779 106.704 172.603 116.308C173.891 121.283 175.194 125.765 171.782 145.424C160.964 140.674 147.291 135.844 138.292 134.109Z" fill="#8F8F8F"/>
<ellipse cx="109.5" cy="172.006" rx="12.5" ry="13" fill="#8F8F8F"/>
<path d="M125 133.006L132 102.006C125.792 102.006 112.5 103.006 105.5 108.506C103.54 111.713 99.5 119.006 98 134.006C102.5 134.006 113.5 132.006 125 133.006Z" fill="#8F8F8F"/>
<path d="M163.692 179.465C164.679 179.883 166.061 181.91 163.692 186.673C161.388 187.196 154.742 187.488 146.581 184.48C146.143 183.748 145.529 181.346 146.581 177.585C146.362 177.062 146.647 176.018 149.542 176.018C151.626 175.913 157.374 176.456 163.692 179.465Z" fill="#8F8F8F"/>
<ellipse rx="11.5094" ry="16.273" transform="matrix(0.994783 0.102013 -0.104167 0.99456 209.586 233.673)" fill="#B0B0B0"/>
<ellipse rx="9.48439" ry="13.6473" transform="matrix(0.994783 0.102013 -0.104167 0.99456 232.951 219.791)" fill="#B0B0B0"/>
<path d="M473.237 43.2868C473.24 42.9029 472.764 42.6174 474.888 41.5086L478.585 40.1058L478.979 64.2646L475.819 65.704C475.143 66.2104 473.797 66.6857 473.815 64.5358L473.237 43.2868Z" fill="#B0B0B0"/>
<path d="M484.674 60.2734C484.88 60.7443 484.888 61.8109 483.272 62.3096L479.278 64.1284L478.98 39.956L483.473 38.2514C483.811 38.0409 484.483 37.8757 484.475 38.8995L484.674 60.2734Z" fill="#B0B0B0"/>
</svg>