<svg width="1088" height="784" viewBox="0 0 1088 784" fill="none" xmlns="http://www.w3.org/2000/svg">
<rect width="1088" height="784" fill="white"/>
<line x1="352.001" y1="233.5" x2="886" y2="233.611" stroke="black" stroke-width="13"/>
<path d="M245.759 246.301H218.952L212.932 263H204.23L228.664 199.016H236.047L260.524 263H251.867L245.759 246.301ZM221.501 239.357H243.254L232.355 209.431L221.501 239.357ZM327.365 227.229H290.715V220.153H327.365V227.229ZM327.365 245.466H290.715V238.435H327.365V245.466Z" fill="black"/>
<path d="M188.759 707.301H161.952L155.932 724H147.23L171.664 660.016H179.047L203.524 724H194.867L188.759 707.301ZM164.501 700.357H186.254L175.355 670.431L164.501 700.357ZM265.9 688.229H229.25V681.153H265.9V688.229ZM265.9 706.466H229.25V699.435H265.9V706.466ZM300.371 724C299.996 723.25 299.691 721.914 299.457 719.992C296.434 723.133 292.824 724.703 288.629 724.703C284.879 724.703 281.797 723.648 279.383 721.539C276.992 719.406 275.797 716.711 275.797 713.453C275.797 709.492 277.297 706.422 280.297 704.242C283.32 702.039 287.562 700.938 293.023 700.938H299.352V697.949C299.352 695.676 298.672 693.871 297.312 692.535C295.953 691.176 293.949 690.496 291.301 690.496C288.98 690.496 287.035 691.082 285.465 692.254C283.895 693.426 283.109 694.844 283.109 696.508H276.57C276.57 694.609 277.238 692.781 278.574 691.023C279.934 689.242 281.762 687.836 284.059 686.805C286.379 685.773 288.922 685.258 291.688 685.258C296.07 685.258 299.504 686.359 301.988 688.562C304.473 690.742 305.762 693.754 305.855 697.598V715.105C305.855 718.598 306.301 721.375 307.191 723.438V724H300.371ZM289.578 719.043C291.617 719.043 293.551 718.516 295.379 717.461C297.207 716.406 298.531 715.035 299.352 713.348V705.543H294.254C286.285 705.543 282.301 707.875 282.301 712.539C282.301 714.578 282.98 716.172 284.34 717.32C285.699 718.469 287.445 719.043 289.578 719.043ZM331.309 719.395C333.629 719.395 335.656 718.691 337.391 717.285C339.125 715.879 340.086 714.121 340.273 712.012H346.426C346.309 714.191 345.559 716.266 344.176 718.234C342.793 720.203 340.941 721.773 338.621 722.945C336.324 724.117 333.887 724.703 331.309 724.703C326.129 724.703 322.004 722.98 318.934 719.535C315.887 716.066 314.363 711.332 314.363 705.332V704.242C314.363 700.539 315.043 697.246 316.402 694.363C317.762 691.48 319.707 689.242 322.238 687.648C324.793 686.055 327.805 685.258 331.273 685.258C335.539 685.258 339.078 686.535 341.891 689.09C344.727 691.645 346.238 694.961 346.426 699.039H340.273C340.086 696.578 339.148 694.562 337.461 692.992C335.797 691.398 333.734 690.602 331.273 690.602C327.969 690.602 325.402 691.797 323.574 694.188C321.77 696.555 320.867 699.988 320.867 704.488V705.719C320.867 710.102 321.77 713.477 323.574 715.844C325.379 718.211 327.957 719.395 331.309 719.395ZM368.996 719.395C371.316 719.395 373.344 718.691 375.078 717.285C376.812 715.879 377.773 714.121 377.961 712.012H384.113C383.996 714.191 383.246 716.266 381.863 718.234C380.48 720.203 378.629 721.773 376.309 722.945C374.012 724.117 371.574 724.703 368.996 724.703C363.816 724.703 359.691 722.98 356.621 719.535C353.574 716.066 352.051 711.332 352.051 705.332V704.242C352.051 700.539 352.73 697.246 354.09 694.363C355.449 691.48 357.395 689.242 359.926 687.648C362.48 686.055 365.492 685.258 368.961 685.258C373.227 685.258 376.766 686.535 379.578 689.09C382.414 691.645 383.926 694.961 384.113 699.039H377.961C377.773 696.578 376.836 694.562 375.148 692.992C373.484 691.398 371.422 690.602 368.961 690.602C365.656 690.602 363.09 691.797 361.262 694.188C359.457 696.555 358.555 699.988 358.555 704.488V705.719C358.555 710.102 359.457 713.477 361.262 715.844C363.066 718.211 365.645 719.395 368.996 719.395ZM407.211 724.703C402.055 724.703 397.859 723.016 394.625 719.641C391.391 716.242 389.773 711.707 389.773 706.035V704.84C389.773 701.066 390.488 697.703 391.918 694.75C393.371 691.773 395.387 689.453 397.965 687.789C400.566 686.102 403.379 685.258 406.402 685.258C411.348 685.258 415.191 686.887 417.934 690.145C420.676 693.402 422.047 698.066 422.047 704.137V706.844H396.277C396.371 710.594 397.461 713.629 399.547 715.949C401.656 718.246 404.328 719.395 407.562 719.395C409.859 719.395 411.805 718.926 413.398 717.988C414.992 717.051 416.387 715.809 417.582 714.262L421.555 717.355C418.367 722.254 413.586 724.703 407.211 724.703ZM406.402 690.602C403.777 690.602 401.574 691.562 399.793 693.484C398.012 695.383 396.91 698.055 396.488 701.5H415.543V701.008C415.355 697.703 414.465 695.148 412.871 693.344C411.277 691.516 409.121 690.602 406.402 690.602ZM436.672 724H430.168V670H436.672V724ZM462.898 724.703C457.742 724.703 453.547 723.016 450.312 719.641C447.078 716.242 445.461 711.707 445.461 706.035V704.84C445.461 701.066 446.176 697.703 447.605 694.75C449.059 691.773 451.074 689.453 453.652 687.789C456.254 686.102 459.066 685.258 462.09 685.258C467.035 685.258 470.879 686.887 473.621 690.145C476.363 693.402 477.734 698.066 477.734 704.137V706.844H451.965C452.059 710.594 453.148 713.629 455.234 715.949C457.344 718.246 460.016 719.395 463.25 719.395C465.547 719.395 467.492 718.926 469.086 717.988C470.68 717.051 472.074 715.809 473.27 714.262L477.242 717.355C474.055 722.254 469.273 724.703 462.898 724.703ZM462.09 690.602C459.465 690.602 457.262 691.562 455.48 693.484C453.699 695.383 452.598 698.055 452.176 701.5H471.23V701.008C471.043 697.703 470.152 695.148 468.559 693.344C466.965 691.516 464.809 690.602 462.09 690.602ZM503.68 691.797C502.695 691.633 501.629 691.551 500.48 691.551C496.215 691.551 493.32 693.367 491.797 697V724H485.293V685.961H491.621L491.727 690.355C493.859 686.957 496.883 685.258 500.797 685.258C502.062 685.258 503.023 685.422 503.68 685.75V691.797ZM531.77 724C531.395 723.25 531.09 721.914 530.855 719.992C527.832 723.133 524.223 724.703 520.027 724.703C516.277 724.703 513.195 723.648 510.781 721.539C508.391 719.406 507.195 716.711 507.195 713.453C507.195 709.492 508.695 706.422 511.695 704.242C514.719 702.039 518.961 700.938 524.422 700.938H530.75V697.949C530.75 695.676 530.07 693.871 528.711 692.535C527.352 691.176 525.348 690.496 522.699 690.496C520.379 690.496 518.434 691.082 516.863 692.254C515.293 693.426 514.508 694.844 514.508 696.508H507.969C507.969 694.609 508.637 692.781 509.973 691.023C511.332 689.242 513.16 687.836 515.457 686.805C517.777 685.773 520.32 685.258 523.086 685.258C527.469 685.258 530.902 686.359 533.387 688.562C535.871 690.742 537.16 693.754 537.254 697.598V715.105C537.254 718.598 537.699 721.375 538.59 723.438V724H531.77ZM520.977 719.043C523.016 719.043 524.949 718.516 526.777 717.461C528.605 716.406 529.93 715.035 530.75 713.348V705.543H525.652C517.684 705.543 513.699 707.875 513.699 712.539C513.699 714.578 514.379 716.172 515.738 717.32C517.098 718.469 518.844 719.043 520.977 719.043ZM556.273 676.75V685.961H563.375V690.988H556.273V714.578C556.273 716.102 556.59 717.25 557.223 718.023C557.855 718.773 558.934 719.148 560.457 719.148C561.207 719.148 562.238 719.008 563.551 718.727V724C561.84 724.469 560.176 724.703 558.559 724.703C555.652 724.703 553.461 723.824 551.984 722.066C550.508 720.309 549.77 717.812 549.77 714.578V690.988H542.844V685.961H549.77V676.75H556.273ZM578.07 724H571.566V685.961H578.07V724ZM571.039 675.871C571.039 674.816 571.355 673.926 571.988 673.199C572.645 672.473 573.605 672.109 574.871 672.109C576.137 672.109 577.098 672.473 577.754 673.199C578.41 673.926 578.738 674.816 578.738 675.871C578.738 676.926 578.41 677.805 577.754 678.508C577.098 679.211 576.137 679.562 574.871 679.562C573.605 679.562 572.645 679.211 571.988 678.508C571.355 677.805 571.039 676.926 571.039 675.871ZM586.789 704.629C586.789 700.902 587.516 697.551 588.969 694.574C590.445 691.598 592.484 689.301 595.086 687.684C597.711 686.066 600.699 685.258 604.051 685.258C609.23 685.258 613.414 687.051 616.602 690.637C619.812 694.223 621.418 698.992 621.418 704.945V705.402C621.418 709.105 620.703 712.434 619.273 715.387C617.867 718.316 615.84 720.602 613.191 722.242C610.566 723.883 607.543 724.703 604.121 724.703C598.965 724.703 594.781 722.91 591.57 719.324C588.383 715.738 586.789 710.992 586.789 705.086V704.629ZM593.328 705.402C593.328 709.621 594.301 713.008 596.246 715.562C598.215 718.117 600.84 719.395 604.121 719.395C607.426 719.395 610.051 718.105 611.996 715.527C613.941 712.926 614.914 709.293 614.914 704.629C614.914 700.457 613.918 697.082 611.926 694.504C609.957 691.902 607.332 690.602 604.051 690.602C600.84 690.602 598.25 691.879 596.281 694.434C594.312 696.988 593.328 700.645 593.328 705.402ZM635.727 685.961L635.938 690.742C638.844 687.086 642.641 685.258 647.328 685.258C655.367 685.258 659.422 689.793 659.492 698.863V724H652.988V698.828C652.965 696.086 652.332 694.059 651.09 692.746C649.871 691.434 647.961 690.777 645.359 690.777C643.25 690.777 641.398 691.34 639.805 692.465C638.211 693.59 636.969 695.066 636.078 696.895V724H629.574V685.961H635.727Z" fill="black"/>
<path d="M503.608 190.794L521.89 138.016H531.118L507.388 202H499.917L476.23 138.016H485.415L503.608 190.794ZM557.934 202H551.395V158.652L538.281 163.469V157.562L556.914 150.566H557.934V202ZM618.13 178.138H596.685V171.502H618.13V178.138ZM670.864 190.794L689.146 138.016H698.374L674.644 202H667.173L643.486 138.016H652.671L670.864 190.794ZM735.912 180.168C735.912 187.785 734.611 193.445 732.01 197.148C729.408 200.852 725.342 202.703 719.811 202.703C714.35 202.703 710.307 200.898 707.682 197.289C705.057 193.656 703.697 188.242 703.604 181.047V172.363C703.604 164.84 704.904 159.25 707.506 155.594C710.107 151.938 714.186 150.109 719.74 150.109C725.248 150.109 729.303 151.879 731.904 155.418C734.506 158.934 735.842 164.371 735.912 171.73V180.168ZM729.408 171.273C729.408 165.766 728.635 161.758 727.088 159.25C725.541 156.719 723.092 155.453 719.74 155.453C716.412 155.453 713.986 156.707 712.463 159.215C710.939 161.723 710.154 165.578 710.107 170.781V181.188C710.107 186.719 710.904 190.809 712.498 193.457C714.115 196.082 716.553 197.395 719.811 197.395C723.021 197.395 725.4 196.152 726.947 193.668C728.518 191.184 729.338 187.27 729.408 181.926V171.273Z" fill="black"/>
<path d="M640.241 354H598.317V348.155L620.466 323.546C623.747 319.825 626.003 316.808 627.233 314.493C628.493 312.149 629.123 309.732 629.123 307.242C629.123 303.902 628.112 301.163 626.091 299.024C624.069 296.886 621.374 295.816 618.005 295.816C613.962 295.816 610.812 296.974 608.557 299.288C606.33 301.573 605.217 304.767 605.217 308.868H597.087C597.087 302.979 598.977 298.219 602.756 294.586C606.564 290.953 611.647 289.137 618.005 289.137C623.952 289.137 628.654 290.704 632.111 293.839C635.568 296.944 637.297 301.09 637.297 306.275C637.297 312.574 633.283 320.074 625.256 328.775L608.117 347.364H640.241V354Z" fill="black"/>
<path d="M174.608 518.794L192.89 466.016H202.118L178.388 530H170.917L147.23 466.016H156.415L174.608 518.794ZM228.934 530H222.395V486.652L209.281 491.469V485.562L227.914 478.566H228.934V530ZM296.258 501.383H266.938V495.723H296.258V501.383ZM296.258 515.973H266.938V510.348H296.258V515.973ZM326.07 530V496.988H320.059V491.961H326.07V488.727C326.07 484.484 327.277 481.18 329.691 478.812C332.129 476.445 335.562 475.262 339.992 475.262C342.617 475.262 345.934 475.977 349.941 477.406L348.852 482.891C345.922 481.719 343.133 481.133 340.484 481.133C337.695 481.133 335.68 481.766 334.438 483.031C333.219 484.273 332.609 486.148 332.609 488.656V491.961H340.379V496.988H332.609V530H326.07ZM353.176 530H346.637V491.961H353.176V530ZM369.91 491.961L370.121 496.742C373.027 493.086 376.824 491.258 381.512 491.258C389.551 491.258 393.605 495.793 393.676 504.863V530H387.172V504.828C387.148 502.086 386.516 500.059 385.273 498.746C384.055 497.434 382.145 496.777 379.543 496.777C377.434 496.777 375.582 497.34 373.988 498.465C372.395 499.59 371.152 501.066 370.262 502.895V530H363.758V491.961H369.91ZM426.969 530C426.594 529.25 426.289 527.914 426.055 525.992C423.031 529.133 419.422 530.703 415.227 530.703C411.477 530.703 408.395 529.648 405.98 527.539C403.59 525.406 402.395 522.711 402.395 519.453C402.395 515.492 403.895 512.422 406.895 510.242C409.918 508.039 414.16 506.938 419.621 506.938H425.949V503.949C425.949 501.676 425.27 499.871 423.91 498.535C422.551 497.176 420.547 496.496 417.898 496.496C415.578 496.496 413.633 497.082 412.062 498.254C410.492 499.426 409.707 500.844 409.707 502.508H403.168C403.168 500.609 403.836 498.781 405.172 497.023C406.531 495.242 408.359 493.836 410.656 492.805C412.977 491.773 415.52 491.258 418.285 491.258C422.668 491.258 426.102 492.359 428.586 494.562C431.07 496.742 432.359 499.754 432.453 503.598V521.105C432.453 524.598 432.898 527.375 433.789 529.438V530H426.969ZM416.176 525.043C418.215 525.043 420.148 524.516 421.977 523.461C423.805 522.406 425.129 521.035 425.949 519.348V511.543H420.852C412.883 511.543 408.898 513.875 408.898 518.539C408.898 520.578 409.578 522.172 410.938 523.32C412.297 524.469 414.043 525.043 416.176 525.043ZM449.715 530H443.211V476H449.715V530ZM500.164 519.91C500.164 518.152 499.496 516.793 498.16 515.832C496.848 514.848 494.539 514.004 491.234 513.301C487.953 512.598 485.34 511.754 483.395 510.77C481.473 509.785 480.043 508.613 479.105 507.254C478.191 505.895 477.734 504.277 477.734 502.402C477.734 499.285 479.047 496.648 481.672 494.492C484.32 492.336 487.695 491.258 491.797 491.258C496.109 491.258 499.602 492.371 502.273 494.598C504.969 496.824 506.316 499.672 506.316 503.141H499.777C499.777 501.359 499.016 499.824 497.492 498.535C495.992 497.246 494.094 496.602 491.797 496.602C489.43 496.602 487.578 497.117 486.242 498.148C484.906 499.18 484.238 500.527 484.238 502.191C484.238 503.762 484.859 504.945 486.102 505.742C487.344 506.539 489.582 507.301 492.816 508.027C496.074 508.754 498.711 509.621 500.727 510.629C502.742 511.637 504.23 512.855 505.191 514.285C506.176 515.691 506.668 517.414 506.668 519.453C506.668 522.852 505.309 525.582 502.59 527.645C499.871 529.684 496.344 530.703 492.008 530.703C488.961 530.703 486.266 530.164 483.922 529.086C481.578 528.008 479.738 526.508 478.402 524.586C477.09 522.641 476.434 520.543 476.434 518.293H482.938C483.055 520.473 483.922 522.207 485.539 523.496C487.18 524.762 489.336 525.395 492.008 525.395C494.469 525.395 496.438 524.902 497.914 523.918C499.414 522.91 500.164 521.574 500.164 519.91ZM547.273 511.402C547.273 517.191 545.949 521.855 543.301 525.395C540.652 528.934 537.066 530.703 532.543 530.703C527.926 530.703 524.293 529.238 521.645 526.309V544.625H515.141V491.961H521.082L521.398 496.18C524.047 492.898 527.727 491.258 532.438 491.258C537.008 491.258 540.617 492.98 543.266 496.426C545.938 499.871 547.273 504.664 547.273 510.805V511.402ZM540.77 510.664C540.77 506.375 539.855 502.988 538.027 500.504C536.199 498.02 533.691 496.777 530.504 496.777C526.566 496.777 523.613 498.523 521.645 502.016V520.191C523.59 523.66 526.566 525.395 530.574 525.395C533.691 525.395 536.164 524.164 537.992 521.703C539.844 519.219 540.77 515.539 540.77 510.664ZM571.355 530.703C566.199 530.703 562.004 529.016 558.77 525.641C555.535 522.242 553.918 517.707 553.918 512.035V510.84C553.918 507.066 554.633 503.703 556.062 500.75C557.516 497.773 559.531 495.453 562.109 493.789C564.711 492.102 567.523 491.258 570.547 491.258C575.492 491.258 579.336 492.887 582.078 496.145C584.82 499.402 586.191 504.066 586.191 510.137V512.844H560.422C560.516 516.594 561.605 519.629 563.691 521.949C565.801 524.246 568.473 525.395 571.707 525.395C574.004 525.395 575.949 524.926 577.543 523.988C579.137 523.051 580.531 521.809 581.727 520.262L585.699 523.355C582.512 528.254 577.73 530.703 571.355 530.703ZM570.547 496.602C567.922 496.602 565.719 497.562 563.938 499.484C562.156 501.383 561.055 504.055 560.633 507.5H579.688V507.008C579.5 503.703 578.609 501.148 577.016 499.344C575.422 497.516 573.266 496.602 570.547 496.602ZM609.535 530.703C604.379 530.703 600.184 529.016 596.949 525.641C593.715 522.242 592.098 517.707 592.098 512.035V510.84C592.098 507.066 592.812 503.703 594.242 500.75C595.695 497.773 597.711 495.453 600.289 493.789C602.891 492.102 605.703 491.258 608.727 491.258C613.672 491.258 617.516 492.887 620.258 496.145C623 499.402 624.371 504.066 624.371 510.137V512.844H598.602C598.695 516.594 599.785 519.629 601.871 521.949C603.98 524.246 606.652 525.395 609.887 525.395C612.184 525.395 614.129 524.926 615.723 523.988C617.316 523.051 618.711 521.809 619.906 520.262L623.879 523.355C620.691 528.254 615.91 530.703 609.535 530.703ZM608.727 496.602C606.102 496.602 603.898 497.562 602.117 499.484C600.336 501.383 599.234 504.055 598.812 507.5H617.867V507.008C617.68 503.703 616.789 501.148 615.195 499.344C613.602 497.516 611.445 496.602 608.727 496.602ZM630.348 510.664C630.348 504.828 631.73 500.141 634.496 496.602C637.262 493.039 640.883 491.258 645.359 491.258C649.812 491.258 653.34 492.781 655.941 495.828V476H662.445V530H656.469L656.152 525.922C653.551 529.109 649.93 530.703 645.289 530.703C640.883 530.703 637.285 528.898 634.496 525.289C631.73 521.68 630.348 516.969 630.348 511.156V510.664ZM636.852 511.402C636.852 515.715 637.742 519.09 639.523 521.527C641.305 523.965 643.766 525.184 646.906 525.184C651.031 525.184 654.043 523.332 655.941 519.629V502.156C653.996 498.57 651.008 496.777 646.977 496.777C643.789 496.777 641.305 498.008 639.523 500.469C637.742 502.93 636.852 506.574 636.852 511.402Z" fill="black"/>
<path d="M174.608 607.794L192.89 555.016H202.118L178.388 619H170.917L147.23 555.016H156.415L174.608 607.794ZM239.656 597.168C239.656 604.785 238.355 610.445 235.754 614.148C233.152 617.852 229.086 619.703 223.555 619.703C218.094 619.703 214.051 617.898 211.426 614.289C208.801 610.656 207.441 605.242 207.348 598.047V589.363C207.348 581.84 208.648 576.25 211.25 572.594C213.852 568.938 217.93 567.109 223.484 567.109C228.992 567.109 233.047 568.879 235.648 572.418C238.25 575.934 239.586 581.371 239.656 588.73V597.168ZM233.152 588.273C233.152 582.766 232.379 578.758 230.832 576.25C229.285 573.719 226.836 572.453 223.484 572.453C220.156 572.453 217.73 573.707 216.207 576.215C214.684 578.723 213.898 582.578 213.852 587.781V598.188C213.852 603.719 214.648 607.809 216.242 610.457C217.859 613.082 220.297 614.395 223.555 614.395C226.766 614.395 229.145 613.152 230.691 610.668C232.262 608.184 233.082 604.27 233.152 598.926V588.273ZM296.258 590.383H266.938V584.723H296.258V590.383ZM296.258 604.973H266.938V599.348H296.258V604.973ZM346.039 608.91C346.039 607.152 345.371 605.793 344.035 604.832C342.723 603.848 340.414 603.004 337.109 602.301C333.828 601.598 331.215 600.754 329.27 599.77C327.348 598.785 325.918 597.613 324.98 596.254C324.066 594.895 323.609 593.277 323.609 591.402C323.609 588.285 324.922 585.648 327.547 583.492C330.195 581.336 333.57 580.258 337.672 580.258C341.984 580.258 345.477 581.371 348.148 583.598C350.844 585.824 352.191 588.672 352.191 592.141H345.652C345.652 590.359 344.891 588.824 343.367 587.535C341.867 586.246 339.969 585.602 337.672 585.602C335.305 585.602 333.453 586.117 332.117 587.148C330.781 588.18 330.113 589.527 330.113 591.191C330.113 592.762 330.734 593.945 331.977 594.742C333.219 595.539 335.457 596.301 338.691 597.027C341.949 597.754 344.586 598.621 346.602 599.629C348.617 600.637 350.105 601.855 351.066 603.285C352.051 604.691 352.543 606.414 352.543 608.453C352.543 611.852 351.184 614.582 348.465 616.645C345.746 618.684 342.219 619.703 337.883 619.703C334.836 619.703 332.141 619.164 329.797 618.086C327.453 617.008 325.613 615.508 324.277 613.586C322.965 611.641 322.309 609.543 322.309 607.293H328.812C328.93 609.473 329.797 611.207 331.414 612.496C333.055 613.762 335.211 614.395 337.883 614.395C340.344 614.395 342.312 613.902 343.789 612.918C345.289 611.91 346.039 610.574 346.039 608.91ZM369.84 571.75V580.961H376.941V585.988H369.84V609.578C369.84 611.102 370.156 612.25 370.789 613.023C371.422 613.773 372.5 614.148 374.023 614.148C374.773 614.148 375.805 614.008 377.117 613.727V619C375.406 619.469 373.742 619.703 372.125 619.703C369.219 619.703 367.027 618.824 365.551 617.066C364.074 615.309 363.336 612.812 363.336 609.578V585.988H356.41V580.961H363.336V571.75H369.84ZM408.055 619C407.68 618.25 407.375 616.914 407.141 614.992C404.117 618.133 400.508 619.703 396.312 619.703C392.562 619.703 389.48 618.648 387.066 616.539C384.676 614.406 383.48 611.711 383.48 608.453C383.48 604.492 384.98 601.422 387.98 599.242C391.004 597.039 395.246 595.938 400.707 595.938H407.035V592.949C407.035 590.676 406.355 588.871 404.996 587.535C403.637 586.176 401.633 585.496 398.984 585.496C396.664 585.496 394.719 586.082 393.148 587.254C391.578 588.426 390.793 589.844 390.793 591.508H384.254C384.254 589.609 384.922 587.781 386.258 586.023C387.617 584.242 389.445 582.836 391.742 581.805C394.062 580.773 396.605 580.258 399.371 580.258C403.754 580.258 407.188 581.359 409.672 583.562C412.156 585.742 413.445 588.754 413.539 592.598V610.105C413.539 613.598 413.984 616.375 414.875 618.438V619H408.055ZM397.262 614.043C399.301 614.043 401.234 613.516 403.062 612.461C404.891 611.406 406.215 610.035 407.035 608.348V600.543H401.938C393.969 600.543 389.984 602.875 389.984 607.539C389.984 609.578 390.664 611.172 392.023 612.32C393.383 613.469 395.129 614.043 397.262 614.043ZM442.121 586.797C441.137 586.633 440.07 586.551 438.922 586.551C434.656 586.551 431.762 588.367 430.238 592V619H423.734V580.961H430.062L430.168 585.355C432.301 581.957 435.324 580.258 439.238 580.258C440.504 580.258 441.465 580.422 442.121 580.75V586.797ZM458.715 571.75V580.961H465.816V585.988H458.715V609.578C458.715 611.102 459.031 612.25 459.664 613.023C460.297 613.773 461.375 614.148 462.898 614.148C463.648 614.148 464.68 614.008 465.992 613.727V619C464.281 619.469 462.617 619.703 461 619.703C458.094 619.703 455.902 618.824 454.426 617.066C452.949 615.309 452.211 612.812 452.211 609.578V585.988H445.285V580.961H452.211V571.75H458.715ZM480.512 619H474.008V580.961H480.512V619ZM473.48 570.871C473.48 569.816 473.797 568.926 474.43 568.199C475.086 567.473 476.047 567.109 477.312 567.109C478.578 567.109 479.539 567.473 480.195 568.199C480.852 568.926 481.18 569.816 481.18 570.871C481.18 571.926 480.852 572.805 480.195 573.508C479.539 574.211 478.578 574.562 477.312 574.562C476.047 574.562 475.086 574.211 474.43 573.508C473.797 572.805 473.48 571.926 473.48 570.871ZM497.105 580.961L497.316 585.742C500.223 582.086 504.02 580.258 508.707 580.258C516.746 580.258 520.801 584.793 520.871 593.863V619H514.367V593.828C514.344 591.086 513.711 589.059 512.469 587.746C511.25 586.434 509.34 585.777 506.738 585.777C504.629 585.777 502.777 586.34 501.184 587.465C499.59 588.59 498.348 590.066 497.457 591.895V619H490.953V580.961H497.105ZM529.133 599.664C529.133 593.734 530.504 589.023 533.246 585.531C535.988 582.016 539.621 580.258 544.145 580.258C548.785 580.258 552.406 581.898 555.008 585.18L555.324 580.961H561.266V618.086C561.266 623.008 559.801 626.887 556.871 629.723C553.965 632.559 550.051 633.977 545.129 633.977C542.387 633.977 539.703 633.391 537.078 632.219C534.453 631.047 532.449 629.441 531.066 627.402L534.441 623.5C537.23 626.945 540.641 628.668 544.672 628.668C547.836 628.668 550.297 627.777 552.055 625.996C553.836 624.215 554.727 621.707 554.727 618.473V615.203C552.125 618.203 548.574 619.703 544.074 619.703C539.621 619.703 536.012 617.91 533.246 614.324C530.504 610.738 529.133 605.852 529.133 599.664ZM535.672 600.402C535.672 604.691 536.551 608.066 538.309 610.527C540.066 612.965 542.527 614.184 545.691 614.184C549.793 614.184 552.805 612.32 554.727 608.594V591.227C552.734 587.594 549.746 585.777 545.762 585.777C542.598 585.777 540.125 587.008 538.344 589.469C536.562 591.93 535.672 595.574 535.672 600.402ZM611.117 608.91C611.117 607.152 610.449 605.793 609.113 604.832C607.801 603.848 605.492 603.004 602.188 602.301C598.906 601.598 596.293 600.754 594.348 599.77C592.426 598.785 590.996 597.613 590.059 596.254C589.145 594.895 588.688 593.277 588.688 591.402C588.688 588.285 590 585.648 592.625 583.492C595.273 581.336 598.648 580.258 602.75 580.258C607.062 580.258 610.555 581.371 613.227 583.598C615.922 585.824 617.27 588.672 617.27 592.141H610.73C610.73 590.359 609.969 588.824 608.445 587.535C606.945 586.246 605.047 585.602 602.75 585.602C600.383 585.602 598.531 586.117 597.195 587.148C595.859 588.18 595.191 589.527 595.191 591.191C595.191 592.762 595.812 593.945 597.055 594.742C598.297 595.539 600.535 596.301 603.77 597.027C607.027 597.754 609.664 598.621 611.68 599.629C613.695 600.637 615.184 601.855 616.145 603.285C617.129 604.691 617.621 606.414 617.621 608.453C617.621 611.852 616.262 614.582 613.543 616.645C610.824 618.684 607.297 619.703 602.961 619.703C599.914 619.703 597.219 619.164 594.875 618.086C592.531 617.008 590.691 615.508 589.355 613.586C588.043 611.641 587.387 609.543 587.387 607.293H593.891C594.008 609.473 594.875 611.207 596.492 612.496C598.133 613.762 600.289 614.395 602.961 614.395C605.422 614.395 607.391 613.902 608.867 612.918C610.367 611.91 611.117 610.574 611.117 608.91ZM658.227 600.402C658.227 606.191 656.902 610.855 654.254 614.395C651.605 617.934 648.02 619.703 643.496 619.703C638.879 619.703 635.246 618.238 632.598 615.309V633.625H626.094V580.961H632.035L632.352 585.18C635 581.898 638.68 580.258 643.391 580.258C647.961 580.258 651.57 581.98 654.219 585.426C656.891 588.871 658.227 593.664 658.227 599.805V600.402ZM651.723 599.664C651.723 595.375 650.809 591.988 648.98 589.504C647.152 587.02 644.645 585.777 641.457 585.777C637.52 585.777 634.566 587.523 632.598 591.016V609.191C634.543 612.66 637.52 614.395 641.527 614.395C644.645 614.395 647.117 613.164 648.945 610.703C650.797 608.219 651.723 604.539 651.723 599.664ZM682.309 619.703C677.152 619.703 672.957 618.016 669.723 614.641C666.488 611.242 664.871 606.707 664.871 601.035V599.84C664.871 596.066 665.586 592.703 667.016 589.75C668.469 586.773 670.484 584.453 673.062 582.789C675.664 581.102 678.477 580.258 681.5 580.258C686.445 580.258 690.289 581.887 693.031 585.145C695.773 588.402 697.145 593.066 697.145 599.137V601.844H671.375C671.469 605.594 672.559 608.629 674.645 610.949C676.754 613.246 679.426 614.395 682.66 614.395C684.957 614.395 686.902 613.926 688.496 612.988C690.09 612.051 691.484 610.809 692.68 609.262L696.652 612.355C693.465 617.254 688.684 619.703 682.309 619.703ZM681.5 585.602C678.875 585.602 676.672 586.562 674.891 588.484C673.109 590.383 672.008 593.055 671.586 596.5H690.641V596.008C690.453 592.703 689.562 590.148 687.969 588.344C686.375 586.516 684.219 585.602 681.5 585.602ZM720.488 619.703C715.332 619.703 711.137 618.016 707.902 614.641C704.668 611.242 703.051 606.707 703.051 601.035V599.84C703.051 596.066 703.766 592.703 705.195 589.75C706.648 586.773 708.664 584.453 711.242 582.789C713.844 581.102 716.656 580.258 719.68 580.258C724.625 580.258 728.469 581.887 731.211 585.145C733.953 588.402 735.324 593.066 735.324 599.137V601.844H709.555C709.648 605.594 710.738 608.629 712.824 610.949C714.934 613.246 717.605 614.395 720.84 614.395C723.137 614.395 725.082 613.926 726.676 612.988C728.27 612.051 729.664 610.809 730.859 609.262L734.832 612.355C731.645 617.254 726.863 619.703 720.488 619.703ZM719.68 585.602C717.055 585.602 714.852 586.562 713.07 588.484C711.289 590.383 710.188 593.055 709.766 596.5H728.82V596.008C728.633 592.703 727.742 590.148 726.148 588.344C724.555 586.516 722.398 585.602 719.68 585.602ZM741.301 599.664C741.301 593.828 742.684 589.141 745.449 585.602C748.215 582.039 751.836 580.258 756.312 580.258C760.766 580.258 764.293 581.781 766.895 584.828V565H773.398V619H767.422L767.105 614.922C764.504 618.109 760.883 619.703 756.242 619.703C751.836 619.703 748.238 617.898 745.449 614.289C742.684 610.68 741.301 605.969 741.301 600.156V599.664ZM747.805 600.402C747.805 604.715 748.695 608.09 750.477 610.527C752.258 612.965 754.719 614.184 757.859 614.184C761.984 614.184 764.996 612.332 766.895 608.629V591.156C764.949 587.57 761.961 585.777 757.93 585.777C754.742 585.777 752.258 587.008 750.477 589.469C748.695 591.93 747.805 595.574 747.805 600.402Z" fill="black"/>
</svg>