<svg width="1318" height="913" viewBox="0 0 1318 913" fill="none" xmlns="http://www.w3.org/2000/svg">
<rect width="1318" height="913" fill="white"/>
<line x1="642.001" y1="265.5" x2="1176" y2="265.611" stroke="black" stroke-width="13"/>
<path d="M194.608 291.794L212.89 239.016H222.118L198.388 303H190.917L167.23 239.016H176.415L194.608 291.794ZM251.711 303C251.336 302.25 251.031 300.914 250.797 298.992C247.773 302.133 244.164 303.703 239.969 303.703C236.219 303.703 233.137 302.648 230.723 300.539C228.332 298.406 227.137 295.711 227.137 292.453C227.137 288.492 228.637 285.422 231.637 283.242C234.66 281.039 238.902 279.938 244.363 279.938H250.691V276.949C250.691 274.676 250.012 272.871 248.652 271.535C247.293 270.176 245.289 269.496 242.641 269.496C240.32 269.496 238.375 270.082 236.805 271.254C235.234 272.426 234.449 273.844 234.449 275.508H227.91C227.91 273.609 228.578 271.781 229.914 270.023C231.273 268.242 233.102 266.836 235.398 265.805C237.719 264.773 240.262 264.258 243.027 264.258C247.41 264.258 250.844 265.359 253.328 267.562C255.812 269.742 257.102 272.754 257.195 276.598V294.105C257.195 297.598 257.641 300.375 258.531 302.438V303H251.711ZM240.918 298.043C242.957 298.043 244.891 297.516 246.719 296.461C248.547 295.406 249.871 294.035 250.691 292.348V284.543H245.594C237.625 284.543 233.641 286.875 233.641 291.539C233.641 293.578 234.32 295.172 235.68 296.32C237.039 297.469 238.785 298.043 240.918 298.043ZM279.379 294.176L288.801 264.961H295.445L281.805 303H276.848L263.066 264.961H269.711L279.379 294.176ZM316.996 303.703C311.84 303.703 307.645 302.016 304.41 298.641C301.176 295.242 299.559 290.707 299.559 285.035V283.84C299.559 280.066 300.273 276.703 301.703 273.75C303.156 270.773 305.172 268.453 307.75 266.789C310.352 265.102 313.164 264.258 316.188 264.258C321.133 264.258 324.977 265.887 327.719 269.145C330.461 272.402 331.832 277.066 331.832 283.137V285.844H306.062C306.156 289.594 307.246 292.629 309.332 294.949C311.441 297.246 314.113 298.395 317.348 298.395C319.645 298.395 321.59 297.926 323.184 296.988C324.777 296.051 326.172 294.809 327.367 293.262L331.34 296.355C328.152 301.254 323.371 303.703 316.996 303.703ZM316.188 269.602C313.562 269.602 311.359 270.562 309.578 272.484C307.797 274.383 306.695 277.055 306.273 280.5H325.328V280.008C325.141 276.703 324.25 274.148 322.656 272.344C321.062 270.516 318.906 269.602 316.188 269.602ZM357.777 270.797C356.793 270.633 355.727 270.551 354.578 270.551C350.312 270.551 347.418 272.367 345.895 276V303H339.391V264.961H345.719L345.824 269.355C347.957 265.957 350.98 264.258 354.895 264.258C356.16 264.258 357.121 264.422 357.777 264.75V270.797ZM385.867 303C385.492 302.25 385.188 300.914 384.953 298.992C381.93 302.133 378.32 303.703 374.125 303.703C370.375 303.703 367.293 302.648 364.879 300.539C362.488 298.406 361.293 295.711 361.293 292.453C361.293 288.492 362.793 285.422 365.793 283.242C368.816 281.039 373.059 279.938 378.52 279.938H384.848V276.949C384.848 274.676 384.168 272.871 382.809 271.535C381.449 270.176 379.445 269.496 376.797 269.496C374.477 269.496 372.531 270.082 370.961 271.254C369.391 272.426 368.605 273.844 368.605 275.508H362.066C362.066 273.609 362.734 271.781 364.07 270.023C365.43 268.242 367.258 266.836 369.555 265.805C371.875 264.773 374.418 264.258 377.184 264.258C381.566 264.258 385 265.359 387.484 267.562C389.969 269.742 391.258 272.754 391.352 276.598V294.105C391.352 297.598 391.797 300.375 392.688 302.438V303H385.867ZM375.074 298.043C377.113 298.043 379.047 297.516 380.875 296.461C382.703 295.406 384.027 294.035 384.848 292.348V284.543H379.75C371.781 284.543 367.797 286.875 367.797 291.539C367.797 293.578 368.477 295.172 369.836 296.32C371.195 297.469 372.941 298.043 375.074 298.043ZM400 283.664C400 277.734 401.371 273.023 404.113 269.531C406.855 266.016 410.488 264.258 415.012 264.258C419.652 264.258 423.273 265.898 425.875 269.18L426.191 264.961H432.133V302.086C432.133 307.008 430.668 310.887 427.738 313.723C424.832 316.559 420.918 317.977 415.996 317.977C413.254 317.977 410.57 317.391 407.945 316.219C405.32 315.047 403.316 313.441 401.934 311.402L405.309 307.5C408.098 310.945 411.508 312.668 415.539 312.668C418.703 312.668 421.164 311.777 422.922 309.996C424.703 308.215 425.594 305.707 425.594 302.473V299.203C422.992 302.203 419.441 303.703 414.941 303.703C410.488 303.703 406.879 301.91 404.113 298.324C401.371 294.738 400 289.852 400 283.664ZM406.539 284.402C406.539 288.691 407.418 292.066 409.176 294.527C410.934 296.965 413.395 298.184 416.559 298.184C420.66 298.184 423.672 296.32 425.594 292.594V275.227C423.602 271.594 420.613 269.777 416.629 269.777C413.465 269.777 410.992 271.008 409.211 273.469C407.43 275.93 406.539 279.574 406.539 284.402ZM457.762 303.703C452.605 303.703 448.41 302.016 445.176 298.641C441.941 295.242 440.324 290.707 440.324 285.035V283.84C440.324 280.066 441.039 276.703 442.469 273.75C443.922 270.773 445.938 268.453 448.516 266.789C451.117 265.102 453.93 264.258 456.953 264.258C461.898 264.258 465.742 265.887 468.484 269.145C471.227 272.402 472.598 277.066 472.598 283.137V285.844H446.828C446.922 289.594 448.012 292.629 450.098 294.949C452.207 297.246 454.879 298.395 458.113 298.395C460.41 298.395 462.355 297.926 463.949 296.988C465.543 296.051 466.938 294.809 468.133 293.262L472.105 296.355C468.918 301.254 464.137 303.703 457.762 303.703ZM456.953 269.602C454.328 269.602 452.125 270.562 450.344 272.484C448.562 274.383 447.461 277.055 447.039 280.5H466.094V280.008C465.906 276.703 465.016 274.148 463.422 272.344C461.828 270.516 459.672 269.602 456.953 269.602ZM518.564 267.229H481.914V260.153H518.564V267.229ZM518.564 285.466H481.914V278.435H518.564V285.466Z" fill="black"/>
<path d="M169.608 832.794L187.89 780.016H197.118L173.388 844H165.917L142.23 780.016H151.415L169.608 832.794ZM226.711 844C226.336 843.25 226.031 841.914 225.797 839.992C222.773 843.133 219.164 844.703 214.969 844.703C211.219 844.703 208.137 843.648 205.723 841.539C203.332 839.406 202.137 836.711 202.137 833.453C202.137 829.492 203.637 826.422 206.637 824.242C209.66 822.039 213.902 820.938 219.363 820.938H225.691V817.949C225.691 815.676 225.012 813.871 223.652 812.535C222.293 811.176 220.289 810.496 217.641 810.496C215.32 810.496 213.375 811.082 211.805 812.254C210.234 813.426 209.449 814.844 209.449 816.508H202.91C202.91 814.609 203.578 812.781 204.914 811.023C206.273 809.242 208.102 807.836 210.398 806.805C212.719 805.773 215.262 805.258 218.027 805.258C222.41 805.258 225.844 806.359 228.328 808.562C230.812 810.742 232.102 813.754 232.195 817.598V835.105C232.195 838.598 232.641 841.375 233.531 843.438V844H226.711ZM215.918 839.043C217.957 839.043 219.891 838.516 221.719 837.461C223.547 836.406 224.871 835.035 225.691 833.348V825.543H220.594C212.625 825.543 208.641 827.875 208.641 832.539C208.641 834.578 209.32 836.172 210.68 837.32C212.039 838.469 213.785 839.043 215.918 839.043ZM254.379 835.176L263.801 805.961H270.445L256.805 844H251.848L238.066 805.961H244.711L254.379 835.176ZM291.996 844.703C286.84 844.703 282.645 843.016 279.41 839.641C276.176 836.242 274.559 831.707 274.559 826.035V824.84C274.559 821.066 275.273 817.703 276.703 814.75C278.156 811.773 280.172 809.453 282.75 807.789C285.352 806.102 288.164 805.258 291.188 805.258C296.133 805.258 299.977 806.887 302.719 810.145C305.461 813.402 306.832 818.066 306.832 824.137V826.844H281.062C281.156 830.594 282.246 833.629 284.332 835.949C286.441 838.246 289.113 839.395 292.348 839.395C294.645 839.395 296.59 838.926 298.184 837.988C299.777 837.051 301.172 835.809 302.367 834.262L306.34 837.355C303.152 842.254 298.371 844.703 291.996 844.703ZM291.188 810.602C288.562 810.602 286.359 811.562 284.578 813.484C282.797 815.383 281.695 818.055 281.273 821.5H300.328V821.008C300.141 817.703 299.25 815.148 297.656 813.344C296.062 811.516 293.906 810.602 291.188 810.602ZM332.777 811.797C331.793 811.633 330.727 811.551 329.578 811.551C325.312 811.551 322.418 813.367 320.895 817V844H314.391V805.961H320.719L320.824 810.355C322.957 806.957 325.98 805.258 329.895 805.258C331.16 805.258 332.121 805.422 332.777 805.75V811.797ZM360.867 844C360.492 843.25 360.188 841.914 359.953 839.992C356.93 843.133 353.32 844.703 349.125 844.703C345.375 844.703 342.293 843.648 339.879 841.539C337.488 839.406 336.293 836.711 336.293 833.453C336.293 829.492 337.793 826.422 340.793 824.242C343.816 822.039 348.059 820.938 353.52 820.938H359.848V817.949C359.848 815.676 359.168 813.871 357.809 812.535C356.449 811.176 354.445 810.496 351.797 810.496C349.477 810.496 347.531 811.082 345.961 812.254C344.391 813.426 343.605 814.844 343.605 816.508H337.066C337.066 814.609 337.734 812.781 339.07 811.023C340.43 809.242 342.258 807.836 344.555 806.805C346.875 805.773 349.418 805.258 352.184 805.258C356.566 805.258 360 806.359 362.484 808.562C364.969 810.742 366.258 813.754 366.352 817.598V835.105C366.352 838.598 366.797 841.375 367.688 843.438V844H360.867ZM350.074 839.043C352.113 839.043 354.047 838.516 355.875 837.461C357.703 836.406 359.027 835.035 359.848 833.348V825.543H354.75C346.781 825.543 342.797 827.875 342.797 832.539C342.797 834.578 343.477 836.172 344.836 837.32C346.195 838.469 347.941 839.043 350.074 839.043ZM375 824.664C375 818.734 376.371 814.023 379.113 810.531C381.855 807.016 385.488 805.258 390.012 805.258C394.652 805.258 398.273 806.898 400.875 810.18L401.191 805.961H407.133V843.086C407.133 848.008 405.668 851.887 402.738 854.723C399.832 857.559 395.918 858.977 390.996 858.977C388.254 858.977 385.57 858.391 382.945 857.219C380.32 856.047 378.316 854.441 376.934 852.402L380.309 848.5C383.098 851.945 386.508 853.668 390.539 853.668C393.703 853.668 396.164 852.777 397.922 850.996C399.703 849.215 400.594 846.707 400.594 843.473V840.203C397.992 843.203 394.441 844.703 389.941 844.703C385.488 844.703 381.879 842.91 379.113 839.324C376.371 835.738 375 830.852 375 824.664ZM381.539 825.402C381.539 829.691 382.418 833.066 384.176 835.527C385.934 837.965 388.395 839.184 391.559 839.184C395.66 839.184 398.672 837.32 400.594 833.594V816.227C398.602 812.594 395.613 810.777 391.629 810.777C388.465 810.777 385.992 812.008 384.211 814.469C382.43 816.93 381.539 820.574 381.539 825.402ZM432.762 844.703C427.605 844.703 423.41 843.016 420.176 839.641C416.941 836.242 415.324 831.707 415.324 826.035V824.84C415.324 821.066 416.039 817.703 417.469 814.75C418.922 811.773 420.938 809.453 423.516 807.789C426.117 806.102 428.93 805.258 431.953 805.258C436.898 805.258 440.742 806.887 443.484 810.145C446.227 813.402 447.598 818.066 447.598 824.137V826.844H421.828C421.922 830.594 423.012 833.629 425.098 835.949C427.207 838.246 429.879 839.395 433.113 839.395C435.41 839.395 437.355 838.926 438.949 837.988C440.543 837.051 441.938 835.809 443.133 834.262L447.105 837.355C443.918 842.254 439.137 844.703 432.762 844.703ZM431.953 810.602C429.328 810.602 427.125 811.562 425.344 813.484C423.562 815.383 422.461 818.055 422.039 821.5H441.094V821.008C440.906 817.703 440.016 815.148 438.422 813.344C436.828 811.516 434.672 810.602 431.953 810.602ZM511.424 808.229H474.773V801.153H511.424V808.229ZM511.424 826.466H474.773V819.435H511.424V826.466ZM545.895 844C545.52 843.25 545.215 841.914 544.98 839.992C541.957 843.133 538.348 844.703 534.152 844.703C530.402 844.703 527.32 843.648 524.906 841.539C522.516 839.406 521.32 836.711 521.32 833.453C521.32 829.492 522.82 826.422 525.82 824.242C528.844 822.039 533.086 820.938 538.547 820.938H544.875V817.949C544.875 815.676 544.195 813.871 542.836 812.535C541.477 811.176 539.473 810.496 536.824 810.496C534.504 810.496 532.559 811.082 530.988 812.254C529.418 813.426 528.633 814.844 528.633 816.508H522.094C522.094 814.609 522.762 812.781 524.098 811.023C525.457 809.242 527.285 807.836 529.582 806.805C531.902 805.773 534.445 805.258 537.211 805.258C541.594 805.258 545.027 806.359 547.512 808.562C549.996 810.742 551.285 813.754 551.379 817.598V835.105C551.379 838.598 551.824 841.375 552.715 843.438V844H545.895ZM535.102 839.043C537.141 839.043 539.074 838.516 540.902 837.461C542.73 836.406 544.055 835.035 544.875 833.348V825.543H539.777C531.809 825.543 527.824 827.875 527.824 832.539C527.824 834.578 528.504 836.172 529.863 837.32C531.223 838.469 532.969 839.043 535.102 839.043ZM573.562 835.176L582.984 805.961H589.629L575.988 844H571.031L557.25 805.961H563.895L573.562 835.176ZM611.18 844.703C606.023 844.703 601.828 843.016 598.594 839.641C595.359 836.242 593.742 831.707 593.742 826.035V824.84C593.742 821.066 594.457 817.703 595.887 814.75C597.34 811.773 599.355 809.453 601.934 807.789C604.535 806.102 607.348 805.258 610.371 805.258C615.316 805.258 619.16 806.887 621.902 810.145C624.645 813.402 626.016 818.066 626.016 824.137V826.844H600.246C600.34 830.594 601.43 833.629 603.516 835.949C605.625 838.246 608.297 839.395 611.531 839.395C613.828 839.395 615.773 838.926 617.367 837.988C618.961 837.051 620.355 835.809 621.551 834.262L625.523 837.355C622.336 842.254 617.555 844.703 611.18 844.703ZM610.371 810.602C607.746 810.602 605.543 811.562 603.762 813.484C601.98 815.383 600.879 818.055 600.457 821.5H619.512V821.008C619.324 817.703 618.434 815.148 616.84 813.344C615.246 811.516 613.09 810.602 610.371 810.602ZM651.961 811.797C650.977 811.633 649.91 811.551 648.762 811.551C644.496 811.551 641.602 813.367 640.078 817V844H633.574V805.961H639.902L640.008 810.355C642.141 806.957 645.164 805.258 649.078 805.258C650.344 805.258 651.305 805.422 651.961 805.75V811.797ZM680.051 844C679.676 843.25 679.371 841.914 679.137 839.992C676.113 843.133 672.504 844.703 668.309 844.703C664.559 844.703 661.477 843.648 659.062 841.539C656.672 839.406 655.477 836.711 655.477 833.453C655.477 829.492 656.977 826.422 659.977 824.242C663 822.039 667.242 820.938 672.703 820.938H679.031V817.949C679.031 815.676 678.352 813.871 676.992 812.535C675.633 811.176 673.629 810.496 670.98 810.496C668.66 810.496 666.715 811.082 665.145 812.254C663.574 813.426 662.789 814.844 662.789 816.508H656.25C656.25 814.609 656.918 812.781 658.254 811.023C659.613 809.242 661.441 807.836 663.738 806.805C666.059 805.773 668.602 805.258 671.367 805.258C675.75 805.258 679.184 806.359 681.668 808.562C684.152 810.742 685.441 813.754 685.535 817.598V835.105C685.535 838.598 685.98 841.375 686.871 843.438V844H680.051ZM669.258 839.043C671.297 839.043 673.23 838.516 675.059 837.461C676.887 836.406 678.211 835.035 679.031 833.348V825.543H673.934C665.965 825.543 661.98 827.875 661.98 832.539C661.98 834.578 662.66 836.172 664.02 837.32C665.379 838.469 667.125 839.043 669.258 839.043ZM694.184 824.664C694.184 818.734 695.555 814.023 698.297 810.531C701.039 807.016 704.672 805.258 709.195 805.258C713.836 805.258 717.457 806.898 720.059 810.18L720.375 805.961H726.316V843.086C726.316 848.008 724.852 851.887 721.922 854.723C719.016 857.559 715.102 858.977 710.18 858.977C707.438 858.977 704.754 858.391 702.129 857.219C699.504 856.047 697.5 854.441 696.117 852.402L699.492 848.5C702.281 851.945 705.691 853.668 709.723 853.668C712.887 853.668 715.348 852.777 717.105 850.996C718.887 849.215 719.777 846.707 719.777 843.473V840.203C717.176 843.203 713.625 844.703 709.125 844.703C704.672 844.703 701.062 842.91 698.297 839.324C695.555 835.738 694.184 830.852 694.184 824.664ZM700.723 825.402C700.723 829.691 701.602 833.066 703.359 835.527C705.117 837.965 707.578 839.184 710.742 839.184C714.844 839.184 717.855 837.32 719.777 833.594V816.227C717.785 812.594 714.797 810.777 710.812 810.777C707.648 810.777 705.176 812.008 703.395 814.469C701.613 816.93 700.723 820.574 700.723 825.402ZM751.945 844.703C746.789 844.703 742.594 843.016 739.359 839.641C736.125 836.242 734.508 831.707 734.508 826.035V824.84C734.508 821.066 735.223 817.703 736.652 814.75C738.105 811.773 740.121 809.453 742.699 807.789C745.301 806.102 748.113 805.258 751.137 805.258C756.082 805.258 759.926 806.887 762.668 810.145C765.41 813.402 766.781 818.066 766.781 824.137V826.844H741.012C741.105 830.594 742.195 833.629 744.281 835.949C746.391 838.246 749.062 839.395 752.297 839.395C754.594 839.395 756.539 838.926 758.133 837.988C759.727 837.051 761.121 835.809 762.316 834.262L766.289 837.355C763.102 842.254 758.32 844.703 751.945 844.703ZM751.137 810.602C748.512 810.602 746.309 811.562 744.527 813.484C742.746 815.383 741.645 818.055 741.223 821.5H760.277V821.008C760.09 817.703 759.199 815.148 757.605 813.344C756.012 811.516 753.855 810.602 751.137 810.602ZM814.348 833.91C814.348 832.152 813.68 830.793 812.344 829.832C811.031 828.848 808.723 828.004 805.418 827.301C802.137 826.598 799.523 825.754 797.578 824.77C795.656 823.785 794.227 822.613 793.289 821.254C792.375 819.895 791.918 818.277 791.918 816.402C791.918 813.285 793.23 810.648 795.855 808.492C798.504 806.336 801.879 805.258 805.98 805.258C810.293 805.258 813.785 806.371 816.457 808.598C819.152 810.824 820.5 813.672 820.5 817.141H813.961C813.961 815.359 813.199 813.824 811.676 812.535C810.176 811.246 808.277 810.602 805.98 810.602C803.613 810.602 801.762 811.117 800.426 812.148C799.09 813.18 798.422 814.527 798.422 816.191C798.422 817.762 799.043 818.945 800.285 819.742C801.527 820.539 803.766 821.301 807 822.027C810.258 822.754 812.895 823.621 814.91 824.629C816.926 825.637 818.414 826.855 819.375 828.285C820.359 829.691 820.852 831.414 820.852 833.453C820.852 836.852 819.492 839.582 816.773 841.645C814.055 843.684 810.527 844.703 806.191 844.703C803.145 844.703 800.449 844.164 798.105 843.086C795.762 842.008 793.922 840.508 792.586 838.586C791.273 836.641 790.617 834.543 790.617 832.293H797.121C797.238 834.473 798.105 836.207 799.723 837.496C801.363 838.762 803.52 839.395 806.191 839.395C808.652 839.395 810.621 838.902 812.098 837.918C813.598 836.91 814.348 835.574 814.348 833.91ZM861.457 825.402C861.457 831.191 860.133 835.855 857.484 839.395C854.836 842.934 851.25 844.703 846.727 844.703C842.109 844.703 838.477 843.238 835.828 840.309V858.625H829.324V805.961H835.266L835.582 810.18C838.23 806.898 841.91 805.258 846.621 805.258C851.191 805.258 854.801 806.98 857.449 810.426C860.121 813.871 861.457 818.664 861.457 824.805V825.402ZM854.953 824.664C854.953 820.375 854.039 816.988 852.211 814.504C850.383 812.02 847.875 810.777 844.688 810.777C840.75 810.777 837.797 812.523 835.828 816.016V834.191C837.773 837.66 840.75 839.395 844.758 839.395C847.875 839.395 850.348 838.164 852.176 835.703C854.027 833.219 854.953 829.539 854.953 824.664ZM885.539 844.703C880.383 844.703 876.188 843.016 872.953 839.641C869.719 836.242 868.102 831.707 868.102 826.035V824.84C868.102 821.066 868.816 817.703 870.246 814.75C871.699 811.773 873.715 809.453 876.293 807.789C878.895 806.102 881.707 805.258 884.73 805.258C889.676 805.258 893.52 806.887 896.262 810.145C899.004 813.402 900.375 818.066 900.375 824.137V826.844H874.605C874.699 830.594 875.789 833.629 877.875 835.949C879.984 838.246 882.656 839.395 885.891 839.395C888.188 839.395 890.133 838.926 891.727 837.988C893.32 837.051 894.715 835.809 895.91 834.262L899.883 837.355C896.695 842.254 891.914 844.703 885.539 844.703ZM884.73 810.602C882.105 810.602 879.902 811.562 878.121 813.484C876.34 815.383 875.238 818.055 874.816 821.5H893.871V821.008C893.684 817.703 892.793 815.148 891.199 813.344C889.605 811.516 887.449 810.602 884.73 810.602ZM923.719 844.703C918.562 844.703 914.367 843.016 911.133 839.641C907.898 836.242 906.281 831.707 906.281 826.035V824.84C906.281 821.066 906.996 817.703 908.426 814.75C909.879 811.773 911.895 809.453 914.473 807.789C917.074 806.102 919.887 805.258 922.91 805.258C927.855 805.258 931.699 806.887 934.441 810.145C937.184 813.402 938.555 818.066 938.555 824.137V826.844H912.785C912.879 830.594 913.969 833.629 916.055 835.949C918.164 838.246 920.836 839.395 924.07 839.395C926.367 839.395 928.312 838.926 929.906 837.988C931.5 837.051 932.895 835.809 934.09 834.262L938.062 837.355C934.875 842.254 930.094 844.703 923.719 844.703ZM922.91 810.602C920.285 810.602 918.082 811.562 916.301 813.484C914.52 815.383 913.418 818.055 912.996 821.5H932.051V821.008C931.863 817.703 930.973 815.148 929.379 813.344C927.785 811.516 925.629 810.602 922.91 810.602ZM944.531 824.664C944.531 818.828 945.914 814.141 948.68 810.602C951.445 807.039 955.066 805.258 959.543 805.258C963.996 805.258 967.523 806.781 970.125 809.828V790H976.629V844H970.652L970.336 839.922C967.734 843.109 964.113 844.703 959.473 844.703C955.066 844.703 951.469 842.898 948.68 839.289C945.914 835.68 944.531 830.969 944.531 825.156V824.664ZM951.035 825.402C951.035 829.715 951.926 833.09 953.707 835.527C955.488 837.965 957.949 839.184 961.09 839.184C965.215 839.184 968.227 837.332 970.125 833.629V816.156C968.18 812.57 965.191 810.777 961.16 810.777C957.973 810.777 955.488 812.008 953.707 814.469C951.926 816.93 951.035 820.574 951.035 825.402Z" fill="black"/>
<path d="M684.608 222.794L702.89 170.016H712.118L688.388 234H680.917L657.23 170.016H666.415L684.608 222.794ZM722.964 200.716L723.118 204.407C725.558 201.536 728.85 200.101 732.992 200.101C737.647 200.101 740.816 201.885 742.498 205.453C743.605 203.854 745.041 202.562 746.804 201.577C748.588 200.593 750.69 200.101 753.11 200.101C760.411 200.101 764.123 203.966 764.246 211.698V234H758.555V212.036C758.555 209.657 758.012 207.883 756.925 206.714C755.838 205.525 754.013 204.93 751.449 204.93C749.337 204.93 747.583 205.566 746.189 206.837C744.794 208.088 743.984 209.78 743.759 211.913V234H738.037V212.19C738.037 207.35 735.668 204.93 730.931 204.93C727.199 204.93 724.646 206.52 723.271 209.698V234H717.581V200.716H722.964ZM779.042 234H773.352V200.716H779.042V234ZM772.89 191.887C772.89 190.964 773.167 190.185 773.721 189.549C774.295 188.914 775.136 188.596 776.243 188.596C777.351 188.596 778.191 188.914 778.766 189.549C779.34 190.185 779.627 190.964 779.627 191.887C779.627 192.81 779.34 193.579 778.766 194.194C778.191 194.81 777.351 195.117 776.243 195.117C775.136 195.117 774.295 194.81 773.721 194.194C773.167 193.579 772.89 192.81 772.89 191.887ZM793.562 200.716L793.747 204.899C796.29 201.7 799.612 200.101 803.713 200.101C810.748 200.101 814.295 204.069 814.357 212.005V234H808.666V211.975C808.646 209.575 808.092 207.801 807.005 206.653C805.938 205.504 804.267 204.93 801.991 204.93C800.145 204.93 798.525 205.422 797.13 206.407C795.736 207.391 794.649 208.683 793.87 210.283V234H788.179V200.716H793.562ZM870.4 199.679H888.242V207.369H870.4V227.584H862.227V207.369H844.385V199.679H862.227V181.002H870.4V199.679ZM942.954 222.794L961.235 170.016H970.464L946.733 234H939.263L915.576 170.016H924.761L942.954 222.794ZM981.31 200.716L981.463 204.407C983.904 201.536 987.195 200.101 991.338 200.101C995.993 200.101 999.162 201.885 1000.84 205.453C1001.95 203.854 1003.39 202.562 1005.15 201.577C1006.93 200.593 1009.04 200.101 1011.46 200.101C1018.76 200.101 1022.47 203.966 1022.59 211.698V234H1016.9V212.036C1016.9 209.657 1016.36 207.883 1015.27 206.714C1014.18 205.525 1012.36 204.93 1009.79 204.93C1007.68 204.93 1005.93 205.566 1004.53 206.837C1003.14 208.088 1002.33 209.78 1002.1 211.913V234H996.383V212.19C996.383 207.35 994.014 204.93 989.277 204.93C985.544 204.93 982.991 206.52 981.617 209.698V234H975.926V200.716H981.31ZM1051.75 234C1051.43 233.344 1051.16 232.175 1050.95 230.493C1048.31 233.241 1045.15 234.615 1041.48 234.615C1038.2 234.615 1035.5 233.692 1033.39 231.847C1031.3 229.98 1030.25 227.622 1030.25 224.771C1030.25 221.306 1031.56 218.619 1034.19 216.712C1036.83 214.784 1040.55 213.82 1045.32 213.82H1050.86V211.206C1050.86 209.216 1050.27 207.637 1049.08 206.468C1047.89 205.279 1046.13 204.684 1043.82 204.684C1041.79 204.684 1040.08 205.197 1038.71 206.222C1037.34 207.248 1036.65 208.488 1036.65 209.944H1030.93C1030.93 208.283 1031.51 206.684 1032.68 205.146C1033.87 203.587 1035.47 202.356 1037.48 201.454C1039.51 200.552 1041.74 200.101 1044.16 200.101C1047.99 200.101 1051 201.064 1053.17 202.992C1055.34 204.899 1056.47 207.535 1056.55 210.898V226.217C1056.55 229.273 1056.94 231.703 1057.72 233.508V234H1051.75ZM1042.31 229.663C1044.09 229.663 1045.79 229.201 1047.39 228.278C1048.99 227.355 1050.14 226.156 1050.86 224.679V217.85H1046.4C1039.43 217.85 1035.94 219.891 1035.94 223.972C1035.94 225.756 1036.54 227.15 1037.73 228.155C1038.92 229.16 1040.44 229.663 1042.31 229.663ZM1076.64 212.867L1084.02 200.716H1090.67L1079.78 217.173L1091.01 234H1084.42L1076.73 221.542L1069.04 234H1062.43L1073.66 217.173L1062.77 200.716H1069.35L1076.64 212.867Z" fill="black"/>
<path d="M930.241 386H888.317V380.155L910.466 355.546C913.747 351.825 916.003 348.808 917.233 346.493C918.493 344.149 919.123 341.732 919.123 339.242C919.123 335.902 918.112 333.163 916.091 331.024C914.069 328.886 911.374 327.816 908.005 327.816C903.962 327.816 900.812 328.974 898.557 331.288C896.33 333.573 895.217 336.767 895.217 340.868H887.087C887.087 334.979 888.977 330.219 892.756 326.586C896.564 322.953 901.647 321.137 908.005 321.137C913.952 321.137 918.654 322.704 922.111 325.839C925.568 328.944 927.297 333.09 927.297 338.275C927.297 344.574 923.283 352.074 915.256 360.775L898.117 379.364H930.241V386Z" fill="black"/>
<path d="M169.608 518.794L187.89 466.016H197.118L173.388 530H165.917L142.23 466.016H151.415L169.608 518.794ZM250.828 501.383H221.508V495.723H250.828V501.383ZM250.828 515.973H221.508V510.348H250.828V515.973ZM300.609 519.91C300.609 518.152 299.941 516.793 298.605 515.832C297.293 514.848 294.984 514.004 291.68 513.301C288.398 512.598 285.785 511.754 283.84 510.77C281.918 509.785 280.488 508.613 279.551 507.254C278.637 505.895 278.18 504.277 278.18 502.402C278.18 499.285 279.492 496.648 282.117 494.492C284.766 492.336 288.141 491.258 292.242 491.258C296.555 491.258 300.047 492.371 302.719 494.598C305.414 496.824 306.762 499.672 306.762 503.141H300.223C300.223 501.359 299.461 499.824 297.938 498.535C296.438 497.246 294.539 496.602 292.242 496.602C289.875 496.602 288.023 497.117 286.688 498.148C285.352 499.18 284.684 500.527 284.684 502.191C284.684 503.762 285.305 504.945 286.547 505.742C287.789 506.539 290.027 507.301 293.262 508.027C296.52 508.754 299.156 509.621 301.172 510.629C303.188 511.637 304.676 512.855 305.637 514.285C306.621 515.691 307.113 517.414 307.113 519.453C307.113 522.852 305.754 525.582 303.035 527.645C300.316 529.684 296.789 530.703 292.453 530.703C289.406 530.703 286.711 530.164 284.367 529.086C282.023 528.008 280.184 526.508 278.848 524.586C277.535 522.641 276.879 520.543 276.879 518.293H283.383C283.5 520.473 284.367 522.207 285.984 523.496C287.625 524.762 289.781 525.395 292.453 525.395C294.914 525.395 296.883 524.902 298.359 523.918C299.859 522.91 300.609 521.574 300.609 519.91ZM347.719 511.402C347.719 517.191 346.395 521.855 343.746 525.395C341.098 528.934 337.512 530.703 332.988 530.703C328.371 530.703 324.738 529.238 322.09 526.309V544.625H315.586V491.961H321.527L321.844 496.18C324.492 492.898 328.172 491.258 332.883 491.258C337.453 491.258 341.062 492.98 343.711 496.426C346.383 499.871 347.719 504.664 347.719 510.805V511.402ZM341.215 510.664C341.215 506.375 340.301 502.988 338.473 500.504C336.645 498.02 334.137 496.777 330.949 496.777C327.012 496.777 324.059 498.523 322.09 502.016V520.191C324.035 523.66 327.012 525.395 331.02 525.395C334.137 525.395 336.609 524.164 338.438 521.703C340.289 519.219 341.215 515.539 341.215 510.664ZM371.801 530.703C366.645 530.703 362.449 529.016 359.215 525.641C355.98 522.242 354.363 517.707 354.363 512.035V510.84C354.363 507.066 355.078 503.703 356.508 500.75C357.961 497.773 359.977 495.453 362.555 493.789C365.156 492.102 367.969 491.258 370.992 491.258C375.938 491.258 379.781 492.887 382.523 496.145C385.266 499.402 386.637 504.066 386.637 510.137V512.844H360.867C360.961 516.594 362.051 519.629 364.137 521.949C366.246 524.246 368.918 525.395 372.152 525.395C374.449 525.395 376.395 524.926 377.988 523.988C379.582 523.051 380.977 521.809 382.172 520.262L386.145 523.355C382.957 528.254 378.176 530.703 371.801 530.703ZM370.992 496.602C368.367 496.602 366.164 497.562 364.383 499.484C362.602 501.383 361.5 504.055 361.078 507.5H380.133V507.008C379.945 503.703 379.055 501.148 377.461 499.344C375.867 497.516 373.711 496.602 370.992 496.602ZM409.98 530.703C404.824 530.703 400.629 529.016 397.395 525.641C394.16 522.242 392.543 517.707 392.543 512.035V510.84C392.543 507.066 393.258 503.703 394.688 500.75C396.141 497.773 398.156 495.453 400.734 493.789C403.336 492.102 406.148 491.258 409.172 491.258C414.117 491.258 417.961 492.887 420.703 496.145C423.445 499.402 424.816 504.066 424.816 510.137V512.844H399.047C399.141 516.594 400.23 519.629 402.316 521.949C404.426 524.246 407.098 525.395 410.332 525.395C412.629 525.395 414.574 524.926 416.168 523.988C417.762 523.051 419.156 521.809 420.352 520.262L424.324 523.355C421.137 528.254 416.355 530.703 409.98 530.703ZM409.172 496.602C406.547 496.602 404.344 497.562 402.562 499.484C400.781 501.383 399.68 504.055 399.258 507.5H418.312V507.008C418.125 503.703 417.234 501.148 415.641 499.344C414.047 497.516 411.891 496.602 409.172 496.602ZM430.793 510.664C430.793 504.828 432.176 500.141 434.941 496.602C437.707 493.039 441.328 491.258 445.805 491.258C450.258 491.258 453.785 492.781 456.387 495.828V476H462.891V530H456.914L456.598 525.922C453.996 529.109 450.375 530.703 445.734 530.703C441.328 530.703 437.73 528.898 434.941 525.289C432.176 521.68 430.793 516.969 430.793 511.156V510.664ZM437.297 511.402C437.297 515.715 438.188 519.09 439.969 521.527C441.75 523.965 444.211 525.184 447.352 525.184C451.477 525.184 454.488 523.332 456.387 519.629V502.156C454.441 498.57 451.453 496.777 447.422 496.777C444.234 496.777 441.75 498.008 439.969 500.469C438.188 502.93 437.297 506.574 437.297 511.402Z" fill="black"/>
<path d="M169.608 638.794L187.89 586.016H197.118L173.388 650H165.917L142.23 586.016H151.415L169.608 638.794ZM209.344 611.961L209.52 616.18C212.309 612.898 216.07 611.258 220.805 611.258C226.125 611.258 229.746 613.297 231.668 617.375C232.934 615.547 234.574 614.07 236.59 612.945C238.629 611.82 241.031 611.258 243.797 611.258C252.141 611.258 256.383 615.676 256.523 624.512V650H250.02V624.898C250.02 622.18 249.398 620.152 248.156 618.816C246.914 617.457 244.828 616.777 241.898 616.777C239.484 616.777 237.48 617.504 235.887 618.957C234.293 620.387 233.367 622.32 233.109 624.758V650H226.57V625.074C226.57 619.543 223.863 616.777 218.449 616.777C214.184 616.777 211.266 618.594 209.695 622.227V650H203.191V611.961H209.344ZM273.434 650H266.93V611.961H273.434V650ZM266.402 601.871C266.402 600.816 266.719 599.926 267.352 599.199C268.008 598.473 268.969 598.109 270.234 598.109C271.5 598.109 272.461 598.473 273.117 599.199C273.773 599.926 274.102 600.816 274.102 601.871C274.102 602.926 273.773 603.805 273.117 604.508C272.461 605.211 271.5 605.562 270.234 605.562C268.969 605.562 268.008 605.211 267.352 604.508C266.719 603.805 266.402 602.926 266.402 601.871ZM290.027 611.961L290.238 616.742C293.145 613.086 296.941 611.258 301.629 611.258C309.668 611.258 313.723 615.793 313.793 624.863V650H307.289V624.828C307.266 622.086 306.633 620.059 305.391 618.746C304.172 617.434 302.262 616.777 299.66 616.777C297.551 616.777 295.699 617.34 294.105 618.465C292.512 619.59 291.27 621.066 290.379 622.895V650H283.875V611.961H290.027ZM371.203 621.383H341.883V615.723H371.203V621.383ZM371.203 635.973H341.883V630.348H371.203V635.973ZM387.094 611.961L387.27 616.18C390.059 612.898 393.82 611.258 398.555 611.258C403.875 611.258 407.496 613.297 409.418 617.375C410.684 615.547 412.324 614.07 414.34 612.945C416.379 611.82 418.781 611.258 421.547 611.258C429.891 611.258 434.133 615.676 434.273 624.512V650H427.77V624.898C427.77 622.18 427.148 620.152 425.906 618.816C424.664 617.457 422.578 616.777 419.648 616.777C417.234 616.777 415.23 617.504 413.637 618.957C412.043 620.387 411.117 622.32 410.859 624.758V650H404.32V625.074C404.32 619.543 401.613 616.777 396.199 616.777C391.934 616.777 389.016 618.594 387.445 622.227V650H380.941V611.961H387.094ZM451.184 650H444.68V611.961H451.184V650ZM444.152 601.871C444.152 600.816 444.469 599.926 445.102 599.199C445.758 598.473 446.719 598.109 447.984 598.109C449.25 598.109 450.211 598.473 450.867 599.199C451.523 599.926 451.852 600.816 451.852 601.871C451.852 602.926 451.523 603.805 450.867 604.508C450.211 605.211 449.25 605.562 447.984 605.562C446.719 605.562 445.758 605.211 445.102 604.508C444.469 603.805 444.152 602.926 444.152 601.871ZM467.777 611.961L467.988 616.742C470.895 613.086 474.691 611.258 479.379 611.258C487.418 611.258 491.473 615.793 491.543 624.863V650H485.039V624.828C485.016 622.086 484.383 620.059 483.141 618.746C481.922 617.434 480.012 616.777 477.41 616.777C475.301 616.777 473.449 617.34 471.855 618.465C470.262 619.59 469.02 621.066 468.129 622.895V650H461.625V611.961H467.777ZM508.418 650H501.914V611.961H508.418V650ZM501.387 601.871C501.387 600.816 501.703 599.926 502.336 599.199C502.992 598.473 503.953 598.109 505.219 598.109C506.484 598.109 507.445 598.473 508.102 599.199C508.758 599.926 509.086 600.816 509.086 601.871C509.086 602.926 508.758 603.805 508.102 604.508C507.445 605.211 506.484 605.562 505.219 605.562C503.953 605.562 502.992 605.211 502.336 604.508C501.703 603.805 501.387 602.926 501.387 601.871ZM524.977 611.961L525.152 616.18C527.941 612.898 531.703 611.258 536.438 611.258C541.758 611.258 545.379 613.297 547.301 617.375C548.566 615.547 550.207 614.07 552.223 612.945C554.262 611.82 556.664 611.258 559.43 611.258C567.773 611.258 572.016 615.676 572.156 624.512V650H565.652V624.898C565.652 622.18 565.031 620.152 563.789 618.816C562.547 617.457 560.461 616.777 557.531 616.777C555.117 616.777 553.113 617.504 551.52 618.957C549.926 620.387 549 622.32 548.742 624.758V650H542.203V625.074C542.203 619.543 539.496 616.777 534.082 616.777C529.816 616.777 526.898 618.594 525.328 622.227V650H518.824V611.961H524.977ZM605.484 650C605.109 649.25 604.805 647.914 604.57 645.992C601.547 649.133 597.938 650.703 593.742 650.703C589.992 650.703 586.91 649.648 584.496 647.539C582.105 645.406 580.91 642.711 580.91 639.453C580.91 635.492 582.41 632.422 585.41 630.242C588.434 628.039 592.676 626.938 598.137 626.938H604.465V623.949C604.465 621.676 603.785 619.871 602.426 618.535C601.066 617.176 599.062 616.496 596.414 616.496C594.094 616.496 592.148 617.082 590.578 618.254C589.008 619.426 588.223 620.844 588.223 622.508H581.684C581.684 620.609 582.352 618.781 583.688 617.023C585.047 615.242 586.875 613.836 589.172 612.805C591.492 611.773 594.035 611.258 596.801 611.258C601.184 611.258 604.617 612.359 607.102 614.562C609.586 616.742 610.875 619.754 610.969 623.598V641.105C610.969 644.598 611.414 647.375 612.305 649.438V650H605.484ZM594.691 645.043C596.73 645.043 598.664 644.516 600.492 643.461C602.32 642.406 603.645 641.035 604.465 639.348V631.543H599.367C591.398 631.543 587.414 633.875 587.414 638.539C587.414 640.578 588.094 642.172 589.453 643.32C590.812 644.469 592.559 645.043 594.691 645.043ZM628.23 650H621.727V596H628.23V650ZM678.68 639.91C678.68 638.152 678.012 636.793 676.676 635.832C675.363 634.848 673.055 634.004 669.75 633.301C666.469 632.598 663.855 631.754 661.91 630.77C659.988 629.785 658.559 628.613 657.621 627.254C656.707 625.895 656.25 624.277 656.25 622.402C656.25 619.285 657.562 616.648 660.188 614.492C662.836 612.336 666.211 611.258 670.312 611.258C674.625 611.258 678.117 612.371 680.789 614.598C683.484 616.824 684.832 619.672 684.832 623.141H678.293C678.293 621.359 677.531 619.824 676.008 618.535C674.508 617.246 672.609 616.602 670.312 616.602C667.945 616.602 666.094 617.117 664.758 618.148C663.422 619.18 662.754 620.527 662.754 622.191C662.754 623.762 663.375 624.945 664.617 625.742C665.859 626.539 668.098 627.301 671.332 628.027C674.59 628.754 677.227 629.621 679.242 630.629C681.258 631.637 682.746 632.855 683.707 634.285C684.691 635.691 685.184 637.414 685.184 639.453C685.184 642.852 683.824 645.582 681.105 647.645C678.387 649.684 674.859 650.703 670.523 650.703C667.477 650.703 664.781 650.164 662.438 649.086C660.094 648.008 658.254 646.508 656.918 644.586C655.605 642.641 654.949 640.543 654.949 638.293H661.453C661.57 640.473 662.438 642.207 664.055 643.496C665.695 644.762 667.852 645.395 670.523 645.395C672.984 645.395 674.953 644.902 676.43 643.918C677.93 642.91 678.68 641.574 678.68 639.91ZM725.789 631.402C725.789 637.191 724.465 641.855 721.816 645.395C719.168 648.934 715.582 650.703 711.059 650.703C706.441 650.703 702.809 649.238 700.16 646.309V664.625H693.656V611.961H699.598L699.914 616.18C702.562 612.898 706.242 611.258 710.953 611.258C715.523 611.258 719.133 612.98 721.781 616.426C724.453 619.871 725.789 624.664 725.789 630.805V631.402ZM719.285 630.664C719.285 626.375 718.371 622.988 716.543 620.504C714.715 618.02 712.207 616.777 709.02 616.777C705.082 616.777 702.129 618.523 700.16 622.016V640.191C702.105 643.66 705.082 645.395 709.09 645.395C712.207 645.395 714.68 644.164 716.508 641.703C718.359 639.219 719.285 635.539 719.285 630.664ZM749.871 650.703C744.715 650.703 740.52 649.016 737.285 645.641C734.051 642.242 732.434 637.707 732.434 632.035V630.84C732.434 627.066 733.148 623.703 734.578 620.75C736.031 617.773 738.047 615.453 740.625 613.789C743.227 612.102 746.039 611.258 749.062 611.258C754.008 611.258 757.852 612.887 760.594 616.145C763.336 619.402 764.707 624.066 764.707 630.137V632.844H738.938C739.031 636.594 740.121 639.629 742.207 641.949C744.316 644.246 746.988 645.395 750.223 645.395C752.52 645.395 754.465 644.926 756.059 643.988C757.652 643.051 759.047 641.809 760.242 640.262L764.215 643.355C761.027 648.254 756.246 650.703 749.871 650.703ZM749.062 616.602C746.438 616.602 744.234 617.562 742.453 619.484C740.672 621.383 739.57 624.055 739.148 627.5H758.203V627.008C758.016 623.703 757.125 621.148 755.531 619.344C753.938 617.516 751.781 616.602 749.062 616.602ZM788.051 650.703C782.895 650.703 778.699 649.016 775.465 645.641C772.23 642.242 770.613 637.707 770.613 632.035V630.84C770.613 627.066 771.328 623.703 772.758 620.75C774.211 617.773 776.227 615.453 778.805 613.789C781.406 612.102 784.219 611.258 787.242 611.258C792.188 611.258 796.031 612.887 798.773 616.145C801.516 619.402 802.887 624.066 802.887 630.137V632.844H777.117C777.211 636.594 778.301 639.629 780.387 641.949C782.496 644.246 785.168 645.395 788.402 645.395C790.699 645.395 792.645 644.926 794.238 643.988C795.832 643.051 797.227 641.809 798.422 640.262L802.395 643.355C799.207 648.254 794.426 650.703 788.051 650.703ZM787.242 616.602C784.617 616.602 782.414 617.562 780.633 619.484C778.852 621.383 777.75 624.055 777.328 627.5H796.383V627.008C796.195 623.703 795.305 621.148 793.711 619.344C792.117 617.516 789.961 616.602 787.242 616.602ZM808.863 630.664C808.863 624.828 810.246 620.141 813.012 616.602C815.777 613.039 819.398 611.258 823.875 611.258C828.328 611.258 831.855 612.781 834.457 615.828V596H840.961V650H834.984L834.668 645.922C832.066 649.109 828.445 650.703 823.805 650.703C819.398 650.703 815.801 648.898 813.012 645.289C810.246 641.68 808.863 636.969 808.863 631.156V630.664ZM815.367 631.402C815.367 635.715 816.258 639.09 818.039 641.527C819.82 643.965 822.281 645.184 825.422 645.184C829.547 645.184 832.559 643.332 834.457 639.629V622.156C832.512 618.57 829.523 616.777 825.492 616.777C822.305 616.777 819.82 618.008 818.039 620.469C816.258 622.93 815.367 626.574 815.367 631.402Z" fill="black"/>
<path d="M169.608 727.794L187.89 675.016H197.118L173.388 739H165.917L142.23 675.016H151.415L169.608 727.794ZM209.344 700.961L209.52 705.18C212.309 701.898 216.07 700.258 220.805 700.258C226.125 700.258 229.746 702.297 231.668 706.375C232.934 704.547 234.574 703.07 236.59 701.945C238.629 700.82 241.031 700.258 243.797 700.258C252.141 700.258 256.383 704.676 256.523 713.512V739H250.02V713.898C250.02 711.18 249.398 709.152 248.156 707.816C246.914 706.457 244.828 705.777 241.898 705.777C239.484 705.777 237.48 706.504 235.887 707.957C234.293 709.387 233.367 711.32 233.109 713.758V739H226.57V714.074C226.57 708.543 223.863 705.777 218.449 705.777C214.184 705.777 211.266 707.594 209.695 711.227V739H203.191V700.961H209.344ZM289.852 739C289.477 738.25 289.172 736.914 288.938 734.992C285.914 738.133 282.305 739.703 278.109 739.703C274.359 739.703 271.277 738.648 268.863 736.539C266.473 734.406 265.277 731.711 265.277 728.453C265.277 724.492 266.777 721.422 269.777 719.242C272.801 717.039 277.043 715.938 282.504 715.938H288.832V712.949C288.832 710.676 288.152 708.871 286.793 707.535C285.434 706.176 283.43 705.496 280.781 705.496C278.461 705.496 276.516 706.082 274.945 707.254C273.375 708.426 272.59 709.844 272.59 711.508H266.051C266.051 709.609 266.719 707.781 268.055 706.023C269.414 704.242 271.242 702.836 273.539 701.805C275.859 700.773 278.402 700.258 281.168 700.258C285.551 700.258 288.984 701.359 291.469 703.562C293.953 705.742 295.242 708.754 295.336 712.598V730.105C295.336 733.598 295.781 736.375 296.672 738.438V739H289.852ZM279.059 734.043C281.098 734.043 283.031 733.516 284.859 732.461C286.688 731.406 288.012 730.035 288.832 728.348V720.543H283.734C275.766 720.543 271.781 722.875 271.781 727.539C271.781 729.578 272.461 731.172 273.82 732.32C275.18 733.469 276.926 734.043 279.059 734.043ZM318.293 714.848L326.73 700.961H334.324L321.879 719.77L334.711 739H327.188L318.398 724.762L309.609 739H302.051L314.883 719.77L302.438 700.961H309.961L318.293 714.848ZM388.852 710.383H359.531V704.723H388.852V710.383ZM388.852 724.973H359.531V719.348H388.852V724.973ZM422.602 700.961L422.777 705.18C425.566 701.898 429.328 700.258 434.062 700.258C439.383 700.258 443.004 702.297 444.926 706.375C446.191 704.547 447.832 703.07 449.848 701.945C451.887 700.82 454.289 700.258 457.055 700.258C465.398 700.258 469.641 704.676 469.781 713.512V739H463.277V713.898C463.277 711.18 462.656 709.152 461.414 707.816C460.172 706.457 458.086 705.777 455.156 705.777C452.742 705.777 450.738 706.504 449.145 707.957C447.551 709.387 446.625 711.32 446.367 713.758V739H439.828V714.074C439.828 708.543 437.121 705.777 431.707 705.777C427.441 705.777 424.523 707.594 422.953 711.227V739H416.449V700.961H422.602ZM503.109 739C502.734 738.25 502.43 736.914 502.195 734.992C499.172 738.133 495.562 739.703 491.367 739.703C487.617 739.703 484.535 738.648 482.121 736.539C479.73 734.406 478.535 731.711 478.535 728.453C478.535 724.492 480.035 721.422 483.035 719.242C486.059 717.039 490.301 715.938 495.762 715.938H502.09V712.949C502.09 710.676 501.41 708.871 500.051 707.535C498.691 706.176 496.688 705.496 494.039 705.496C491.719 705.496 489.773 706.082 488.203 707.254C486.633 708.426 485.848 709.844 485.848 711.508H479.309C479.309 709.609 479.977 707.781 481.312 706.023C482.672 704.242 484.5 702.836 486.797 701.805C489.117 700.773 491.66 700.258 494.426 700.258C498.809 700.258 502.242 701.359 504.727 703.562C507.211 705.742 508.5 708.754 508.594 712.598V730.105C508.594 733.598 509.039 736.375 509.93 738.438V739H503.109ZM492.316 734.043C494.355 734.043 496.289 733.516 498.117 732.461C499.945 731.406 501.27 730.035 502.09 728.348V720.543H496.992C489.023 720.543 485.039 722.875 485.039 727.539C485.039 729.578 485.719 731.172 487.078 732.32C488.438 733.469 490.184 734.043 492.316 734.043ZM531.551 714.848L539.988 700.961H547.582L535.137 719.77L547.969 739H540.445L531.656 724.762L522.867 739H515.309L528.141 719.77L515.695 700.961H523.219L531.551 714.848ZM561.574 739H555.07V700.961H561.574V739ZM554.543 690.871C554.543 689.816 554.859 688.926 555.492 688.199C556.148 687.473 557.109 687.109 558.375 687.109C559.641 687.109 560.602 687.473 561.258 688.199C561.914 688.926 562.242 689.816 562.242 690.871C562.242 691.926 561.914 692.805 561.258 693.508C560.602 694.211 559.641 694.562 558.375 694.562C557.109 694.562 556.148 694.211 555.492 693.508C554.859 692.805 554.543 691.926 554.543 690.871ZM578.133 700.961L578.309 705.18C581.098 701.898 584.859 700.258 589.594 700.258C594.914 700.258 598.535 702.297 600.457 706.375C601.723 704.547 603.363 703.07 605.379 701.945C607.418 700.82 609.82 700.258 612.586 700.258C620.93 700.258 625.172 704.676 625.312 713.512V739H618.809V713.898C618.809 711.18 618.188 709.152 616.945 707.816C615.703 706.457 613.617 705.777 610.688 705.777C608.273 705.777 606.27 706.504 604.676 707.957C603.082 709.387 602.156 711.32 601.898 713.758V739H595.359V714.074C595.359 708.543 592.652 705.777 587.238 705.777C582.973 705.777 580.055 707.594 578.484 711.227V739H571.98V700.961H578.133ZM658.641 739C658.266 738.25 657.961 736.914 657.727 734.992C654.703 738.133 651.094 739.703 646.898 739.703C643.148 739.703 640.066 738.648 637.652 736.539C635.262 734.406 634.066 731.711 634.066 728.453C634.066 724.492 635.566 721.422 638.566 719.242C641.59 717.039 645.832 715.938 651.293 715.938H657.621V712.949C657.621 710.676 656.941 708.871 655.582 707.535C654.223 706.176 652.219 705.496 649.57 705.496C647.25 705.496 645.305 706.082 643.734 707.254C642.164 708.426 641.379 709.844 641.379 711.508H634.84C634.84 709.609 635.508 707.781 636.844 706.023C638.203 704.242 640.031 702.836 642.328 701.805C644.648 700.773 647.191 700.258 649.957 700.258C654.34 700.258 657.773 701.359 660.258 703.562C662.742 705.742 664.031 708.754 664.125 712.598V730.105C664.125 733.598 664.57 736.375 665.461 738.438V739H658.641ZM647.848 734.043C649.887 734.043 651.82 733.516 653.648 732.461C655.477 731.406 656.801 730.035 657.621 728.348V720.543H652.523C644.555 720.543 640.57 722.875 640.57 727.539C640.57 729.578 641.25 731.172 642.609 732.32C643.969 733.469 645.715 734.043 647.848 734.043ZM681.387 739H674.883V685H681.387V739ZM731.836 728.91C731.836 727.152 731.168 725.793 729.832 724.832C728.52 723.848 726.211 723.004 722.906 722.301C719.625 721.598 717.012 720.754 715.066 719.77C713.145 718.785 711.715 717.613 710.777 716.254C709.863 714.895 709.406 713.277 709.406 711.402C709.406 708.285 710.719 705.648 713.344 703.492C715.992 701.336 719.367 700.258 723.469 700.258C727.781 700.258 731.273 701.371 733.945 703.598C736.641 705.824 737.988 708.672 737.988 712.141H731.449C731.449 710.359 730.688 708.824 729.164 707.535C727.664 706.246 725.766 705.602 723.469 705.602C721.102 705.602 719.25 706.117 717.914 707.148C716.578 708.18 715.91 709.527 715.91 711.191C715.91 712.762 716.531 713.945 717.773 714.742C719.016 715.539 721.254 716.301 724.488 717.027C727.746 717.754 730.383 718.621 732.398 719.629C734.414 720.637 735.902 721.855 736.863 723.285C737.848 724.691 738.34 726.414 738.34 728.453C738.34 731.852 736.98 734.582 734.262 736.645C731.543 738.684 728.016 739.703 723.68 739.703C720.633 739.703 717.938 739.164 715.594 738.086C713.25 737.008 711.41 735.508 710.074 733.586C708.762 731.641 708.105 729.543 708.105 727.293H714.609C714.727 729.473 715.594 731.207 717.211 732.496C718.852 733.762 721.008 734.395 723.68 734.395C726.141 734.395 728.109 733.902 729.586 732.918C731.086 731.91 731.836 730.574 731.836 728.91ZM778.945 720.402C778.945 726.191 777.621 730.855 774.973 734.395C772.324 737.934 768.738 739.703 764.215 739.703C759.598 739.703 755.965 738.238 753.316 735.309V753.625H746.812V700.961H752.754L753.07 705.18C755.719 701.898 759.398 700.258 764.109 700.258C768.68 700.258 772.289 701.98 774.938 705.426C777.609 708.871 778.945 713.664 778.945 719.805V720.402ZM772.441 719.664C772.441 715.375 771.527 711.988 769.699 709.504C767.871 707.02 765.363 705.777 762.176 705.777C758.238 705.777 755.285 707.523 753.316 711.016V729.191C755.262 732.66 758.238 734.395 762.246 734.395C765.363 734.395 767.836 733.164 769.664 730.703C771.516 728.219 772.441 724.539 772.441 719.664ZM803.027 739.703C797.871 739.703 793.676 738.016 790.441 734.641C787.207 731.242 785.59 726.707 785.59 721.035V719.84C785.59 716.066 786.305 712.703 787.734 709.75C789.188 706.773 791.203 704.453 793.781 702.789C796.383 701.102 799.195 700.258 802.219 700.258C807.164 700.258 811.008 701.887 813.75 705.145C816.492 708.402 817.863 713.066 817.863 719.137V721.844H792.094C792.188 725.594 793.277 728.629 795.363 730.949C797.473 733.246 800.145 734.395 803.379 734.395C805.676 734.395 807.621 733.926 809.215 732.988C810.809 732.051 812.203 730.809 813.398 729.262L817.371 732.355C814.184 737.254 809.402 739.703 803.027 739.703ZM802.219 705.602C799.594 705.602 797.391 706.562 795.609 708.484C793.828 710.383 792.727 713.055 792.305 716.5H811.359V716.008C811.172 712.703 810.281 710.148 808.688 708.344C807.094 706.516 804.938 705.602 802.219 705.602ZM841.207 739.703C836.051 739.703 831.855 738.016 828.621 734.641C825.387 731.242 823.77 726.707 823.77 721.035V719.84C823.77 716.066 824.484 712.703 825.914 709.75C827.367 706.773 829.383 704.453 831.961 702.789C834.562 701.102 837.375 700.258 840.398 700.258C845.344 700.258 849.188 701.887 851.93 705.145C854.672 708.402 856.043 713.066 856.043 719.137V721.844H830.273C830.367 725.594 831.457 728.629 833.543 730.949C835.652 733.246 838.324 734.395 841.559 734.395C843.855 734.395 845.801 733.926 847.395 732.988C848.988 732.051 850.383 730.809 851.578 729.262L855.551 732.355C852.363 737.254 847.582 739.703 841.207 739.703ZM840.398 705.602C837.773 705.602 835.57 706.562 833.789 708.484C832.008 710.383 830.906 713.055 830.484 716.5H849.539V716.008C849.352 712.703 848.461 710.148 846.867 708.344C845.273 706.516 843.117 705.602 840.398 705.602ZM862.02 719.664C862.02 713.828 863.402 709.141 866.168 705.602C868.934 702.039 872.555 700.258 877.031 700.258C881.484 700.258 885.012 701.781 887.613 704.828V685H894.117V739H888.141L887.824 734.922C885.223 738.109 881.602 739.703 876.961 739.703C872.555 739.703 868.957 737.898 866.168 734.289C863.402 730.68 862.02 725.969 862.02 720.156V719.664ZM868.523 720.402C868.523 724.715 869.414 728.09 871.195 730.527C872.977 732.965 875.438 734.184 878.578 734.184C882.703 734.184 885.715 732.332 887.613 728.629V711.156C885.668 707.57 882.68 705.777 878.648 705.777C875.461 705.777 872.977 707.008 871.195 709.469C869.414 711.93 868.523 715.574 868.523 720.402Z" fill="black"/>
</svg>