<svg width="1347" height="872" viewBox="0 0 1347 872" fill="none" xmlns="http://www.w3.org/2000/svg">
<rect width="1347" height="872" fill="white"/>
<path d="M468.002 207.504L827.5 207.5" stroke="black" stroke-width="13"/>
<path d="M353.183 175.938V187.451H362.06V193.735H353.183V223.223C353.183 225.127 353.578 226.562 354.369 227.529C355.16 228.467 356.508 228.936 358.412 228.936C359.35 228.936 360.639 228.76 362.279 228.408V235C360.141 235.586 358.061 235.879 356.039 235.879C352.406 235.879 349.667 234.78 347.821 232.583C345.976 230.386 345.053 227.266 345.053 223.223V193.735H336.396V187.451H345.053V175.938H353.183ZM408.773 199.229H372.123V192.153H408.773V199.229ZM408.773 217.466H372.123V210.435H408.773V217.466Z" fill="black"/>
<path d="M513.887 174.035L528.512 131.812H535.895L516.91 183H510.934L491.984 131.812H499.332L513.887 174.035ZM559.625 183H553.812V144.469L542.156 148.75V143.5L558.719 137.281H559.625V183ZM624.549 148.679H642.391V156.369H624.549V176.584H616.375V156.369H598.533V148.679H616.375V130.002H624.549V148.679ZM697.103 171.794L715.384 119.016H724.612L700.882 183H693.411L669.725 119.016H678.909L697.103 171.794ZM759.393 183H729.58V178.844L745.33 161.344C747.663 158.698 749.268 156.552 750.143 154.906C751.038 153.24 751.486 151.521 751.486 149.75C751.486 147.375 750.768 145.427 749.33 143.906C747.893 142.385 745.976 141.625 743.58 141.625C740.705 141.625 738.465 142.448 736.861 144.094C735.278 145.719 734.486 147.99 734.486 150.906H728.705C728.705 146.719 730.049 143.333 732.736 140.75C735.445 138.167 739.059 136.875 743.58 136.875C747.809 136.875 751.153 137.99 753.611 140.219C756.07 142.427 757.299 145.375 757.299 149.062C757.299 153.542 754.445 158.875 748.736 165.062L736.549 178.281H759.393V183Z" fill="black"/>
<path d="M642.838 305.388C642.838 303.19 642.003 301.491 640.333 300.29C638.692 299.06 635.807 298.005 631.676 297.126C627.574 296.247 624.308 295.192 621.876 293.962C619.474 292.731 617.687 291.267 616.515 289.567C615.372 287.868 614.801 285.847 614.801 283.503C614.801 279.606 616.441 276.311 619.723 273.615C623.033 270.92 627.252 269.572 632.379 269.572C637.77 269.572 642.135 270.964 645.475 273.747C648.844 276.53 650.528 280.09 650.528 284.426H642.354C642.354 282.199 641.402 280.28 639.498 278.669C637.623 277.058 635.25 276.252 632.379 276.252C629.42 276.252 627.105 276.896 625.436 278.186C623.766 279.475 622.931 281.159 622.931 283.239C622.931 285.202 623.707 286.682 625.26 287.678C626.812 288.674 629.61 289.626 633.653 290.534C637.726 291.442 641.021 292.526 643.541 293.786C646.061 295.046 647.921 296.569 649.122 298.356C650.353 300.114 650.968 302.268 650.968 304.816C650.968 309.064 649.269 312.478 645.87 315.056C642.472 317.604 638.062 318.879 632.643 318.879C628.834 318.879 625.465 318.205 622.535 316.857C619.605 315.51 617.306 313.635 615.636 311.232C613.995 308.801 613.175 306.179 613.175 303.366H621.305C621.451 306.091 622.535 308.259 624.557 309.87C626.607 311.452 629.303 312.243 632.643 312.243C635.719 312.243 638.18 311.628 640.025 310.397C641.9 309.138 642.838 307.468 642.838 305.388Z" fill="black"/>
<path d="M159.746 417.75V426.961H166.848V431.988H159.746V455.578C159.746 457.102 160.062 458.25 160.695 459.023C161.328 459.773 162.406 460.148 163.93 460.148C164.68 460.148 165.711 460.008 167.023 459.727V465C165.312 465.469 163.648 465.703 162.031 465.703C159.125 465.703 156.934 464.824 155.457 463.066C153.98 461.309 153.242 458.812 153.242 455.578V431.988H146.316V426.961H153.242V417.75H159.746ZM222.078 436.383H192.758V430.723H222.078V436.383ZM222.078 450.973H192.758V445.348H222.078V450.973ZM258.535 417.75V426.961H265.637V431.988H258.535V455.578C258.535 457.102 258.852 458.25 259.484 459.023C260.117 459.773 261.195 460.148 262.719 460.148C263.469 460.148 264.5 460.008 265.812 459.727V465C264.102 465.469 262.438 465.703 260.82 465.703C257.914 465.703 255.723 464.824 254.246 463.066C252.77 461.309 252.031 458.812 252.031 455.578V431.988H245.105V426.961H252.031V417.75H258.535ZM280.332 465H273.828V426.961H280.332V465ZM273.301 416.871C273.301 415.816 273.617 414.926 274.25 414.199C274.906 413.473 275.867 413.109 277.133 413.109C278.398 413.109 279.359 413.473 280.016 414.199C280.672 414.926 281 415.816 281 416.871C281 417.926 280.672 418.805 280.016 419.508C279.359 420.211 278.398 420.562 277.133 420.562C275.867 420.562 274.906 420.211 274.25 419.508C273.617 418.805 273.301 417.926 273.301 416.871ZM296.891 426.961L297.066 431.18C299.855 427.898 303.617 426.258 308.352 426.258C313.672 426.258 317.293 428.297 319.215 432.375C320.48 430.547 322.121 429.07 324.137 427.945C326.176 426.82 328.578 426.258 331.344 426.258C339.688 426.258 343.93 430.676 344.07 439.512V465H337.566V439.898C337.566 437.18 336.945 435.152 335.703 433.816C334.461 432.457 332.375 431.777 329.445 431.777C327.031 431.777 325.027 432.504 323.434 433.957C321.84 435.387 320.914 437.32 320.656 439.758V465H314.117V440.074C314.117 434.543 311.41 431.777 305.996 431.777C301.73 431.777 298.812 433.594 297.242 437.227V465H290.738V426.961H296.891ZM369.699 465.703C364.543 465.703 360.348 464.016 357.113 460.641C353.879 457.242 352.262 452.707 352.262 447.035V445.84C352.262 442.066 352.977 438.703 354.406 435.75C355.859 432.773 357.875 430.453 360.453 428.789C363.055 427.102 365.867 426.258 368.891 426.258C373.836 426.258 377.68 427.887 380.422 431.145C383.164 434.402 384.535 439.066 384.535 445.137V447.844H358.766C358.859 451.594 359.949 454.629 362.035 456.949C364.145 459.246 366.816 460.395 370.051 460.395C372.348 460.395 374.293 459.926 375.887 458.988C377.48 458.051 378.875 456.809 380.07 455.262L384.043 458.355C380.855 463.254 376.074 465.703 369.699 465.703ZM368.891 431.602C366.266 431.602 364.062 432.562 362.281 434.484C360.5 436.383 359.398 439.055 358.977 442.5H378.031V442.008C377.844 438.703 376.953 436.148 375.359 434.344C373.766 432.516 371.609 431.602 368.891 431.602Z" fill="black"/>
<path d="M168.887 563.035L183.512 520.812H190.895L171.91 572H165.934L146.984 520.812H154.332L168.887 563.035ZM213.913 572H208.282V534.673L196.99 538.82V533.734L213.035 527.71H213.913V572ZM279.182 543.383H249.861V537.723H279.182V543.383ZM279.182 557.973H249.861V552.348H279.182V557.973ZM308.994 572V538.988H302.982V533.961H308.994V530.727C308.994 526.484 310.201 523.18 312.615 520.812C315.053 518.445 318.486 517.262 322.916 517.262C325.541 517.262 328.857 517.977 332.865 519.406L331.775 524.891C328.846 523.719 326.057 523.133 323.408 523.133C320.619 523.133 318.604 523.766 317.361 525.031C316.143 526.273 315.533 528.148 315.533 530.656V533.961H323.303V538.988H315.533V572H308.994ZM336.1 572H329.561V533.961H336.1V572ZM365.068 539.797C364.084 539.633 363.018 539.551 361.869 539.551C357.604 539.551 354.709 541.367 353.186 545V572H346.682V533.961H353.01L353.115 538.355C355.248 534.957 358.271 533.258 362.186 533.258C363.451 533.258 364.412 533.422 365.068 533.75V539.797ZM393.229 561.91C393.229 560.152 392.561 558.793 391.225 557.832C389.912 556.848 387.604 556.004 384.299 555.301C381.018 554.598 378.404 553.754 376.459 552.77C374.537 551.785 373.107 550.613 372.17 549.254C371.256 547.895 370.799 546.277 370.799 544.402C370.799 541.285 372.111 538.648 374.736 536.492C377.385 534.336 380.76 533.258 384.861 533.258C389.174 533.258 392.666 534.371 395.338 536.598C398.033 538.824 399.381 541.672 399.381 545.141H392.842C392.842 543.359 392.08 541.824 390.557 540.535C389.057 539.246 387.158 538.602 384.861 538.602C382.494 538.602 380.643 539.117 379.307 540.148C377.971 541.18 377.303 542.527 377.303 544.191C377.303 545.762 377.924 546.945 379.166 547.742C380.408 548.539 382.646 549.301 385.881 550.027C389.139 550.754 391.775 551.621 393.791 552.629C395.807 553.637 397.295 554.855 398.256 556.285C399.24 557.691 399.732 559.414 399.732 561.453C399.732 564.852 398.373 567.582 395.654 569.645C392.936 571.684 389.408 572.703 385.072 572.703C382.025 572.703 379.33 572.164 376.986 571.086C374.643 570.008 372.803 568.508 371.467 566.586C370.154 564.641 369.498 562.543 369.498 560.293H376.002C376.119 562.473 376.986 564.207 378.604 565.496C380.244 566.762 382.4 567.395 385.072 567.395C387.533 567.395 389.502 566.902 390.979 565.918C392.479 564.91 393.229 563.574 393.229 561.91ZM417.029 524.75V533.961H424.131V538.988H417.029V562.578C417.029 564.102 417.346 565.25 417.979 566.023C418.611 566.773 419.689 567.148 421.213 567.148C421.963 567.148 422.994 567.008 424.307 566.727V572C422.596 572.469 420.932 572.703 419.314 572.703C416.408 572.703 414.217 571.824 412.74 570.066C411.264 568.309 410.525 565.812 410.525 562.578V538.988H403.6V533.961H410.525V524.75H417.029ZM471.768 561.91C471.768 560.152 471.1 558.793 469.764 557.832C468.451 556.848 466.143 556.004 462.838 555.301C459.557 554.598 456.943 553.754 454.998 552.77C453.076 551.785 451.646 550.613 450.709 549.254C449.795 547.895 449.338 546.277 449.338 544.402C449.338 541.285 450.65 538.648 453.275 536.492C455.924 534.336 459.299 533.258 463.4 533.258C467.713 533.258 471.205 534.371 473.877 536.598C476.572 538.824 477.92 541.672 477.92 545.141H471.381C471.381 543.359 470.619 541.824 469.096 540.535C467.596 539.246 465.697 538.602 463.4 538.602C461.033 538.602 459.182 539.117 457.846 540.148C456.51 541.18 455.842 542.527 455.842 544.191C455.842 545.762 456.463 546.945 457.705 547.742C458.947 548.539 461.186 549.301 464.42 550.027C467.678 550.754 470.314 551.621 472.33 552.629C474.346 553.637 475.834 554.855 476.795 556.285C477.779 557.691 478.271 559.414 478.271 561.453C478.271 564.852 476.912 567.582 474.193 569.645C471.475 571.684 467.947 572.703 463.611 572.703C460.564 572.703 457.869 572.164 455.525 571.086C453.182 570.008 451.342 568.508 450.006 566.586C448.693 564.641 448.037 562.543 448.037 560.293H454.541C454.658 562.473 455.525 564.207 457.143 565.496C458.783 566.762 460.939 567.395 463.611 567.395C466.072 567.395 468.041 566.902 469.518 565.918C471.018 564.91 471.768 563.574 471.768 561.91ZM518.877 553.402C518.877 559.191 517.553 563.855 514.904 567.395C512.256 570.934 508.67 572.703 504.146 572.703C499.529 572.703 495.896 571.238 493.248 568.309V586.625H486.744V533.961H492.686L493.002 538.18C495.65 534.898 499.33 533.258 504.041 533.258C508.611 533.258 512.221 534.98 514.869 538.426C517.541 541.871 518.877 546.664 518.877 552.805V553.402ZM512.373 552.664C512.373 548.375 511.459 544.988 509.631 542.504C507.803 540.02 505.295 538.777 502.107 538.777C498.17 538.777 495.217 540.523 493.248 544.016V562.191C495.193 565.66 498.17 567.395 502.178 567.395C505.295 567.395 507.768 566.164 509.596 563.703C511.447 561.219 512.373 557.539 512.373 552.664ZM542.959 572.703C537.803 572.703 533.607 571.016 530.373 567.641C527.139 564.242 525.521 559.707 525.521 554.035V552.84C525.521 549.066 526.236 545.703 527.666 542.75C529.119 539.773 531.135 537.453 533.713 535.789C536.314 534.102 539.127 533.258 542.15 533.258C547.096 533.258 550.939 534.887 553.682 538.145C556.424 541.402 557.795 546.066 557.795 552.137V554.844H532.025C532.119 558.594 533.209 561.629 535.295 563.949C537.404 566.246 540.076 567.395 543.311 567.395C545.607 567.395 547.553 566.926 549.146 565.988C550.74 565.051 552.135 563.809 553.33 562.262L557.303 565.355C554.115 570.254 549.334 572.703 542.959 572.703ZM542.15 538.602C539.525 538.602 537.322 539.562 535.541 541.484C533.76 543.383 532.658 546.055 532.236 549.5H551.291V549.008C551.104 545.703 550.213 543.148 548.619 541.344C547.025 539.516 544.869 538.602 542.15 538.602ZM581.139 572.703C575.982 572.703 571.787 571.016 568.553 567.641C565.318 564.242 563.701 559.707 563.701 554.035V552.84C563.701 549.066 564.416 545.703 565.846 542.75C567.299 539.773 569.314 537.453 571.893 535.789C574.494 534.102 577.307 533.258 580.33 533.258C585.275 533.258 589.119 534.887 591.861 538.145C594.604 541.402 595.975 546.066 595.975 552.137V554.844H570.205C570.299 558.594 571.389 561.629 573.475 563.949C575.584 566.246 578.256 567.395 581.49 567.395C583.787 567.395 585.732 566.926 587.326 565.988C588.92 565.051 590.314 563.809 591.51 562.262L595.482 565.355C592.295 570.254 587.514 572.703 581.139 572.703ZM580.33 538.602C577.705 538.602 575.502 539.562 573.721 541.484C571.939 543.383 570.838 546.055 570.416 549.5H589.471V549.008C589.283 545.703 588.393 543.148 586.799 541.344C585.205 539.516 583.049 538.602 580.33 538.602ZM601.951 552.664C601.951 546.828 603.334 542.141 606.1 538.602C608.865 535.039 612.486 533.258 616.963 533.258C621.416 533.258 624.943 534.781 627.545 537.828V518H634.049V572H628.072L627.756 567.922C625.154 571.109 621.533 572.703 616.893 572.703C612.486 572.703 608.889 570.898 606.1 567.289C603.334 563.68 601.951 558.969 601.951 553.156V552.664ZM608.455 553.402C608.455 557.715 609.346 561.09 611.127 563.527C612.908 565.965 615.369 567.184 618.51 567.184C622.635 567.184 625.646 565.332 627.545 561.629V544.156C625.6 540.57 622.611 538.777 618.58 538.777C615.393 538.777 612.908 540.008 611.127 542.469C609.346 544.93 608.455 548.574 608.455 553.402Z" fill="black"/>
<path d="M155.887 670.035L170.512 627.812H177.895L158.91 679H152.934L133.984 627.812H141.332L155.887 670.035ZM211.388 679H182.507V674.974L197.765 658.021C200.025 655.457 201.579 653.379 202.427 651.784C203.295 650.17 203.729 648.505 203.729 646.789C203.729 644.488 203.032 642.601 201.64 641.128C200.247 639.655 198.39 638.918 196.069 638.918C193.284 638.918 191.115 639.715 189.561 641.31C188.027 642.884 187.26 645.084 187.26 647.909H181.659C181.659 643.853 182.961 640.573 185.564 638.07C188.188 635.568 191.69 634.316 196.069 634.316C200.166 634.316 203.406 635.396 205.787 637.556C208.169 639.695 209.359 642.551 209.359 646.123C209.359 650.462 206.594 655.629 201.064 661.623L189.258 674.429H211.388V679ZM266.182 650.383H236.861V644.723H266.182V650.383ZM266.182 664.973H236.861V659.348H266.182V664.973ZM315.963 668.91C315.963 667.152 315.295 665.793 313.959 664.832C312.646 663.848 310.338 663.004 307.033 662.301C303.752 661.598 301.139 660.754 299.193 659.77C297.271 658.785 295.842 657.613 294.904 656.254C293.99 654.895 293.533 653.277 293.533 651.402C293.533 648.285 294.846 645.648 297.471 643.492C300.119 641.336 303.494 640.258 307.596 640.258C311.908 640.258 315.4 641.371 318.072 643.598C320.768 645.824 322.115 648.672 322.115 652.141H315.576C315.576 650.359 314.814 648.824 313.291 647.535C311.791 646.246 309.893 645.602 307.596 645.602C305.229 645.602 303.377 646.117 302.041 647.148C300.705 648.18 300.037 649.527 300.037 651.191C300.037 652.762 300.658 653.945 301.9 654.742C303.143 655.539 305.381 656.301 308.615 657.027C311.873 657.754 314.51 658.621 316.525 659.629C318.541 660.637 320.029 661.855 320.99 663.285C321.975 664.691 322.467 666.414 322.467 668.453C322.467 671.852 321.107 674.582 318.389 676.645C315.67 678.684 312.143 679.703 307.807 679.703C304.76 679.703 302.064 679.164 299.721 678.086C297.377 677.008 295.537 675.508 294.201 673.586C292.889 671.641 292.232 669.543 292.232 667.293H298.736C298.854 669.473 299.721 671.207 301.338 672.496C302.979 673.762 305.135 674.395 307.807 674.395C310.268 674.395 312.236 673.902 313.713 672.918C315.213 671.91 315.963 670.574 315.963 668.91ZM346.725 679.703C341.568 679.703 337.373 678.016 334.139 674.641C330.904 671.242 329.287 666.707 329.287 661.035V659.84C329.287 656.066 330.002 652.703 331.432 649.75C332.885 646.773 334.9 644.453 337.479 642.789C340.08 641.102 342.893 640.258 345.916 640.258C350.861 640.258 354.705 641.887 357.447 645.145C360.189 648.402 361.561 653.066 361.561 659.137V661.844H335.791C335.885 665.594 336.975 668.629 339.061 670.949C341.17 673.246 343.842 674.395 347.076 674.395C349.373 674.395 351.318 673.926 352.912 672.988C354.506 672.051 355.9 670.809 357.096 669.262L361.068 672.355C357.881 677.254 353.1 679.703 346.725 679.703ZM345.916 645.602C343.291 645.602 341.088 646.562 339.307 648.484C337.525 650.383 336.424 653.055 336.002 656.5H355.057V656.008C354.869 652.703 353.979 650.148 352.385 648.344C350.791 646.516 348.635 645.602 345.916 645.602ZM384.377 674.395C386.697 674.395 388.725 673.691 390.459 672.285C392.193 670.879 393.154 669.121 393.342 667.012H399.494C399.377 669.191 398.627 671.266 397.244 673.234C395.861 675.203 394.01 676.773 391.689 677.945C389.393 679.117 386.955 679.703 384.377 679.703C379.197 679.703 375.072 677.98 372.002 674.535C368.955 671.066 367.432 666.332 367.432 660.332V659.242C367.432 655.539 368.111 652.246 369.471 649.363C370.83 646.48 372.775 644.242 375.307 642.648C377.861 641.055 380.873 640.258 384.342 640.258C388.607 640.258 392.146 641.535 394.959 644.09C397.795 646.645 399.307 649.961 399.494 654.039H393.342C393.154 651.578 392.217 649.562 390.529 647.992C388.865 646.398 386.803 645.602 384.342 645.602C381.037 645.602 378.471 646.797 376.643 649.188C374.838 651.555 373.936 654.988 373.936 659.488V660.719C373.936 665.102 374.838 668.477 376.643 670.844C378.447 673.211 381.025 674.395 384.377 674.395ZM405.084 659.629C405.084 655.902 405.811 652.551 407.264 649.574C408.74 646.598 410.779 644.301 413.381 642.684C416.006 641.066 418.994 640.258 422.346 640.258C427.525 640.258 431.709 642.051 434.896 645.637C438.107 649.223 439.713 653.992 439.713 659.945V660.402C439.713 664.105 438.998 667.434 437.568 670.387C436.162 673.316 434.135 675.602 431.486 677.242C428.861 678.883 425.838 679.703 422.416 679.703C417.26 679.703 413.076 677.91 409.865 674.324C406.678 670.738 405.084 665.992 405.084 660.086V659.629ZM411.623 660.402C411.623 664.621 412.596 668.008 414.541 670.562C416.51 673.117 419.135 674.395 422.416 674.395C425.721 674.395 428.346 673.105 430.291 670.527C432.236 667.926 433.209 664.293 433.209 659.629C433.209 655.457 432.213 652.082 430.221 649.504C428.252 646.902 425.627 645.602 422.346 645.602C419.135 645.602 416.545 646.879 414.576 649.434C412.607 651.988 411.623 655.645 411.623 660.402ZM454.021 640.961L454.232 645.742C457.139 642.086 460.936 640.258 465.623 640.258C473.662 640.258 477.717 644.793 477.787 653.863V679H471.283V653.828C471.26 651.086 470.627 649.059 469.385 647.746C468.166 646.434 466.256 645.777 463.654 645.777C461.545 645.777 459.693 646.34 458.1 647.465C456.506 648.59 455.264 650.066 454.373 651.895V679H447.869V640.961H454.021ZM486.014 659.664C486.014 653.828 487.396 649.141 490.162 645.602C492.928 642.039 496.549 640.258 501.025 640.258C505.479 640.258 509.006 641.781 511.607 644.828V625H518.111V679H512.135L511.818 674.922C509.217 678.109 505.596 679.703 500.955 679.703C496.549 679.703 492.951 677.898 490.162 674.289C487.396 670.68 486.014 665.969 486.014 660.156V659.664ZM492.518 660.402C492.518 664.715 493.408 668.09 495.189 670.527C496.971 672.965 499.432 674.184 502.572 674.184C506.697 674.184 509.709 672.332 511.607 668.629V651.156C509.662 647.57 506.674 645.777 502.643 645.777C499.455 645.777 496.971 647.008 495.189 649.469C493.408 651.93 492.518 655.574 492.518 660.402ZM568.244 668.91C568.244 667.152 567.576 665.793 566.24 664.832C564.928 663.848 562.619 663.004 559.314 662.301C556.033 661.598 553.42 660.754 551.475 659.77C549.553 658.785 548.123 657.613 547.186 656.254C546.271 654.895 545.814 653.277 545.814 651.402C545.814 648.285 547.127 645.648 549.752 643.492C552.4 641.336 555.775 640.258 559.877 640.258C564.189 640.258 567.682 641.371 570.354 643.598C573.049 645.824 574.396 648.672 574.396 652.141H567.857C567.857 650.359 567.096 648.824 565.572 647.535C564.072 646.246 562.174 645.602 559.877 645.602C557.51 645.602 555.658 646.117 554.322 647.148C552.986 648.18 552.318 649.527 552.318 651.191C552.318 652.762 552.939 653.945 554.182 654.742C555.424 655.539 557.662 656.301 560.896 657.027C564.154 657.754 566.791 658.621 568.807 659.629C570.822 660.637 572.311 661.855 573.271 663.285C574.256 664.691 574.748 666.414 574.748 668.453C574.748 671.852 573.389 674.582 570.67 676.645C567.951 678.684 564.424 679.703 560.088 679.703C557.041 679.703 554.346 679.164 552.002 678.086C549.658 677.008 547.818 675.508 546.482 673.586C545.17 671.641 544.514 669.543 544.514 667.293H551.018C551.135 669.473 552.002 671.207 553.619 672.496C555.26 673.762 557.416 674.395 560.088 674.395C562.549 674.395 564.518 673.902 565.994 672.918C567.494 671.91 568.244 670.574 568.244 668.91ZM615.354 660.402C615.354 666.191 614.029 670.855 611.381 674.395C608.732 677.934 605.146 679.703 600.623 679.703C596.006 679.703 592.373 678.238 589.725 675.309V693.625H583.221V640.961H589.162L589.479 645.18C592.127 641.898 595.807 640.258 600.518 640.258C605.088 640.258 608.697 641.98 611.346 645.426C614.018 648.871 615.354 653.664 615.354 659.805V660.402ZM608.85 659.664C608.85 655.375 607.936 651.988 606.107 649.504C604.279 647.02 601.771 645.777 598.584 645.777C594.646 645.777 591.693 647.523 589.725 651.016V669.191C591.67 672.66 594.646 674.395 598.654 674.395C601.771 674.395 604.244 673.164 606.072 670.703C607.924 668.219 608.85 664.539 608.85 659.664ZM639.436 679.703C634.279 679.703 630.084 678.016 626.85 674.641C623.615 671.242 621.998 666.707 621.998 661.035V659.84C621.998 656.066 622.713 652.703 624.143 649.75C625.596 646.773 627.611 644.453 630.189 642.789C632.791 641.102 635.604 640.258 638.627 640.258C643.572 640.258 647.416 641.887 650.158 645.145C652.9 648.402 654.271 653.066 654.271 659.137V661.844H628.502C628.596 665.594 629.686 668.629 631.771 670.949C633.881 673.246 636.553 674.395 639.787 674.395C642.084 674.395 644.029 673.926 645.623 672.988C647.217 672.051 648.611 670.809 649.807 669.262L653.779 672.355C650.592 677.254 645.811 679.703 639.436 679.703ZM638.627 645.602C636.002 645.602 633.799 646.562 632.018 648.484C630.236 650.383 629.135 653.055 628.713 656.5H647.768V656.008C647.58 652.703 646.689 650.148 645.096 648.344C643.502 646.516 641.346 645.602 638.627 645.602ZM677.615 679.703C672.459 679.703 668.264 678.016 665.029 674.641C661.795 671.242 660.178 666.707 660.178 661.035V659.84C660.178 656.066 660.893 652.703 662.322 649.75C663.775 646.773 665.791 644.453 668.369 642.789C670.971 641.102 673.783 640.258 676.807 640.258C681.752 640.258 685.596 641.887 688.338 645.145C691.08 648.402 692.451 653.066 692.451 659.137V661.844H666.682C666.775 665.594 667.865 668.629 669.951 670.949C672.061 673.246 674.732 674.395 677.967 674.395C680.264 674.395 682.209 673.926 683.803 672.988C685.396 672.051 686.791 670.809 687.986 669.262L691.959 672.355C688.771 677.254 683.99 679.703 677.615 679.703ZM676.807 645.602C674.182 645.602 671.979 646.562 670.197 648.484C668.416 650.383 667.314 653.055 666.893 656.5H685.947V656.008C685.76 652.703 684.869 650.148 683.275 648.344C681.682 646.516 679.525 645.602 676.807 645.602ZM698.428 659.664C698.428 653.828 699.811 649.141 702.576 645.602C705.342 642.039 708.963 640.258 713.439 640.258C717.893 640.258 721.42 641.781 724.021 644.828V625H730.525V679H724.549L724.232 674.922C721.631 678.109 718.01 679.703 713.369 679.703C708.963 679.703 705.365 677.898 702.576 674.289C699.811 670.68 698.428 665.969 698.428 660.156V659.664ZM704.932 660.402C704.932 664.715 705.822 668.09 707.604 670.527C709.385 672.965 711.846 674.184 714.986 674.184C719.111 674.184 722.123 672.332 724.021 668.629V651.156C722.076 647.57 719.088 645.777 715.057 645.777C711.869 645.777 709.385 647.008 707.604 649.469C705.822 651.93 704.932 655.574 704.932 660.402Z" fill="black"/>
<path d="M173.07 772.91C173.07 771.152 172.402 769.793 171.066 768.832C169.754 767.848 167.445 767.004 164.141 766.301C160.859 765.598 158.246 764.754 156.301 763.77C154.379 762.785 152.949 761.613 152.012 760.254C151.098 758.895 150.641 757.277 150.641 755.402C150.641 752.285 151.953 749.648 154.578 747.492C157.227 745.336 160.602 744.258 164.703 744.258C169.016 744.258 172.508 745.371 175.18 747.598C177.875 749.824 179.223 752.672 179.223 756.141H172.684C172.684 754.359 171.922 752.824 170.398 751.535C168.898 750.246 167 749.602 164.703 749.602C162.336 749.602 160.484 750.117 159.148 751.148C157.812 752.18 157.145 753.527 157.145 755.191C157.145 756.762 157.766 757.945 159.008 758.742C160.25 759.539 162.488 760.301 165.723 761.027C168.98 761.754 171.617 762.621 173.633 763.629C175.648 764.637 177.137 765.855 178.098 767.285C179.082 768.691 179.574 770.414 179.574 772.453C179.574 775.852 178.215 778.582 175.496 780.645C172.777 782.684 169.25 783.703 164.914 783.703C161.867 783.703 159.172 783.164 156.828 782.086C154.484 781.008 152.645 779.508 151.309 777.586C149.996 775.641 149.34 773.543 149.34 771.293H155.844C155.961 773.473 156.828 775.207 158.445 776.496C160.086 777.762 162.242 778.395 164.914 778.395C167.375 778.395 169.344 777.902 170.82 776.918C172.32 775.91 173.07 774.574 173.07 772.91ZM235.648 754.383H206.328V748.723H235.648V754.383ZM235.648 768.973H206.328V763.348H235.648V768.973ZM281.668 750.797C280.684 750.633 279.617 750.551 278.469 750.551C274.203 750.551 271.309 752.367 269.785 756V783H263.281V744.961H269.609L269.715 749.355C271.848 745.957 274.871 744.258 278.785 744.258C280.051 744.258 281.012 744.422 281.668 744.75V750.797ZM285.254 763.629C285.254 759.902 285.98 756.551 287.434 753.574C288.91 750.598 290.949 748.301 293.551 746.684C296.176 745.066 299.164 744.258 302.516 744.258C307.695 744.258 311.879 746.051 315.066 749.637C318.277 753.223 319.883 757.992 319.883 763.945V764.402C319.883 768.105 319.168 771.434 317.738 774.387C316.332 777.316 314.305 779.602 311.656 781.242C309.031 782.883 306.008 783.703 302.586 783.703C297.43 783.703 293.246 781.91 290.035 778.324C286.848 774.738 285.254 769.992 285.254 764.086V763.629ZM291.793 764.402C291.793 768.621 292.766 772.008 294.711 774.562C296.68 777.117 299.305 778.395 302.586 778.395C305.891 778.395 308.516 777.105 310.461 774.527C312.406 771.926 313.379 768.293 313.379 763.629C313.379 759.457 312.383 756.082 310.391 753.504C308.422 750.902 305.797 749.602 302.516 749.602C299.305 749.602 296.715 750.879 294.746 753.434C292.777 755.988 291.793 759.645 291.793 764.402ZM351.523 783C351.148 782.25 350.844 780.914 350.609 778.992C347.586 782.133 343.977 783.703 339.781 783.703C336.031 783.703 332.949 782.648 330.535 780.539C328.145 778.406 326.949 775.711 326.949 772.453C326.949 768.492 328.449 765.422 331.449 763.242C334.473 761.039 338.715 759.938 344.176 759.938H350.504V756.949C350.504 754.676 349.824 752.871 348.465 751.535C347.105 750.176 345.102 749.496 342.453 749.496C340.133 749.496 338.188 750.082 336.617 751.254C335.047 752.426 334.262 753.844 334.262 755.508H327.723C327.723 753.609 328.391 751.781 329.727 750.023C331.086 748.242 332.914 746.836 335.211 745.805C337.531 744.773 340.074 744.258 342.84 744.258C347.223 744.258 350.656 745.359 353.141 747.562C355.625 749.742 356.914 752.754 357.008 756.598V774.105C357.008 777.598 357.453 780.375 358.344 782.438V783H351.523ZM340.73 778.043C342.77 778.043 344.703 777.516 346.531 776.461C348.359 775.406 349.684 774.035 350.504 772.348V764.543H345.406C337.438 764.543 333.453 766.875 333.453 771.539C333.453 773.578 334.133 775.172 335.492 776.32C336.852 777.469 338.598 778.043 340.73 778.043ZM365.621 763.664C365.621 757.828 367.004 753.141 369.77 749.602C372.535 746.039 376.156 744.258 380.633 744.258C385.086 744.258 388.613 745.781 391.215 748.828V729H397.719V783H391.742L391.426 778.922C388.824 782.109 385.203 783.703 380.562 783.703C376.156 783.703 372.559 781.898 369.77 778.289C367.004 774.68 365.621 769.969 365.621 764.156V763.664ZM372.125 764.402C372.125 768.715 373.016 772.09 374.797 774.527C376.578 776.965 379.039 778.184 382.18 778.184C386.305 778.184 389.316 776.332 391.215 772.629V755.156C389.27 751.57 386.281 749.777 382.25 749.777C379.062 749.777 376.578 751.008 374.797 753.469C373.016 755.93 372.125 759.574 372.125 764.402Z" fill="black"/>
</svg>