<svg width="1482" height="480" viewBox="0 0 1482 480" fill="none" xmlns="http://www.w3.org/2000/svg">
<rect width="1482" height="480" fill="white"/>
<path d="M283.841 213.97L295.618 177.451H303.924L286.873 225H280.677L263.45 177.451H271.756L283.841 213.97ZM308.89 200.786C308.89 196.128 309.798 191.938 311.614 188.218C313.46 184.497 316.009 181.626 319.261 179.604C322.542 177.583 326.277 176.572 330.467 176.572C336.941 176.572 342.171 178.813 346.155 183.296C350.169 187.778 352.176 193.74 352.176 201.182V201.753C352.176 206.382 351.282 210.542 349.495 214.233C347.737 217.896 345.203 220.752 341.893 222.803C338.611 224.854 334.832 225.879 330.555 225.879C324.109 225.879 318.88 223.638 314.866 219.155C310.882 214.673 308.89 208.74 308.89 201.357V200.786ZM317.063 201.753C317.063 207.026 318.279 211.26 320.711 214.453C323.172 217.646 326.453 219.243 330.555 219.243C334.686 219.243 337.967 217.632 340.398 214.409C342.83 211.157 344.046 206.616 344.046 200.786C344.046 195.571 342.801 191.353 340.311 188.13C337.85 184.878 334.568 183.252 330.467 183.252C326.453 183.252 323.216 184.849 320.755 188.042C318.294 191.235 317.063 195.806 317.063 201.753ZM371.204 225H363.074V157.5H371.204V225ZM413.611 220.298C410.447 224.019 405.804 225.879 399.681 225.879C394.612 225.879 390.745 224.414 388.079 221.484C385.442 218.525 384.109 214.16 384.08 208.389V177.451H392.21V208.169C392.21 215.376 395.14 218.979 400.999 218.979C407.21 218.979 411.341 216.665 413.392 212.036V177.451H421.521V225H413.787L413.611 220.298ZM441.561 177.451L441.78 182.725C445.267 178.623 449.969 176.572 455.887 176.572C462.537 176.572 467.063 179.121 469.466 184.219C471.048 181.934 473.099 180.088 475.618 178.682C478.167 177.275 481.17 176.572 484.627 176.572C495.057 176.572 500.359 182.095 500.535 193.14V225H492.405V193.623C492.405 190.225 491.629 187.69 490.076 186.021C488.523 184.321 485.916 183.472 482.254 183.472C479.236 183.472 476.731 184.38 474.739 186.196C472.747 187.983 471.59 190.4 471.268 193.447V225H463.094V193.843C463.094 186.929 459.71 183.472 452.942 183.472C447.61 183.472 443.963 185.742 442 190.283V225H433.87V177.451H441.561ZM532.571 225.879C526.126 225.879 520.882 223.77 516.839 219.551C512.796 215.303 510.774 209.634 510.774 202.544V201.05C510.774 196.333 511.668 192.129 513.455 188.438C515.271 184.717 517.791 181.816 521.014 179.736C524.266 177.627 527.781 176.572 531.561 176.572C537.742 176.572 542.547 178.608 545.975 182.681C549.402 186.753 551.116 192.583 551.116 200.171V203.555H518.904C519.021 208.242 520.384 212.036 522.991 214.937C525.628 217.808 528.968 219.243 533.011 219.243C535.882 219.243 538.313 218.657 540.306 217.485C542.298 216.313 544.041 214.761 545.535 212.827L550.501 216.694C546.517 222.817 540.54 225.879 532.571 225.879ZM531.561 183.252C528.279 183.252 525.525 184.453 523.299 186.855C521.072 189.229 519.695 192.568 519.168 196.875H542.986V196.26C542.752 192.129 541.639 188.936 539.646 186.68C537.654 184.395 534.959 183.252 531.561 183.252ZM620.066 189.229H583.416V182.153H620.066V189.229ZM620.066 207.466H583.416V200.435H620.066V207.466Z" fill="black"/>
<path d="M660 188H1390" stroke="black" stroke-width="12"/>
<path d="M918.183 218.938V230.451H927.06V236.735H918.183V266.223C918.183 268.127 918.578 269.562 919.369 270.529C920.16 271.467 921.508 271.936 923.412 271.936C924.35 271.936 925.639 271.76 927.279 271.408V278C925.141 278.586 923.061 278.879 921.039 278.879C917.406 278.879 914.667 277.78 912.821 275.583C910.976 273.386 910.053 270.266 910.053 266.223V236.735H901.396V230.451H910.053V218.938H918.183ZM945.429 278H937.299V230.451H945.429V278ZM936.64 217.839C936.64 216.521 937.035 215.407 937.826 214.499C938.646 213.591 939.848 213.137 941.43 213.137C943.012 213.137 944.213 213.591 945.033 214.499C945.854 215.407 946.264 216.521 946.264 217.839C946.264 219.157 945.854 220.256 945.033 221.135C944.213 222.014 943.012 222.453 941.43 222.453C939.848 222.453 938.646 222.014 937.826 221.135C937.035 220.256 936.64 219.157 936.64 217.839ZM966.127 230.451L966.347 235.725C969.833 231.623 974.535 229.572 980.453 229.572C987.104 229.572 991.63 232.121 994.032 237.219C995.614 234.934 997.665 233.088 1000.18 231.682C1002.73 230.275 1005.74 229.572 1009.19 229.572C1019.62 229.572 1024.93 235.095 1025.1 246.14V278H1016.97V246.623C1016.97 243.225 1016.2 240.69 1014.64 239.021C1013.09 237.321 1010.48 236.472 1006.82 236.472C1003.8 236.472 1001.3 237.38 999.306 239.196C997.313 240.983 996.156 243.4 995.834 246.447V278H987.66V246.843C987.66 239.929 984.276 236.472 977.509 236.472C972.177 236.472 968.529 238.742 966.566 243.283V278H958.437V230.451H966.127ZM1057.14 278.879C1050.69 278.879 1045.45 276.77 1041.41 272.551C1037.36 268.303 1035.34 262.634 1035.34 255.544V254.05C1035.34 249.333 1036.23 245.129 1038.02 241.438C1039.84 237.717 1042.36 234.816 1045.58 232.736C1048.83 230.627 1052.35 229.572 1056.13 229.572C1062.31 229.572 1067.11 231.608 1070.54 235.681C1073.97 239.753 1075.68 245.583 1075.68 253.171V256.555H1043.47C1043.59 261.242 1044.95 265.036 1047.56 267.937C1050.19 270.808 1053.53 272.243 1057.58 272.243C1060.45 272.243 1062.88 271.657 1064.87 270.485C1066.86 269.313 1068.61 267.761 1070.1 265.827L1075.07 269.694C1071.08 275.817 1065.11 278.879 1057.14 278.879ZM1056.13 236.252C1052.85 236.252 1050.09 237.453 1047.87 239.855C1045.64 242.229 1044.26 245.568 1043.73 249.875H1067.55V249.26C1067.32 245.129 1066.21 241.936 1064.21 239.68C1062.22 237.395 1059.53 236.252 1056.13 236.252Z" fill="black"/>
<path d="M754.252 160.794L763.393 124.451H771.522L757.68 172H751.088L739.53 135.965L728.28 172H721.688L707.89 124.451H715.976L725.336 160.047L736.41 124.451H742.958L754.252 160.794ZM809.184 172C808.715 171.062 808.334 169.393 808.041 166.99C804.262 170.916 799.75 172.879 794.506 172.879C789.818 172.879 785.966 171.561 782.948 168.924C779.96 166.258 778.466 162.889 778.466 158.816C778.466 153.865 780.341 150.027 784.091 147.303C787.87 144.549 793.173 143.172 799.999 143.172H807.909V139.437C807.909 136.595 807.06 134.339 805.36 132.669C803.661 130.97 801.156 130.12 797.846 130.12C794.945 130.12 792.514 130.853 790.551 132.317C788.588 133.782 787.606 135.555 787.606 137.635H779.433C779.433 135.262 780.268 132.977 781.938 130.779C783.637 128.553 785.922 126.795 788.793 125.506C791.693 124.217 794.872 123.572 798.329 123.572C803.808 123.572 808.1 124.949 811.205 127.703C814.311 130.428 815.922 134.192 816.039 138.997V160.882C816.039 165.247 816.596 168.719 817.709 171.297V172H809.184ZM795.692 165.804C798.241 165.804 800.658 165.145 802.943 163.826C805.229 162.508 806.884 160.794 807.909 158.685V148.929H801.537C791.576 148.929 786.596 151.844 786.596 157.674C786.596 160.223 787.445 162.215 789.145 163.65C790.844 165.086 793.026 165.804 795.692 165.804ZM839.813 112.938V124.451H848.69V130.735H839.813V160.223C839.813 162.127 840.209 163.562 841 164.529C841.791 165.467 843.139 165.936 845.043 165.936C845.98 165.936 847.27 165.76 848.91 165.408V172C846.771 172.586 844.691 172.879 842.67 172.879C839.037 172.879 836.298 171.78 834.452 169.583C832.606 167.386 831.684 164.266 831.684 160.223V130.735H823.026V124.451H831.684V112.938H839.813ZM877.958 172.879C871.513 172.879 866.269 170.77 862.226 166.551C858.183 162.303 856.161 156.634 856.161 149.544V148.05C856.161 143.333 857.055 139.129 858.842 135.438C860.658 131.717 863.178 128.816 866.4 126.736C869.652 124.627 873.168 123.572 876.947 123.572C883.129 123.572 887.934 125.608 891.361 129.681C894.789 133.753 896.503 139.583 896.503 147.171V150.555H864.291C864.408 155.242 865.771 159.036 868.378 161.937C871.015 164.808 874.354 166.243 878.397 166.243C881.269 166.243 883.7 165.657 885.692 164.485C887.685 163.313 889.428 161.761 890.922 159.827L895.888 163.694C891.903 169.817 885.927 172.879 877.958 172.879ZM876.947 130.252C873.666 130.252 870.912 131.453 868.686 133.855C866.459 136.229 865.082 139.568 864.555 143.875H888.373V143.26C888.139 139.129 887.025 135.936 885.033 133.68C883.041 131.395 880.346 130.252 876.947 130.252ZM928.935 131.746C927.704 131.541 926.371 131.438 924.936 131.438C919.604 131.438 915.985 133.709 914.081 138.25V172H905.951V124.451H913.861L913.993 129.944C916.659 125.696 920.438 123.572 925.331 123.572C926.913 123.572 928.114 123.777 928.935 124.188V131.746ZM988.48 111.399C984.848 110.813 981.918 110.521 979.691 110.521C973.832 110.521 970.902 113.597 970.902 119.749V124.451H981.054V130.735H970.902V172H962.772V130.735H955.258V124.451H962.772V119.266C962.802 114.197 964.223 110.315 967.035 107.62C969.848 104.925 973.847 103.577 979.032 103.577C981.991 103.577 987.851 104.471 996.61 106.258V172H988.48V111.399ZM1007.77 147.786C1007.77 143.128 1008.68 138.938 1010.5 135.218C1012.34 131.497 1014.89 128.626 1018.14 126.604C1021.42 124.583 1025.16 123.572 1029.35 123.572C1035.82 123.572 1041.05 125.813 1045.04 130.296C1049.05 134.778 1051.06 140.74 1051.06 148.182V148.753C1051.06 153.382 1050.17 157.542 1048.38 161.233C1046.62 164.896 1044.09 167.752 1040.78 169.803C1037.49 171.854 1033.71 172.879 1029.44 172.879C1022.99 172.879 1017.76 170.638 1013.75 166.155C1009.76 161.673 1007.77 155.74 1007.77 148.357V147.786ZM1015.95 148.753C1015.95 154.026 1017.16 158.26 1019.59 161.453C1022.05 164.646 1025.34 166.243 1029.44 166.243C1033.57 166.243 1036.85 164.632 1039.28 161.409C1041.71 158.157 1042.93 153.616 1042.93 147.786C1042.93 142.571 1041.68 138.353 1039.19 135.13C1036.73 131.878 1033.45 130.252 1029.35 130.252C1025.34 130.252 1022.1 131.849 1019.64 135.042C1017.18 138.235 1015.95 142.806 1015.95 148.753ZM1103.35 160.794L1112.49 124.451H1120.62L1106.78 172H1100.19L1088.63 135.965L1077.38 172H1070.79L1056.99 124.451H1065.08L1074.44 160.047L1085.51 124.451H1092.06L1103.35 160.794ZM1178.94 159.388C1178.94 157.19 1178.1 155.491 1176.43 154.29C1174.79 153.06 1171.91 152.005 1167.78 151.126C1163.68 150.247 1160.41 149.192 1157.98 147.962C1155.58 146.731 1153.79 145.267 1152.62 143.567C1151.47 141.868 1150.9 139.847 1150.9 137.503C1150.9 133.606 1152.54 130.311 1155.82 127.615C1159.13 124.92 1163.35 123.572 1168.48 123.572C1173.87 123.572 1178.24 124.964 1181.58 127.747C1184.95 130.53 1186.63 134.09 1186.63 138.426H1178.46C1178.46 136.199 1177.5 134.28 1175.6 132.669C1173.72 131.058 1171.35 130.252 1168.48 130.252C1165.52 130.252 1163.21 130.896 1161.54 132.186C1159.87 133.475 1159.03 135.159 1159.03 137.239C1159.03 139.202 1159.81 140.682 1161.36 141.678C1162.91 142.674 1165.71 143.626 1169.75 144.534C1173.83 145.442 1177.12 146.526 1179.64 147.786C1182.16 149.046 1184.02 150.569 1185.22 152.356C1186.45 154.114 1187.07 156.268 1187.07 158.816C1187.07 163.064 1185.37 166.478 1181.97 169.056C1178.57 171.604 1174.16 172.879 1168.74 172.879C1164.94 172.879 1161.57 172.205 1158.64 170.857C1155.71 169.51 1153.41 167.635 1151.74 165.232C1150.1 162.801 1149.28 160.179 1149.28 157.366H1157.41C1157.55 160.091 1158.64 162.259 1160.66 163.87C1162.71 165.452 1165.4 166.243 1168.74 166.243C1171.82 166.243 1174.28 165.628 1176.13 164.397C1178 163.138 1178.94 161.468 1178.94 159.388ZM1237.83 148.753C1237.83 155.989 1236.17 161.819 1232.86 166.243C1229.55 170.667 1225.07 172.879 1219.41 172.879C1213.64 172.879 1209.1 171.048 1205.79 167.386V190.281H1197.66V124.451H1205.09L1205.48 129.725C1208.79 125.623 1213.39 123.572 1219.28 123.572C1224.99 123.572 1229.51 125.726 1232.82 130.032C1236.16 134.339 1237.83 140.33 1237.83 148.006V148.753ZM1229.7 147.83C1229.7 142.469 1228.55 138.235 1226.27 135.13C1223.98 132.024 1220.85 130.472 1216.86 130.472C1211.94 130.472 1208.25 132.654 1205.79 137.02V159.739C1208.22 164.075 1211.94 166.243 1216.95 166.243C1220.85 166.243 1223.94 164.705 1226.22 161.629C1228.54 158.523 1229.7 153.924 1229.7 147.83ZM1267.93 172.879C1261.48 172.879 1256.24 170.77 1252.2 166.551C1248.15 162.303 1246.13 156.634 1246.13 149.544V148.05C1246.13 143.333 1247.03 139.129 1248.81 135.438C1250.63 131.717 1253.15 128.816 1256.37 126.736C1259.62 124.627 1263.14 123.572 1266.92 123.572C1273.1 123.572 1277.9 125.608 1281.33 129.681C1284.76 133.753 1286.47 139.583 1286.47 147.171V150.555H1254.26C1254.38 155.242 1255.74 159.036 1258.35 161.937C1260.99 164.808 1264.33 166.243 1268.37 166.243C1271.24 166.243 1273.67 165.657 1275.66 164.485C1277.66 163.313 1279.4 161.761 1280.89 159.827L1285.86 163.694C1281.87 169.817 1275.9 172.879 1267.93 172.879ZM1266.92 130.252C1263.64 130.252 1260.88 131.453 1258.66 133.855C1256.43 136.229 1255.05 139.568 1254.53 143.875H1278.34V143.26C1278.11 139.129 1277 135.936 1275 133.68C1273.01 131.395 1270.32 130.252 1266.92 130.252ZM1315.65 172.879C1309.21 172.879 1303.96 170.77 1299.92 166.551C1295.88 162.303 1293.86 156.634 1293.86 149.544V148.05C1293.86 143.333 1294.75 139.129 1296.54 135.438C1298.35 131.717 1300.87 128.816 1304.1 126.736C1307.35 124.627 1310.86 123.572 1314.64 123.572C1320.82 123.572 1325.63 125.608 1329.06 129.681C1332.48 133.753 1334.2 139.583 1334.2 147.171V150.555H1301.99C1302.1 155.242 1303.47 159.036 1306.07 161.937C1308.71 164.808 1312.05 166.243 1316.09 166.243C1318.96 166.243 1321.4 165.657 1323.39 164.485C1325.38 163.313 1327.12 161.761 1328.62 159.827L1333.58 163.694C1329.6 169.817 1323.62 172.879 1315.65 172.879ZM1314.64 130.252C1311.36 130.252 1308.61 131.453 1306.38 133.855C1304.15 136.229 1302.78 139.568 1302.25 143.875H1326.07V143.26C1325.83 139.129 1324.72 135.936 1322.73 133.68C1320.74 131.395 1318.04 130.252 1314.64 130.252ZM1341.67 147.83C1341.67 140.535 1343.4 134.676 1346.85 130.252C1350.31 125.799 1354.84 123.572 1360.43 123.572C1366 123.572 1370.41 125.477 1373.66 129.285V104.5H1381.79V172H1374.32L1373.92 166.902C1370.67 170.887 1366.15 172.879 1360.35 172.879C1354.84 172.879 1350.34 170.623 1346.85 166.111C1343.4 161.6 1341.67 155.711 1341.67 148.445V147.83ZM1349.8 148.753C1349.8 154.144 1350.91 158.362 1353.14 161.409C1355.37 164.456 1358.44 165.979 1362.37 165.979C1367.52 165.979 1371.29 163.665 1373.66 159.036V137.195C1371.23 132.713 1367.49 130.472 1362.46 130.472C1358.47 130.472 1355.37 132.01 1353.14 135.086C1350.91 138.162 1349.8 142.718 1349.8 148.753Z" fill="black"/>
</svg>