<svg width="831" height="865" viewBox="0 0 831 865" fill="none" xmlns="http://www.w3.org/2000/svg">
<rect width="831" height="865" fill="white"/>
<path d="M425.5 230.501L698.5 230.5" stroke="black" stroke-width="13"/>
<path d="M114.838 239.388C114.838 237.19 114.003 235.491 112.333 234.29C110.692 233.06 107.807 232.005 103.676 231.126C99.5742 230.247 96.3076 229.192 93.876 227.962C91.4736 226.731 89.6865 225.267 88.5146 223.567C87.3721 221.868 86.8008 219.847 86.8008 217.503C86.8008 213.606 88.4414 210.311 91.7227 207.615C95.0332 204.92 99.252 203.572 104.379 203.572C109.77 203.572 114.135 204.964 117.475 207.747C120.844 210.53 122.528 214.09 122.528 218.426H114.354C114.354 216.199 113.402 214.28 111.498 212.669C109.623 211.058 107.25 210.252 104.379 210.252C101.42 210.252 99.1055 210.896 97.4355 212.186C95.7656 213.475 94.9307 215.159 94.9307 217.239C94.9307 219.202 95.707 220.682 97.2598 221.678C98.8125 222.674 101.61 223.626 105.653 224.534C109.726 225.442 113.021 226.526 115.541 227.786C118.061 229.046 119.921 230.569 121.122 232.356C122.353 234.114 122.968 236.268 122.968 238.816C122.968 243.064 121.269 246.478 117.87 249.056C114.472 251.604 110.062 252.879 104.643 252.879C100.834 252.879 97.4648 252.205 94.5352 250.857C91.6055 249.51 89.3057 247.635 87.6357 245.232C85.9951 242.801 85.1748 240.179 85.1748 237.366H93.3047C93.4512 240.091 94.5352 242.259 96.5566 243.87C98.6074 245.452 101.303 246.243 104.643 246.243C107.719 246.243 110.18 245.628 112.025 244.397C113.9 243.138 114.838 241.468 114.838 239.388ZM170.736 216.229H134.086V209.153H170.736V216.229ZM170.736 234.466H134.086V227.435H170.736V234.466ZM227.733 240.794L246.015 188.016H255.243L231.513 252H224.042L200.355 188.016H209.54L227.733 240.794ZM258.407 227.786C258.407 223.128 259.315 218.938 261.132 215.218C262.978 211.497 265.526 208.626 268.778 206.604C272.06 204.583 275.795 203.572 279.984 203.572C286.459 203.572 291.688 205.813 295.673 210.296C299.687 214.778 301.693 220.74 301.693 228.182V228.753C301.693 233.382 300.8 237.542 299.013 241.233C297.255 244.896 294.721 247.752 291.41 249.803C288.129 251.854 284.35 252.879 280.072 252.879C273.627 252.879 268.397 250.638 264.384 246.155C260.399 241.673 258.407 235.74 258.407 228.357V227.786ZM266.581 228.753C266.581 234.026 267.797 238.26 270.229 241.453C272.689 244.646 275.971 246.243 280.072 246.243C284.203 246.243 287.484 244.632 289.916 241.409C292.348 238.157 293.563 233.616 293.563 227.786C293.563 222.571 292.318 218.353 289.828 215.13C287.367 211.878 284.086 210.252 279.984 210.252C275.971 210.252 272.733 211.849 270.272 215.042C267.812 218.235 266.581 222.806 266.581 228.753ZM322.919 192.938V204.451H331.796V210.735H322.919V240.223C322.919 242.127 323.314 243.562 324.105 244.529C324.896 245.467 326.244 245.936 328.148 245.936C329.086 245.936 330.375 245.76 332.016 245.408V252C329.877 252.586 327.797 252.879 325.775 252.879C322.143 252.879 319.403 251.78 317.558 249.583C315.712 247.386 314.789 244.266 314.789 240.223V210.735H306.132V204.451H314.789V192.938H322.919ZM386.947 217.679H404.789V225.369H386.947V245.584H378.773V225.369H360.932V217.679H378.773V199.002H386.947V217.679Z" fill="black"/>
<path d="M601.241 334H559.317V328.155L581.466 303.546C584.747 299.825 587.003 296.808 588.233 294.493C589.493 292.149 590.123 289.732 590.123 287.242C590.123 283.902 589.112 281.163 587.091 279.024C585.069 276.886 582.374 275.816 579.005 275.816C574.962 275.816 571.812 276.974 569.557 279.288C567.33 281.573 566.217 284.767 566.217 288.868H558.087C558.087 282.979 559.977 278.219 563.756 274.586C567.564 270.953 572.647 269.137 579.005 269.137C584.952 269.137 589.654 270.704 593.111 273.839C596.568 276.944 598.297 281.09 598.297 286.275C598.297 292.574 594.283 300.074 586.256 308.775L569.117 327.364H601.241V334Z" fill="black"/>
<path d="M538.508 198C538.039 197.062 537.658 195.393 537.365 192.99C533.586 196.916 529.074 198.879 523.83 198.879C519.143 198.879 515.29 197.561 512.272 194.924C509.284 192.258 507.79 188.889 507.79 184.816C507.79 179.865 509.665 176.027 513.415 173.303C517.194 170.549 522.497 169.172 529.323 169.172H537.233V165.437C537.233 162.595 536.384 160.339 534.685 158.669C532.985 156.97 530.48 156.12 527.17 156.12C524.27 156.12 521.838 156.853 519.875 158.317C517.912 159.782 516.931 161.555 516.931 163.635H508.757C508.757 161.262 509.592 158.977 511.262 156.779C512.961 154.553 515.246 152.795 518.117 151.506C521.018 150.217 524.196 149.572 527.653 149.572C533.132 149.572 537.424 150.949 540.529 153.703C543.635 156.428 545.246 160.192 545.363 164.997V186.882C545.363 191.247 545.92 194.719 547.033 197.297V198H538.508ZM525.017 191.804C527.565 191.804 529.982 191.145 532.268 189.826C534.553 188.508 536.208 186.794 537.233 184.685V174.929H530.861C520.9 174.929 515.92 177.844 515.92 183.674C515.92 186.223 516.77 188.215 518.469 189.65C520.168 191.086 522.351 191.804 525.017 191.804ZM569.138 138.938V150.451H578.015V156.735H569.138V186.223C569.138 188.127 569.533 189.562 570.324 190.529C571.115 191.467 572.463 191.936 574.367 191.936C575.305 191.936 576.594 191.76 578.234 191.408V198C576.096 198.586 574.016 198.879 571.994 198.879C568.361 198.879 565.622 197.78 563.776 195.583C561.931 193.386 561.008 190.266 561.008 186.223V156.735H552.351V150.451H561.008V138.938H569.138Z" fill="black"/>
<path d="M658.494 153H630.545V149.104L645.311 132.697C647.498 130.217 649.002 128.205 649.822 126.662C650.662 125.1 651.082 123.488 651.082 121.828C651.082 119.602 650.408 117.775 649.061 116.35C647.713 114.924 645.916 114.211 643.67 114.211C640.975 114.211 638.875 114.982 637.371 116.525C635.887 118.049 635.145 120.178 635.145 122.912H629.725C629.725 118.986 630.984 115.812 633.504 113.391C636.043 110.969 639.432 109.758 643.67 109.758C647.635 109.758 650.77 110.803 653.074 112.893C655.379 114.963 656.531 117.727 656.531 121.184C656.531 125.383 653.855 130.383 648.504 136.184L637.078 148.576H658.494V153Z" fill="black"/>
<path d="M113.608 429.794L131.89 377.016H141.118L117.388 441H109.917L86.2305 377.016H95.415L113.608 429.794ZM172.598 422.807C172.598 429.154 171.514 433.871 169.346 436.957C167.178 440.043 163.789 441.586 159.18 441.586C154.629 441.586 151.26 440.082 149.072 437.074C146.885 434.047 145.752 429.535 145.674 423.539V416.303C145.674 410.033 146.758 405.375 148.926 402.328C151.094 399.281 154.492 397.758 159.121 397.758C163.711 397.758 167.09 399.232 169.258 402.182C171.426 405.111 172.539 409.643 172.598 415.775V422.807ZM167.178 415.395C167.178 410.805 166.533 407.465 165.244 405.375C163.955 403.266 161.914 402.211 159.121 402.211C156.348 402.211 154.326 403.256 153.057 405.346C151.787 407.436 151.133 410.648 151.094 414.984V423.656C151.094 428.266 151.758 431.674 153.086 433.881C154.434 436.068 156.465 437.162 159.18 437.162C161.855 437.162 163.838 436.127 165.127 434.057C166.436 431.986 167.119 428.725 167.178 424.271V415.395ZM234.355 409.203H201.777V402.914H234.355V409.203ZM234.355 425.414H201.777V419.164H234.355V425.414ZM282.949 415.648C276.517 413.799 271.829 411.534 268.887 408.852C265.97 406.143 264.512 402.81 264.512 398.852C264.512 394.372 266.296 390.674 269.863 387.758C273.457 384.815 278.118 383.344 283.848 383.344C287.754 383.344 291.23 384.099 294.277 385.609C297.35 387.12 299.72 389.203 301.387 391.859C303.079 394.516 303.926 397.419 303.926 400.57H296.387C296.387 397.133 295.293 394.438 293.105 392.484C290.918 390.505 287.832 389.516 283.848 389.516C280.15 389.516 277.259 390.336 275.176 391.977C273.118 393.591 272.09 395.844 272.09 398.734C272.09 401.052 273.066 403.018 275.02 404.633C276.999 406.221 280.345 407.68 285.059 409.008C289.798 410.336 293.496 411.807 296.152 413.422C298.835 415.01 300.814 416.872 302.09 419.008C303.392 421.143 304.043 423.656 304.043 426.547C304.043 431.156 302.246 434.854 298.652 437.641C295.059 440.401 290.254 441.781 284.238 441.781C280.332 441.781 276.686 441.039 273.301 439.555C269.915 438.044 267.298 435.987 265.449 433.383C263.626 430.779 262.715 427.823 262.715 424.516H270.254C270.254 427.953 271.517 430.674 274.043 432.68C276.595 434.659 279.993 435.648 284.238 435.648C288.197 435.648 291.23 434.841 293.34 433.227C295.449 431.612 296.504 429.411 296.504 426.625C296.504 423.839 295.527 421.69 293.574 420.18C291.621 418.643 288.079 417.133 282.949 415.648ZM322.363 388.5V398.734H330.254V404.32H322.363V430.531C322.363 432.224 322.715 433.5 323.418 434.359C324.121 435.193 325.319 435.609 327.012 435.609C327.845 435.609 328.991 435.453 330.449 435.141V441C328.548 441.521 326.699 441.781 324.902 441.781C321.673 441.781 319.238 440.805 317.598 438.852C315.957 436.898 315.137 434.125 315.137 430.531V404.32H307.441V398.734H315.137V388.5H322.363ZM359.16 405.219C358.066 405.036 356.882 404.945 355.605 404.945C350.866 404.945 347.65 406.964 345.957 411V441H338.73V398.734H345.762L345.879 403.617C348.249 399.841 351.608 397.953 355.957 397.953C357.363 397.953 358.431 398.135 359.16 398.5V405.219ZM390.371 441C389.954 440.167 389.616 438.682 389.355 436.547C385.996 440.036 381.986 441.781 377.324 441.781C373.158 441.781 369.733 440.609 367.051 438.266C364.395 435.896 363.066 432.901 363.066 429.281C363.066 424.88 364.733 421.469 368.066 419.047C371.426 416.599 376.139 415.375 382.207 415.375H389.238V412.055C389.238 409.529 388.483 407.523 386.973 406.039C385.462 404.529 383.236 403.773 380.293 403.773C377.715 403.773 375.553 404.424 373.809 405.727C372.064 407.029 371.191 408.604 371.191 410.453H363.926C363.926 408.344 364.668 406.312 366.152 404.359C367.663 402.38 369.694 400.818 372.246 399.672C374.824 398.526 377.65 397.953 380.723 397.953C385.592 397.953 389.408 399.177 392.168 401.625C394.928 404.047 396.361 407.393 396.465 411.664V431.117C396.465 434.997 396.96 438.083 397.949 440.375V441H390.371ZM378.379 435.492C380.645 435.492 382.793 434.906 384.824 433.734C386.855 432.562 388.327 431.039 389.238 429.164V420.492H383.574C374.72 420.492 370.293 423.083 370.293 428.266C370.293 430.531 371.048 432.302 372.559 433.578C374.069 434.854 376.009 435.492 378.379 435.492ZM428.223 405.219C427.129 405.036 425.944 404.945 424.668 404.945C419.928 404.945 416.712 406.964 415.02 411V441H407.793V398.734H414.824L414.941 403.617C417.311 399.841 420.671 397.953 425.02 397.953C426.426 397.953 427.493 398.135 428.223 398.5V405.219ZM446.66 388.5V398.734H454.551V404.32H446.66V430.531C446.66 432.224 447.012 433.5 447.715 434.359C448.418 435.193 449.616 435.609 451.309 435.609C452.142 435.609 453.288 435.453 454.746 435.141V441C452.845 441.521 450.996 441.781 449.199 441.781C445.97 441.781 443.535 440.805 441.895 438.852C440.254 436.898 439.434 434.125 439.434 430.531V404.32H431.738V398.734H439.434V388.5H446.66ZM470.879 441H463.652V398.734H470.879V441ZM463.066 387.523C463.066 386.352 463.418 385.362 464.121 384.555C464.85 383.747 465.918 383.344 467.324 383.344C468.73 383.344 469.798 383.747 470.527 384.555C471.257 385.362 471.621 386.352 471.621 387.523C471.621 388.695 471.257 389.672 470.527 390.453C469.798 391.234 468.73 391.625 467.324 391.625C465.918 391.625 464.85 391.234 464.121 390.453C463.418 389.672 463.066 388.695 463.066 387.523ZM489.316 398.734L489.551 404.047C492.78 399.984 496.999 397.953 502.207 397.953C511.139 397.953 515.645 402.992 515.723 413.07V441H508.496V413.031C508.47 409.984 507.767 407.732 506.387 406.273C505.033 404.815 502.91 404.086 500.02 404.086C497.676 404.086 495.618 404.711 493.848 405.961C492.077 407.211 490.697 408.852 489.707 410.883V441H482.48V398.734H489.316ZM524.902 419.516C524.902 412.927 526.426 407.693 529.473 403.812C532.52 399.906 536.556 397.953 541.582 397.953C546.738 397.953 550.762 399.776 553.652 403.422L554.004 398.734H560.605V439.984C560.605 445.453 558.978 449.763 555.723 452.914C552.493 456.065 548.145 457.641 542.676 457.641C539.629 457.641 536.647 456.99 533.73 455.688C530.814 454.385 528.587 452.602 527.051 450.336L530.801 446C533.9 449.828 537.689 451.742 542.168 451.742C545.684 451.742 548.418 450.753 550.371 448.773C552.35 446.794 553.34 444.008 553.34 440.414V436.781C550.449 440.115 546.504 441.781 541.504 441.781C536.556 441.781 532.546 439.789 529.473 435.805C526.426 431.82 524.902 426.391 524.902 419.516ZM532.168 420.336C532.168 425.102 533.145 428.852 535.098 431.586C537.051 434.294 539.785 435.648 543.301 435.648C547.858 435.648 551.204 433.578 553.34 429.438V410.141C551.126 406.104 547.806 404.086 543.379 404.086C539.863 404.086 537.116 405.453 535.137 408.188C533.158 410.922 532.168 414.971 532.168 420.336ZM615.996 429.789C615.996 427.836 615.254 426.326 613.77 425.258C612.311 424.164 609.746 423.227 606.074 422.445C602.428 421.664 599.525 420.727 597.363 419.633C595.228 418.539 593.639 417.237 592.598 415.727C591.582 414.216 591.074 412.419 591.074 410.336C591.074 406.872 592.533 403.943 595.449 401.547C598.392 399.151 602.142 397.953 606.699 397.953C611.491 397.953 615.371 399.19 618.34 401.664C621.335 404.138 622.832 407.302 622.832 411.156H615.566C615.566 409.177 614.72 407.471 613.027 406.039C611.361 404.607 609.251 403.891 606.699 403.891C604.069 403.891 602.012 404.464 600.527 405.609C599.043 406.755 598.301 408.253 598.301 410.102C598.301 411.846 598.991 413.161 600.371 414.047C601.751 414.932 604.238 415.779 607.832 416.586C611.452 417.393 614.382 418.357 616.621 419.477C618.861 420.596 620.514 421.951 621.582 423.539C622.676 425.102 623.223 427.016 623.223 429.281C623.223 433.057 621.712 436.091 618.691 438.383C615.671 440.648 611.751 441.781 606.934 441.781C603.548 441.781 600.553 441.182 597.949 439.984C595.345 438.786 593.301 437.12 591.816 434.984C590.358 432.823 589.629 430.492 589.629 427.992H596.855C596.986 430.414 597.949 432.341 599.746 433.773C601.569 435.18 603.965 435.883 606.934 435.883C609.668 435.883 611.855 435.336 613.496 434.242C615.163 433.122 615.996 431.638 615.996 429.789ZM668.34 420.336C668.34 426.768 666.868 431.951 663.926 435.883C660.983 439.815 656.999 441.781 651.973 441.781C646.842 441.781 642.806 440.154 639.863 436.898V457.25H632.637V398.734H639.238L639.59 403.422C642.533 399.776 646.621 397.953 651.855 397.953C656.934 397.953 660.944 399.867 663.887 403.695C666.855 407.523 668.34 412.849 668.34 419.672V420.336ZM661.113 419.516C661.113 414.75 660.098 410.987 658.066 408.227C656.035 405.466 653.249 404.086 649.707 404.086C645.332 404.086 642.051 406.026 639.863 409.906V430.102C642.025 433.956 645.332 435.883 649.785 435.883C653.249 435.883 655.996 434.516 658.027 431.781C660.085 429.021 661.113 424.932 661.113 419.516ZM695.098 441.781C689.368 441.781 684.707 439.906 681.113 436.156C677.52 432.38 675.723 427.341 675.723 421.039V419.711C675.723 415.518 676.517 411.781 678.105 408.5C679.72 405.193 681.96 402.615 684.824 400.766C687.715 398.891 690.84 397.953 694.199 397.953C699.694 397.953 703.965 399.763 707.012 403.383C710.059 407.003 711.582 412.185 711.582 418.93V421.938H682.949C683.053 426.104 684.264 429.477 686.582 432.055C688.926 434.607 691.895 435.883 695.488 435.883C698.04 435.883 700.202 435.362 701.973 434.32C703.743 433.279 705.293 431.898 706.621 430.18L711.035 433.617C707.493 439.06 702.181 441.781 695.098 441.781ZM694.199 403.891C691.283 403.891 688.835 404.958 686.855 407.094C684.876 409.203 683.652 412.172 683.184 416H704.355V415.453C704.147 411.781 703.158 408.943 701.387 406.938C699.616 404.906 697.22 403.891 694.199 403.891ZM737.52 441.781C731.79 441.781 727.129 439.906 723.535 436.156C719.941 432.38 718.145 427.341 718.145 421.039V419.711C718.145 415.518 718.939 411.781 720.527 408.5C722.142 405.193 724.382 402.615 727.246 400.766C730.137 398.891 733.262 397.953 736.621 397.953C742.116 397.953 746.387 399.763 749.434 403.383C752.48 407.003 754.004 412.185 754.004 418.93V421.938H725.371C725.475 426.104 726.686 429.477 729.004 432.055C731.348 434.607 734.316 435.883 737.91 435.883C740.462 435.883 742.624 435.362 744.395 434.32C746.165 433.279 747.715 431.898 749.043 430.18L753.457 433.617C749.915 439.06 744.603 441.781 737.52 441.781ZM736.621 403.891C733.704 403.891 731.257 404.958 729.277 407.094C727.298 409.203 726.074 412.172 725.605 416H746.777V415.453C746.569 411.781 745.579 408.943 743.809 406.938C742.038 404.906 739.642 403.891 736.621 403.891ZM760.645 419.516C760.645 413.031 762.181 407.823 765.254 403.891C768.327 399.932 772.35 397.953 777.324 397.953C782.272 397.953 786.191 399.646 789.082 403.031V381H796.309V441H789.668L789.316 436.469C786.426 440.01 782.402 441.781 777.246 441.781C772.35 441.781 768.353 439.776 765.254 435.766C762.181 431.755 760.645 426.521 760.645 420.062V419.516ZM767.871 420.336C767.871 425.128 768.861 428.878 770.84 431.586C772.819 434.294 775.553 435.648 779.043 435.648C783.626 435.648 786.973 433.591 789.082 429.477V410.062C786.921 406.078 783.6 404.086 779.121 404.086C775.579 404.086 772.819 405.453 770.84 408.188C768.861 410.922 767.871 414.971 767.871 420.336Z" fill="black"/>
<path d="M116.508 577C116.039 576.062 115.658 574.393 115.365 571.99C111.586 575.916 107.074 577.879 101.83 577.879C97.1426 577.879 93.29 576.561 90.2725 573.924C87.2842 571.258 85.79 567.889 85.79 563.816C85.79 558.865 87.665 555.027 91.415 552.303C95.1943 549.549 100.497 548.172 107.323 548.172H115.233V544.437C115.233 541.595 114.384 539.339 112.685 537.669C110.985 535.97 108.48 535.12 105.17 535.12C102.27 535.12 99.8379 535.853 97.875 537.317C95.9121 538.782 94.9307 540.555 94.9307 542.635H86.7568C86.7568 540.262 87.5918 537.977 89.2617 535.779C90.9609 533.553 93.2461 531.795 96.1172 530.506C99.0176 529.217 102.196 528.572 105.653 528.572C111.132 528.572 115.424 529.949 118.529 532.703C121.635 535.428 123.246 539.192 123.363 543.997V565.882C123.363 570.247 123.92 573.719 125.033 576.297V577H116.508ZM103.017 570.804C105.565 570.804 107.982 570.145 110.268 568.826C112.553 567.508 114.208 565.794 115.233 563.685V553.929H108.861C98.9004 553.929 93.9199 556.844 93.9199 562.674C93.9199 565.223 94.7695 567.215 96.4688 568.65C98.168 570.086 100.351 570.804 103.017 570.804ZM188.314 545.203H155.736V538.914H188.314V545.203ZM188.314 561.414H155.736V555.164H188.314V561.414ZM245.111 577C244.695 576.167 244.356 574.682 244.096 572.547C240.736 576.036 236.726 577.781 232.064 577.781C227.898 577.781 224.473 576.609 221.791 574.266C219.135 571.896 217.807 568.901 217.807 565.281C217.807 560.88 219.473 557.469 222.807 555.047C226.166 552.599 230.88 551.375 236.947 551.375H243.979V548.055C243.979 545.529 243.223 543.523 241.713 542.039C240.202 540.529 237.976 539.773 235.033 539.773C232.455 539.773 230.294 540.424 228.549 541.727C226.804 543.029 225.932 544.604 225.932 546.453H218.666C218.666 544.344 219.408 542.312 220.893 540.359C222.403 538.38 224.434 536.818 226.986 535.672C229.564 534.526 232.39 533.953 235.463 533.953C240.333 533.953 244.148 535.177 246.908 537.625C249.669 540.047 251.101 543.393 251.205 547.664V567.117C251.205 570.997 251.7 574.083 252.689 576.375V577H245.111ZM233.119 571.492C235.385 571.492 237.533 570.906 239.564 569.734C241.596 568.562 243.067 567.039 243.979 565.164V556.492H238.314C229.46 556.492 225.033 559.083 225.033 564.266C225.033 566.531 225.788 568.302 227.299 569.578C228.809 570.854 230.749 571.492 233.119 571.492ZM279.486 571.883C282.064 571.883 284.317 571.102 286.244 569.539C288.171 567.977 289.239 566.023 289.447 563.68H296.283C296.153 566.102 295.32 568.406 293.783 570.594C292.247 572.781 290.189 574.526 287.611 575.828C285.059 577.13 282.351 577.781 279.486 577.781C273.731 577.781 269.148 575.867 265.736 572.039C262.351 568.185 260.658 562.924 260.658 556.258V555.047C260.658 550.932 261.413 547.273 262.924 544.07C264.434 540.867 266.596 538.38 269.408 536.609C272.247 534.839 275.593 533.953 279.447 533.953C284.187 533.953 288.119 535.372 291.244 538.211C294.395 541.049 296.075 544.734 296.283 549.266H289.447C289.239 546.531 288.197 544.292 286.322 542.547C284.473 540.776 282.182 539.891 279.447 539.891C275.775 539.891 272.924 541.219 270.893 543.875C268.887 546.505 267.885 550.32 267.885 555.32V556.688C267.885 561.557 268.887 565.307 270.893 567.938C272.898 570.568 275.762 571.883 279.486 571.883ZM321.361 571.883C323.939 571.883 326.192 571.102 328.119 569.539C330.046 567.977 331.114 566.023 331.322 563.68H338.158C338.028 566.102 337.195 568.406 335.658 570.594C334.122 572.781 332.064 574.526 329.486 575.828C326.934 577.13 324.226 577.781 321.361 577.781C315.606 577.781 311.023 575.867 307.611 572.039C304.226 568.185 302.533 562.924 302.533 556.258V555.047C302.533 550.932 303.288 547.273 304.799 544.07C306.309 540.867 308.471 538.38 311.283 536.609C314.122 534.839 317.468 533.953 321.322 533.953C326.062 533.953 329.994 535.372 333.119 538.211C336.27 541.049 337.95 544.734 338.158 549.266H331.322C331.114 546.531 330.072 544.292 328.197 542.547C326.348 540.776 324.057 539.891 321.322 539.891C317.65 539.891 314.799 541.219 312.768 543.875C310.762 546.505 309.76 550.32 309.76 555.32V556.688C309.76 561.557 310.762 565.307 312.768 567.938C314.773 570.568 317.637 571.883 321.361 571.883ZM363.822 577.781C358.093 577.781 353.432 575.906 349.838 572.156C346.244 568.38 344.447 563.341 344.447 557.039V555.711C344.447 551.518 345.242 547.781 346.83 544.5C348.445 541.193 350.684 538.615 353.549 536.766C356.439 534.891 359.564 533.953 362.924 533.953C368.419 533.953 372.689 535.763 375.736 539.383C378.783 543.003 380.307 548.185 380.307 554.93V557.938H351.674C351.778 562.104 352.989 565.477 355.307 568.055C357.65 570.607 360.619 571.883 364.213 571.883C366.765 571.883 368.926 571.362 370.697 570.32C372.468 569.279 374.018 567.898 375.346 566.18L379.76 569.617C376.218 575.06 370.906 577.781 363.822 577.781ZM362.924 539.891C360.007 539.891 357.559 540.958 355.58 543.094C353.601 545.203 352.377 548.172 351.908 552H373.08V551.453C372.872 547.781 371.882 544.943 370.111 542.938C368.34 540.906 365.945 539.891 362.924 539.891ZM396.557 577H389.33V517H396.557V577ZM425.697 577.781C419.968 577.781 415.307 575.906 411.713 572.156C408.119 568.38 406.322 563.341 406.322 557.039V555.711C406.322 551.518 407.117 547.781 408.705 544.5C410.32 541.193 412.559 538.615 415.424 536.766C418.314 534.891 421.439 533.953 424.799 533.953C430.294 533.953 434.564 535.763 437.611 539.383C440.658 543.003 442.182 548.185 442.182 554.93V557.938H413.549C413.653 562.104 414.864 565.477 417.182 568.055C419.525 570.607 422.494 571.883 426.088 571.883C428.64 571.883 430.801 571.362 432.572 570.32C434.343 569.279 435.893 567.898 437.221 566.18L441.635 569.617C438.093 575.06 432.781 577.781 425.697 577.781ZM424.799 539.891C421.882 539.891 419.434 540.958 417.455 543.094C415.476 545.203 414.252 548.172 413.783 552H434.955V551.453C434.747 547.781 433.757 544.943 431.986 542.938C430.215 540.906 427.82 539.891 424.799 539.891ZM471.01 541.219C469.916 541.036 468.731 540.945 467.455 540.945C462.715 540.945 459.499 542.964 457.807 547V577H450.58V534.734H457.611L457.729 539.617C460.098 535.841 463.458 533.953 467.807 533.953C469.213 533.953 470.281 534.135 471.01 534.5V541.219ZM502.221 577C501.804 576.167 501.465 574.682 501.205 572.547C497.846 576.036 493.835 577.781 489.174 577.781C485.007 577.781 481.583 576.609 478.9 574.266C476.244 571.896 474.916 568.901 474.916 565.281C474.916 560.88 476.583 557.469 479.916 555.047C483.275 552.599 487.989 551.375 494.057 551.375H501.088V548.055C501.088 545.529 500.333 543.523 498.822 542.039C497.312 540.529 495.085 539.773 492.143 539.773C489.564 539.773 487.403 540.424 485.658 541.727C483.913 543.029 483.041 544.604 483.041 546.453H475.775C475.775 544.344 476.518 542.312 478.002 540.359C479.512 538.38 481.544 536.818 484.096 535.672C486.674 534.526 489.499 533.953 492.572 533.953C497.442 533.953 501.257 535.177 504.018 537.625C506.778 540.047 508.21 543.393 508.314 547.664V567.117C508.314 570.997 508.809 574.083 509.799 576.375V577H502.221ZM490.229 571.492C492.494 571.492 494.643 570.906 496.674 569.734C498.705 568.562 500.176 567.039 501.088 565.164V556.492H495.424C486.57 556.492 482.143 559.083 482.143 564.266C482.143 566.531 482.898 568.302 484.408 569.578C485.919 570.854 487.859 571.492 490.229 571.492ZM529.447 524.5V534.734H537.338V540.32H529.447V566.531C529.447 568.224 529.799 569.5 530.502 570.359C531.205 571.193 532.403 571.609 534.096 571.609C534.929 571.609 536.075 571.453 537.533 571.141V577C535.632 577.521 533.783 577.781 531.986 577.781C528.757 577.781 526.322 576.805 524.682 574.852C523.041 572.898 522.221 570.125 522.221 566.531V540.32H514.525V534.734H522.221V524.5H529.447ZM553.666 577H546.439V534.734H553.666V577ZM545.854 523.523C545.854 522.352 546.205 521.362 546.908 520.555C547.637 519.747 548.705 519.344 550.111 519.344C551.518 519.344 552.585 519.747 553.314 520.555C554.044 521.362 554.408 522.352 554.408 523.523C554.408 524.695 554.044 525.672 553.314 526.453C552.585 527.234 551.518 527.625 550.111 527.625C548.705 527.625 547.637 527.234 546.908 526.453C546.205 525.672 545.854 524.695 545.854 523.523ZM563.354 555.477C563.354 551.336 564.161 547.612 565.775 544.305C567.416 540.997 569.682 538.445 572.572 536.648C575.489 534.852 578.809 533.953 582.533 533.953C588.288 533.953 592.937 535.945 596.479 539.93C600.046 543.914 601.83 549.214 601.83 555.828V556.336C601.83 560.451 601.036 564.148 599.447 567.43C597.885 570.685 595.632 573.224 592.689 575.047C589.773 576.87 586.413 577.781 582.611 577.781C576.882 577.781 572.234 575.789 568.666 571.805C565.124 567.82 563.354 562.547 563.354 555.984V555.477ZM570.619 556.336C570.619 561.023 571.7 564.786 573.861 567.625C576.049 570.464 578.965 571.883 582.611 571.883C586.283 571.883 589.2 570.451 591.361 567.586C593.523 564.695 594.604 560.659 594.604 555.477C594.604 550.841 593.497 547.091 591.283 544.227C589.096 541.336 586.179 539.891 582.533 539.891C578.965 539.891 576.088 541.31 573.9 544.148C571.713 546.987 570.619 551.049 570.619 556.336ZM617.729 534.734L617.963 540.047C621.192 535.984 625.411 533.953 630.619 533.953C639.551 533.953 644.057 538.992 644.135 549.07V577H636.908V549.031C636.882 545.984 636.179 543.732 634.799 542.273C633.445 540.815 631.322 540.086 628.432 540.086C626.088 540.086 624.031 540.711 622.26 541.961C620.489 543.211 619.109 544.852 618.119 546.883V577H610.893V534.734H617.729Z" fill="black"/>
<path d="M111.078 692.789C111.078 690.836 110.336 689.326 108.852 688.258C107.393 687.164 104.828 686.227 101.156 685.445C97.5104 684.664 94.6068 683.727 92.4453 682.633C90.3099 681.539 88.7214 680.237 87.6797 678.727C86.6641 677.216 86.1562 675.419 86.1562 673.336C86.1562 669.872 87.6146 666.943 90.5312 664.547C93.474 662.151 97.224 660.953 101.781 660.953C106.573 660.953 110.453 662.19 113.422 664.664C116.417 667.138 117.914 670.302 117.914 674.156H110.648C110.648 672.177 109.802 670.471 108.109 669.039C106.443 667.607 104.333 666.891 101.781 666.891C99.151 666.891 97.0938 667.464 95.6094 668.609C94.125 669.755 93.3828 671.253 93.3828 673.102C93.3828 674.846 94.0729 676.161 95.4531 677.047C96.8333 677.932 99.3203 678.779 102.914 679.586C106.534 680.393 109.464 681.357 111.703 682.477C113.943 683.596 115.596 684.951 116.664 686.539C117.758 688.102 118.305 690.016 118.305 692.281C118.305 696.057 116.794 699.091 113.773 701.383C110.753 703.648 106.833 704.781 102.016 704.781C98.6302 704.781 95.6354 704.182 93.0312 702.984C90.4271 701.786 88.3828 700.12 86.8984 697.984C85.4401 695.823 84.7109 693.492 84.7109 690.992H91.9375C92.0677 693.414 93.0312 695.341 94.8281 696.773C96.651 698.18 99.0469 698.883 102.016 698.883C104.75 698.883 106.938 698.336 108.578 697.242C110.245 696.122 111.078 694.638 111.078 692.789ZM180.609 672.203H148.031V665.914H180.609V672.203ZM180.609 688.414H148.031V682.164H180.609V688.414ZM209.555 682.516C209.555 676.031 211.091 670.823 214.164 666.891C217.237 662.932 221.26 660.953 226.234 660.953C231.182 660.953 235.102 662.646 237.992 666.031V644H245.219V704H238.578L238.227 699.469C235.336 703.01 231.312 704.781 226.156 704.781C221.26 704.781 217.263 702.776 214.164 698.766C211.091 694.755 209.555 689.521 209.555 683.062V682.516ZM216.781 683.336C216.781 688.128 217.771 691.878 219.75 694.586C221.729 697.294 224.464 698.648 227.953 698.648C232.536 698.648 235.883 696.591 237.992 692.477V673.062C235.831 669.078 232.51 667.086 228.031 667.086C224.49 667.086 221.729 668.453 219.75 671.188C217.771 673.922 216.781 677.971 216.781 683.336ZM264.32 704H257.094V661.734H264.32V704ZM256.508 650.523C256.508 649.352 256.859 648.362 257.562 647.555C258.292 646.747 259.359 646.344 260.766 646.344C262.172 646.344 263.24 646.747 263.969 647.555C264.698 648.362 265.062 649.352 265.062 650.523C265.062 651.695 264.698 652.672 263.969 653.453C263.24 654.234 262.172 654.625 260.766 654.625C259.359 654.625 258.292 654.234 257.562 653.453C256.859 652.672 256.508 651.695 256.508 650.523ZM300.531 692.789C300.531 690.836 299.789 689.326 298.305 688.258C296.846 687.164 294.281 686.227 290.609 685.445C286.964 684.664 284.06 683.727 281.898 682.633C279.763 681.539 278.174 680.237 277.133 678.727C276.117 677.216 275.609 675.419 275.609 673.336C275.609 669.872 277.068 666.943 279.984 664.547C282.927 662.151 286.677 660.953 291.234 660.953C296.026 660.953 299.906 662.19 302.875 664.664C305.87 667.138 307.367 670.302 307.367 674.156H300.102C300.102 672.177 299.255 670.471 297.562 669.039C295.896 667.607 293.786 666.891 291.234 666.891C288.604 666.891 286.547 667.464 285.062 668.609C283.578 669.755 282.836 671.253 282.836 673.102C282.836 674.846 283.526 676.161 284.906 677.047C286.286 677.932 288.773 678.779 292.367 679.586C295.987 680.393 298.917 681.357 301.156 682.477C303.396 683.596 305.049 684.951 306.117 686.539C307.211 688.102 307.758 690.016 307.758 692.281C307.758 696.057 306.247 699.091 303.227 701.383C300.206 703.648 296.286 704.781 291.469 704.781C288.083 704.781 285.089 704.182 282.484 702.984C279.88 701.786 277.836 700.12 276.352 697.984C274.893 695.823 274.164 693.492 274.164 690.992H281.391C281.521 693.414 282.484 695.341 284.281 696.773C286.104 698.18 288.5 698.883 291.469 698.883C294.203 698.883 296.391 698.336 298.031 697.242C299.698 696.122 300.531 694.638 300.531 692.789ZM326.977 651.5V661.734H334.867V667.32H326.977V693.531C326.977 695.224 327.328 696.5 328.031 697.359C328.734 698.193 329.932 698.609 331.625 698.609C332.458 698.609 333.604 698.453 335.062 698.141V704C333.161 704.521 331.312 704.781 329.516 704.781C326.286 704.781 323.852 703.805 322.211 701.852C320.57 699.898 319.75 697.125 319.75 693.531V667.32H312.055V661.734H319.75V651.5H326.977ZM369.438 704C369.021 703.167 368.682 701.682 368.422 699.547C365.062 703.036 361.052 704.781 356.391 704.781C352.224 704.781 348.799 703.609 346.117 701.266C343.461 698.896 342.133 695.901 342.133 692.281C342.133 687.88 343.799 684.469 347.133 682.047C350.492 679.599 355.206 678.375 361.273 678.375H368.305V675.055C368.305 672.529 367.549 670.523 366.039 669.039C364.529 667.529 362.302 666.773 359.359 666.773C356.781 666.773 354.62 667.424 352.875 668.727C351.13 670.029 350.258 671.604 350.258 673.453H342.992C342.992 671.344 343.734 669.312 345.219 667.359C346.729 665.38 348.76 663.818 351.312 662.672C353.891 661.526 356.716 660.953 359.789 660.953C364.659 660.953 368.474 662.177 371.234 664.625C373.995 667.047 375.427 670.393 375.531 674.664V694.117C375.531 697.997 376.026 701.083 377.016 703.375V704H369.438ZM357.445 698.492C359.711 698.492 361.859 697.906 363.891 696.734C365.922 695.562 367.393 694.039 368.305 692.164V683.492H362.641C353.786 683.492 349.359 686.083 349.359 691.266C349.359 693.531 350.115 695.302 351.625 696.578C353.135 697.854 355.076 698.492 357.445 698.492ZM393.695 661.734L393.93 667.047C397.159 662.984 401.378 660.953 406.586 660.953C415.518 660.953 420.023 665.992 420.102 676.07V704H412.875V676.031C412.849 672.984 412.146 670.732 410.766 669.273C409.411 667.815 407.289 667.086 404.398 667.086C402.055 667.086 399.997 667.711 398.227 668.961C396.456 670.211 395.076 671.852 394.086 673.883V704H386.859V661.734H393.695ZM447.953 698.883C450.531 698.883 452.784 698.102 454.711 696.539C456.638 694.977 457.706 693.023 457.914 690.68H464.75C464.62 693.102 463.786 695.406 462.25 697.594C460.714 699.781 458.656 701.526 456.078 702.828C453.526 704.13 450.818 704.781 447.953 704.781C442.198 704.781 437.615 702.867 434.203 699.039C430.818 695.185 429.125 689.924 429.125 683.258V682.047C429.125 677.932 429.88 674.273 431.391 671.07C432.901 667.867 435.062 665.38 437.875 663.609C440.714 661.839 444.06 660.953 447.914 660.953C452.654 660.953 456.586 662.372 459.711 665.211C462.862 668.049 464.542 671.734 464.75 676.266H457.914C457.706 673.531 456.664 671.292 454.789 669.547C452.94 667.776 450.648 666.891 447.914 666.891C444.242 666.891 441.391 668.219 439.359 670.875C437.354 673.505 436.352 677.32 436.352 682.32V683.688C436.352 688.557 437.354 692.307 439.359 694.938C441.365 697.568 444.229 698.883 447.953 698.883ZM490.414 704.781C484.685 704.781 480.023 702.906 476.43 699.156C472.836 695.38 471.039 690.341 471.039 684.039V682.711C471.039 678.518 471.833 674.781 473.422 671.5C475.036 668.193 477.276 665.615 480.141 663.766C483.031 661.891 486.156 660.953 489.516 660.953C495.01 660.953 499.281 662.763 502.328 666.383C505.375 670.003 506.898 675.185 506.898 681.93V684.938H478.266C478.37 689.104 479.581 692.477 481.898 695.055C484.242 697.607 487.211 698.883 490.805 698.883C493.357 698.883 495.518 698.362 497.289 697.32C499.06 696.279 500.609 694.898 501.938 693.18L506.352 696.617C502.81 702.06 497.497 704.781 490.414 704.781ZM489.516 666.891C486.599 666.891 484.151 667.958 482.172 670.094C480.193 672.203 478.969 675.172 478.5 679H499.672V678.453C499.464 674.781 498.474 671.943 496.703 669.938C494.932 667.906 492.536 666.891 489.516 666.891Z" fill="black"/>
<path d="M100.273 776.5V786.734H108.164V792.32H100.273V818.531C100.273 820.224 100.625 821.5 101.328 822.359C102.031 823.193 103.229 823.609 104.922 823.609C105.755 823.609 106.901 823.453 108.359 823.141V829C106.458 829.521 104.609 829.781 102.812 829.781C99.5833 829.781 97.1484 828.805 95.5078 826.852C93.8672 824.898 93.0469 822.125 93.0469 818.531V792.32H85.3516V786.734H93.0469V776.5H100.273ZM169.531 797.203H136.953V790.914H169.531V797.203ZM169.531 813.414H136.953V807.164H169.531V813.414ZM210.039 776.5V786.734H217.93V792.32H210.039V818.531C210.039 820.224 210.391 821.5 211.094 822.359C211.797 823.193 212.995 823.609 214.688 823.609C215.521 823.609 216.667 823.453 218.125 823.141V829C216.224 829.521 214.375 829.781 212.578 829.781C209.349 829.781 206.914 828.805 205.273 826.852C203.633 824.898 202.812 822.125 202.812 818.531V792.32H195.117V786.734H202.812V776.5H210.039ZM234.258 829H227.031V786.734H234.258V829ZM226.445 775.523C226.445 774.352 226.797 773.362 227.5 772.555C228.229 771.747 229.297 771.344 230.703 771.344C232.109 771.344 233.177 771.747 233.906 772.555C234.635 773.362 235 774.352 235 775.523C235 776.695 234.635 777.672 233.906 778.453C233.177 779.234 232.109 779.625 230.703 779.625C229.297 779.625 228.229 779.234 227.5 778.453C226.797 777.672 226.445 776.695 226.445 775.523ZM252.656 786.734L252.852 791.422C255.951 787.776 260.13 785.953 265.391 785.953C271.302 785.953 275.326 788.219 277.461 792.75C278.867 790.719 280.69 789.078 282.93 787.828C285.195 786.578 287.865 785.953 290.938 785.953C300.208 785.953 304.922 790.862 305.078 800.68V829H297.852V801.109C297.852 798.089 297.161 795.836 295.781 794.352C294.401 792.841 292.083 792.086 288.828 792.086C286.146 792.086 283.919 792.893 282.148 794.508C280.378 796.096 279.349 798.245 279.062 800.953V829H271.797V801.305C271.797 795.159 268.789 792.086 262.773 792.086C258.034 792.086 254.792 794.104 253.047 798.141V829H245.82V786.734H252.656ZM333.555 829.781C327.826 829.781 323.164 827.906 319.57 824.156C315.977 820.38 314.18 815.341 314.18 809.039V807.711C314.18 803.518 314.974 799.781 316.562 796.5C318.177 793.193 320.417 790.615 323.281 788.766C326.172 786.891 329.297 785.953 332.656 785.953C338.151 785.953 342.422 787.763 345.469 791.383C348.516 795.003 350.039 800.185 350.039 806.93V809.938H321.406C321.51 814.104 322.721 817.477 325.039 820.055C327.383 822.607 330.352 823.883 333.945 823.883C336.497 823.883 338.659 823.362 340.43 822.32C342.201 821.279 343.75 819.898 345.078 818.18L349.492 821.617C345.951 827.06 340.638 829.781 333.555 829.781ZM332.656 791.891C329.74 791.891 327.292 792.958 325.312 795.094C323.333 797.203 322.109 800.172 321.641 804H342.812V803.453C342.604 799.781 341.615 796.943 339.844 794.938C338.073 792.906 335.677 791.891 332.656 791.891Z" fill="black"/>
</svg>