<svg width="1124" height="763" viewBox="0 0 1124 763" fill="none" xmlns="http://www.w3.org/2000/svg">
<rect width="1124" height="763" fill="white"/>
<path d="M83.6084 108.794L101.89 56.0156H111.118L87.3877 120H79.917L56.2305 56.0156H65.415L83.6084 108.794ZM142.598 101.807C142.598 108.154 141.514 112.871 139.346 115.957C137.178 119.043 133.789 120.586 129.18 120.586C124.629 120.586 121.26 119.082 119.072 116.074C116.885 113.047 115.752 108.535 115.674 102.539V95.3027C115.674 89.0332 116.758 84.375 118.926 81.3281C121.094 78.2812 124.492 76.7578 129.121 76.7578C133.711 76.7578 137.09 78.2324 139.258 81.1816C141.426 84.1113 142.539 88.6426 142.598 94.7754V101.807ZM137.178 94.3945C137.178 89.8047 136.533 86.4648 135.244 84.375C133.955 82.2656 131.914 81.2109 129.121 81.2109C126.348 81.2109 124.326 82.2559 123.057 84.3457C121.787 86.4355 121.133 89.6484 121.094 93.9844V102.656C121.094 107.266 121.758 110.674 123.086 112.881C124.434 115.068 126.465 116.162 129.18 116.162C131.855 116.162 133.838 115.127 135.127 113.057C136.436 110.986 137.119 107.725 137.178 103.271V94.3945ZM197.764 85.6787H215.605V93.3691H197.764V113.584H189.59V93.3691H171.748V85.6787H189.59V67.002H197.764V85.6787ZM247.554 94.0283C247.554 87.4072 248.433 81.0498 250.19 74.9561C251.978 68.8623 254.629 63.3252 258.145 58.3447C261.66 53.3643 265.308 49.8486 269.087 47.7979L270.757 53.1592C266.479 56.4404 262.964 61.4502 260.21 68.1885C257.485 74.9268 255.991 82.4707 255.728 90.8203L255.684 94.5557C255.684 105.864 257.749 115.679 261.88 123.999C264.37 128.979 267.329 132.876 270.757 135.688L269.087 140.654C265.19 138.486 261.47 134.854 257.925 129.756C251.011 119.795 247.554 107.886 247.554 94.0283ZM307.979 120C307.51 119.062 307.129 117.393 306.836 114.99C303.057 118.916 298.545 120.879 293.301 120.879C288.613 120.879 284.761 119.561 281.743 116.924C278.755 114.258 277.261 110.889 277.261 106.816C277.261 101.865 279.136 98.0273 282.886 95.3027C286.665 92.5488 291.968 91.1719 298.794 91.1719H306.704V87.4365C306.704 84.5947 305.854 82.3389 304.155 80.6689C302.456 78.9697 299.951 78.1201 296.641 78.1201C293.74 78.1201 291.309 78.8525 289.346 80.3174C287.383 81.7822 286.401 83.5547 286.401 85.6348H278.228C278.228 83.2617 279.062 80.9766 280.732 78.7793C282.432 76.5527 284.717 74.7949 287.588 73.5059C290.488 72.2168 293.667 71.5723 297.124 71.5723C302.603 71.5723 306.895 72.9492 310 75.7031C313.105 78.4277 314.717 82.1924 314.834 86.9971V108.882C314.834 113.247 315.391 116.719 316.504 119.297V120H307.979ZM294.487 113.804C297.036 113.804 299.453 113.145 301.738 111.826C304.023 110.508 305.679 108.794 306.704 106.685V96.9287H300.332C290.371 96.9287 285.391 99.8438 285.391 105.674C285.391 108.223 286.24 110.215 287.939 111.65C289.639 113.086 291.821 113.804 294.487 113.804ZM358.252 76.8018L344.98 72.8467L347.002 66.2109L360.273 71.1328L359.878 56.0156H366.602L366.162 71.3525L379.214 66.5186L381.235 73.1982L367.744 77.1973L376.445 89.1064L370.996 93.2373L362.822 80.5811L354.912 92.9297L349.419 88.9307L358.252 76.8018ZM422.017 60.9375V72.4512H430.894V78.7354H422.017V108.223C422.017 110.127 422.412 111.562 423.203 112.529C423.994 113.467 425.342 113.936 427.246 113.936C428.184 113.936 429.473 113.76 431.113 113.408V120C428.975 120.586 426.895 120.879 424.873 120.879C421.24 120.879 418.501 119.78 416.655 117.583C414.81 115.386 413.887 112.266 413.887 108.223V78.7354H405.229V72.4512H413.887V60.9375H422.017ZM459.194 94.4678C459.194 101.001 458.33 107.271 456.602 113.276C454.902 119.253 452.28 124.775 448.735 129.844C445.22 134.912 441.528 138.516 437.661 140.654L435.947 135.688C440.459 132.231 444.077 126.87 446.802 119.604C449.556 112.31 450.962 104.224 451.021 95.3467V93.9404C451.021 87.7881 450.376 82.0752 449.087 76.8018C447.798 71.499 445.996 66.7529 443.682 62.5635C441.396 58.374 438.818 55.1074 435.947 52.7637L437.661 47.7979C441.528 49.9365 445.205 53.5107 448.691 58.5205C452.207 63.5303 454.829 69.0527 456.558 75.0879C458.315 81.123 459.194 87.583 459.194 94.4678ZM531.221 84.2285H494.57V77.1533H531.221V84.2285ZM531.221 102.466H494.57V95.4346H531.221V102.466ZM581.45 108.97L593.228 72.4512H601.533L584.482 120H578.286L561.06 72.4512H569.365L581.45 108.97Z" fill="black"/>
<path d="M86.6084 292.794L104.89 240.016H114.118L90.3877 304H82.917L59.2305 240.016H68.415L86.6084 292.794ZM145.598 285.807C145.598 292.154 144.514 296.871 142.346 299.957C140.178 303.043 136.789 304.586 132.18 304.586C127.629 304.586 124.26 303.082 122.072 300.074C119.885 297.047 118.752 292.535 118.674 286.539V279.303C118.674 273.033 119.758 268.375 121.926 265.328C124.094 262.281 127.492 260.758 132.121 260.758C136.711 260.758 140.09 262.232 142.258 265.182C144.426 268.111 145.539 272.643 145.598 278.775V285.807ZM140.178 278.395C140.178 273.805 139.533 270.465 138.244 268.375C136.955 266.266 134.914 265.211 132.121 265.211C129.348 265.211 127.326 266.256 126.057 268.346C124.787 270.436 124.133 273.648 124.094 277.984V286.656C124.094 291.266 124.758 294.674 126.086 296.881C127.434 299.068 129.465 300.162 132.18 300.162C134.855 300.162 136.838 299.127 138.127 297.057C139.436 294.986 140.119 291.725 140.178 287.271V278.395ZM212.17 268.229H175.52V261.153H212.17V268.229ZM212.17 286.466H175.52V279.435H212.17V286.466ZM274.396 291.388C274.396 289.19 273.562 287.491 271.892 286.29C270.251 285.06 267.365 284.005 263.234 283.126C259.133 282.247 255.866 281.192 253.435 279.962C251.032 278.731 249.245 277.267 248.073 275.567C246.931 273.868 246.359 271.847 246.359 269.503C246.359 265.606 248 262.311 251.281 259.615C254.592 256.92 258.811 255.572 263.938 255.572C269.328 255.572 273.693 256.964 277.033 259.747C280.402 262.53 282.087 266.09 282.087 270.426H273.913C273.913 268.199 272.961 266.28 271.057 264.669C269.182 263.058 266.809 262.252 263.938 262.252C260.979 262.252 258.664 262.896 256.994 264.186C255.324 265.475 254.489 267.159 254.489 269.239C254.489 271.202 255.266 272.682 256.818 273.678C258.371 274.674 261.169 275.626 265.212 276.534C269.284 277.442 272.58 278.526 275.1 279.786C277.619 281.046 279.479 282.569 280.681 284.356C281.911 286.114 282.526 288.268 282.526 290.816C282.526 295.064 280.827 298.478 277.429 301.056C274.03 303.604 269.621 304.879 264.201 304.879C260.393 304.879 257.023 304.205 254.094 302.857C251.164 301.51 248.864 299.635 247.194 297.232C245.554 294.801 244.733 292.179 244.733 289.366H252.863C253.01 292.091 254.094 294.259 256.115 295.87C258.166 297.452 260.861 298.243 264.201 298.243C267.277 298.243 269.738 297.628 271.584 296.397C273.459 295.138 274.396 293.468 274.396 291.388ZM304.147 244.938V256.451H313.024V262.735H304.147V292.223C304.147 294.127 304.543 295.562 305.334 296.529C306.125 297.467 307.473 297.936 309.377 297.936C310.314 297.936 311.604 297.76 313.244 297.408V304C311.105 304.586 309.025 304.879 307.004 304.879C303.371 304.879 300.632 303.78 298.786 301.583C296.94 299.386 296.018 296.266 296.018 292.223V262.735H287.36V256.451H296.018V244.938H304.147ZM351.916 304C351.447 303.062 351.066 301.393 350.773 298.99C346.994 302.916 342.482 304.879 337.238 304.879C332.551 304.879 328.698 303.561 325.681 300.924C322.692 298.258 321.198 294.889 321.198 290.816C321.198 285.865 323.073 282.027 326.823 279.303C330.603 276.549 335.905 275.172 342.731 275.172H350.642V271.437C350.642 268.595 349.792 266.339 348.093 264.669C346.394 262.97 343.889 262.12 340.578 262.12C337.678 262.12 335.246 262.853 333.283 264.317C331.32 265.782 330.339 267.555 330.339 269.635H322.165C322.165 267.262 323 264.977 324.67 262.779C326.369 260.553 328.654 258.795 331.525 257.506C334.426 256.217 337.604 255.572 341.062 255.572C346.54 255.572 350.832 256.949 353.938 259.703C357.043 262.428 358.654 266.192 358.771 270.997V292.882C358.771 297.247 359.328 300.719 360.441 303.297V304H351.916ZM338.425 297.804C340.974 297.804 343.391 297.145 345.676 295.826C347.961 294.508 349.616 292.794 350.642 290.685V280.929H344.27C334.309 280.929 329.328 283.844 329.328 289.674C329.328 292.223 330.178 294.215 331.877 295.65C333.576 297.086 335.759 297.804 338.425 297.804ZM394.499 263.746C393.269 263.541 391.936 263.438 390.5 263.438C385.168 263.438 381.55 265.709 379.646 270.25V304H371.516V256.451H379.426L379.558 261.944C382.224 257.696 386.003 255.572 390.896 255.572C392.478 255.572 393.679 255.777 394.499 256.188V263.746ZM415.241 244.938V256.451H424.118V262.735H415.241V292.223C415.241 294.127 415.637 295.562 416.428 296.529C417.219 297.467 418.566 297.936 420.471 297.936C421.408 297.936 422.697 297.76 424.338 297.408V304C422.199 304.586 420.119 304.879 418.098 304.879C414.465 304.879 411.726 303.78 409.88 301.583C408.034 299.386 407.111 296.266 407.111 292.223V262.735H398.454V256.451H407.111V244.938H415.241ZM442.487 304H434.357V256.451H442.487V304ZM433.698 243.839C433.698 242.521 434.094 241.407 434.885 240.499C435.705 239.591 436.906 239.137 438.488 239.137C440.07 239.137 441.271 239.591 442.092 240.499C442.912 241.407 443.322 242.521 443.322 243.839C443.322 245.157 442.912 246.256 442.092 247.135C441.271 248.014 440.07 248.453 438.488 248.453C436.906 248.453 435.705 248.014 434.885 247.135C434.094 246.256 433.698 245.157 433.698 243.839ZM463.229 256.451L463.493 262.428C467.126 257.857 471.872 255.572 477.731 255.572C487.78 255.572 492.849 261.241 492.937 272.579V304H484.807V272.535C484.777 269.107 483.986 266.573 482.434 264.933C480.91 263.292 478.522 262.472 475.271 262.472C472.634 262.472 470.319 263.175 468.327 264.581C466.335 265.987 464.782 267.833 463.669 270.118V304H455.539V256.451H463.229ZM503.264 279.83C503.264 272.418 504.978 266.529 508.405 262.164C511.833 257.77 516.374 255.572 522.028 255.572C527.829 255.572 532.355 257.623 535.607 261.725L536.003 256.451H543.43V302.857C543.43 309.01 541.599 313.858 537.937 317.403C534.304 320.948 529.411 322.721 523.259 322.721C519.831 322.721 516.477 321.988 513.195 320.523C509.914 319.059 507.409 317.052 505.681 314.503L509.899 309.625C513.386 313.932 517.648 316.085 522.688 316.085C526.643 316.085 529.719 314.972 531.916 312.745C534.143 310.519 535.256 307.384 535.256 303.341V299.254C532.004 303.004 527.565 304.879 521.94 304.879C516.374 304.879 511.862 302.638 508.405 298.155C504.978 293.673 503.264 287.564 503.264 279.83ZM511.438 280.753C511.438 286.114 512.536 290.333 514.733 293.409C516.931 296.456 520.007 297.979 523.962 297.979C529.089 297.979 532.854 295.65 535.256 290.992V269.283C532.766 264.742 529.03 262.472 524.05 262.472C520.095 262.472 517.004 264.01 514.777 267.086C512.551 270.162 511.438 274.718 511.438 280.753ZM605.744 291.388C605.744 289.19 604.909 287.491 603.239 286.29C601.599 285.06 598.713 284.005 594.582 283.126C590.48 282.247 587.214 281.192 584.782 279.962C582.38 278.731 580.593 277.267 579.421 275.567C578.278 273.868 577.707 271.847 577.707 269.503C577.707 265.606 579.348 262.311 582.629 259.615C585.939 256.92 590.158 255.572 595.285 255.572C600.676 255.572 605.041 256.964 608.381 259.747C611.75 262.53 613.435 266.09 613.435 270.426H605.261C605.261 268.199 604.309 266.28 602.404 264.669C600.529 263.058 598.156 262.252 595.285 262.252C592.326 262.252 590.012 262.896 588.342 264.186C586.672 265.475 585.837 267.159 585.837 269.239C585.837 271.202 586.613 272.682 588.166 273.678C589.719 274.674 592.517 275.626 596.56 276.534C600.632 277.442 603.928 278.526 606.447 279.786C608.967 281.046 610.827 282.569 612.028 284.356C613.259 286.114 613.874 288.268 613.874 290.816C613.874 295.064 612.175 298.478 608.776 301.056C605.378 303.604 600.969 304.879 595.549 304.879C591.74 304.879 588.371 304.205 585.441 302.857C582.512 301.51 580.212 299.635 578.542 297.232C576.901 294.801 576.081 292.179 576.081 289.366H584.211C584.357 292.091 585.441 294.259 587.463 295.87C589.514 297.452 592.209 298.243 595.549 298.243C598.625 298.243 601.086 297.628 602.932 296.397C604.807 295.138 605.744 293.468 605.744 291.388ZM664.631 280.753C664.631 287.989 662.976 293.819 659.665 298.243C656.354 302.667 651.872 304.879 646.218 304.879C640.446 304.879 635.905 303.048 632.595 299.386V322.281H624.465V256.451H631.892L632.287 261.725C635.598 257.623 640.197 255.572 646.086 255.572C651.799 255.572 656.311 257.726 659.621 262.032C662.961 266.339 664.631 272.33 664.631 280.006V280.753ZM656.501 279.83C656.501 274.469 655.358 270.235 653.073 267.13C650.788 264.024 647.653 262.472 643.669 262.472C638.747 262.472 635.056 264.654 632.595 269.02V291.739C635.026 296.075 638.747 298.243 643.757 298.243C647.653 298.243 650.744 296.705 653.029 293.629C655.344 290.523 656.501 285.924 656.501 279.83ZM694.733 304.879C688.288 304.879 683.044 302.77 679.001 298.551C674.958 294.303 672.937 288.634 672.937 281.544V280.05C672.937 275.333 673.83 271.129 675.617 267.438C677.434 263.717 679.953 260.816 683.176 258.736C686.428 256.627 689.943 255.572 693.723 255.572C699.904 255.572 704.709 257.608 708.137 261.681C711.564 265.753 713.278 271.583 713.278 279.171V282.555H681.066C681.184 287.242 682.546 291.036 685.153 293.937C687.79 296.808 691.13 298.243 695.173 298.243C698.044 298.243 700.476 297.657 702.468 296.485C704.46 295.313 706.203 293.761 707.697 291.827L712.663 295.694C708.679 301.817 702.702 304.879 694.733 304.879ZM693.723 262.252C690.441 262.252 687.688 263.453 685.461 265.855C683.234 268.229 681.857 271.568 681.33 275.875H705.148V275.26C704.914 271.129 703.801 267.936 701.809 265.68C699.816 263.395 697.121 262.252 693.723 262.252ZM742.458 304.879C736.013 304.879 730.769 302.77 726.726 298.551C722.683 294.303 720.661 288.634 720.661 281.544V280.05C720.661 275.333 721.555 271.129 723.342 267.438C725.158 263.717 727.678 260.816 730.9 258.736C734.152 256.627 737.668 255.572 741.447 255.572C747.629 255.572 752.434 257.608 755.861 261.681C759.289 265.753 761.003 271.583 761.003 279.171V282.555H728.791C728.908 287.242 730.271 291.036 732.878 293.937C735.515 296.808 738.854 298.243 742.897 298.243C745.769 298.243 748.2 297.657 750.192 296.485C752.185 295.313 753.928 293.761 755.422 291.827L760.388 295.694C756.403 301.817 750.427 304.879 742.458 304.879ZM741.447 262.252C738.166 262.252 735.412 263.453 733.186 265.855C730.959 268.229 729.582 271.568 729.055 275.875H752.873V275.26C752.639 271.129 751.525 267.936 749.533 265.68C747.541 263.395 744.846 262.252 741.447 262.252ZM768.474 279.83C768.474 272.535 770.202 266.676 773.659 262.252C777.116 257.799 781.643 255.572 787.238 255.572C792.805 255.572 797.214 257.477 800.466 261.285V236.5H808.596V304H801.125L800.729 298.902C797.478 302.887 792.951 304.879 787.15 304.879C781.643 304.879 777.146 302.623 773.659 298.111C770.202 293.6 768.474 287.711 768.474 280.445V279.83ZM776.604 280.753C776.604 286.144 777.717 290.362 779.943 293.409C782.17 296.456 785.246 297.979 789.172 297.979C794.328 297.979 798.093 295.665 800.466 291.036V269.195C798.034 264.713 794.299 262.472 789.26 262.472C785.275 262.472 782.17 264.01 779.943 267.086C777.717 270.162 776.604 274.718 776.604 280.753Z" fill="black"/>
<path d="M103.508 430C103.039 429.062 102.658 427.393 102.365 424.99C98.5859 428.916 94.0742 430.879 88.8301 430.879C84.1426 430.879 80.29 429.561 77.2725 426.924C74.2842 424.258 72.79 420.889 72.79 416.816C72.79 411.865 74.665 408.027 78.415 405.303C82.1943 402.549 87.4971 401.172 94.3232 401.172H102.233V397.437C102.233 394.595 101.384 392.339 99.6846 390.669C97.9854 388.97 95.4805 388.12 92.1699 388.12C89.2695 388.12 86.8379 388.853 84.875 390.317C82.9121 391.782 81.9307 393.555 81.9307 395.635H73.7568C73.7568 393.262 74.5918 390.977 76.2617 388.779C77.9609 386.553 80.2461 384.795 83.1172 383.506C86.0176 382.217 89.1963 381.572 92.6533 381.572C98.1318 381.572 102.424 382.949 105.529 385.703C108.635 388.428 110.246 392.192 110.363 396.997V418.882C110.363 423.247 110.92 426.719 112.033 429.297V430H103.508ZM90.0166 423.804C92.5654 423.804 94.9824 423.145 97.2676 421.826C99.5527 420.508 101.208 418.794 102.233 416.685V406.929H95.8613C85.9004 406.929 80.9199 409.844 80.9199 415.674C80.9199 418.223 81.7695 420.215 83.4688 421.65C85.168 423.086 87.3506 423.804 90.0166 423.804ZM182.609 394.229H145.959V387.153H182.609V394.229ZM182.609 412.466H145.959V405.435H182.609V412.466ZM246.506 430C246.037 429.062 245.656 427.393 245.363 424.99C241.584 428.916 237.072 430.879 231.828 430.879C227.141 430.879 223.288 429.561 220.271 426.924C217.282 424.258 215.788 420.889 215.788 416.816C215.788 411.865 217.663 408.027 221.413 405.303C225.192 402.549 230.495 401.172 237.321 401.172H245.231V397.437C245.231 394.595 244.382 392.339 242.683 390.669C240.983 388.97 238.479 388.12 235.168 388.12C232.268 388.12 229.836 388.853 227.873 390.317C225.91 391.782 224.929 393.555 224.929 395.635H216.755C216.755 393.262 217.59 390.977 219.26 388.779C220.959 386.553 223.244 384.795 226.115 383.506C229.016 382.217 232.194 381.572 235.651 381.572C241.13 381.572 245.422 382.949 248.527 385.703C251.633 388.428 253.244 392.192 253.361 396.997V418.882C253.361 423.247 253.918 426.719 255.031 429.297V430H246.506ZM233.015 423.804C235.563 423.804 237.98 423.145 240.266 421.826C242.551 420.508 244.206 418.794 245.231 416.685V406.929H238.859C228.898 406.929 223.918 409.844 223.918 415.674C223.918 418.223 224.768 420.215 226.467 421.65C228.166 423.086 230.349 423.804 233.015 423.804ZM285.178 424.243C288.078 424.243 290.612 423.364 292.78 421.606C294.948 419.849 296.149 417.651 296.384 415.015H304.074C303.928 417.739 302.99 420.332 301.262 422.793C299.533 425.254 297.219 427.217 294.318 428.682C291.447 430.146 288.4 430.879 285.178 430.879C278.703 430.879 273.547 428.726 269.709 424.419C265.9 420.083 263.996 414.165 263.996 406.665V405.303C263.996 400.674 264.846 396.558 266.545 392.954C268.244 389.351 270.676 386.553 273.84 384.561C277.033 382.568 280.798 381.572 285.134 381.572C290.466 381.572 294.89 383.169 298.405 386.362C301.95 389.556 303.84 393.701 304.074 398.799H296.384C296.149 395.723 294.978 393.203 292.868 391.24C290.788 389.248 288.21 388.252 285.134 388.252C281.003 388.252 277.795 389.746 275.51 392.734C273.254 395.693 272.126 399.985 272.126 405.61V407.148C272.126 412.627 273.254 416.846 275.51 419.805C277.766 422.764 280.988 424.243 285.178 424.243ZM332.287 424.243C335.188 424.243 337.722 423.364 339.89 421.606C342.058 419.849 343.259 417.651 343.493 415.015H351.184C351.037 417.739 350.1 420.332 348.371 422.793C346.643 425.254 344.328 427.217 341.428 428.682C338.557 430.146 335.51 430.879 332.287 430.879C325.812 430.879 320.656 428.726 316.818 424.419C313.01 420.083 311.105 414.165 311.105 406.665V405.303C311.105 400.674 311.955 396.558 313.654 392.954C315.354 389.351 317.785 386.553 320.949 384.561C324.143 382.568 327.907 381.572 332.243 381.572C337.575 381.572 341.999 383.169 345.515 386.362C349.06 389.556 350.949 393.701 351.184 398.799H343.493C343.259 395.723 342.087 393.203 339.978 391.24C337.897 389.248 335.319 388.252 332.243 388.252C328.112 388.252 324.904 389.746 322.619 392.734C320.363 395.693 319.235 399.985 319.235 405.61V407.148C319.235 412.627 320.363 416.846 322.619 419.805C324.875 422.764 328.098 424.243 332.287 424.243ZM380.056 430.879C373.61 430.879 368.366 428.77 364.323 424.551C360.28 420.303 358.259 414.634 358.259 407.544V406.05C358.259 401.333 359.152 397.129 360.939 393.438C362.756 389.717 365.275 386.816 368.498 384.736C371.75 382.627 375.266 381.572 379.045 381.572C385.227 381.572 390.031 383.608 393.459 387.681C396.887 391.753 398.601 397.583 398.601 405.171V408.555H366.389C366.506 413.242 367.868 417.036 370.476 419.937C373.112 422.808 376.452 424.243 380.495 424.243C383.366 424.243 385.798 423.657 387.79 422.485C389.782 421.313 391.525 419.761 393.02 417.827L397.985 421.694C394.001 427.817 388.024 430.879 380.056 430.879ZM379.045 388.252C375.764 388.252 373.01 389.453 370.783 391.855C368.557 394.229 367.18 397.568 366.652 401.875H390.471V401.26C390.236 397.129 389.123 393.936 387.131 391.68C385.139 389.395 382.443 388.252 379.045 388.252ZM416.882 430H408.752V362.5H416.882V430ZM449.665 430.879C443.22 430.879 437.976 428.77 433.933 424.551C429.89 420.303 427.868 414.634 427.868 407.544V406.05C427.868 401.333 428.762 397.129 430.549 393.438C432.365 389.717 434.885 386.816 438.107 384.736C441.359 382.627 444.875 381.572 448.654 381.572C454.836 381.572 459.641 383.608 463.068 387.681C466.496 391.753 468.21 397.583 468.21 405.171V408.555H435.998C436.115 413.242 437.478 417.036 440.085 419.937C442.722 422.808 446.062 424.243 450.104 424.243C452.976 424.243 455.407 423.657 457.399 422.485C459.392 421.313 461.135 419.761 462.629 417.827L467.595 421.694C463.61 427.817 457.634 430.879 449.665 430.879ZM448.654 388.252C445.373 388.252 442.619 389.453 440.393 391.855C438.166 394.229 436.789 397.568 436.262 401.875H460.08V401.26C459.846 397.129 458.732 393.936 456.74 391.68C454.748 389.395 452.053 388.252 448.654 388.252ZM500.642 389.746C499.411 389.541 498.078 389.438 496.643 389.438C491.311 389.438 487.692 391.709 485.788 396.25V430H477.658V382.451H485.568L485.7 387.944C488.366 383.696 492.146 381.572 497.038 381.572C498.62 381.572 499.821 381.777 500.642 382.188V389.746ZM535.754 430C535.285 429.062 534.904 427.393 534.611 424.99C530.832 428.916 526.32 430.879 521.076 430.879C516.389 430.879 512.536 429.561 509.519 426.924C506.53 424.258 505.036 420.889 505.036 416.816C505.036 411.865 506.911 408.027 510.661 405.303C514.44 402.549 519.743 401.172 526.569 401.172H534.479V397.437C534.479 394.595 533.63 392.339 531.931 390.669C530.231 388.97 527.727 388.12 524.416 388.12C521.516 388.12 519.084 388.853 517.121 390.317C515.158 391.782 514.177 393.555 514.177 395.635H506.003C506.003 393.262 506.838 390.977 508.508 388.779C510.207 386.553 512.492 384.795 515.363 383.506C518.264 382.217 521.442 381.572 524.899 381.572C530.378 381.572 534.67 382.949 537.775 385.703C540.881 388.428 542.492 392.192 542.609 396.997V418.882C542.609 423.247 543.166 426.719 544.279 429.297V430H535.754ZM522.263 423.804C524.812 423.804 527.229 423.145 529.514 421.826C531.799 420.508 533.454 418.794 534.479 416.685V406.929H528.107C518.146 406.929 513.166 409.844 513.166 415.674C513.166 418.223 514.016 420.215 515.715 421.65C517.414 423.086 519.597 423.804 522.263 423.804ZM566.384 370.938V382.451H575.261V388.735H566.384V418.223C566.384 420.127 566.779 421.562 567.57 422.529C568.361 423.467 569.709 423.936 571.613 423.936C572.551 423.936 573.84 423.76 575.48 423.408V430C573.342 430.586 571.262 430.879 569.24 430.879C565.607 430.879 562.868 429.78 561.022 427.583C559.177 425.386 558.254 422.266 558.254 418.223V388.735H549.597V382.451H558.254V370.938H566.384ZM593.63 430H585.5V382.451H593.63V430ZM584.841 369.839C584.841 368.521 585.236 367.407 586.027 366.499C586.848 365.591 588.049 365.137 589.631 365.137C591.213 365.137 592.414 365.591 593.234 366.499C594.055 367.407 594.465 368.521 594.465 369.839C594.465 371.157 594.055 372.256 593.234 373.135C592.414 374.014 591.213 374.453 589.631 374.453C588.049 374.453 586.848 374.014 586.027 373.135C585.236 372.256 584.841 371.157 584.841 369.839ZM604.528 405.786C604.528 401.128 605.437 396.938 607.253 393.218C609.099 389.497 611.647 386.626 614.899 384.604C618.181 382.583 621.916 381.572 626.105 381.572C632.58 381.572 637.81 383.813 641.794 388.296C645.808 392.778 647.814 398.74 647.814 406.182V406.753C647.814 411.382 646.921 415.542 645.134 419.233C643.376 422.896 640.842 425.752 637.531 427.803C634.25 429.854 630.471 430.879 626.193 430.879C619.748 430.879 614.519 428.638 610.505 424.155C606.521 419.673 604.528 413.74 604.528 406.357V405.786ZM612.702 406.753C612.702 412.026 613.918 416.26 616.35 419.453C618.811 422.646 622.092 424.243 626.193 424.243C630.324 424.243 633.605 422.632 636.037 419.409C638.469 416.157 639.685 411.616 639.685 405.786C639.685 400.571 638.439 396.353 635.949 393.13C633.488 389.878 630.207 388.252 626.105 388.252C622.092 388.252 618.854 389.849 616.394 393.042C613.933 396.235 612.702 400.806 612.702 406.753ZM665.7 382.451L665.964 388.428C669.597 383.857 674.343 381.572 680.202 381.572C690.251 381.572 695.319 387.241 695.407 398.579V430H687.277V398.535C687.248 395.107 686.457 392.573 684.904 390.933C683.381 389.292 680.993 388.472 677.741 388.472C675.104 388.472 672.79 389.175 670.798 390.581C668.806 391.987 667.253 393.833 666.14 396.118V430H658.01V382.451H665.7Z" fill="black"/>
<path d="M85.1826 475.938V487.451H94.0596V493.735H85.1826V523.223C85.1826 525.127 85.5781 526.562 86.3691 527.529C87.1602 528.467 88.5078 528.936 90.4121 528.936C91.3496 528.936 92.6387 528.76 94.2793 528.408V535C92.1406 535.586 90.0605 535.879 88.0391 535.879C84.4062 535.879 81.667 534.78 79.8213 532.583C77.9756 530.386 77.0527 527.266 77.0527 523.223V493.735H68.3955V487.451H77.0527V475.938H85.1826ZM163.098 499.229H126.447V492.153H163.098V499.229ZM163.098 517.466H126.447V510.435H163.098V517.466ZM208.669 475.938V487.451H217.546V493.735H208.669V523.223C208.669 525.127 209.064 526.562 209.855 527.529C210.646 528.467 211.994 528.936 213.898 528.936C214.836 528.936 216.125 528.76 217.766 528.408V535C215.627 535.586 213.547 535.879 211.525 535.879C207.893 535.879 205.153 534.78 203.308 532.583C201.462 530.386 200.539 527.266 200.539 523.223V493.735H191.882V487.451H200.539V475.938H208.669ZM235.915 535H227.785V487.451H235.915V535ZM227.126 474.839C227.126 473.521 227.521 472.407 228.312 471.499C229.133 470.591 230.334 470.137 231.916 470.137C233.498 470.137 234.699 470.591 235.52 471.499C236.34 472.407 236.75 473.521 236.75 474.839C236.75 476.157 236.34 477.256 235.52 478.135C234.699 479.014 233.498 479.453 231.916 479.453C230.334 479.453 229.133 479.014 228.312 478.135C227.521 477.256 227.126 476.157 227.126 474.839ZM256.613 487.451L256.833 492.725C260.319 488.623 265.021 486.572 270.939 486.572C277.59 486.572 282.116 489.121 284.519 494.219C286.101 491.934 288.151 490.088 290.671 488.682C293.22 487.275 296.223 486.572 299.68 486.572C310.109 486.572 315.412 492.095 315.588 503.14V535H307.458V503.623C307.458 500.225 306.682 497.69 305.129 496.021C303.576 494.321 300.969 493.472 297.307 493.472C294.289 493.472 291.784 494.38 289.792 496.196C287.8 497.983 286.643 500.4 286.32 503.447V535H278.146V503.843C278.146 496.929 274.763 493.472 267.995 493.472C262.663 493.472 259.016 495.742 257.053 500.283V535H248.923V487.451H256.613ZM347.624 535.879C341.179 535.879 335.935 533.77 331.892 529.551C327.849 525.303 325.827 519.634 325.827 512.544V511.05C325.827 506.333 326.721 502.129 328.508 498.438C330.324 494.717 332.844 491.816 336.066 489.736C339.318 487.627 342.834 486.572 346.613 486.572C352.795 486.572 357.6 488.608 361.027 492.681C364.455 496.753 366.169 502.583 366.169 510.171V513.555H333.957C334.074 518.242 335.437 522.036 338.044 524.937C340.681 527.808 344.021 529.243 348.063 529.243C350.935 529.243 353.366 528.657 355.358 527.485C357.351 526.313 359.094 524.761 360.588 522.827L365.554 526.694C361.569 532.817 355.593 535.879 347.624 535.879ZM346.613 493.252C343.332 493.252 340.578 494.453 338.352 496.855C336.125 499.229 334.748 502.568 334.221 506.875H358.039V506.26C357.805 502.129 356.691 498.936 354.699 496.68C352.707 494.395 350.012 493.252 346.613 493.252Z" fill="black"/>
<path d="M90.8408 676.97L102.618 640.451H110.924L93.873 688H87.6768L70.4502 640.451H78.7559L90.8408 676.97ZM178.248 652.229H141.598V645.153H178.248V652.229ZM178.248 670.466H141.598V663.435H178.248V670.466ZM240.475 675.388C240.475 673.19 239.64 671.491 237.97 670.29C236.329 669.06 233.443 668.005 229.312 667.126C225.211 666.247 221.944 665.192 219.513 663.962C217.11 662.731 215.323 661.267 214.151 659.567C213.009 657.868 212.438 655.847 212.438 653.503C212.438 649.606 214.078 646.311 217.359 643.615C220.67 640.92 224.889 639.572 230.016 639.572C235.406 639.572 239.771 640.964 243.111 643.747C246.48 646.53 248.165 650.09 248.165 654.426H239.991C239.991 652.199 239.039 650.28 237.135 648.669C235.26 647.058 232.887 646.252 230.016 646.252C227.057 646.252 224.742 646.896 223.072 648.186C221.402 649.475 220.567 651.159 220.567 653.239C220.567 655.202 221.344 656.682 222.896 657.678C224.449 658.674 227.247 659.626 231.29 660.534C235.362 661.442 238.658 662.526 241.178 663.786C243.697 665.046 245.558 666.569 246.759 668.356C247.989 670.114 248.604 672.268 248.604 674.816C248.604 679.064 246.905 682.478 243.507 685.056C240.108 687.604 235.699 688.879 230.279 688.879C226.471 688.879 223.102 688.205 220.172 686.857C217.242 685.51 214.942 683.635 213.272 681.232C211.632 678.801 210.812 676.179 210.812 673.366H218.941C219.088 676.091 220.172 678.259 222.193 679.87C224.244 681.452 226.939 682.243 230.279 682.243C233.355 682.243 235.816 681.628 237.662 680.397C239.537 679.138 240.475 677.468 240.475 675.388ZM299.361 664.753C299.361 671.989 297.706 677.819 294.396 682.243C291.085 686.667 286.603 688.879 280.948 688.879C275.177 688.879 270.636 687.048 267.325 683.386V706.281H259.195V640.451H266.622L267.018 645.725C270.328 641.623 274.928 639.572 280.816 639.572C286.529 639.572 291.041 641.726 294.352 646.032C297.691 650.339 299.361 656.33 299.361 664.006V664.753ZM291.231 663.83C291.231 658.469 290.089 654.235 287.804 651.13C285.519 648.024 282.384 646.472 278.399 646.472C273.478 646.472 269.786 648.654 267.325 653.02V675.739C269.757 680.075 273.478 682.243 278.487 682.243C282.384 682.243 285.475 680.705 287.76 677.629C290.074 674.523 291.231 669.924 291.231 663.83ZM329.464 688.879C323.019 688.879 317.774 686.77 313.731 682.551C309.688 678.303 307.667 672.634 307.667 665.544V664.05C307.667 659.333 308.561 655.129 310.348 651.438C312.164 647.717 314.684 644.816 317.906 642.736C321.158 640.627 324.674 639.572 328.453 639.572C334.635 639.572 339.439 641.608 342.867 645.681C346.295 649.753 348.009 655.583 348.009 663.171V666.555H315.797C315.914 671.242 317.276 675.036 319.884 677.937C322.521 680.808 325.86 682.243 329.903 682.243C332.774 682.243 335.206 681.657 337.198 680.485C339.19 679.313 340.934 677.761 342.428 675.827L347.394 679.694C343.409 685.817 337.433 688.879 329.464 688.879ZM328.453 646.252C325.172 646.252 322.418 647.453 320.191 649.855C317.965 652.229 316.588 655.568 316.061 659.875H339.879V659.26C339.645 655.129 338.531 651.936 336.539 649.68C334.547 647.395 331.852 646.252 328.453 646.252ZM377.188 688.879C370.743 688.879 365.499 686.77 361.456 682.551C357.413 678.303 355.392 672.634 355.392 665.544V664.05C355.392 659.333 356.285 655.129 358.072 651.438C359.889 647.717 362.408 644.816 365.631 642.736C368.883 640.627 372.398 639.572 376.178 639.572C382.359 639.572 387.164 641.608 390.592 645.681C394.02 649.753 395.733 655.583 395.733 663.171V666.555H363.521C363.639 671.242 365.001 675.036 367.608 677.937C370.245 680.808 373.585 682.243 377.628 682.243C380.499 682.243 382.931 681.657 384.923 680.485C386.915 679.313 388.658 677.761 390.152 675.827L395.118 679.694C391.134 685.817 385.157 688.879 377.188 688.879ZM376.178 646.252C372.896 646.252 370.143 647.453 367.916 649.855C365.689 652.229 364.312 655.568 363.785 659.875H387.604V659.26C387.369 655.129 386.256 651.936 384.264 649.68C382.271 647.395 379.576 646.252 376.178 646.252ZM403.204 663.83C403.204 656.535 404.933 650.676 408.39 646.252C411.847 641.799 416.373 639.572 421.969 639.572C427.535 639.572 431.944 641.477 435.196 645.285V620.5H443.326V688H435.855L435.46 682.902C432.208 686.887 427.682 688.879 421.881 688.879C416.373 688.879 411.876 686.623 408.39 682.111C404.933 677.6 403.204 671.711 403.204 664.445V663.83ZM411.334 664.753C411.334 670.144 412.447 674.362 414.674 677.409C416.9 680.456 419.977 681.979 423.902 681.979C429.059 681.979 432.823 679.665 435.196 675.036V653.195C432.765 648.713 429.029 646.472 423.99 646.472C420.006 646.472 416.9 648.01 414.674 651.086C412.447 654.162 411.334 658.718 411.334 664.753Z" fill="black"/>
</svg>